<svg width="731" height="731" viewBox="0 0 731 731" fill="none" xmlns="http://www.w3.org/2000/svg">
<path d="M58 344H55C52.8 344 51 345.8 51 348V371.955C51 374.155 52.8 375.955 55 375.955H58V344Z" fill="white"/>
<path d="M85.228 361.494L75 351.267V348C75 345.8 73.2 344 71 344H64V375.955H71C73.2 375.955 75 374.155 75 371.955V368.243L77.12 370.363L79.949 367.535L75.286 362.872L68.985 356.571C68.607 356.193 68.4 355.687 68.401 355.147C68.402 354.613 68.608 354.114 68.985 353.739C69.739 352.984 71.064 352.986 71.817 353.739L76 357.923L82.416 364.339L82.344 364.317L82.453 364.389C82.584 364.586 83 365.337 83 366.955V379.955H67C65.085 379.955 63.395 378.322 63.067 376.156L63.044 376H58.999L59.113 376.754C59.734 380.859 63.125 383.955 67.001 383.955H87.001V366.955C87 363.483 85.656 361.907 85.228 361.494Z" fill="white"/>
<path d="M219 119H215V98H209.091C204.07 98 200 102.477 200 108C200 112.701 202.952 116.633 206.926 117.703L210 130H222L219.26 119.039L240 125.647V90L219 97V119Z" fill="white"/>
<path d="M500.444 113L516 128L531.556 113C534.256 110.967 536 107.744 536 104.111C536 97.978 531.022 93 524.889 93C521.256 93 518.022 94.756 516 97.456C513.978 94.756 510.744 93 507.111 93C500.978 93 496 97.978 496 104.111C496 107.744 497.744 110.967 500.444 113Z" fill="white"/>
<path d="M95.5 213C97.975 213 100 210.975 100 208.5C100 210.975 102.025 213 104.5 213C106.975 213 109 210.975 109 208.5C109 210.975 111.025 213 113.5 213C115.975 213 118 210.975 118 208.5C118 210.975 120.025 213 122.5 213C124.975 213 127 210.975 127 208.5V199.5C127 199.329 126.968 199.166 126.949 199C126.973 198.835 127 198.671 127 198.5C127 196.575 125.425 195 123.5 195H95.5C95.259 195 95.024 195.025 94.797 195.072C92.655 195.414 91 197.266 91 199.5V208.5C91 210.975 93.025 213 95.5 213Z" fill="white"/>
<path d="M127 227V223V217H123V223H107V217H103V223V227V231H95V217H91V235H127V227ZM107 231V227H123V231H107Z" fill="white"/>
<path d="M641 497H617C614.8 497 613 498.8 613 501V505C606.4 505 601 510.4 601 517V529H605C605 532.314 607.686 535 611 535C614.314 535 617 532.314 617 529H625C625 532.314 627.686 535 631 535C634.314 535 637 532.314 637 529H641C643.2 529 645 527.2 645 525V501C645 498.8 643.2 497 641 497ZM633 529C633 530.103 632.103 531 631 531C629.897 531 629 530.103 629 529C629 527.897 629.897 527 631 527C632.103 527 633 527.897 633 529ZM611 531C609.897 531 609 530.103 609 529C609 527.897 609.897 527 611 527C612.103 527 613 527.897 613 529C613 530.103 612.103 531 611 531ZM613 508V512C611.138 512 609.588 513.278 609.141 515H604.231C605.145 510.998 608.726 508 613 508Z" fill="white"/>
<path d="M607.649 201.27L613.857 219.896L608.923 231H619H631H639V227H615.078L617.3 222H637.441L643.775 203H612.441L610.441 197H603V201H607.333L607.649 201.27Z" fill="white"/>
<path d="M619 235C620.105 235 621 234.105 621 233C621 231.895 620.105 231 619 231C617.895 231 617 231.895 617 233C617 234.105 617.895 235 619 235Z" fill="white"/>
<path d="M631 235C632.105 235 633 234.105 633 233C633 231.895 632.105 231 631 231C629.895 231 629 231.895 629 233C629 234.105 629.895 235 631 235Z" fill="white"/>
<path d="M347 656H351V680H361V660H373V680H383V656H387L367 640L347 656Z" fill="white"/>
<path d="M369 664H365V680H369V664Z" fill="white"/>
<path d="M351 79V59C348.8 59 347 60.8 347 63V91L355 83H375C377.2 83 379 81.2 379 79H351Z" fill="white"/>
<path d="M383 51H359C356.8 51 355 52.8 355 55V71C355 73.2 356.8 75 359 75H379L387 83V55C387 52.8 385.2 51 383 51Z" fill="white"/>
<path d="M532 606H526V602H522V606H510V602H506V606H500C497.794 606 496 607.794 496 610V638C496 640.206 497.794 642 500 642H532C534.206 642 536 640.206 536 638V610C536 607.794 534.206 606 532 606ZM500 638V613H531.999L531.994 638H500Z" fill="white"/>
<path d="M508 624C509.105 624 510 623.105 510 622C510 620.895 509.105 620 508 620C506.895 620 506 620.895 506 622C506 623.105 506.895 624 508 624Z" fill="white"/>
<path d="M516 624C517.105 624 518 623.105 518 622C518 620.895 517.105 620 516 620C514.895 620 514 620.895 514 622C514 623.105 514.895 624 516 624Z" fill="white"/>
<path d="M524 624C525.105 624 526 623.105 526 622C526 620.895 525.105 620 524 620C522.895 620 522 620.895 522 622C522 623.105 522.895 624 524 624Z" fill="white"/>
<path d="M508 632C509.105 632 510 631.105 510 630C510 628.895 509.105 628 508 628C506.895 628 506 628.895 506 630C506 631.105 506.895 632 508 632Z" fill="white"/>
<path d="M516 632C517.105 632 518 631.105 518 630C518 628.895 517.105 628 516 628C514.895 628 514 628.895 514 630C514 631.105 514.895 632 516 632Z" fill="white"/>
<path d="M524 632C525.105 632 526 631.105 526 630C526 628.895 525.105 628 524 628C522.895 628 522 628.895 522 630C522 631.105 522.895 632 524 632Z" fill="white"/>
<path d="M129 513V495H111L89 517L107 535L129 513ZM117 505C118.105 505 119 505.895 119 507C119 508.105 118.105 509 117 509C115.895 509 115 508.105 115 507C115 505.895 115.895 505 117 505Z" fill="white"/>
<path d="M661 384C661 384 681 380 681 350L661 344L641 350C641 382 661 384 661 384ZM669.829 358L659 368.828L652.171 362L655 359.172L659 363.172L667 355.172L669.829 358Z" fill="white"/>
<path d="M204 606H206.75L214.764 622.026L206.765 638H204V642H204.762H209.439H230.562H235.239H236V638H233.235L225.236 622.026L233.25 606H236V602H204V606ZM220.764 622.028L224.756 630H215.245L219.237 622.028L211.237 606.027H228.764L220.764 622.028Z" fill="white"/>
</svg>
