<svg width="48" height="48" viewBox="0 0 48 48" fill="none" xmlns="http://www.w3.org/2000/svg">
<path d="M35.2787 27.0981L25.3736 36.7602L30.7692 42.1557L37.6685 35.2563L35.2787 27.0981Z" fill="#250F8E"/>
<path d="M9.91201 21.2985L5 16.3864L11.8994 9.48706L19.683 11.7671L9.91201 21.2985Z" fill="#250F8E"/>
<path fill-rule="evenodd" clip-rule="evenodd" d="M5.99935 28.5092L29.5828 5.50414L43.1201 4L41.6178 17.5204L18.0249 40.5347L5.99935 28.5092ZM30.0595 11.5918C31.4827 10.1686 33.7902 10.1686 35.2133 11.5918C36.6365 13.015 36.6365 15.3224 35.2133 16.7456C33.7902 18.1688 31.4827 18.1688 30.0595 16.7456C28.6363 15.3224 28.6363 13.015 30.0595 11.5918Z" fill="#250F8E"/>
</svg>
