<svg width="415" height="109" viewBox="0 0 415 109" fill="none" xmlns="http://www.w3.org/2000/svg">
<path fill-rule="evenodd" clip-rule="evenodd" d="M131.982 103.747L109 65.5367V27.5783C109 14.8858 119.289 4.59641 131.982 4.59641V103.747Z" fill="white"/>
<path fill-rule="evenodd" clip-rule="evenodd" d="M108.152 64.1274C108.709 61.0023 109 57.7851 109 54.5C109 24.4005 84.5995 0 54.5 0C24.4005 0 0 24.4005 0 54.5C0 84.5995 24.4005 109 54.5 109C72.8411 109 89.0661 99.9399 98.9438 86.0511C98.6089 85.5479 98.2845 85.0356 97.971 84.5144L75.7028 47.4907C76.4311 49.6951 76.8253 52.0515 76.8253 54.5C76.8253 59.6049 75.1119 64.3096 72.2289 68.0704V81.4217C72.2289 93.7516 62.2335 103.747 49.9036 103.747V76.3517C39.7788 74.2327 32.1747 65.2544 32.1747 54.5C32.1747 42.1701 42.1701 32.1747 54.5 32.1747C60.8487 32.1747 66.5785 34.8248 70.6435 39.079L49.9036 4.59639C63.8296 4.59639 76.7368 11.8952 83.9145 23.829L108.152 64.1274Z" fill="white"/>
<path d="M414.051 23.1637V32.6415H388.54V23.1637H414.051ZM393.885 13.4754H406.758V50.8861C406.758 51.6759 406.881 52.3165 407.127 52.808C407.39 53.2819 407.768 53.6241 408.259 53.8347C408.751 54.0278 409.339 54.1243 410.023 54.1243C410.514 54.1243 411.032 54.0804 411.576 53.9927C412.138 53.8874 412.559 53.7996 412.84 53.7294L414.788 63.0229C414.174 63.1984 413.305 63.4178 412.182 63.681C411.076 63.9443 409.751 64.111 408.206 64.1812C405.188 64.3217 402.599 63.9706 400.44 63.1282C398.299 62.2681 396.658 60.9342 395.517 59.1265C394.394 57.3187 393.849 55.0458 393.885 52.3078V13.4754Z" fill="white"/>
<path d="M365.458 64.3655C361.228 64.3655 357.577 63.5318 354.506 61.8644C351.452 60.1795 349.1 57.7838 347.45 54.6772C345.818 51.553 345.002 47.8409 345.002 43.5408C345.002 39.3636 345.827 35.7129 347.476 32.5888C349.126 29.4471 351.452 27.0075 354.453 25.2699C357.454 23.5147 360.991 22.6372 365.063 22.6372C367.941 22.6372 370.574 23.0847 372.961 23.9799C375.348 24.875 377.41 26.2001 379.148 27.9552C380.885 29.7104 382.237 31.878 383.202 34.458C384.168 37.0205 384.65 39.9604 384.65 43.2776V46.4895H349.504V39.0126H372.671C372.654 37.6436 372.329 36.4238 371.697 35.3531C371.065 34.2825 370.197 33.4488 369.091 32.8521C368.003 32.2378 366.748 31.9306 365.326 31.9306C363.887 31.9306 362.597 32.2553 361.456 32.9047C360.315 33.5366 359.411 34.4054 358.744 35.5111C358.077 36.5993 357.726 37.8366 357.691 39.2232V46.8317C357.691 48.4815 358.016 49.9295 358.665 51.1757C359.315 52.4043 360.236 53.3608 361.43 54.0453C362.623 54.7298 364.045 55.0721 365.695 55.0721C366.836 55.0721 367.871 54.9141 368.801 54.5982C369.732 54.2823 370.53 53.8171 371.197 53.2029C371.864 52.5886 372.364 51.8338 372.698 50.9387L384.519 51.281C384.027 53.9312 382.948 56.2392 381.28 58.205C379.631 60.1532 377.463 61.6714 374.778 62.7596C372.092 63.8302 368.986 64.3655 365.458 64.3655Z" fill="white"/>
<path d="M338.361 9.6843V63.6021H327.303L305.847 32.4835H305.505V63.6021H292.473V9.6843H303.688L324.908 40.7502H325.355V9.6843H338.361Z" fill="white"/>
<path d="M285.035 23.1637V32.6415H259.525V23.1637H285.035ZM264.869 13.4754H277.743V50.8861C277.743 51.6759 277.866 52.3165 278.111 52.808C278.375 53.2819 278.752 53.6241 279.243 53.8347C279.735 54.0278 280.323 54.1243 281.007 54.1243C281.499 54.1243 282.017 54.0804 282.561 53.9927C283.122 53.8874 283.544 53.7996 283.824 53.7294L285.773 63.0229C285.158 63.1984 284.289 63.4178 283.166 63.681C282.06 63.9443 280.735 64.111 279.191 64.1812C276.172 64.3217 273.583 63.9706 271.424 63.1282C269.283 62.2681 267.642 60.9342 266.501 59.1265C265.378 57.3187 264.834 55.0458 264.869 52.3078V13.4754Z" fill="white"/>
<path d="M241.168 46.1472V23.1637H254.016V63.602H241.747V56.0725H241.326C240.431 58.5472 238.904 60.513 236.745 61.9698C234.604 63.409 232.015 64.1286 228.979 64.1286C226.223 64.1286 223.801 63.4967 221.712 62.233C219.624 60.9693 218 59.2054 216.842 56.9413C215.683 54.6596 215.095 51.9918 215.078 48.9379V23.1637H227.952V46.4105C227.969 48.6044 228.549 50.3332 229.689 51.5969C230.83 52.8606 232.384 53.4925 234.349 53.4925C235.631 53.4925 236.78 53.2116 237.798 52.65C238.834 52.0708 239.65 51.2371 240.247 50.1489C240.861 49.0432 241.168 47.7093 241.168 46.1472Z" fill="white"/>
<path d="M207.469 36.6432C207.469 42.5755 206.329 47.604 204.047 51.7285C201.765 55.8531 198.676 58.986 194.78 61.1273C190.901 63.2686 186.548 64.3392 181.722 64.3392C176.877 64.3392 172.516 63.2598 168.637 61.101C164.758 58.9421 161.678 55.8092 159.396 51.7022C157.132 47.5777 156 42.558 156 36.6432C156 30.7108 157.132 25.6823 159.396 21.5578C161.678 17.4332 164.758 14.3003 168.637 12.159C172.516 10.0178 176.877 8.94713 181.722 8.94713C186.548 8.94713 190.901 10.0178 194.78 12.159C198.676 14.3003 201.765 17.4332 204.047 21.5578C206.329 25.6823 207.469 30.7108 207.469 36.6432ZM194.148 36.6432C194.148 33.1329 193.648 30.1667 192.647 27.7446C191.664 25.3225 190.243 23.4884 188.382 22.2423C186.539 20.9961 184.319 20.3731 181.722 20.3731C179.141 20.3731 176.921 20.9961 175.061 22.2423C173.2 23.4884 171.77 25.3225 170.769 27.7446C169.787 30.1667 169.295 33.1329 169.295 36.6432C169.295 40.1534 169.787 43.1196 170.769 45.5417C171.77 47.9638 173.2 49.7979 175.061 51.044C176.921 52.2902 179.141 52.9133 181.722 52.9133C184.319 52.9133 186.539 52.2902 188.382 51.044C190.243 49.7979 191.664 47.9638 192.647 45.5417C193.648 43.1196 194.148 40.1534 194.148 36.6432Z" fill="white"/>
<path d="M403.696 83.2747C403.568 82.1932 403.048 81.3536 402.137 80.7559C401.227 80.1582 400.109 79.8593 398.786 79.8593C397.818 79.8593 396.972 80.0159 396.246 80.3289C395.527 80.642 394.965 81.0725 394.559 81.6204C394.161 82.1683 393.962 82.7909 393.962 83.4882C393.962 84.0716 394.1 84.5733 394.378 84.9931C394.663 85.4058 395.025 85.7509 395.467 86.0284C395.908 86.2988 396.37 86.5229 396.854 86.7008C397.338 86.8716 397.783 87.0103 398.188 87.117L400.408 87.7147C400.978 87.8642 401.611 88.0705 402.308 88.3338C403.013 88.597 403.685 88.9564 404.325 89.4118C404.973 89.86 405.506 90.4364 405.926 91.1408C406.346 91.8452 406.556 92.7098 406.556 93.7344C406.556 94.9155 406.246 95.9828 405.627 96.9363C405.016 97.8898 404.119 98.6476 402.938 99.2097C401.764 99.7718 400.337 100.053 398.658 100.053C397.093 100.053 395.737 99.8003 394.591 99.2951C393.453 98.7899 392.556 98.0854 391.902 97.1818C391.254 96.2781 390.888 95.2286 390.802 94.0332H393.535C393.606 94.8586 393.883 95.5417 394.367 96.0825C394.858 96.6161 395.477 97.0146 396.224 97.2778C396.979 97.534 397.79 97.6621 398.658 97.6621C399.668 97.6621 400.576 97.4984 401.38 97.1711C402.184 96.8367 402.82 96.3742 403.29 95.7836C403.76 95.1859 403.994 94.4886 403.994 93.6917C403.994 92.9659 403.792 92.3753 403.386 91.9199C402.981 91.4646 402.447 91.0946 401.785 90.8099C401.123 90.5253 400.408 90.2763 399.64 90.0628L396.95 89.2944C395.243 88.8034 393.891 88.1025 392.894 87.1918C391.898 86.281 391.4 85.0891 391.4 83.6163C391.4 82.3924 391.731 81.3251 392.393 80.4143C393.062 79.4964 393.958 78.7849 395.082 78.2797C396.214 77.7674 397.477 77.5112 398.871 77.5112C400.28 77.5112 401.533 77.7638 402.628 78.269C403.724 78.7671 404.592 79.4502 405.233 80.3183C405.88 81.1863 406.222 82.1718 406.257 83.2747H403.696Z" fill="white"/>
<path d="M368.356 88.7394C368.356 91.0447 367.94 93.0371 367.107 94.7163C366.275 96.3955 365.133 97.6905 363.681 98.6013C362.23 99.5121 360.572 99.9675 358.708 99.9675C356.843 99.9675 355.185 99.5121 353.734 98.6013C352.282 97.6905 351.14 96.3955 350.308 94.7163C349.475 93.0371 349.059 91.0447 349.059 88.7394C349.059 86.434 349.475 84.4416 350.308 82.7624C351.14 81.0832 352.282 79.7882 353.734 78.8774C355.185 77.9666 356.843 77.5112 358.708 77.5112C360.572 77.5112 362.23 77.9666 363.681 78.8774C365.133 79.7882 366.275 81.0832 367.107 82.7624C367.94 84.4416 368.356 86.434 368.356 88.7394ZM365.795 88.7394C365.795 86.8467 365.478 85.2492 364.845 83.9471C364.218 82.645 363.368 81.6595 362.294 80.9907C361.226 80.3218 360.031 79.9874 358.708 79.9874C357.384 79.9874 356.185 80.3218 355.111 80.9907C354.043 81.6595 353.193 82.645 352.56 83.9471C351.934 85.2492 351.621 86.8467 351.621 88.7394C351.621 90.6321 351.934 92.2295 352.56 93.5316C353.193 94.8337 354.043 95.8192 355.111 96.488C356.185 97.1569 357.384 97.4913 358.708 97.4913C360.031 97.4913 361.226 97.1569 362.294 96.488C363.368 95.8192 364.218 94.8337 364.845 93.5316C365.478 92.2295 365.795 90.6321 365.795 88.7394Z" fill="white"/>
<path d="M325.671 77.8101V99.6686H323.024V77.8101H325.671Z" fill="white"/>
<path d="M289.232 99.6686H282.486V77.8101H289.531C291.651 77.8101 293.465 78.2477 294.974 79.1229C296.482 79.991 297.639 81.2397 298.443 82.8692C299.247 84.4915 299.649 86.434 299.649 88.6967C299.649 90.9736 299.243 92.9339 298.432 94.5776C297.621 96.2141 296.44 97.4735 294.888 98.3559C293.337 99.231 291.452 99.6686 289.232 99.6686ZM285.133 97.3206H289.061C290.868 97.3206 292.366 96.9719 293.554 96.2746C294.743 95.5773 295.628 94.5847 296.212 93.2968C296.795 92.0089 297.087 90.4755 297.087 88.6967C297.087 86.9321 296.799 85.4129 296.223 84.1393C295.646 82.8585 294.785 81.8766 293.64 81.1935C292.494 80.5033 291.068 80.1582 289.36 80.1582H285.133V97.3206Z" fill="white"/>
<path d="M255.619 77.8101H258.266V92.2828C258.266 93.7771 257.913 95.1112 257.209 96.2853C256.512 97.4522 255.526 98.3736 254.253 99.0496C252.979 99.7185 251.485 100.053 249.77 100.053C248.055 100.053 246.561 99.7185 245.287 99.0496C244.013 98.3736 243.024 97.4522 242.32 96.2853C241.623 95.1112 241.274 93.7771 241.274 92.2828V77.8101H243.921V92.0694C243.921 93.1367 244.156 94.0866 244.625 94.9191C245.095 95.7445 245.764 96.3956 246.632 96.8723C247.507 97.3419 248.553 97.5767 249.77 97.5767C250.987 97.5767 252.033 97.3419 252.908 96.8723C253.783 96.3956 254.452 95.7445 254.914 94.9191C255.384 94.0866 255.619 93.1367 255.619 92.0694V77.8101Z" fill="white"/>
<path d="M201.86 80.1582V77.8101H218.254V80.1582H211.38V99.6686H208.733V80.1582H201.86Z" fill="white"/>
<path d="M176.908 83.2747C176.78 82.1932 176.261 81.3536 175.35 80.7559C174.439 80.1582 173.322 79.8593 171.998 79.8593C171.031 79.8593 170.184 80.0159 169.458 80.3289C168.74 80.642 168.177 81.0725 167.772 81.6204C167.373 82.1683 167.174 82.7909 167.174 83.4882C167.174 84.0716 167.313 84.5733 167.59 84.9931C167.875 85.4058 168.238 85.7509 168.679 86.0284C169.12 86.2988 169.583 86.5229 170.067 86.7008C170.55 86.8716 170.995 87.0103 171.401 87.117L173.621 87.7147C174.19 87.8642 174.823 88.0705 175.521 88.3338C176.225 88.597 176.897 88.9564 177.538 89.4118C178.185 89.86 178.719 90.4364 179.139 91.1408C179.559 91.8452 179.768 92.7098 179.768 93.7344C179.768 94.9155 179.459 95.9828 178.84 96.9363C178.228 97.8898 177.331 98.6476 176.15 99.2097C174.976 99.7718 173.55 100.053 171.87 100.053C170.305 100.053 168.949 99.8003 167.804 99.2951C166.665 98.7899 165.769 98.0854 165.114 97.1818C164.467 96.2781 164.1 95.2286 164.015 94.0332H166.747C166.818 94.8586 167.096 95.5417 167.58 96.0825C168.071 96.6161 168.69 97.0146 169.437 97.2778C170.191 97.534 171.002 97.6621 171.87 97.6621C172.881 97.6621 173.788 97.4984 174.592 97.1711C175.396 96.8367 176.033 96.3742 176.502 95.7836C176.972 95.1859 177.207 94.4886 177.207 93.6917C177.207 92.9659 177.004 92.3753 176.598 91.9199C176.193 91.4646 175.659 91.0946 174.998 90.8099C174.336 90.5253 173.621 90.2763 172.852 90.0628L170.163 89.2944C168.455 88.8034 167.103 88.1025 166.107 87.1917C165.111 86.281 164.613 85.0891 164.613 83.6163C164.613 82.3924 164.943 81.3251 165.605 80.4143C166.274 79.4964 167.171 78.7849 168.295 78.2797C169.426 77.7674 170.689 77.5112 172.084 77.5112C173.493 77.5112 174.745 77.7638 175.841 78.269C176.936 78.7671 177.805 79.4502 178.445 80.3183C179.092 81.1863 179.434 82.1718 179.47 83.2747H176.908Z" fill="white"/>
</svg>
