<svg width="1262" height="2561" viewBox="0 0 1262 2561" fill="none" xmlns="http://www.w3.org/2000/svg">
<path fill-rule="evenodd" clip-rule="evenodd" d="M207 0C96.543 0 7 89.543 7 200V516H5C2.23858 516 0 518.239 0 521V604C0 606.761 2.23858 609 5 609H7V700H5C2.23858 700 0 702.239 0 705V885C0 887.761 2.23858 890 5 890H7V943H5C2.23858 943 0 945.239 0 948V1128C0 1130.76 2.23858 1133 5 1133H7V2361C7 2471.46 96.543 2561 207 2561H1055C1165.46 2561 1255 2471.46 1255 2361V1069H1257C1259.76 1069 1262 1066.76 1262 1064V767C1262 764.239 1259.76 762 1257 762H1255V200C1255 89.543 1165.46 0 1055 0H207Z" fill="black"/>
</svg>
