<svg width="48" height="48" viewBox="0 0 48 48" fill="none" xmlns="http://www.w3.org/2000/svg">
<path fill-rule="evenodd" clip-rule="evenodd" d="M15.4998 10.4C15.5639 10.4 15.6272 10.3965 15.6894 10.3895C14.3987 13.0668 10.9084 18.3797 4.65139 14.8893C4.70454 14.7246 4.73324 14.549 4.73324 14.3666C4.73324 13.4277 3.97213 12.6666 3.03325 12.6666C2.09437 12.6666 1.33325 13.4277 1.33325 14.3666C1.33325 15.3055 2.09437 16.0666 3.03325 16.0666C3.5127 16.0666 3.94579 15.8681 4.25485 15.5489C5.66691 21.3477 7.37689 28.1725 8.09089 31H24H39.909C40.623 28.1725 42.333 21.3478 43.745 15.549C44.0541 15.8682 44.4871 16.0666 44.9665 16.0666C45.9054 16.0666 46.6665 15.3055 46.6665 14.3666C46.6665 13.4277 45.9054 12.6666 44.9665 12.6666C44.0276 12.6666 43.2665 13.4277 43.2665 14.3666C43.2665 14.549 43.2952 14.7247 43.3484 14.8893C37.0914 18.3796 33.6012 13.0668 32.3105 10.3896C32.3726 10.3965 32.4358 10.4 32.4997 10.4C33.4386 10.4 34.1997 9.63889 34.1997 8.7C34.1997 7.76112 33.4386 7 32.4997 7C31.5609 7 30.7997 7.76112 30.7997 8.7C30.7997 9.19082 31.0077 9.63305 31.3404 9.94337C29.3973 14.171 25.8396 15.3443 24 15.5C22.1603 15.3443 18.6025 14.171 16.6594 9.94311C16.9919 9.63281 17.1998 9.19068 17.1998 8.7C17.1998 7.76112 16.4387 7 15.4998 7C14.5609 7 13.7998 7.76112 13.7998 8.7C13.7998 9.63889 14.5609 10.4 15.4998 10.4ZM39.8665 33.0667H8.13329V41H39.8665V33.0667Z" fill="#250F8E"/>
</svg>
