<svg width="588" height="588" viewBox="0 0 588 588" fill="none" xmlns="http://www.w3.org/2000/svg">
<path d="M348 380C348 382.2 349.8 384 352 384H384C386.2 384 388 382.2 388 380V356C388 353.8 386.2 352 384 352H376V368H360V352H352C349.8 352 348 353.8 348 356V380Z" fill="white"/>
<path d="M372 352H364V364H372V352Z" fill="white"/>
<path d="M61 348H58C55.8 348 54 349.8 54 352V375.955C54 378.155 55.8 379.955 58 379.955H61V348Z" fill="white"/>
<path d="M88.228 365.494L78 355.267V352C78 349.8 76.2 348 74 348H67V379.955H74C76.2 379.955 78 378.155 78 375.955V372.243L80.12 374.363L82.949 371.535L78.286 366.872L71.985 360.571C71.607 360.193 71.4 359.687 71.401 359.147C71.402 358.613 71.608 358.114 71.985 357.739C72.739 356.984 74.064 356.986 74.817 357.739L79 361.923L85.416 368.339L85.344 368.317L85.453 368.389C85.584 368.586 86 369.337 86 370.955V383.955H70C68.085 383.955 66.395 382.322 66.067 380.156L66.044 380H61.999L62.113 380.754C62.734 384.859 66.125 387.955 70.001 387.955H90.001V370.955C90 367.483 88.656 365.907 88.228 365.494Z" fill="white"/>
<path d="M219 81H215V60H209.091C204.07 60 200 64.477 200 70C200 74.701 202.952 78.633 206.926 79.703L210 92H222L219.26 81.039L240 87.647V52L219 59V81Z" fill="white"/>
<path d="M367.886 210.146L363.034 214.998L350.935 217.847L359.13 226.042L350.645 234.526L353.473 237.354L361.958 228.87L370.171 237.082L372.96 224.916L377.803 220.073L389.97 217.283L370.734 198.048L367.886 210.146Z" fill="white"/>
<path d="M352.444 75L368 90L383.556 75C386.256 72.967 388 69.744 388 66.111C388 59.978 383.022 55 376.889 55C373.256 55 370.022 56.756 368 59.456C365.978 56.756 362.744 55 359.111 55C352.978 55 348 59.978 348 66.111C348 69.744 349.744 72.967 352.444 75Z" fill="white"/>
<path d="M58.5 218C60.975 218 63 215.975 63 213.5C63 215.975 65.025 218 67.5 218C69.975 218 72 215.975 72 213.5C72 215.975 74.025 218 76.5 218C78.975 218 81 215.975 81 213.5C81 215.975 83.025 218 85.5 218C87.975 218 90 215.975 90 213.5V204.5C90 204.329 89.968 204.166 89.949 204C89.973 203.835 90 203.671 90 203.5C90 201.575 88.425 200 86.5 200H58.5C58.259 200 58.024 200.025 57.797 200.072C55.655 200.414 54 202.266 54 204.5V213.5C54 215.975 56.025 218 58.5 218Z" fill="white"/>
<path d="M90 232V228V222H86V228H70V222H66V228V232V236H58V222H54V240H90V232ZM70 236V232H86V236H70Z" fill="white"/>
<path d="M534 350H510C507.8 350 506 351.8 506 354V358C499.4 358 494 363.4 494 370V382H498C498 385.314 500.686 388 504 388C507.314 388 510 385.314 510 382H518C518 385.314 520.686 388 524 388C527.314 388 530 385.314 530 382H534C536.2 382 538 380.2 538 378V354C538 351.8 536.2 350 534 350ZM526 382C526 383.103 525.103 384 524 384C522.897 384 522 383.103 522 382C522 380.897 522.897 380 524 380C525.103 380 526 380.897 526 382ZM504 384C502.897 384 502 383.103 502 382C502 380.897 502.897 380 504 380C505.103 380 506 380.897 506 382C506 383.103 505.103 384 504 384ZM506 361V365C504.138 365 502.588 366.278 502.141 368H497.231C498.145 363.998 501.726 361 506 361Z" fill="white"/>
<path d="M500.649 58.27L506.857 76.896L501.923 88H512H524H532V84H508.078L510.3 79H530.441L536.775 60H505.441L503.441 54H496V58H500.333L500.649 58.27Z" fill="white"/>
<path d="M512 92C513.105 92 514 91.1046 514 90C514 88.8954 513.105 88 512 88C510.895 88 510 88.8954 510 90C510 91.1046 510.895 92 512 92Z" fill="white"/>
<path d="M524 92C525.105 92 526 91.1046 526 90C526 88.8954 525.105 88 524 88C522.895 88 522 88.8954 522 90C522 91.1046 522.895 92 524 92Z" fill="white"/>
<path d="M496 512H500V536H510V516H522V536H532V512H536L516 496L496 512Z" fill="white"/>
<path d="M518 520H514V536H518V520Z" fill="white"/>
<path d="M56 80V60C53.8 60 52 61.8 52 64V92L60 84H80C82.2 84 84 82.2 84 80H56Z" fill="white"/>
<path d="M88 52H64C61.8 52 60 53.8 60 56V72C60 74.2 61.8 76 64 76H84L92 84V56C92 53.8 90.2 52 88 52Z" fill="white"/>
<path d="M206 240H234V200H206V240ZM218 220V216H222V220H218ZM218 224H222V228H218V224ZM214 216V220H210V216H214ZM214 224V228H210V224H214ZM218 232H222V236H218V232ZM226 232H230V236H226V232ZM226 228V224H230V228H226ZM226 220V216H230V220H226ZM210 212V204H230V212H210ZM210 232H214V236H210V232Z" fill="white"/>
<path d="M236 352H230V348H226V352H214V348H210V352H204C201.794 352 200 353.794 200 356V384C200 386.206 201.794 388 204 388H236C238.206 388 240 386.206 240 384V356C240 353.794 238.206 352 236 352ZM204 384V359H235.999L235.994 384H204Z" fill="white"/>
<path d="M212 370C213.105 370 214 369.105 214 368C214 366.895 213.105 366 212 366C210.895 366 210 366.895 210 368C210 369.105 210.895 370 212 370Z" fill="white"/>
<path d="M220 370C221.105 370 222 369.105 222 368C222 366.895 221.105 366 220 366C218.895 366 218 366.895 218 368C218 369.105 218.895 370 220 370Z" fill="white"/>
<path d="M228 370C229.105 370 230 369.105 230 368C230 366.895 229.105 366 228 366C226.895 366 226 366.895 226 368C226 369.105 226.895 370 228 370Z" fill="white"/>
<path d="M212 378C213.105 378 214 377.105 214 376C214 374.895 213.105 374 212 374C210.895 374 210 374.895 210 376C210 377.105 210.895 378 212 378Z" fill="white"/>
<path d="M220 378C221.105 378 222 377.105 222 376C222 374.895 221.105 374 220 374C218.895 374 218 374.895 218 376C218 377.105 218.895 378 220 378Z" fill="white"/>
<path d="M228 378C229.105 378 230 377.105 230 376C230 374.895 229.105 374 228 374C226.895 374 226 374.895 226 376C226 377.105 226.895 378 228 378Z" fill="white"/>
<path d="M240 514V496H222L200 518L218 536L240 514ZM228 506C229.105 506 230 506.895 230 508C230 509.105 229.105 510 228 510C226.895 510 226 509.105 226 508C226 506.895 226.895 506 228 506Z" fill="white"/>
<path d="M384 508H380V496H356V508H352C349.8 508 348 509.8 348 512V524C348 526.2 349.8 528 352 528H356V536H380V528H384C386.2 528 388 526.2 388 524V512C388 509.8 386.2 508 384 508ZM360 532V520H376V532H360ZM384 514C384 515.105 383.105 516 382 516C380.895 516 380 515.105 380 514C380 512.895 380.895 512 382 512C383.105 512 384 512.895 384 514ZM360 500H376V508H360V500Z" fill="white"/>
<path d="M516 240C516 240 536 236 536 206L516 200L496 206C496 238 516 240 516 240ZM524.829 214L514 224.828L507.171 218L510 215.172L514 219.172L522 211.172L524.829 214Z" fill="white"/>
<path d="M56 500H58.75L66.764 516.026L58.765 532H56V536H56.762H61.439H82.562H87.239H88V532H85.235L77.236 516.026L85.25 500H88V496H56V500ZM72.764 516.028L76.756 524H67.245L71.237 516.028L63.237 500.027H80.764L72.764 516.028Z" fill="white"/>
</svg>
