<svg width="213" height="140" viewBox="0 0 213 140" fill="none" xmlns="http://www.w3.org/2000/svg">
<g clip-path="url(#clip0_70_2924)">
<mask id="mask0_70_2924" style="mask-type:luminance" maskUnits="userSpaceOnUse" x="-28" y="-729" width="420" height="2219">
<path d="M391.952 1489.13L391.952 -728.995H-27.9975L-27.9975 1489.13H391.952Z" fill="white"/>
</mask>
<g mask="url(#mask0_70_2924)">
<path fill-rule="evenodd" clip-rule="evenodd" d="M83.6226 62.1382C90.7828 63.7825 93.3039 59.965 93.0194 59.0997C92.6825 58.0705 92.3794 56.8657 92.1051 55.5729C99.0012 56.5784 115.797 65.5654 122.272 65.4572C122.272 65.4572 127.568 48.4548 129.93 48.1963C129.887 48.6002 129.923 48.8925 130.085 48.999C132.154 50.3374 137.914 52.264 139.79 52.264C141.588 52.1035 136.606 70.478 136.216 72.168C134.594 79.1997 132.239 81.1601 129.45 81.4254C124.305 81.9155 98.2478 77.2462 98.2478 77.2462L97.3538 81.0671C93.8728 80.9962 91.3077 80.9319 90.7455 80.8846C88.6952 80.7106 87.413 81.8851 86.8955 83.8454C86.8803 83.7558 86.8644 83.6645 86.8476 83.575C85.6872 77.2377 86.1761 67.2097 84.3885 63.7352C84.1141 63.2029 83.8593 62.6688 83.6226 62.1382Z" fill="#F5A200"/>
</g>
<mask id="mask1_70_2924" style="mask-type:luminance" maskUnits="userSpaceOnUse" x="-28" y="-729" width="420" height="2219">
<path d="M391.952 1489.13L391.952 -728.995H-27.9975L-27.9975 1489.13H391.952Z" fill="white"/>
</mask>
<g mask="url(#mask1_70_2924)">
<path fill-rule="evenodd" clip-rule="evenodd" d="M46.383 108.934C46.383 108.934 40.369 105.5 40.5341 99.4299C40.805 89.4711 45.2009 68.8608 48.9361 65.1632C52.7145 61.4234 57.023 60.2539 57.023 60.2539C59.4707 64.33 64.9551 65.7445 68.2613 65.0702C69.8626 64.7424 70.8489 63.2451 71.2285 61.4133C75.8248 74.4984 83.2028 83.6223 85.2299 85.4711C85.6239 85.831 85.9402 86.0575 86.1915 86.1741C84.436 91.7999 80.1358 105.078 79.9272 105.887C79.7562 106.551 79.6369 107.923 80.6207 108.76L46.383 108.934Z" fill="#F5A200"/>
</g>
<mask id="mask2_70_2924" style="mask-type:luminance" maskUnits="userSpaceOnUse" x="-28" y="-729" width="420" height="2219">
<path d="M391.952 1489.13L391.952 -728.995H-27.9975L-27.9975 1489.13H391.952Z" fill="white"/>
</mask>
<g mask="url(#mask2_70_2924)">
<path fill-rule="evenodd" clip-rule="evenodd" d="M207.752 110.489C203.909 115.537 197.969 118.776 191.309 118.776C185.648 118.776 180.51 116.438 176.736 112.64C177.102 109.512 178.082 105.281 180.52 103.388C182.257 102.039 187.902 101.588 187.902 101.588C187.866 100.071 188.564 100.052 188.899 99.7715C188.937 99.8526 188.984 99.9168 189.043 99.9573C189.58 100.314 196.383 99.8796 196.383 99.8796C196.383 99.8796 197.634 99.9692 197.455 101.487C197.455 101.487 200.959 101.769 202.847 102.639C206.073 104.125 207.102 107.021 207.752 110.489Z" fill="#F5A200"/>
</g>
<mask id="mask3_70_2924" style="mask-type:luminance" maskUnits="userSpaceOnUse" x="-28" y="-729" width="420" height="2219">
<path d="M391.952 1489.13L391.952 -728.995H-27.9975L-27.9975 1489.13H391.952Z" fill="white"/>
</mask>
<g mask="url(#mask3_70_2924)">
<path fill-rule="evenodd" clip-rule="evenodd" d="M35.3749 59.1401C31.693 62.4895 26.7195 64.5445 21.2492 64.5445C15.6708 64.5445 10.6089 62.4067 6.90684 58.9406C6.59378 55.6385 6.75056 52.9482 9.82867 50.7834C11.609 49.5328 15.5264 50.2324 17.4327 48.3786C18.0529 50.491 22.9724 53.7492 22.9724 53.7492C25.2835 52.0948 25.8321 49.1425 25.956 47.5742C25.9576 47.5742 25.9591 47.5759 25.9606 47.5759C28.0838 47.9679 32.9392 47.6621 34.2962 51.892C34.8719 53.6867 35.2036 56.9043 35.3749 59.1401Z" fill="#F5A200"/>
</g>
<mask id="mask4_70_2924" style="mask-type:luminance" maskUnits="userSpaceOnUse" x="-17" y="-726" width="421" height="2220">
<path d="M403.622 1493.02L403.622 -725.113H-16.3276L-16.3276 1493.02H403.622Z" fill="white"/>
</mask>
<g mask="url(#mask4_70_2924)">
<path fill-rule="evenodd" clip-rule="evenodd" d="M103.746 21.106C104.586 20.278 105.329 19.3452 105.397 17.6789H102.593C102.016 17.6789 101.438 17.2074 101.308 15.9771C101.178 14.7485 100.871 4.47375 101.379 2.68243C101.995 0.512559 103.58 0.0394114 105.52 0.0123725C106.707 -0.00283685 127.941 -0.0299384 128.992 0.117085C130.628 0.346916 131.535 1.3119 131.634 3.31953C131.779 6.3293 131.031 14.1689 130.415 15.6628C129.785 17.1939 127.689 17.3899 126.143 17.4153C124.871 17.4372 108.423 17.8344 108.423 17.8344C107.517 19.7812 105.981 20.9032 103.746 21.106Z" fill="#F5A200"/>
</g>
<path d="M125.756 5.12553L106.2 5.33017C106.01 5.33219 105.829 5.40948 105.696 5.54504C105.563 5.6806 105.489 5.86331 105.491 6.05301C105.493 6.2427 105.571 6.42381 105.707 6.55652C105.842 6.68923 106.025 6.76267 106.215 6.76067L125.771 6.55603C125.961 6.554 126.142 6.47672 126.275 6.34124C126.408 6.20575 126.482 6.02315 126.48 5.83352C126.479 5.73956 126.46 5.64674 126.423 5.56031C126.386 5.47387 126.332 5.3955 126.265 5.32976C126.198 5.26401 126.118 5.21215 126.031 5.1771C125.943 5.14205 125.85 5.12454 125.756 5.12553Z" fill="black"/>
<path d="M118.48 10.4136L106.2 10.5423C106.01 10.5443 105.829 10.6215 105.696 10.757C105.562 10.8925 105.489 11.0752 105.491 11.2648C105.492 11.3588 105.511 11.4516 105.548 11.5381C105.585 11.6245 105.639 11.7029 105.706 11.7686C105.773 11.8344 105.853 11.8862 105.94 11.9213C106.027 11.9563 106.121 11.9738 106.215 11.9728L118.495 11.8444C118.685 11.8424 118.866 11.7651 118.999 11.6296C119.132 11.494 119.206 11.3113 119.204 11.1216C119.203 11.0276 119.183 10.9348 119.146 10.8484C119.109 10.762 119.056 10.6836 118.989 10.6178C118.921 10.5521 118.842 10.5002 118.754 10.4652C118.667 10.4301 118.574 10.4126 118.48 10.4136Z" fill="black"/>
<path d="M24.2105 34.3195C23.7266 34.3402 23.3405 34.6131 23.02 34.9242C22.9519 34.9903 22.913 35.0808 22.9117 35.1756C22.9104 35.2704 22.9468 35.3618 23.0131 35.4298C23.0793 35.4978 23.1699 35.5367 23.2649 35.538C23.3599 35.5393 23.4516 35.5029 23.5197 35.4368C23.7825 35.1817 24.0159 35.0437 24.2413 35.0341C24.4666 35.0244 24.7648 35.1284 25.1953 35.5648C25.2283 35.5983 25.2676 35.625 25.311 35.6434C25.3543 35.6617 25.4008 35.6713 25.4479 35.6717C25.495 35.6721 25.5417 35.6632 25.5853 35.6455C25.629 35.6279 25.6687 35.6018 25.7022 35.5689C25.7699 35.5023 25.8084 35.4117 25.8091 35.3169C25.8098 35.222 25.7728 35.1308 25.7062 35.0632C25.195 34.5449 24.6944 34.2987 24.2105 34.3195Z" fill="black"/>
<path d="M26.4764 35.1894C26.4313 35.1759 26.384 35.1714 26.3371 35.1761C26.2903 35.1809 26.2448 35.1948 26.2033 35.2171C26.1619 35.2394 26.1252 35.2696 26.0955 35.306C26.0657 35.3425 26.0435 35.3844 26.03 35.4294C25.9715 35.6238 25.9539 35.8485 25.9433 36.1281C25.9328 36.4078 25.9371 36.7295 25.9575 37.053C25.9779 37.3765 26.0138 37.7005 26.0693 37.9874C26.1248 38.2743 26.1847 38.5177 26.3279 38.73C26.328 38.73 26.3281 38.73 26.3282 38.73C26.5125 39.0026 26.4664 39.1526 26.3107 39.3281C26.155 39.5036 25.8306 39.6489 25.4698 39.6298C25.3749 39.6247 25.2819 39.6575 25.2112 39.7209C25.1405 39.7843 25.0979 39.8731 25.0928 39.9678C25.0903 40.0147 25.0971 40.0617 25.1127 40.106C25.1284 40.1503 25.1527 40.1911 25.1842 40.226C25.2156 40.261 25.2537 40.2894 25.2962 40.3096C25.3387 40.3299 25.3847 40.3416 25.4318 40.344C25.9935 40.3739 26.5163 40.1753 26.8471 39.8024C27.1779 39.4296 27.2579 38.8266 26.9225 38.3303C26.8958 38.2908 26.8202 38.096 26.773 37.8521C26.7259 37.6081 26.6918 37.3083 26.6728 37.0081C26.6539 36.7078 26.6498 36.4057 26.6593 36.1549C26.6687 35.904 26.6995 35.6916 26.7165 35.635C26.73 35.59 26.7346 35.5428 26.7299 35.4961C26.7251 35.4493 26.7112 35.4039 26.6889 35.3625C26.6666 35.3212 26.6364 35.2846 26.5999 35.2549C26.5634 35.2252 26.5215 35.2029 26.4764 35.1894Z" fill="black"/>
<path d="M24.6103 41.2196C24.5423 41.1534 24.4507 41.117 24.3557 41.1182C24.2607 41.1194 24.17 41.1583 24.1037 41.2262C24.0709 41.2599 24.045 41.2997 24.0275 41.3433C24.01 41.3869 24.0014 41.4335 24.002 41.4805C24.0026 41.5275 24.0125 41.5739 24.0311 41.6171C24.0497 41.6603 24.0766 41.6994 24.1103 41.7322C24.4549 42.0673 24.8326 42.3322 25.28 42.3993C25.7274 42.4663 26.2043 42.295 26.6196 41.9032C26.6538 41.8709 26.6813 41.8322 26.7005 41.7893C26.7198 41.7464 26.7303 41.7002 26.7317 41.6532C26.733 41.6063 26.725 41.5596 26.7082 41.5157C26.6914 41.4718 26.6662 41.4316 26.6338 41.3975C26.6015 41.3634 26.5628 41.3359 26.5198 41.3167C26.4768 41.2975 26.4305 41.287 26.3835 41.2857C26.3364 41.2844 26.2896 41.2923 26.2456 41.3091C26.2017 41.3258 26.1614 41.351 26.1272 41.3833C25.8207 41.6725 25.607 41.725 25.3865 41.6919C25.1659 41.6589 24.8983 41.4996 24.6103 41.2196Z" fill="black"/>
<path d="M28.7095 32.3072C28.5208 32.3295 28.3487 32.4256 28.231 32.5746C28.1133 32.7235 28.0597 32.913 28.0819 33.1013C28.5741 37.2565 28.0224 40.9492 27.1361 42.3636C26.4353 43.4819 25.2892 43.7541 24.0905 43.6611C23.4911 43.6146 22.9017 43.4628 22.438 43.2776C21.9744 43.0924 21.6283 42.8359 21.5799 42.7795C21.5187 42.7081 21.444 42.6496 21.36 42.607C21.2761 42.5645 21.1846 42.5388 21.0908 42.5316C20.9969 42.5244 20.9026 42.5357 20.8131 42.5649C20.7236 42.594 20.6408 42.6405 20.5693 42.7016C20.4978 42.7627 20.4391 42.8372 20.3965 42.921C20.3539 43.0048 20.3282 43.0962 20.321 43.1898C20.3137 43.2835 20.325 43.3776 20.3543 43.4669C20.3835 43.5562 20.43 43.6389 20.4913 43.7103C20.836 44.1118 21.3085 44.3672 21.9056 44.6057C22.5028 44.8443 23.2166 45.0282 23.9794 45.0873C25.505 45.2056 27.3197 44.7688 28.3514 43.1224C29.6317 41.0792 30.0214 37.2887 29.5055 32.9333C29.4831 32.745 29.3867 32.5732 29.2374 32.4557C29.0882 32.3383 28.8983 32.2849 28.7095 32.3072Z" fill="black"/>
<path d="M22.152 26.7103C19.6659 26.6216 17.6141 27.1006 16.0085 27.8183C13.8676 28.7752 12.5277 30.1159 11.9109 31.1671C10.8809 32.9218 11.0164 34.6303 11.5822 35.8857C11.9573 36.718 12.478 37.3466 12.9804 37.8044C12.2169 38.5463 11.0333 39.9417 10.6986 41.9388C10.4337 43.5196 9.47839 44.7928 8.4605 45.7523C7.4426 46.7118 6.4597 47.2725 5.96181 47.6548C4.58643 48.7093 3.96858 50.2546 4.14038 51.6925C4.31221 53.1307 5.29026 54.4547 6.87088 55.0344C7.04927 55.0998 7.24636 55.0917 7.41882 55.012C7.59127 54.9324 7.72498 54.7876 7.79052 54.6096C7.85612 54.4316 7.84817 54.2348 7.76842 54.0626C7.68866 53.8904 7.54364 53.7569 7.36526 53.6914C6.25041 53.2825 5.6745 52.4508 5.56366 51.5232C5.45283 50.5955 5.82343 49.5646 6.83549 48.7889H6.83583C7.0731 48.6068 8.29326 47.878 9.44464 46.7927C10.596 45.7074 11.7763 44.1803 12.1123 42.1751C12.4967 39.8813 14.5091 38.3348 14.5091 38.3348C14.5124 38.3309 14.5156 38.327 14.5187 38.323C14.965 39.558 16.1009 40.3554 17.235 40.4579C17.5553 40.4873 17.8799 40.4612 18.191 40.3684C18.3731 40.3141 18.5262 40.1898 18.6165 40.0228C18.7068 39.8559 18.7269 39.66 18.6725 39.4782C18.6456 39.3882 18.6012 39.3043 18.5418 39.2314C18.4824 39.1585 18.4092 39.098 18.3264 39.0533C18.2436 39.0087 18.1527 38.9808 18.0591 38.9712C17.9655 38.9615 17.8708 38.9704 17.7806 38.9973C17.6615 39.0328 17.5202 39.0472 17.3656 39.033C17.3652 39.033 17.3647 39.033 17.3643 39.033C16.6247 38.9662 15.6896 38.2855 15.7571 37.0536C15.7988 36.2959 16.1446 36.0745 16.6437 35.9987C17.1428 35.9228 17.7716 36.1461 18.1086 36.6344C18.1089 36.635 18.1091 36.6355 18.1093 36.636C18.3315 36.9568 18.6299 37.0228 18.8646 37.0476C19.0993 37.0724 19.3253 37.0458 19.572 36.9869C20.0652 36.8693 20.6362 36.6099 21.2753 36.1631C22.3839 35.388 23.6807 33.9923 24.9367 31.8032C25.0737 31.9807 25.1681 32.1358 25.3455 32.3228C26.0597 33.0758 27.1674 33.8902 28.5941 33.7948H28.5948C29.3172 33.7458 29.8331 33.1143 29.9738 32.4822C30.1145 31.8501 30.0163 31.1362 29.6997 30.4117C29.0663 28.9627 27.488 27.4935 24.7826 27.0018H24.7823C23.8574 26.8338 22.9807 26.7412 22.152 26.7117L22.152 26.7103ZM22.1001 28.1385C22.858 28.1662 23.6661 28.252 24.5257 28.4081C26.8411 28.829 27.9555 29.9969 28.3862 30.9823C28.6015 31.475 28.6284 31.9277 28.5743 32.1705C28.5203 32.4133 28.5218 32.3646 28.4976 32.3662C27.6754 32.4209 26.9464 31.9288 26.3862 31.3381C25.8257 30.7472 25.5095 30.14 25.5095 30.14C25.449 30.0226 25.3571 29.9243 25.244 29.8559C25.131 29.7874 25.0012 29.7515 24.8689 29.7521C24.7367 29.7527 24.6073 29.7898 24.4949 29.8593C24.3824 29.9288 24.2915 30.028 24.232 30.1459C22.8905 32.8076 21.4915 34.2638 20.4529 34.9899C19.9337 35.353 19.4999 35.532 19.239 35.5943C19.1544 35.6144 19.132 35.6114 19.0941 35.6134C18.4117 34.8078 17.3893 34.4378 16.4278 34.5839C15.3786 34.7434 14.3991 35.6439 14.3259 36.9749C14.3246 36.9983 14.3297 37.019 14.3289 37.0423C13.9472 36.7764 13.2724 36.1493 12.8891 35.2989C12.4721 34.3738 12.3376 33.2704 13.1477 31.8903C13.562 31.184 14.7153 29.9642 16.5945 29.1244C18.0038 28.4944 19.8262 28.0555 22.1001 28.1388L22.1001 28.1385Z" fill="black"/>
<path d="M17.138 39.0478C16.9529 39.0906 16.7924 39.205 16.6917 39.3658C16.5911 39.5267 16.5586 39.7209 16.6013 39.9057C16.7518 40.5557 17.1186 42.3385 17.2921 44.078C17.3789 44.9478 17.4161 45.8102 17.3642 46.4951C17.3123 47.1797 17.1234 47.6649 17.0332 47.7635C16.313 48.5484 15.0215 48.868 13.5765 49.0854C12.1315 49.3029 10.5871 49.3764 9.41677 50.1984H9.41609C7.76745 51.3579 6.83285 52.7393 6.40683 54.2404C5.98081 55.7415 6.03456 57.3275 6.19386 59.0078C6.21181 59.1966 6.30413 59.3706 6.45054 59.4914C6.59695 59.6123 6.78545 59.6702 6.97462 59.6524C7.06834 59.6436 7.1594 59.6164 7.2426 59.5725C7.3258 59.5285 7.3995 59.4686 7.45951 59.3962C7.51951 59.3238 7.56464 59.2404 7.59231 59.1506C7.61999 59.0607 7.62966 58.9663 7.62078 58.8728C7.46703 57.251 7.4425 55.841 7.78613 54.6302C8.12973 53.4195 8.81231 52.3734 10.2415 51.3681H10.2418C10.893 50.911 12.288 50.7262 13.7905 50.5001C15.2932 50.2739 16.9575 49.9645 18.0904 48.7299C18.6091 48.1642 18.7312 47.4249 18.7934 46.6033C18.8557 45.7818 18.8101 44.8566 18.7184 43.9367C18.5349 42.097 18.1619 40.2928 17.9978 39.5842C17.9766 39.4926 17.9376 39.4061 17.8829 39.3296C17.8282 39.2531 17.759 39.1881 17.6792 39.1383C17.5993 39.0886 17.5104 39.0551 17.4176 39.0396C17.3247 39.0241 17.2297 39.027 17.138 39.0482L17.138 39.0478Z" fill="black"/>
<mask id="mask5_70_2924" style="mask-type:luminance" maskUnits="userSpaceOnUse" x="-28" y="-729" width="420" height="2219">
<path d="M391.952 1489.13L391.952 -728.995H-27.9975L-27.9975 1489.13H391.952Z" fill="white"/>
</mask>
<g mask="url(#mask5_70_2924)">
<path fill-rule="evenodd" clip-rule="evenodd" d="M17.2995 39.7451C17.6141 41.1038 18.7797 46.9188 17.5618 48.2471C15.7087 50.2666 11.6504 49.5044 9.82913 50.7836C8.31802 51.8466 7.51091 53.0363 7.11793 54.3629C4.42247 53.3743 4.01087 50.052 6.39886 48.2218C7.13401 47.6573 10.8045 45.6429 11.4054 42.0569C11.8467 39.424 14.0806 37.761 14.0806 37.761C13.0691 37.1527 10.6892 34.6634 12.5293 31.5286C13.5604 29.7711 17.5158 26.4081 24.6542 27.7043C29.675 28.6169 30.0393 32.9786 28.5461 33.08C26.297 33.2304 24.8722 30.4674 24.8722 30.4674C22.1041 35.9596 19.0101 36.6778 18.6987 36.2283C17.6922 34.7699 15.1562 34.9253 15.0414 37.0141C14.9532 38.6229 16.1767 39.6437 17.2995 39.7451Z" fill="black"/>
</g>
<path d="M28.9433 34.2128C28.2432 34.1991 27.7629 34.3499 27.4539 34.524C27.2994 34.6111 27.1884 34.7031 27.1136 34.7785C27.0388 34.8539 26.987 34.9333 26.987 34.9333C26.9625 34.9734 26.9461 35.018 26.9388 35.0644C26.9316 35.1109 26.9336 35.1583 26.9447 35.204C26.9558 35.2496 26.9758 35.2927 27.0036 35.3306C27.0314 35.3686 27.0665 35.4007 27.1067 35.4251C27.1879 35.4744 27.2853 35.4895 27.3777 35.4671C27.47 35.4447 27.5497 35.3866 27.5991 35.3056C27.5991 35.3056 27.5912 35.3134 27.6226 35.2819C27.6539 35.2503 27.7113 35.2003 27.8061 35.1469C27.9956 35.0401 28.3369 34.9161 28.9294 34.9277C29.0244 34.9295 29.1162 34.8936 29.1847 34.8279C29.2531 34.7621 29.2926 34.672 29.2945 34.5772C29.2963 34.4824 29.2604 34.3908 29.1945 34.3224C29.1286 34.2541 29.0383 34.2147 28.9433 34.2128Z" fill="black"/>
<mask id="mask6_70_2924" style="mask-type:luminance" maskUnits="userSpaceOnUse" x="-28" y="-729" width="420" height="2219">
<path d="M391.952 1489.13L391.952 -728.995H-27.9975L-27.9975 1489.13H391.952Z" fill="white"/>
</mask>
<g mask="url(#mask6_70_2924)">
<path fill-rule="evenodd" clip-rule="evenodd" d="M24.7233 36.6195C24.7233 36.7009 24.7149 36.7814 24.6985 36.8566C24.6821 36.9318 24.6581 37.0001 24.6279 37.0576C24.5976 37.1151 24.5617 37.1607 24.5222 37.1919C24.4827 37.223 24.4403 37.2391 24.3975 37.2391C24.3548 37.2391 24.3124 37.223 24.2729 37.1919C24.2333 37.1607 24.1974 37.1151 24.1672 37.0576C24.1369 37.0001 24.1129 36.9318 24.0966 36.8566C24.0802 36.7814 24.0718 36.7009 24.0718 36.6195C24.0718 36.5382 24.0802 36.4576 24.0966 36.3825C24.1129 36.3073 24.1369 36.239 24.1672 36.1815C24.1974 36.1239 24.2333 36.0783 24.2729 36.0472C24.3124 36.0161 24.3548 36 24.3975 36C24.4403 36 24.4827 36.0161 24.5222 36.0472C24.5617 36.0783 24.5976 36.1239 24.6279 36.1815C24.6581 36.239 24.6821 36.3073 24.6985 36.3825C24.7149 36.4576 24.7233 36.5382 24.7233 36.6195Z" fill="black"/>
</g>
<mask id="mask7_70_2924" style="mask-type:luminance" maskUnits="userSpaceOnUse" x="-28" y="-729" width="420" height="2219">
<path d="M391.952 1489.13L391.952 -728.995H-27.9975L-27.9975 1489.13H391.952Z" fill="white"/>
</mask>
<g mask="url(#mask7_70_2924)">
<path fill-rule="evenodd" clip-rule="evenodd" d="M27.945 36.7533C27.945 36.8347 27.9366 36.9152 27.9202 36.9904C27.9038 37.0656 27.8798 37.1339 27.8496 37.1914C27.8193 37.2489 27.7834 37.2945 27.7439 37.3257C27.7044 37.3568 27.662 37.3729 27.6192 37.3729C27.5764 37.3729 27.5341 37.3568 27.4946 37.3257C27.455 37.2945 27.4191 37.2489 27.3889 37.1914C27.3586 37.1339 27.3346 37.0656 27.3183 36.9904C27.3019 36.9152 27.2935 36.8347 27.2935 36.7533C27.2935 36.672 27.3019 36.5914 27.3183 36.5163C27.3346 36.4411 27.3586 36.3728 27.3889 36.3152C27.4191 36.2577 27.455 36.2121 27.4946 36.181C27.5341 36.1499 27.5764 36.1338 27.6192 36.1338C27.662 36.1338 27.7044 36.1499 27.7439 36.181C27.7834 36.2121 27.8193 36.2577 27.8496 36.3152C27.8798 36.3728 27.9038 36.4411 27.9202 36.5163C27.9366 36.5914 27.945 36.672 27.945 36.7533Z" fill="black"/>
</g>
<path d="M24.4172 43.6756C24.3231 43.673 24.2294 43.689 24.1415 43.7226C24.0536 43.7562 23.9732 43.8068 23.9049 43.8714C23.8366 43.936 23.7817 44.0134 23.7433 44.0992C23.705 44.185 23.6839 44.2774 23.6814 44.3713C23.6783 44.4858 23.669 44.4934 23.6434 44.6347C23.6177 44.776 23.6054 45.017 23.6483 45.2645C23.6807 45.4514 23.7862 45.6178 23.9416 45.7272C24.0969 45.8365 24.2894 45.8797 24.4767 45.8474C24.6639 45.815 24.8306 45.7098 24.9401 45.5548C25.0496 45.3998 25.093 45.2078 25.0607 45.0209C25.0396 44.8992 25.0441 44.9429 25.0538 44.8899C25.0634 44.8369 25.1077 44.6533 25.1143 44.4099C25.1168 44.316 25.1008 44.2226 25.0671 44.1348C25.0335 44.0471 24.9828 43.9669 24.9181 43.8987C24.8534 43.8305 24.7758 43.7756 24.6899 43.7374C24.6039 43.6991 24.5113 43.6781 24.4172 43.6756ZM25.1959 46.1395C25.1088 46.1039 25.0155 46.0858 24.9214 46.0862C24.8273 46.0866 24.7341 46.1055 24.6473 46.1419C24.5605 46.1782 24.4817 46.2312 24.4154 46.2979C24.3491 46.3646 24.2967 46.4437 24.261 46.5307C24.2254 46.6176 24.2072 46.7108 24.2076 46.8047C24.2081 46.8987 24.227 46.9916 24.2634 47.0783C24.4527 47.5289 24.7992 47.8309 25.1695 48.0298C24.9937 49.4444 24.4563 51.5017 22.9278 52.8458C22.4999 52.5498 21.7963 52.0511 20.892 51.3051C19.6182 50.2542 18.3151 48.8393 18.1209 48.1777C18.0674 47.9957 17.9437 47.8423 17.7769 47.7514C17.6101 47.6604 17.414 47.6392 17.2316 47.6925C17.1413 47.7189 17.0571 47.7628 16.9837 47.8217C16.9104 47.8805 16.8494 47.9533 16.8042 48.0357C16.7591 48.1181 16.7306 48.2086 16.7205 48.302C16.7103 48.3954 16.7187 48.4899 16.7452 48.5801C17.1711 50.0308 18.638 51.3015 19.979 52.4078C21.32 53.5141 22.5766 54.3456 22.5766 54.3456C22.6977 54.4258 22.8404 54.4674 22.9858 54.4647C23.1311 54.462 23.2722 54.4153 23.3904 54.3308C25.986 52.4727 26.5394 49.2938 26.6708 47.6308C26.6847 47.455 26.633 47.2803 26.5257 47.1402C26.4184 47 26.2631 46.9044 26.0895 46.8716C25.7395 46.8057 25.7109 46.8236 25.5855 46.5251C25.5491 46.4384 25.496 46.3598 25.4291 46.2936C25.3623 46.2275 25.2831 46.1751 25.1959 46.1395Z" fill="black"/>
<path d="M25.4751 48.8486C25.3832 48.8689 25.2962 48.9071 25.2191 48.961C25.142 49.0149 25.0763 49.0835 25.0257 49.1628C24.9236 49.3228 24.8894 49.5167 24.9306 49.7019C24.9718 49.8871 25.085 50.0484 25.2453 50.1503L26.1788 50.7435C26.3392 50.8453 26.5335 50.8795 26.719 50.8384C26.9046 50.7973 27.0662 50.6843 27.1682 50.5243C27.2188 50.445 27.2533 50.3567 27.2696 50.2641C27.286 50.1716 27.2839 50.0767 27.2635 49.985C27.2431 49.8932 27.2048 49.8064 27.1508 49.7294C27.0968 49.6525 27.0281 49.5869 26.9487 49.5364L26.0151 48.9433C25.8548 48.8415 25.6606 48.8074 25.4751 48.8486Z" fill="black"/>
<path d="M24.8497 51.0016C24.756 50.9916 24.6613 51.0001 24.571 51.0267C24.4807 51.0533 24.3965 51.0973 24.3232 51.1564C24.2499 51.2154 24.1891 51.2883 24.144 51.3708C24.099 51.4533 24.0707 51.5438 24.0607 51.6372C24.0507 51.7307 24.0593 51.8251 24.0859 51.9152C24.1125 52.0053 24.1566 52.0893 24.2157 52.1624L24.9277 53.0427C24.9868 53.1158 25.0598 53.1766 25.1424 53.2215C25.2251 53.2665 25.3158 53.2948 25.4094 53.3047C25.503 53.3147 25.5977 53.3062 25.6879 53.2796C25.7782 53.2531 25.8624 53.209 25.9356 53.15C26.0835 53.0308 26.1778 52.8579 26.198 52.6693C26.2181 52.4808 26.1624 52.2919 26.0431 52.1443L25.3311 51.2637C25.2118 51.1161 25.0386 51.0218 24.8497 51.0016Z" fill="black"/>
<path d="M23.0594 53.0394C22.8707 53.0165 22.6807 53.0693 22.531 53.1862C22.3814 53.3031 22.2844 53.4746 22.2614 53.6629L22.1166 54.8511C22.1052 54.9444 22.1124 55.039 22.1376 55.1295C22.1629 55.22 22.2058 55.3046 22.2638 55.3786C22.3218 55.4525 22.3939 55.5144 22.4759 55.5605C22.5579 55.6067 22.6481 55.6363 22.7416 55.6476C22.835 55.6589 22.9298 55.6518 23.0204 55.6265C23.1111 55.6013 23.1959 55.5586 23.27 55.5006C23.3441 55.4427 23.406 55.3708 23.4523 55.289C23.4985 55.2072 23.5282 55.117 23.5395 55.0238L23.6844 53.8359C23.6957 53.7426 23.6886 53.648 23.6633 53.5575C23.638 53.467 23.5952 53.3824 23.5371 53.3084C23.4791 53.2345 23.407 53.1726 23.3251 53.1265C23.2431 53.0803 23.1528 53.0508 23.0594 53.0394Z" fill="black"/>
<path d="M21.5368 51.9824C21.347 51.9726 21.1611 52.0385 21.0199 52.1656L19.8513 53.2185C19.7814 53.2814 19.7246 53.3574 19.6842 53.4423C19.6438 53.5271 19.6205 53.6191 19.6157 53.7129C19.6109 53.8067 19.6246 53.9006 19.6561 53.9891C19.6876 54.0776 19.7363 54.1591 19.7994 54.2288C19.8624 54.2986 19.9386 54.3552 20.0236 54.3956C20.1086 54.4359 20.2007 54.4592 20.2947 54.464C20.3887 54.4688 20.4828 54.4551 20.5714 54.4236C20.6601 54.3922 20.7417 54.3436 20.8116 54.2806L21.9803 53.2277C22.0501 53.1648 22.1069 53.0887 22.1473 53.0039C22.1878 52.919 22.2111 52.8271 22.2159 52.7333C22.2207 52.6395 22.207 52.5456 22.1754 52.4571C22.1439 52.3686 22.0952 52.2871 22.0322 52.2174C21.9048 52.0766 21.7266 51.9921 21.5368 51.9824Z" fill="black"/>
<path d="M19.4876 50.2515C19.2987 50.2316 19.1095 50.2874 18.9618 50.4066L17.8682 51.2886C17.795 51.3476 17.7342 51.4205 17.6892 51.503C17.6442 51.5855 17.616 51.6761 17.606 51.7695C17.5961 51.8629 17.6047 51.9574 17.6314 52.0475C17.6581 52.1376 17.7022 52.2215 17.7614 52.2946C17.8206 52.3677 17.8936 52.4284 17.9762 52.4733C18.0589 52.5182 18.1496 52.5464 18.2432 52.5563C18.3368 52.5662 18.4315 52.5576 18.5217 52.531C18.612 52.5044 18.6961 52.4603 18.7693 52.4012L19.8626 51.5193C19.9358 51.4603 19.9967 51.3874 20.0417 51.3049C20.0867 51.2224 20.115 51.1318 20.1249 51.0384C20.1349 50.945 20.1263 50.8505 20.0997 50.7604C20.073 50.6703 20.0289 50.5863 19.9697 50.5132C19.9105 50.4401 19.8375 50.3794 19.7548 50.3345C19.672 50.2896 19.5812 50.2614 19.4876 50.2515Z" fill="black"/>
<path d="M18.2804 48.8581C18.1898 48.8328 18.0951 48.8255 18.0016 48.8366C17.9082 48.8478 17.8178 48.8772 17.7358 48.9232L16.6789 49.5166C16.5132 49.6096 16.3914 49.7645 16.3401 49.9471C16.2888 50.1298 16.3123 50.3253 16.4054 50.4906C16.4986 50.656 16.6537 50.7776 16.8367 50.8288C17.0197 50.88 17.2156 50.8566 17.3813 50.7636L18.4382 50.1705C18.5202 50.1244 18.5924 50.0628 18.6506 49.9889C18.7087 49.915 18.7517 49.8303 18.7771 49.7398C18.8025 49.6493 18.8098 49.5548 18.7986 49.4615C18.7873 49.3682 18.7578 49.278 18.7116 49.1961C18.6185 49.0309 18.4634 48.9093 18.2804 48.8581Z" fill="black"/>
<path d="M21.2497 24.4678C9.53767 24.4678 5.07938e-06 33.5925 0 44.8651C-5.07938e-06 56.1377 9.53766 65.2624 21.2497 65.2624C32.9618 65.2624 42.4995 56.1377 42.4995 44.8651C42.4995 33.5925 32.9618 24.4678 21.2497 24.4678ZM21.2497 25.8983C32.2179 25.8983 41.0663 34.3976 41.0663 44.8651C41.0663 55.3326 32.2179 63.8319 21.2497 63.8319C10.2816 63.8319 1.4332 55.3326 1.43321 44.8651C1.43321 34.3976 10.2816 25.8983 21.2497 25.8983Z" fill="black"/>
<path d="M81.4519 28.4979C80.5702 28.5669 79.8184 29.023 79.1774 29.6112C79.0375 29.7396 78.9544 29.9182 78.9464 30.1077C78.9384 30.2972 79.0062 30.4822 79.1348 30.6219C79.1985 30.6911 79.2752 30.7471 79.3606 30.7867C79.446 30.8262 79.5383 30.8486 79.6324 30.8526C79.7265 30.8565 79.8204 30.842 79.9088 30.8097C79.9972 30.7774 80.0784 30.7281 80.1477 30.6644C80.6503 30.2032 81.1122 29.9595 81.5637 29.9241C82.0152 29.8888 82.5406 30.0352 83.2555 30.6225C83.3282 30.6822 83.4119 30.7271 83.5019 30.7545C83.592 30.7819 83.6865 30.7913 83.7802 30.7823C83.8739 30.7732 83.9649 30.7458 84.048 30.7017C84.1311 30.6575 84.2046 30.5974 84.2644 30.5248C84.3243 30.4523 84.3692 30.3687 84.3967 30.2788C84.4241 30.189 84.4336 30.0946 84.4245 30.0011C84.4154 29.9076 84.3879 29.8167 84.3437 29.7338C84.2994 29.6509 84.2392 29.5775 84.1665 29.5178C83.2606 28.7735 82.3336 28.4289 81.4519 28.4979Z" fill="black"/>
<path d="M90.7212 26.517C90.5324 26.5382 90.3597 26.6333 90.2411 26.7816C90.1225 26.9298 90.0678 27.119 90.089 27.3075C90.3352 29.4977 90.5009 33.2258 90.2199 36.9362C89.9389 40.6466 89.1736 44.3529 87.7639 46.4414H87.7635C86.1127 48.8878 83.7533 49.2109 81.4861 48.7591C80.3524 48.5332 79.2693 48.0916 78.4163 47.6075C77.5633 47.1233 76.9339 46.5563 76.7572 46.2918C76.705 46.2137 76.6378 46.1465 76.5596 46.0943C76.4814 46.042 76.3936 46.0057 76.3013 45.9873C76.209 45.9689 76.114 45.9688 76.0216 45.9871C75.9293 46.0054 75.8415 46.0416 75.7632 46.0938C75.6051 46.1991 75.4954 46.3627 75.4582 46.5487C75.421 46.7347 75.4593 46.9278 75.5648 47.0856C75.9888 47.7202 76.7294 48.2959 77.7076 48.8512C78.6858 49.4064 79.8949 49.901 81.2056 50.1622C83.8272 50.6846 86.9658 50.1849 88.9527 47.2404H88.9524C90.6512 44.7238 91.3599 40.8671 91.6495 37.0438C91.939 33.2205 91.7718 29.4444 91.5135 27.1478C91.503 27.0544 91.4742 26.964 91.4287 26.8817C91.3832 26.7995 91.3219 26.727 91.2484 26.6684C91.1748 26.6098 91.0904 26.5662 90.9999 26.5402C90.9095 26.5142 90.8148 26.5062 90.7212 26.5167L90.7212 26.517Z" fill="black"/>
<path d="M73.7348 14.009C72.9495 14.032 72.2005 14.09 71.4874 14.1862C68.7438 14.5564 66.5092 15.5327 64.9202 17.3004C64.1743 17.3945 60.157 18.045 58.1388 21.7216C56.3803 24.9237 55.6262 31.4445 55.2311 38.2799C54.8359 45.1154 54.8859 52.1747 55.0723 56.0938C55.2576 59.9886 57.5 62.7019 60.2026 64.2438C62.9053 65.7856 66.0541 66.2509 68.4047 65.7713C69.6956 65.5078 70.661 64.6056 71.2559 63.4833C71.8508 62.3609 72.1233 61.0021 72.1233 59.6189C72.1233 58.9246 72.2378 52.3715 72.3525 46.0688C72.4639 39.9423 72.5695 34.3298 72.5757 34.0019C74.8305 32.3593 76.7303 30.0104 77.4524 26.1368C78.2473 26.754 79.3861 27.5493 81.038 28.2826C83.7588 29.4904 87.469 30.1878 90.9554 27.9882C92.161 27.2278 92.7834 25.9673 92.8181 24.6294C92.8529 23.2916 92.3636 21.8661 91.4779 20.5096C89.7065 17.7965 86.3054 15.3258 81.7943 14.642C78.773 14.1838 76.0905 13.9396 73.7348 14.0086V14.009ZM73.7761 15.4408C76.001 15.3775 78.6086 15.6062 81.579 16.0567C85.6863 16.6792 88.7494 18.9507 90.2771 21.2905C91.041 22.4604 91.4101 23.6389 91.3853 24.5925C91.3605 25.546 91.0055 26.2642 90.1895 26.7788C87.2021 28.6637 84.0967 28.0749 81.6204 26.9755C79.144 25.8762 77.4299 24.2878 77.4299 24.2878C77.3326 24.1974 77.2121 24.1357 77.0817 24.1097C76.9514 24.0837 76.8163 24.0944 76.6917 24.1406C76.5671 24.1868 76.4578 24.2667 76.3761 24.3713C76.2943 24.476 76.2433 24.6012 76.2288 24.7331C75.7343 29.2089 73.868 31.3836 71.4566 33.0533C71.3634 33.1179 71.2869 33.2037 71.2334 33.3035C71.1799 33.4034 71.1509 33.5144 71.1488 33.6276C71.1488 33.6276 71.0339 39.7397 70.9193 46.043C70.8046 52.3463 70.6898 58.7821 70.6898 59.6189C70.6898 60.8094 70.4411 61.9615 69.989 62.8142C69.537 63.667 68.93 64.2041 68.1177 64.3698C66.2111 64.7588 63.2967 64.3614 60.9139 63.002C58.5312 61.6427 56.6655 59.4166 56.5042 56.0261C56.3211 52.1767 56.2705 45.1342 56.6619 38.3624C57.0534 31.5907 57.9736 24.9988 59.3958 22.4094C61.2072 19.1095 65.3445 18.678 65.3445 18.678C65.532 18.6603 65.705 18.5696 65.826 18.4255C67.1552 16.8417 69.056 15.9585 71.6795 15.6045C72.3354 15.516 73.0345 15.4625 73.7761 15.4414V15.4408Z" fill="black"/>
<mask id="mask8_70_2924" style="mask-type:luminance" maskUnits="userSpaceOnUse" x="-28" y="-729" width="420" height="2219">
<path d="M391.952 1489.13L391.952 -728.995H-27.9975L-27.9975 1489.13H391.952Z" fill="white"/>
</mask>
<g mask="url(#mask8_70_2924)">
<path fill-rule="evenodd" clip-rule="evenodd" d="M76.9415 24.8112C76.9415 24.8112 84.0989 31.4678 90.5727 27.3833C94.6159 24.8332 90.3052 16.6556 81.6868 15.3493C73.6978 14.1376 68.204 14.4773 65.2769 17.9653C65.2769 17.9653 60.7833 18.3928 58.7675 22.065C55.5868 27.8564 55.419 48.2911 55.7886 56.0597C56.1352 63.3449 64.0042 65.939 68.2614 65.0703C70.3646 64.6411 71.4068 62.1924 71.4068 59.6187C71.4068 58.0876 71.8655 33.641 71.8655 33.641C74.384 31.897 76.4273 29.4652 76.9415 24.8112Z" fill="black"/>
</g>
<path d="M90.2597 28.6421C89.4987 28.6234 88.9124 28.7381 88.4826 28.8923C87.9095 29.0979 87.5567 29.4396 87.5567 29.4396C87.4921 29.508 87.4418 29.5884 87.4084 29.6762C87.375 29.7641 87.3593 29.8577 87.3621 29.9516C87.365 30.0455 87.3864 30.138 87.425 30.2237C87.4637 30.3093 87.5189 30.3865 87.5874 30.4509C87.656 30.5153 87.7365 30.5656 87.8246 30.5989C87.9126 30.6322 88.0063 30.6479 88.1004 30.6451C88.1945 30.6422 88.2871 30.6208 88.3729 30.5823C88.4588 30.5437 88.5361 30.4886 88.6006 30.4202C88.6006 30.4202 88.6254 30.3613 88.9674 30.2387C89.3094 30.116 89.911 29.9954 90.8884 30.1268C90.9816 30.1393 91.0765 30.1334 91.1675 30.1094C91.2585 30.0853 91.3438 30.0436 91.4186 29.9866C91.4935 29.9296 91.5563 29.8585 91.6036 29.7772C91.6509 29.696 91.6817 29.6063 91.6942 29.5132C91.7068 29.4201 91.7009 29.3254 91.6768 29.2346C91.6527 29.1438 91.6109 29.0586 91.5538 28.9839C91.4967 28.9092 91.4254 28.8465 91.3441 28.7993C91.2627 28.7521 91.1728 28.7213 91.0795 28.7088C90.7863 28.6694 90.5134 28.6484 90.2597 28.6421Z" fill="black"/>
<path d="M86.9897 30.4916C86.8991 30.5171 86.8144 30.5602 86.7405 30.6183C86.6665 30.6765 86.6048 30.7486 86.5588 30.8305C86.5588 30.8305 84.6032 34.1375 85.6292 37.3368C85.6862 37.5144 85.69 37.8241 85.6481 37.8949C85.6271 37.9303 85.6173 37.9626 85.4593 38.0104C85.3012 38.0583 84.9887 38.0914 84.4933 38.018C84.4002 38.0042 84.3053 38.0089 84.214 38.0317C84.1227 38.0546 84.0368 38.0951 83.9612 38.151C83.8856 38.207 83.8217 38.2773 83.7733 38.3579C83.725 38.4385 83.693 38.5278 83.6792 38.6207C83.6653 38.7137 83.67 38.8084 83.6929 38.8995C83.7157 38.9907 83.7564 39.0764 83.8124 39.1519C83.8685 39.2273 83.9389 39.2911 84.0197 39.3394C84.1004 39.3877 84.1899 39.4196 84.283 39.4333C84.9172 39.5273 85.4322 39.5138 85.8749 39.3799C86.3176 39.2459 86.6817 38.9613 86.8819 38.6237C87.2822 37.9484 87.1184 37.2873 86.9943 36.9004C86.2307 34.5196 87.8095 31.53 87.8095 31.53C87.8554 31.448 87.8848 31.3578 87.8959 31.2645C87.9069 31.1712 87.8995 31.0767 87.8739 30.9863C87.8484 30.8958 87.8052 30.8113 87.747 30.7376C87.6887 30.6638 87.6164 30.6022 87.5343 30.5563C87.3686 30.4635 87.1726 30.4402 86.9897 30.4916Z" fill="black"/>
<mask id="mask9_70_2924" style="mask-type:luminance" maskUnits="userSpaceOnUse" x="-28" y="-729" width="420" height="2219">
<path d="M391.952 1489.13L391.952 -728.995H-27.9975L-27.9975 1489.13H391.952Z" fill="white"/>
</mask>
<g mask="url(#mask9_70_2924)">
<path fill-rule="evenodd" clip-rule="evenodd" d="M82.9569 33.357C82.9569 33.6501 82.8791 33.9312 82.7407 34.1384C82.6022 34.3457 82.4145 34.4621 82.2187 34.4621C82.0229 34.4621 81.8351 34.3457 81.6967 34.1384C81.5582 33.9312 81.4805 33.6501 81.4805 33.357C81.4805 33.0639 81.5582 32.7829 81.6967 32.5757C81.8351 32.3684 82.0229 32.252 82.2187 32.252C82.4145 32.252 82.6022 32.3684 82.7407 32.5757C82.8791 32.7829 82.9569 33.0639 82.9569 33.357Z" fill="black"/>
</g>
<mask id="mask10_70_2924" style="mask-type:luminance" maskUnits="userSpaceOnUse" x="-28" y="-729" width="420" height="2219">
<path d="M391.952 1489.13L391.952 -728.995H-27.9975L-27.9975 1489.13H391.952Z" fill="white"/>
</mask>
<g mask="url(#mask10_70_2924)">
<path fill-rule="evenodd" clip-rule="evenodd" d="M89.3543 33.357C89.3543 33.6501 89.2766 33.9312 89.1381 34.1384C88.9997 34.3457 88.8119 34.4621 88.6161 34.4621C88.4203 34.4621 88.2326 34.3457 88.0941 34.1384C87.9557 33.9312 87.8779 33.6501 87.8779 33.357C87.8779 33.0639 87.9557 32.7829 88.0941 32.5757C88.2326 32.3684 88.4203 32.252 88.6161 32.252C88.8119 32.252 88.9997 32.3684 89.1381 32.5757C89.2766 32.7829 89.3543 33.0639 89.3543 33.357Z" fill="black"/>
</g>
<path d="M82.1412 40.1319C81.5345 40.1233 80.98 40.6089 80.8323 41.1235C80.6847 41.638 80.7731 42.1744 81.0135 42.6936C81.4944 43.7319 82.6904 44.7018 84.5265 44.8113C84.5267 44.8113 84.5269 44.8113 84.5271 44.8113C86.0317 44.8999 87.1699 43.8962 87.7279 42.8877C88.0068 42.3834 88.1787 41.8658 88.1035 41.3099C88.0659 41.032 87.9443 40.7259 87.6961 40.5C87.448 40.274 87.1048 40.1692 86.7837 40.1692C86.1305 40.1692 83.003 40.1443 82.1415 40.1319C82.1414 40.1319 82.1413 40.1319 82.1412 40.1319ZM82.21 41.5634C83.1335 41.5759 85.9 41.598 86.669 41.5991C86.6575 41.7222 86.614 41.9407 86.4729 42.1958C86.1235 42.8273 85.4054 43.4295 84.6121 43.3831C83.2263 43.3005 82.566 42.6366 82.3145 42.0935C82.2025 41.8516 82.1979 41.6528 82.21 41.5634Z" fill="black"/>
<path d="M80.8021 48.611C80.6123 48.6002 80.426 48.665 80.2842 48.7912C80.1423 48.9174 80.0564 49.0947 80.0455 49.284C79.9184 51.4835 80.4793 57.7035 83.7508 64.062C84.5045 65.5269 84.8923 68.9079 85.1378 72.6285C85.3832 76.349 85.5469 80.4517 86.1424 83.7035C86.1426 83.7045 86.1428 83.7055 86.1431 83.7065C86.1587 83.7902 86.1738 83.8777 86.1887 83.9653C86.2044 84.0579 86.2383 84.1466 86.2884 84.2261C86.3385 84.3057 86.4038 84.3746 86.4805 84.429C86.5573 84.4833 86.6441 84.5221 86.7358 84.543C86.8276 84.5639 86.9226 84.5666 87.0154 84.5508C87.1082 84.5351 87.197 84.5013 87.2767 84.4513C87.3565 84.4013 87.4255 84.3362 87.48 84.2596C87.5345 84.1829 87.5733 84.0963 87.5942 84.0047C87.6152 83.9131 87.6178 83.8183 87.6021 83.7257C87.5866 83.635 87.5701 83.541 87.5525 83.4464C86.9875 80.3609 86.8155 76.2812 86.5683 72.5348C86.3212 68.7884 86.0599 65.4182 85.026 63.4086C81.9016 57.3359 81.3742 51.1351 81.4764 49.3666C81.4818 49.2728 81.4687 49.1789 81.4378 49.0901C81.4068 49.0014 81.3587 48.9196 81.296 48.8494C81.2334 48.7793 81.1576 48.7222 81.0728 48.6813C80.9881 48.6404 80.8961 48.6164 80.8021 48.611ZM70.9912 60.7383C70.8119 60.801 70.6649 60.9324 70.5825 61.1033C70.5001 61.2743 70.4892 61.4709 70.5521 61.6499C72.8726 68.2562 75.8917 73.8553 78.5898 78.0429C81.2879 82.2304 83.6192 84.9709 84.7465 85.9991C85.1708 86.3867 85.5251 86.6538 85.8894 86.8229C85.9748 86.8625 86.0671 86.8849 86.1611 86.8889C86.2552 86.8929 86.3491 86.8783 86.4375 86.8461C86.5259 86.8139 86.6071 86.7646 86.6764 86.701C86.7457 86.6375 86.8018 86.5609 86.8415 86.4757C86.8811 86.3905 86.9036 86.2983 86.9076 86.2045C86.9116 86.1106 86.897 86.0168 86.8647 85.9286C86.8324 85.8404 86.783 85.7594 86.7193 85.6902C86.6556 85.621 86.5789 85.565 86.4936 85.5254C86.3555 85.4613 86.0773 85.2756 85.7138 84.9435C85.7137 84.9435 85.7136 84.9435 85.7135 84.9435C84.8137 84.1229 82.4422 81.3771 79.7955 77.2692C77.1487 73.1614 74.1807 67.6557 71.9049 61.1769C71.8738 61.0882 71.8254 61.0066 71.7626 60.9365C71.6999 60.8665 71.6239 60.8095 71.539 60.7688C71.4542 60.7281 71.3621 60.7045 71.2681 60.6993C71.1741 60.6941 71.08 60.7075 70.9912 60.7386L70.9912 60.7383Z" fill="black"/>
<path d="M81.4592 53.6665C81.3707 53.6346 81.2767 53.6204 81.1827 53.6248C81.0887 53.6292 80.9965 53.6519 80.9113 53.6919C76.6012 55.7127 71.7353 53.9384 71.7353 53.9384C71.5574 53.8718 71.3602 53.8785 71.1872 53.957C71.0142 54.0355 70.8795 54.1794 70.8127 54.357C70.746 54.5346 70.7527 54.7314 70.8313 54.904C70.9099 55.0767 71.0541 55.2112 71.232 55.2778C71.232 55.2778 76.5535 57.3157 81.5207 54.9867C81.6928 54.9061 81.8256 54.7605 81.8901 54.5821C81.9546 54.4036 81.9455 54.2069 81.8647 54.0351C81.7838 53.8635 81.638 53.7308 81.4592 53.6665Z" fill="black"/>
<path d="M90.0166 41.7664C89.8286 41.794 89.6593 41.895 89.5458 42.0472C89.4324 42.1994 89.3842 42.3903 89.4118 42.578C89.9447 46.2032 90.7554 54.4911 92.3384 59.3222C92.2631 59.093 92.3251 59.4148 92.0848 59.7687C91.8444 60.1227 91.4109 60.562 90.7547 60.9395C89.4424 61.6944 87.2272 62.2314 83.7831 61.4405C83.5979 61.398 83.4033 61.4306 83.2422 61.5313C83.0811 61.6319 82.9666 61.7923 82.924 61.9772C82.8814 62.1621 82.9141 62.3563 83.0149 62.5171C83.1158 62.6779 83.2765 62.7922 83.4617 62.8347C87.1778 63.6881 89.8035 63.1383 91.4707 62.1792C92.3042 61.6997 92.8952 61.1252 93.2713 60.5715C93.6472 60.0179 93.9176 59.538 93.7005 58.8766C92.2258 54.3757 91.377 46.0929 90.8298 42.3704C90.8161 42.2774 90.7843 42.1881 90.736 42.1074C90.6878 42.0268 90.6241 41.9564 90.5486 41.9003C90.473 41.8442 90.3872 41.8035 90.2959 41.7805C90.2047 41.7575 90.1098 41.7527 90.0166 41.7664Z" fill="black"/>
<mask id="mask11_70_2924" style="mask-type:luminance" maskUnits="userSpaceOnUse" x="-28" y="-729" width="420" height="2219">
<path d="M391.952 1489.13L391.952 -728.995H-27.9975L-27.9975 1489.13H391.952Z" fill="white"/>
</mask>
<g mask="url(#mask11_70_2924)">
<path fill-rule="evenodd" clip-rule="evenodd" d="M80.7609 49.3251C83.3407 49.9994 86.3926 49.7527 88.358 46.841C89.1334 45.6918 89.7057 44.1742 90.1205 42.4741C90.6606 46.148 91.4903 54.4337 93.0192 59.0996C93.3036 59.9649 90.7825 63.7824 83.6223 62.1381C81.1017 56.4853 80.6561 51.1384 80.7609 49.3251Z" fill="black"/>
</g>
<path d="M117.666 92.6959C117.633 92.6994 117.083 92.7219 116.34 92.7338C115.597 92.7457 114.595 92.756 113.419 92.7658C111.066 92.7856 108.014 92.8036 104.919 92.8282C101.824 92.8528 98.6854 92.8841 96.1553 92.9312C93.6252 92.9783 91.7754 93.0283 90.9882 93.1342C89.5563 93.3269 88.6127 93.9107 88.1116 94.6617C87.6105 95.4128 87.5706 96.2325 87.6162 96.8203C87.6343 97.053 87.687 97.2845 87.7667 97.6356C87.8463 97.9867 87.9539 98.4246 88.0825 98.9258C88.3396 99.9282 88.6793 101.182 89.0342 102.46C89.7439 105.017 90.5085 107.651 90.8037 108.579C91.1155 109.562 91.5747 110.34 92.2459 110.855C92.917 111.369 93.7655 111.57 94.6728 111.519C94.9985 111.501 96.9078 111.452 99.5134 111.395C102.119 111.337 105.468 111.267 108.829 111.199C115.551 111.063 122.314 110.932 123.306 110.91C123.868 110.898 124.314 110.817 124.695 110.594C125.077 110.371 125.337 109.951 125.392 109.574C125.503 108.82 125.176 108.262 125.012 107.815C124.952 107.649 124.7 106.836 124.386 105.782C124.071 104.729 123.678 103.395 123.28 102.041C122.483 99.3323 121.672 96.5675 121.395 95.716H121.395C120.798 93.8782 119.343 92.5177 117.666 92.6959ZM117.818 94.1184C118.59 94.0364 119.58 94.7679 120.032 96.1579C120.28 96.9186 121.107 99.7347 121.904 102.444C122.303 103.799 122.696 105.133 123.012 106.191C123.328 107.248 123.551 107.989 123.665 108.303C123.665 108.303 123.665 108.304 123.665 108.304C123.851 108.812 123.98 109.293 123.972 109.36C123.97 109.362 123.973 109.359 123.97 109.36C123.916 109.392 123.696 109.471 123.274 109.48C122.301 109.502 115.522 109.633 108.8 109.769C105.439 109.837 102.089 109.907 99.4817 109.964C96.874 110.022 95.0546 110.066 94.5934 110.091C94.5932 110.091 94.593 110.091 94.5928 110.091C93.9272 110.128 93.486 110.002 93.1192 109.72C92.7524 109.439 92.4255 108.952 92.1701 108.147C92.17 108.147 92.1699 108.147 92.1698 108.147C91.8961 107.287 91.1221 104.624 90.4155 102.079C90.0622 100.806 89.7241 99.5585 89.471 98.5718C89.3445 98.0783 89.2392 97.6499 89.1645 97.3205C89.0898 96.9911 89.0468 96.7284 89.0454 96.7105C89.0132 96.2945 89.0566 95.8272 89.3047 95.4553C89.5528 95.0834 90.0246 94.7083 91.1797 94.5529C91.6861 94.4848 93.6622 94.4094 96.182 94.3624C98.7019 94.3155 101.837 94.2841 104.93 94.2595C108.024 94.2349 111.075 94.2172 113.431 94.1974C114.609 94.1876 115.613 94.1771 116.363 94.1651C117.114 94.1531 117.546 94.1481 117.818 94.1192L117.818 94.1184Z" fill="black"/>
<path d="M89.8377 93.4005C89.6555 93.4542 89.5021 93.5781 89.4113 93.7447C89.3205 93.9113 89.2997 94.1071 89.3536 94.289L94.2974 110.994C94.324 111.084 94.3682 111.168 94.4274 111.241C94.4865 111.314 94.5596 111.375 94.6423 111.42C94.725 111.465 94.8157 111.493 94.9093 111.503C95.003 111.513 95.0976 111.504 95.1879 111.477C95.2782 111.451 95.3623 111.407 95.4355 111.348C95.5087 111.289 95.5695 111.216 95.6144 111.133C95.6594 111.051 95.6876 110.96 95.6975 110.867C95.7074 110.773 95.6987 110.679 95.672 110.589L90.7282 93.8837C90.7015 93.7936 90.6573 93.7096 90.5982 93.6365C90.539 93.5635 90.4659 93.5028 90.3832 93.458C90.3005 93.4131 90.2098 93.3849 90.1162 93.375C90.0226 93.3652 89.9279 93.3738 89.8377 93.4005Z" fill="black"/>
<path d="M89.951 80.1711C89.1236 80.2435 88.3856 80.5321 87.7933 81.0102C87.0035 81.6475 86.4872 82.5808 86.2007 83.6685C85.9762 84.5211 84.274 89.8791 82.6286 95.0204C81.8059 97.5911 80.9912 100.131 80.3663 102.09C80.0539 103.07 79.789 103.904 79.5938 104.526C79.3987 105.147 79.2831 105.516 79.2334 105.709C79.0786 106.31 78.9446 107.312 79.4017 108.306C79.8589 109.302 81.0007 110.128 82.8452 110.174C86.2249 110.26 91.916 110.039 91.916 110.039C92.1059 110.032 92.2851 109.949 92.4142 109.81C92.5434 109.671 92.6118 109.486 92.6045 109.297C92.5971 109.107 92.5147 108.928 92.3752 108.799C92.2357 108.67 92.0507 108.602 91.8607 108.609C91.8607 108.609 86.1562 108.827 82.8812 108.744H82.8809C81.3982 108.707 80.9464 108.236 80.7046 107.71C80.4628 107.184 80.5244 106.441 80.6213 106.065H80.6216C80.6348 106.014 80.7676 105.572 80.9616 104.954C81.1555 104.336 81.4203 103.503 81.7324 102.524C82.3567 100.567 83.1711 98.0269 83.994 95.4558C85.6398 90.3134 87.2948 85.1413 87.5869 84.0319C87.8172 83.1576 88.2006 82.521 88.6944 82.1225C89.1882 81.7239 89.8072 81.5226 90.6848 81.597C91.3164 81.6506 93.4293 81.7002 96.4613 81.7637C99.4933 81.8272 103.367 81.8968 107.253 81.965C115.024 82.1015 122.929 82.2376 124.041 82.2968C125.009 82.3483 125.539 82.8322 125.885 83.5569C126.231 84.2817 126.29 85.2559 126.097 85.975C125.877 86.791 124.713 90.5152 123.623 93.9652C122.533 97.4152 121.502 100.642 121.502 100.642C121.445 100.823 121.461 101.019 121.548 101.188C121.636 101.356 121.786 101.483 121.967 101.541C122.057 101.569 122.151 101.58 122.245 101.572C122.339 101.564 122.43 101.538 122.514 101.495C122.598 101.452 122.672 101.393 122.733 101.321C122.793 101.249 122.839 101.166 122.868 101.076C122.868 101.076 123.899 97.8481 124.99 94.3956C126.081 90.9431 127.219 87.3176 127.481 86.3457C127.768 85.2768 127.696 84.0268 127.179 82.942C126.662 81.8573 125.596 80.9465 124.118 80.8679C122.783 80.7969 115.048 80.671 107.278 80.5345C103.392 80.4663 99.5198 80.3966 96.4914 80.3332C93.463 80.2698 91.2014 80.205 90.8062 80.1715C90.5126 80.1466 90.2268 80.1467 89.951 80.1715V80.1711Z" fill="black"/>
<path d="M91.3164 80.2275C91.1363 80.1668 90.9395 80.1801 90.7693 80.2643C90.599 80.3484 90.4691 80.4967 90.4083 80.6763L80.8296 109.018C80.7689 109.198 80.7821 109.394 80.8664 109.564C80.9508 109.734 81.0993 109.864 81.2793 109.925C81.3685 109.955 81.4628 109.967 81.5567 109.961C81.6506 109.954 81.7424 109.93 81.8268 109.888C81.9111 109.846 81.9864 109.788 82.0484 109.718C82.1103 109.647 82.1577 109.564 82.1877 109.475L91.7665 81.1338C91.8272 80.9541 91.8139 80.7576 91.7295 80.5876C91.6451 80.4177 91.4965 80.2881 91.3164 80.2275Z" fill="black"/>
<path d="M88.5595 64.3318C88.4712 64.3644 88.3902 64.414 88.3211 64.4778C88.252 64.5417 88.1962 64.6185 88.1569 64.7038C88.1175 64.7892 88.0954 64.8814 88.0918 64.9753C88.0882 65.0692 88.1032 65.1629 88.1359 65.251C88.1359 65.251 89.9789 70.2672 93.285 73.8016C93.2398 73.8966 93.1942 73.9962 93.0886 74.165C92.8038 74.6203 92.34 75.2593 91.8488 75.9751C90.8666 77.4068 89.7204 79.1142 89.6365 80.833C89.6273 81.0225 89.6938 81.2079 89.8215 81.3484C89.9492 81.4889 90.1276 81.573 90.3174 81.5823C90.5072 81.5915 90.693 81.525 90.8337 81.3976C90.9745 81.2701 91.0588 81.0921 91.0681 80.9027C91.1196 79.8466 92.0771 78.1744 93.0314 76.7834C93.5085 76.088 93.9713 75.455 94.3042 74.9229C94.4707 74.6568 94.6068 74.4223 94.701 74.1631C94.7481 74.0334 94.7892 73.896 94.791 73.7106C94.7927 73.5252 94.7284 73.2567 94.5396 73.0633H94.5393C91.3996 69.8457 89.4804 64.7549 89.4804 64.7549C89.4478 64.6668 89.3981 64.586 89.3341 64.517C89.2702 64.4481 89.1932 64.3923 89.1077 64.3531C89.0222 64.3138 88.9297 64.2917 88.8357 64.2881C88.7416 64.2845 88.6477 64.2995 88.5595 64.3321L88.5595 64.3318Z" fill="black"/>
<path d="M92.3436 59.6949C92.1592 59.7406 92.0006 59.8576 91.9025 60.02C91.9025 60.02 91.1922 61.1967 90.4915 62.6721C89.7908 64.1475 89.0553 65.8704 89.1065 67.3293C89.1098 67.4232 89.1316 67.5155 89.1707 67.601C89.2097 67.6864 89.2652 67.7634 89.3341 67.8275C89.4029 67.8915 89.4837 67.9415 89.5719 67.9743C89.6601 68.0072 89.7539 68.0224 89.8479 68.0191C90.0378 68.0125 90.2173 67.9308 90.3469 67.7921C90.4766 67.6534 90.5457 67.469 90.5391 67.2795C90.509 66.4232 91.1203 64.6884 91.7868 63.285C92.4533 61.8816 93.1304 60.7581 93.1304 60.7581C93.2284 60.5956 93.2577 60.4009 93.2119 60.2168C93.1662 60.0328 93.049 59.8743 92.8863 59.7764C92.8057 59.7279 92.7162 59.6958 92.6231 59.6818C92.53 59.6678 92.435 59.6723 92.3436 59.6949Z" fill="black"/>
<path d="M71.6149 67.0755C71.4257 67.0576 71.2372 67.1154 71.0907 67.2362C70.9443 67.357 70.8518 67.5309 70.8338 67.7197C70.8375 67.681 70.7951 67.8913 70.7088 68.1416C70.6225 68.3919 70.4969 68.7202 70.3437 69.0968C70.0374 69.85 69.6204 70.7995 69.1708 71.7729C68.2715 73.7198 67.208 75.808 66.7131 76.5486C66.5797 76.7485 66.5188 77.1836 66.6708 77.4514C66.8228 77.7192 67.0046 77.8037 67.1549 77.8758C67.4555 78.0201 67.7627 78.087 68.1708 78.1752C68.987 78.3515 70.1561 78.549 71.6073 78.8957C74.5097 79.5892 78.5099 80.8699 82.6781 83.6714C82.8358 83.7774 83.0291 83.8165 83.2157 83.7802C83.4022 83.7438 83.5666 83.635 83.6728 83.4777C83.779 83.3203 83.8182 83.1273 83.7817 82.9412C83.7453 82.755 83.6363 82.5908 83.4787 82.4848C79.1257 79.5592 74.9423 78.2213 71.941 77.5042C70.4403 77.1456 69.2269 76.9397 68.474 76.777C68.3566 76.7517 68.3501 76.7419 68.2564 76.7176C68.8872 75.6504 69.6944 74.0562 70.4724 72.372C70.9292 71.383 71.3529 70.4192 71.6718 69.6351C71.8312 69.243 71.9646 68.8963 72.0643 68.607C72.1641 68.3176 72.2352 68.1231 72.2607 67.8554C72.2697 67.7619 72.26 67.6675 72.2324 67.5777C72.2048 67.4878 72.1597 67.4043 72.0997 67.3319C72.0397 67.2595 71.9661 67.1995 71.8829 67.1555C71.7997 67.1115 71.7086 67.0843 71.6149 67.0755Z" fill="black"/>
<path d="M62.7231 63.9587C62.6324 63.9839 62.5476 64.0266 62.4734 64.0845C62.3993 64.1424 62.3372 64.2143 62.2909 64.2961C62.2446 64.3779 62.2149 64.4679 62.2035 64.5612C62.1921 64.6544 62.1992 64.749 62.2244 64.8395C62.2496 64.93 62.2925 65.0147 62.3505 65.0887C62.4085 65.1627 62.4805 65.2245 62.5624 65.2707C62.5624 65.2707 64.1158 66.147 65.8038 67.3442C67.4919 68.5415 69.2906 70.152 69.7126 71.1376C69.7872 71.3121 69.9282 71.4498 70.1046 71.5205C70.281 71.5912 70.4783 71.589 70.6531 71.5146C70.7396 71.4777 70.8181 71.4241 70.8839 71.357C70.9498 71.2898 71.0017 71.2103 71.0368 71.1231C71.0719 71.0359 71.0894 70.9427 71.0883 70.8487C71.0873 70.7548 71.0677 70.6619 71.0307 70.5755C70.321 68.9181 68.3915 67.4245 66.6342 66.1781C64.8769 64.9317 63.2675 64.0251 63.2675 64.0251C63.102 63.9318 62.9062 63.908 62.7231 63.9587Z" fill="black"/>
<path d="M62.8739 71.2834C62.6841 71.2944 62.5065 71.3802 62.3802 71.5219C62.2538 71.6636 62.1889 71.8496 62.1999 72.0389C62.3173 74.0551 62.8516 90.9263 61.5786 99.4858C61.5531 99.657 61.5907 99.8316 61.6843 99.9772C61.778 100.123 61.9213 100.23 62.0878 100.278C62.0878 100.278 74.6476 103.941 80.5184 104.482C80.6122 104.491 80.7067 104.481 80.7967 104.453C80.8866 104.426 80.9701 104.38 81.0425 104.32C81.115 104.26 81.1748 104.187 81.2187 104.103C81.2625 104.02 81.2896 103.929 81.2982 103.836C81.3157 103.647 81.2572 103.459 81.1357 103.313C81.0142 103.167 80.8397 103.075 80.6504 103.058C75.5777 102.59 64.6323 99.5106 63.0673 99.0659C64.2815 90.0591 63.7566 74.1171 63.6308 71.9561C63.6198 71.7667 63.5339 71.5895 63.3919 71.4633C63.25 71.3372 63.0636 71.2724 62.8739 71.2834Z" fill="black"/>
<path d="M148.01 34.3061C147.595 34.26 147.218 34.3748 146.813 34.5662C146.314 34.8019 145.835 35.2093 145.253 35.7224C144.671 36.2356 144.029 36.8479 143.409 37.4394C142.79 38.0309 142.193 38.6022 141.72 39.0191C141.484 39.2275 141.278 39.3976 141.131 39.5043C140.985 39.6109 140.828 39.6256 141.045 39.5957C141.044 39.5957 141.044 39.5957 141.043 39.5957C139.914 39.7548 138.771 40.2257 137.85 40.8585C136.928 41.4913 136.15 42.2821 136.095 43.3373C136.09 43.4311 136.103 43.525 136.135 43.6136C136.166 43.7021 136.215 43.7836 136.278 43.8534C136.341 43.9233 136.417 43.98 136.502 44.0204C136.587 44.0609 136.679 44.0843 136.773 44.0892C136.867 44.0941 136.961 44.0804 137.05 44.049C137.138 44.0176 137.22 43.9691 137.29 43.9062C137.36 43.8433 137.417 43.7673 137.457 43.6825C137.498 43.5976 137.521 43.5057 137.526 43.4119C137.54 43.1422 137.932 42.5384 138.662 42.0372C139.392 41.536 140.381 41.1338 141.243 41.0123H141.241C141.639 40.9574 141.763 40.8141 141.975 40.6605C142.186 40.5069 142.416 40.3148 142.67 40.0901C143.179 39.6409 143.782 39.0631 144.4 38.4725C145.019 37.8819 145.652 37.2788 146.202 36.7941C146.752 36.3094 147.262 35.9365 147.426 35.8587C147.516 35.8162 147.509 35.8329 147.573 35.8135C147.511 36.0323 147.396 36.3529 147.118 36.769C146.783 37.2697 145.75 38.9828 144.392 40.7875C143.033 42.5923 141.318 44.4197 140.089 44.9506H140.089C138.943 45.4465 138.214 46.6007 137.612 47.8473C137.01 49.0939 136.574 50.4793 136.295 51.5618C136.248 51.7456 136.276 51.9405 136.373 52.1038C136.469 52.2671 136.627 52.3853 136.811 52.4325C136.995 52.4797 137.191 52.452 137.354 52.3554C137.518 52.2588 137.636 52.1014 137.684 51.9176C137.945 50.9013 138.365 49.5824 138.903 48.4681C139.441 47.3541 140.133 46.4913 140.659 46.2636H140.659C142.458 45.4865 144.126 43.5219 145.538 41.6474C146.949 39.7727 148.072 37.9192 148.31 37.5631C148.924 36.6447 149.291 35.9086 149.013 35.0946C148.874 34.6876 148.425 34.3522 148.01 34.3061H148.01Z" fill="black"/>
<path d="M147.723 31.0329C147.52 31.0473 147.322 31.0958 147.133 31.1692C146.422 31.4451 145.593 32.0625 144.654 32.8037C143.715 33.5449 142.738 34.3959 142.025 35.0801C141.888 35.2116 141.809 35.3919 141.805 35.5816C141.801 35.7712 141.873 35.9547 142.005 36.0915C142.136 36.2283 142.317 36.3073 142.507 36.3111C142.697 36.315 142.881 36.2433 143.018 36.1119C143.688 35.4696 144.644 34.6355 145.543 33.9259C146.442 33.2163 147.358 32.6171 147.652 32.5027C147.778 32.4539 147.888 32.4601 147.919 32.4697C147.95 32.4791 147.919 32.4395 147.935 32.4891C147.968 32.5883 147.935 33.3315 146.978 34.6276C146.865 34.7803 146.818 34.9714 146.846 35.159C146.874 35.3465 146.976 35.5151 147.129 35.6277C147.205 35.6835 147.291 35.7238 147.382 35.7465C147.474 35.7691 147.569 35.7735 147.662 35.7595C147.755 35.7455 147.844 35.7134 147.925 35.6649C148.005 35.6164 148.076 35.5525 148.132 35.4769C149.211 34.0168 149.601 32.9557 149.295 32.0379C149.143 31.5791 148.751 31.2279 148.339 31.1019C148.133 31.0389 147.926 31.0189 147.723 31.0332L147.723 31.0329Z" fill="black"/>
<path d="M146.675 28.8312C145.984 28.8498 145.605 29.2075 145.062 29.6279C144.52 30.0483 143.917 30.5976 143.302 31.1915C142.073 32.3791 140.799 33.7476 140.055 34.5159C139.99 34.5834 139.938 34.6632 139.904 34.7506C139.869 34.838 139.852 34.9314 139.854 35.0253C139.856 35.1193 139.876 35.212 139.913 35.2981C139.951 35.3843 140.005 35.4622 140.073 35.5275C140.209 35.6593 140.393 35.7316 140.583 35.7284C140.773 35.7251 140.954 35.6467 141.086 35.5104C141.852 34.7188 143.11 33.3683 144.299 32.2196C144.893 31.6453 145.472 31.1217 145.941 30.7581C146.41 30.3947 146.872 30.2572 146.714 30.2613C146.842 30.2583 146.858 30.2788 146.874 30.2924C146.891 30.3061 146.927 30.3445 146.959 30.4554C147.024 30.6772 147.01 31.143 146.881 31.577C146.827 31.7588 146.848 31.9547 146.938 32.1214C147.029 32.2882 147.182 32.4122 147.365 32.4662C147.455 32.4929 147.549 32.5015 147.643 32.4917C147.737 32.482 147.827 32.4539 147.91 32.4091C147.993 32.3643 148.066 32.3036 148.125 32.2306C148.184 32.1576 148.229 32.0737 148.255 31.9836C148.441 31.358 148.522 30.6932 148.336 30.056C148.243 29.7375 148.068 29.4146 147.773 29.1774C147.477 28.9402 147.077 28.821 146.676 28.8312C146.676 28.8312 146.675 28.8312 146.675 28.8312H146.675Z" fill="black"/>
<path d="M144.48 28.6656C144.168 28.6686 143.873 28.7537 143.558 28.8897C143.316 28.9939 143.105 29.1342 142.801 29.3376C142.497 29.5411 142.13 29.8001 141.717 30.1001C140.89 30.6999 139.879 31.4616 138.857 32.2392C136.813 33.7944 134.684 35.4383 134.041 35.8782C133.885 35.9854 133.777 36.1504 133.742 36.3369C133.707 36.5234 133.748 36.7162 133.856 36.8726C133.909 36.9501 133.977 37.0164 134.056 37.0676C134.135 37.1189 134.223 37.1541 134.315 37.1713C134.408 37.1886 134.503 37.1875 134.595 37.168C134.687 37.1486 134.774 37.1113 134.852 37.0581C135.637 36.5212 137.688 34.9273 139.726 33.3773C140.745 32.6023 141.751 31.8445 142.56 31.2573C142.964 30.9636 143.32 30.7123 143.599 30.5258C143.877 30.3394 144.109 30.2104 144.126 30.203C144.272 30.1401 144.33 30.1364 144.392 30.1258C144.406 30.195 144.423 30.2919 144.413 30.4516C144.402 30.6409 144.466 30.8272 144.591 30.9694C144.717 31.1117 144.894 31.1982 145.084 31.2101C145.274 31.2219 145.46 31.158 145.603 31.0325C145.745 30.907 145.832 30.73 145.844 30.5407C145.878 30.0038 145.859 29.4286 145.377 28.99C145.136 28.7708 144.792 28.6625 144.48 28.6656Z" fill="black"/>
<path d="M137.895 30.0577C137.413 30.0073 136.956 30.3113 136.705 30.6826C135.92 31.8453 134.808 32.7117 133.736 33.5175C132.664 34.3233 131.602 35.0415 131.062 36.157C130.524 37.2667 130.495 38.7206 130.477 40.1534C130.459 41.5862 130.479 43.0148 130.336 43.6878C130.169 44.4671 129.778 45.664 129.501 46.7253C129.362 47.2561 129.248 47.7519 129.209 48.202C129.19 48.4271 129.185 48.6407 129.232 48.8734C129.279 49.1061 129.397 49.406 129.694 49.5989C129.695 49.5989 129.695 49.5989 129.695 49.5989C130.853 50.3477 132.815 51.1508 134.781 51.811C136.748 52.4712 138.606 52.9791 139.79 52.9791C139.884 52.9791 139.977 52.9606 140.064 52.9247C140.151 52.8887 140.23 52.836 140.297 52.7696C140.364 52.7031 140.416 52.6242 140.452 52.5374C140.488 52.4505 140.507 52.3575 140.507 52.2635C140.507 52.1695 140.488 52.0765 140.452 51.9897C140.416 51.9029 140.363 51.8241 140.297 51.7577C140.23 51.6912 140.151 51.6385 140.064 51.6026C139.977 51.5667 139.884 51.5482 139.79 51.5482C139.098 51.5482 137.138 51.0927 135.238 50.4551C133.428 49.8474 131.597 49.0713 130.637 48.4889C130.635 48.4412 130.629 48.4137 130.637 48.3245C130.662 48.0351 130.757 47.5841 130.887 47.0868C131.148 46.092 131.54 44.9079 131.737 43.9855C131.738 43.9849 131.738 43.9844 131.738 43.9838C131.957 42.9534 131.893 41.563 131.91 40.1703C131.927 38.7775 132.052 37.3993 132.352 36.7784C132.65 36.1635 133.517 35.4722 134.599 34.6595C135.631 33.8837 136.823 32.9611 137.755 31.6586C137.886 31.934 138.021 32.4894 137.89 33.2091C137.873 33.3016 137.874 33.3964 137.894 33.4883C137.914 33.5801 137.952 33.6672 138.005 33.7445C138.059 33.8218 138.127 33.8877 138.206 33.9386C138.285 33.9896 138.374 34.0245 138.466 34.0413C138.559 34.0581 138.654 34.0566 138.746 34.0368C138.838 34.0169 138.925 33.9792 139.003 33.9258C139.08 33.8723 139.146 33.8042 139.197 33.7253C139.248 33.6463 139.283 33.558 139.3 33.4656C139.5 32.367 139.351 31.4229 138.919 30.7541C138.703 30.4197 138.377 30.1072 137.895 30.0568L137.895 30.0577Z" fill="black"/>
<mask id="mask12_70_2924" style="mask-type:luminance" maskUnits="userSpaceOnUse" x="-28" y="-729" width="420" height="2219">
<path d="M391.952 1489.13L391.952 -728.995H-27.9975L-27.9975 1489.13H391.952Z" fill="white"/>
</mask>
<g mask="url(#mask12_70_2924)">
<path fill-rule="evenodd" clip-rule="evenodd" d="M137.336 55.3246C137.336 55.4419 137.315 55.558 137.273 55.6663C137.231 55.7747 137.17 55.8731 137.092 55.956C137.015 56.039 136.923 56.1047 136.822 56.1496C136.722 56.1945 136.613 56.2176 136.504 56.2176C136.395 56.2176 136.287 56.1945 136.186 56.1496C136.085 56.1047 135.993 56.039 135.916 55.956C135.838 55.8731 135.777 55.7747 135.735 55.6663C135.693 55.558 135.672 55.4419 135.672 55.3246C135.672 55.2074 135.693 55.0913 135.735 54.9829C135.777 54.8746 135.838 54.7761 135.916 54.6932C135.993 54.6103 136.085 54.5445 136.186 54.4996C136.287 54.4548 136.395 54.4316 136.504 54.4316C136.613 54.4316 136.722 54.4548 136.822 54.4996C136.923 54.5445 137.015 54.6103 137.092 54.6932C137.17 54.7761 137.231 54.8746 137.273 54.9829C137.315 55.0913 137.336 55.2074 137.336 55.3246Z" fill="black"/>
</g>
<mask id="mask13_70_2924" style="mask-type:luminance" maskUnits="userSpaceOnUse" x="-28" y="-729" width="420" height="2219">
<path d="M391.952 1489.13L391.952 -728.995H-27.9975L-27.9975 1489.13H391.952Z" fill="white"/>
</mask>
<g mask="url(#mask13_70_2924)">
<path fill-rule="evenodd" clip-rule="evenodd" d="M136.262 58.9325C136.262 59.0498 136.241 59.1659 136.199 59.2742C136.157 59.3826 136.096 59.481 136.019 59.564C135.941 59.6469 135.85 59.7127 135.749 59.7575C135.648 59.8024 135.54 59.8255 135.43 59.8255C135.321 59.8255 135.213 59.8024 135.112 59.7575C135.011 59.7127 134.919 59.6469 134.842 59.564C134.765 59.481 134.703 59.3826 134.661 59.2742C134.62 59.1659 134.598 59.0498 134.598 58.9325C134.598 58.8153 134.62 58.6992 134.661 58.5908C134.703 58.4825 134.765 58.384 134.842 58.3011C134.919 58.2182 135.011 58.1524 135.112 58.1075C135.213 58.0627 135.321 58.0396 135.43 58.0396C135.54 58.0396 135.648 58.0627 135.749 58.1075C135.85 58.1524 135.941 58.2182 136.019 58.3011C136.096 58.384 136.157 58.4825 136.199 58.5908C136.241 58.6992 136.262 58.8153 136.262 58.9325Z" fill="black"/>
</g>
<path d="M197.396 88.9938C196.754 88.9136 196.21 89.2075 195.808 89.547C195.407 89.8865 195.104 90.2991 194.885 90.687C194.775 90.881 194.688 91.068 194.623 91.2511C194.559 91.4343 194.492 91.5847 194.528 91.8845C194.551 92.0728 194.648 92.2443 194.798 92.3613C194.947 92.4783 195.137 92.5311 195.326 92.5083C195.515 92.4855 195.687 92.3888 195.804 92.2395C195.921 92.0902 195.974 91.9006 195.951 91.7122C195.971 91.8726 195.947 91.8061 195.975 91.7258C196.004 91.6454 196.059 91.522 196.133 91.3904C196.282 91.1272 196.513 90.8267 196.735 90.6385C196.958 90.4504 197.127 90.4021 197.218 90.4134C197.308 90.4247 197.492 90.4836 197.772 90.9706C197.974 91.3241 197.911 91.9886 197.556 92.6189C197.202 93.2492 196.583 93.7314 196.212 93.7959C195.944 93.8428 195.753 94.0204 195.656 94.1573C195.56 94.2943 195.519 94.4119 195.485 94.525C195.418 94.7514 195.394 94.9726 195.378 95.2241C195.344 95.7271 195.361 96.3357 195.397 96.9622C195.402 97.056 195.426 97.1478 195.466 97.2325C195.507 97.3171 195.564 97.3929 195.635 97.4555C195.705 97.5181 195.787 97.5663 195.876 97.5973C195.964 97.6283 196.058 97.6415 196.152 97.6362C196.246 97.6309 196.338 97.6072 196.423 97.5664C196.508 97.5256 196.584 97.4686 196.647 97.3986C196.709 97.3285 196.758 97.2468 196.789 97.1581C196.82 97.0694 196.833 96.9755 196.828 96.8817C196.794 96.2848 196.782 95.7075 196.808 95.3178C196.816 95.198 196.828 95.1508 196.84 95.0792C197.687 94.7914 198.359 94.1158 198.807 93.3193C199.322 92.4038 199.583 91.2486 199.017 90.2603C198.604 89.5417 198.038 89.0747 197.397 88.9945L197.396 88.9938ZM188.922 97.3827C188.828 97.3718 188.733 97.3793 188.643 97.4049C188.552 97.4305 188.468 97.4737 188.394 97.5319C188.32 97.5902 188.258 97.6623 188.212 97.7443C188.167 97.8263 188.137 97.9166 188.126 98.0099C188.083 98.3777 188.046 98.8153 188.07 99.241C188.082 99.4539 188.107 99.6642 188.176 99.8826C188.244 100.101 188.358 100.359 188.643 100.551C188.644 100.551 188.645 100.552 188.646 100.553C188.839 100.681 188.948 100.691 189.069 100.716C189.189 100.741 189.31 100.756 189.446 100.769C189.716 100.794 190.039 100.806 190.407 100.811C191.142 100.82 192.05 100.799 192.94 100.767C194.721 100.702 196.429 100.593 196.429 100.593C196.608 100.582 196.777 100.503 196.901 100.373C197.025 100.243 197.096 100.072 197.099 99.892C197.099 99.892 197.094 99.5848 196.943 98.7869C196.908 98.6006 196.799 98.4359 196.642 98.329C196.485 98.2222 196.292 98.182 196.106 98.2172C195.919 98.2525 195.754 98.3603 195.647 98.517C195.54 98.6737 195.499 98.8665 195.534 99.0529C195.561 99.1932 195.542 99.1081 195.559 99.2044C195.031 99.2362 194.247 99.2882 192.888 99.3375C192.011 99.3692 191.117 99.3895 190.426 99.3804C190.08 99.3758 189.784 99.3632 189.579 99.3441C189.555 99.3417 189.548 99.3397 189.527 99.3371C189.517 99.282 189.506 99.2436 189.501 99.1605C189.486 98.8828 189.512 98.5 189.55 98.1766C189.561 98.0833 189.553 97.9888 189.528 97.8984C189.502 97.808 189.459 97.7235 189.401 97.6498C189.342 97.5761 189.27 97.5145 189.188 97.4687C189.106 97.4229 189.015 97.3937 188.922 97.3827Z" fill="black"/>
<path d="M188.421 78.3685C188.159 78.3575 187.892 78.366 187.624 78.39C186.551 78.4858 185.428 78.8449 184.417 79.4076C183.405 79.9702 182.5 80.7374 181.923 81.7065C181.346 82.6755 181.129 83.8808 181.543 85.0949C181.841 85.9673 182.416 86.5655 183.087 86.7769C183.758 86.9883 184.414 86.8514 184.969 86.6436C185.645 86.3906 186.143 86.0581 186.497 85.7927C186.769 85.9586 187.135 86.1501 187.579 86.2881C188.525 86.5818 189.894 86.6118 191.171 85.6606C191.204 85.6366 191.198 85.6235 191.333 85.6682C191.468 85.713 191.693 85.8544 191.906 86.094C192.333 86.5732 192.709 87.4073 192.69 88.3325C192.654 90.0375 192.973 91.1006 193.53 91.7655C194.087 92.4305 194.847 92.5709 195.333 92.5075C195.426 92.4953 195.516 92.4649 195.598 92.418C195.679 92.3711 195.751 92.3087 195.808 92.2342C195.865 92.1597 195.908 92.0746 195.932 91.9839C195.956 91.8932 195.963 91.7986 195.95 91.7054C195.938 91.6123 195.908 91.5224 195.861 91.441C195.814 91.3596 195.751 91.2883 195.677 91.231C195.602 91.1738 195.517 91.1317 195.426 91.1073C195.335 91.083 195.24 91.0767 195.147 91.0889C195.05 91.1015 194.86 91.1235 194.629 90.8476C194.398 90.5717 194.091 89.8712 194.123 88.3622C194.15 87.0516 193.659 85.9085 192.977 85.1431C192.636 84.7604 192.244 84.4627 191.785 84.3107C191.326 84.1586 190.749 84.1911 190.315 84.5143C189.418 85.1819 188.651 85.1228 188.005 84.9223C187.359 84.7217 186.938 84.3658 186.938 84.3658C186.807 84.2535 186.64 84.1922 186.467 84.1931C186.295 84.194 186.128 84.2571 185.998 84.3707C185.998 84.3707 185.233 85.0166 184.465 85.3041C184.081 85.4478 183.736 85.4814 183.518 85.4127C183.3 85.344 183.097 85.2117 182.9 84.6341C182.621 83.8153 182.75 83.1191 183.155 82.4379C183.561 81.7566 184.275 81.1244 185.114 80.6574C185.954 80.1905 186.913 79.89 187.752 79.8151C188.59 79.7402 189.276 79.9026 189.648 80.1987C190.102 80.5607 190.625 80.534 191.048 80.4799C191.471 80.4259 191.883 80.3235 192.301 80.2661C193.137 80.1511 193.905 80.1484 194.777 80.9486C195.719 81.8132 195.826 82.4222 195.864 83.0795C195.883 83.4081 195.862 83.7488 195.896 84.1334C195.93 84.5179 196.046 84.9827 196.381 85.3605C196.687 85.7053 196.987 85.8358 197.298 86.056C197.61 86.2761 197.912 86.5286 198.134 86.8517C198.578 87.498 198.851 88.4814 197.874 90.6215C197.835 90.707 197.813 90.7993 197.81 90.8932C197.807 90.9871 197.822 91.0807 197.855 91.1687C197.888 91.2567 197.938 91.3374 198.002 91.4061C198.066 91.4748 198.144 91.5302 198.229 91.5691C198.315 91.6081 198.407 91.6298 198.502 91.6331C198.596 91.6363 198.689 91.621 198.778 91.5881C198.866 91.5552 198.947 91.5052 199.015 91.4411C199.084 91.377 199.14 91.3 199.179 91.2145C200.28 88.802 200.046 87.1057 199.316 86.0425C198.95 85.5109 198.498 85.1514 198.127 84.8889C197.756 84.6265 197.447 84.4041 197.455 84.4126C197.376 84.324 197.345 84.2421 197.325 84.0079C197.304 83.7737 197.32 83.4236 197.295 82.9973C197.246 82.1446 196.938 80.9877 195.747 79.8953C194.524 78.7726 193.123 78.7089 192.106 78.8487C191.598 78.9186 191.163 79.0228 190.867 79.0606C190.571 79.0984 190.502 79.0487 190.542 79.0804C189.949 78.6079 189.208 78.402 188.422 78.3691L188.421 78.3685Z" fill="black"/>
<mask id="mask14_70_2924" style="mask-type:luminance" maskUnits="userSpaceOnUse" x="-28" y="-729" width="420" height="2219">
<path d="M391.952 1489.13L391.952 -728.995H-27.9975L-27.9975 1489.13H391.952Z" fill="white"/>
</mask>
<g mask="url(#mask14_70_2924)">
<path fill-rule="evenodd" clip-rule="evenodd" d="M195.24 91.7979C194.658 91.874 193.339 91.5613 193.406 88.3471C193.452 86.1113 191.676 84.3927 190.743 85.0872C188.569 86.7062 186.471 84.9081 186.471 84.9081C186.471 84.9081 183.21 87.7641 182.222 84.8642C180.835 80.7982 187.768 77.7867 190.095 79.6388C190.924 80.2996 193.166 78.4982 195.262 80.4213C197.395 82.3783 196.09 83.9533 196.918 84.8861C197.514 85.5587 200.604 86.3648 198.526 90.9175C198.493 90.8127 198.449 90.7113 198.394 90.615C197.008 88.2018 195.172 91.2402 195.24 91.7979Z" fill="black"/>
</g>
<path d="M183.594 85.4354C183.5 85.4287 183.405 85.4405 183.316 85.4702C183.227 85.4998 183.144 85.5467 183.073 85.6082C183.002 85.6697 182.944 85.7447 182.901 85.8287C182.859 85.9127 182.834 86.0042 182.827 86.0979C182.827 86.0979 182.703 87.8265 182.768 89.9124C182.833 91.9983 183.036 94.425 183.902 96.0632C184.727 97.6236 186.061 98.6177 187.549 98.8284C189.037 99.0392 190.623 98.4577 191.914 97.1441C191.98 97.0771 192.032 96.9977 192.067 96.9105C192.102 96.8234 192.12 96.7302 192.119 96.6362C192.118 96.5423 192.098 96.4495 192.061 96.363C192.025 96.2766 191.971 96.1983 191.904 96.1325C191.837 96.0667 191.757 96.0148 191.67 95.9797C191.582 95.9446 191.489 95.927 191.395 95.9279C191.301 95.9289 191.208 95.9483 191.121 95.9851C191.035 96.0219 190.956 96.0754 190.89 96.1425C189.855 97.1965 188.745 97.553 187.75 97.4122C186.756 97.2714 185.82 96.625 185.17 95.3955C184.557 94.2369 184.263 91.8736 184.201 89.8686C184.139 87.8636 184.258 86.2003 184.258 86.2003C184.271 86.0111 184.209 85.8243 184.084 85.6809C183.96 85.5376 183.783 85.4494 183.594 85.4358L183.594 85.4354Z" fill="black"/>
<path d="M184.695 86.8018C184.274 86.8018 183.772 86.9198 183.27 87.2797C183.193 87.3351 183.141 87.4187 183.126 87.5123C183.11 87.6059 183.133 87.7017 183.188 87.7787C183.244 87.8557 183.328 87.9075 183.422 87.9228C183.515 87.9381 183.611 87.9156 183.688 87.8603C184.2 87.4935 184.63 87.4805 184.957 87.5408C185.284 87.6011 185.472 87.7352 185.472 87.7352C185.549 87.7899 185.646 87.8116 185.739 87.7956C185.833 87.7796 185.916 87.7271 185.971 87.6497C186.026 87.5723 186.048 87.4763 186.032 87.3828C186.016 87.2894 185.963 87.2061 185.886 87.1513C185.886 87.1513 185.564 86.9254 185.087 86.8374C184.967 86.8154 184.836 86.8019 184.695 86.8018Z" fill="black"/>
<path d="M188.714 86.5613C188.004 86.5381 187.437 86.8452 187.437 86.8452C187.354 86.8912 187.292 86.9683 187.266 87.0595C187.24 87.1506 187.251 87.2484 187.297 87.3314C187.343 87.4143 187.421 87.4755 187.512 87.5017C187.603 87.5278 187.701 87.5166 187.784 87.4706C187.784 87.4706 188.766 86.9081 189.576 87.6307C189.647 87.6939 189.74 87.7264 189.835 87.7211C189.93 87.7157 190.019 87.6731 190.082 87.6023C190.146 87.5316 190.178 87.4387 190.173 87.344C190.168 87.2493 190.125 87.1605 190.054 87.0973C189.618 86.708 189.14 86.5752 188.714 86.5613Z" fill="black"/>
<path d="M186.484 87.6639C186.391 87.682 186.309 87.7364 186.256 87.8151C186.203 87.8938 186.183 87.9903 186.201 88.0834C186.255 88.3581 186.312 89.0357 186.298 89.6551C186.291 89.9648 186.266 90.2649 186.224 90.4951C186.181 90.7254 186.093 90.8811 186.098 90.8764C185.939 91.0353 185.833 91.236 185.784 91.4579C185.735 91.6799 185.744 91.9348 185.876 92.1646C186.008 92.3944 186.266 92.5637 186.576 92.6171C186.887 92.6705 187.254 92.6317 187.714 92.4943C187.759 92.4809 187.801 92.4587 187.837 92.4291C187.874 92.3994 187.904 92.3628 187.927 92.3215C187.949 92.2801 187.963 92.2348 187.968 92.188C187.972 92.1413 187.968 92.0941 187.954 92.0491C187.927 91.9582 187.865 91.8819 187.781 91.8369C187.698 91.7919 187.599 91.7819 187.508 91.8091C187.117 91.9261 186.849 91.9384 186.698 91.9124C186.548 91.8865 186.519 91.8461 186.498 91.8085C186.476 91.7708 186.464 91.7008 186.484 91.6127C186.503 91.5247 186.557 91.4301 186.605 91.382C186.817 91.1702 186.874 90.9157 186.928 90.6258C186.982 90.336 187.007 90.0063 187.014 89.6713C187.03 89.0013 186.979 88.3287 186.905 87.9461C186.886 87.853 186.832 87.7711 186.753 87.7181C186.674 87.6652 186.577 87.6457 186.484 87.6639Z" fill="black"/>
<path d="M188.949 93.587C188.902 93.5861 188.855 93.5946 188.811 93.6118C188.768 93.629 188.728 93.6547 188.694 93.6873C188.088 94.2724 187.68 94.2353 187.352 94.1161C187.025 93.9968 186.815 93.748 186.815 93.748C186.756 93.6743 186.669 93.6274 186.574 93.6175C186.48 93.6076 186.385 93.6355 186.311 93.6952C186.275 93.7248 186.244 93.7613 186.222 93.8027C186.2 93.844 186.186 93.8893 186.181 93.936C186.176 93.9828 186.18 94.03 186.194 94.0751C186.207 94.1201 186.229 94.1621 186.259 94.1986C186.259 94.1986 186.571 94.5926 187.107 94.7877C187.642 94.9828 188.437 94.9312 189.192 94.2015C189.261 94.1356 189.3 94.0453 189.301 93.9505C189.303 93.8556 189.267 93.7641 189.201 93.6959C189.168 93.6621 189.129 93.6351 189.086 93.6164C189.043 93.5977 188.996 93.5877 188.949 93.587Z" fill="black"/>
<mask id="mask15_70_2924" style="mask-type:luminance" maskUnits="userSpaceOnUse" x="-28" y="-729" width="420" height="2219">
<path d="M391.952 1489.13L391.952 -728.995H-27.9975L-27.9975 1489.13H391.952Z" fill="white"/>
</mask>
<g mask="url(#mask15_70_2924)">
<path fill-rule="evenodd" clip-rule="evenodd" d="M189.343 89.049C189.343 89.2207 189.296 89.3854 189.213 89.5068C189.13 89.6283 189.017 89.6965 188.899 89.6965C188.782 89.6965 188.669 89.6283 188.586 89.5068C188.502 89.3854 188.456 89.2207 188.456 89.049C188.456 88.8772 188.502 88.7125 188.586 88.5911C188.669 88.4696 188.782 88.4014 188.899 88.4014C189.017 88.4014 189.13 88.4696 189.213 88.5911C189.296 88.7125 189.343 88.8772 189.343 89.049Z" fill="black"/>
</g>
<mask id="mask16_70_2924" style="mask-type:luminance" maskUnits="userSpaceOnUse" x="-28" y="-729" width="420" height="2219">
<path d="M391.952 1489.13L391.952 -728.995H-27.9975L-27.9975 1489.13H391.952Z" fill="white"/>
</mask>
<g mask="url(#mask16_70_2924)">
<path fill-rule="evenodd" clip-rule="evenodd" d="M185.75 88.92C185.75 89.0918 185.703 89.2565 185.62 89.3779C185.537 89.4994 185.424 89.5676 185.306 89.5676C185.188 89.5676 185.076 89.4994 184.992 89.3779C184.909 89.2565 184.862 89.0918 184.862 88.92C184.862 88.7483 184.909 88.5836 184.992 88.4622C185.076 88.3407 185.188 88.2725 185.306 88.2725C185.424 88.2725 185.537 88.3407 185.62 88.4622C185.703 88.5836 185.75 88.7483 185.75 88.92Z" fill="black"/>
</g>
<path d="M190.595 99.4062C190.505 99.3805 190.41 99.3728 190.316 99.3837C190.223 99.3946 190.132 99.4238 190.05 99.4695C189.968 99.5153 189.896 99.5768 189.837 99.6505C189.779 99.7242 189.736 99.8086 189.71 99.8989C189.71 99.8989 189.44 100.765 189.554 101.703C189.565 101.796 189.595 101.886 189.641 101.968C189.688 102.05 189.75 102.122 189.824 102.18C189.898 102.238 189.983 102.281 190.073 102.306C190.164 102.331 190.259 102.338 190.352 102.327C190.445 102.316 190.536 102.286 190.618 102.24C190.7 102.194 190.772 102.132 190.83 102.058C190.888 101.984 190.931 101.899 190.956 101.809C190.981 101.718 190.988 101.624 190.977 101.53C190.912 100.995 191.089 100.29 191.089 100.29C191.115 100.199 191.122 100.105 191.111 100.011C191.1 99.9182 191.071 99.8279 191.025 99.7459C190.979 99.6638 190.918 99.5916 190.844 99.5333C190.77 99.475 190.686 99.4318 190.595 99.4062Z" fill="black"/>
<path d="M192.68 99.3477C192.49 99.3375 192.304 99.403 192.163 99.5297C192.021 99.6564 191.936 99.8339 191.926 100.023C191.926 100.023 191.909 100.322 191.901 100.673C191.893 101.024 191.88 101.388 191.933 101.727C191.962 101.915 192.065 102.083 192.219 102.195C192.372 102.306 192.564 102.353 192.752 102.324C192.939 102.294 193.108 102.192 193.22 102.039C193.332 101.885 193.378 101.694 193.349 101.507C193.34 101.446 193.327 101.032 193.334 100.706C193.342 100.38 193.357 100.101 193.357 100.101C193.362 100.007 193.348 99.9132 193.317 99.8246C193.286 99.7359 193.237 99.6543 193.175 99.5844C193.112 99.5144 193.036 99.4575 192.951 99.4169C192.866 99.3763 192.774 99.3528 192.68 99.3477Z" fill="black"/>
<path d="M195.056 99.2432C194.962 99.2371 194.868 99.2495 194.779 99.2797C194.69 99.3099 194.608 99.3574 194.537 99.4194C194.466 99.4814 194.408 99.5567 194.367 99.641C194.325 99.7252 194.3 99.8169 194.294 99.9106C194.294 99.9106 194.224 100.772 194.327 101.497C194.34 101.59 194.372 101.68 194.42 101.761C194.467 101.842 194.531 101.912 194.606 101.969C194.681 102.025 194.767 102.066 194.858 102.09C194.949 102.113 195.044 102.118 195.137 102.105C195.23 102.092 195.32 102.061 195.401 102.013C195.482 101.965 195.553 101.902 195.61 101.827C195.666 101.752 195.707 101.666 195.731 101.575C195.754 101.484 195.76 101.39 195.746 101.297C195.683 100.852 195.725 100.004 195.725 100.004C195.731 99.9099 195.719 99.8159 195.688 99.7269C195.658 99.638 195.61 99.5559 195.548 99.4852C195.486 99.4146 195.411 99.3569 195.326 99.3153C195.242 99.2738 195.15 99.2493 195.056 99.2432Z" fill="black"/>
<path d="M191.307 74.3799C179.318 74.3799 169.614 84.5028 169.614 96.9355C169.614 109.368 179.318 119.491 191.307 119.491C203.296 119.491 213 109.368 213 96.9355C213 84.5028 203.296 74.3799 191.307 74.3799ZM191.307 75.8104C202.488 75.8104 211.567 85.2441 211.567 96.9355C211.567 108.627 202.488 118.06 191.307 118.06C180.126 118.06 171.047 108.627 171.047 96.9355C171.047 85.2441 180.126 75.8104 191.307 75.8104Z" fill="black"/>
<path d="M17.2082 63.444C17.1141 63.4422 17.0205 63.4589 16.9329 63.4932C16.8453 63.5275 16.7653 63.5788 16.6975 63.6439C16.6297 63.7091 16.5754 63.7869 16.5377 63.873C16.5001 63.9591 16.4798 64.0518 16.478 64.1457C16.478 64.1457 15.364 122.781 15.2538 128.595C15.1694 133.039 16.3343 135.904 18.3044 137.621C20.2745 139.338 22.9122 139.847 25.606 139.959C26.1951 139.984 28.8171 139.992 33.1556 139.997C37.4942 140.002 43.4784 140 50.5555 139.993C64.7096 139.98 83.2348 139.947 101.704 139.91C120.173 139.874 138.586 139.833 152.514 139.805C159.479 139.791 165.323 139.779 169.491 139.773C173.66 139.766 176.234 139.767 176.406 139.77C179.08 139.825 181.465 139.298 183.221 137.963C184.977 136.627 186.015 134.476 186.015 131.625C186.015 129.199 186.098 117.896 186.098 117.896C186.099 117.802 186.081 117.709 186.045 117.621C186.01 117.534 185.958 117.455 185.892 117.388C185.826 117.321 185.747 117.268 185.66 117.232C185.573 117.195 185.48 117.176 185.386 117.175C185.292 117.174 185.199 117.192 185.112 117.228C185.024 117.263 184.945 117.315 184.878 117.381C184.811 117.447 184.757 117.526 184.721 117.612C184.684 117.699 184.665 117.791 184.664 117.885C184.664 117.885 184.581 129.167 184.581 131.625C184.581 134.145 183.75 135.762 182.352 136.825C180.954 137.888 178.901 138.39 176.436 138.34C176.074 138.333 173.659 138.336 169.489 138.342C165.32 138.349 159.476 138.36 152.512 138.374C138.583 138.402 120.17 138.443 101.701 138.48C83.232 138.516 64.7073 138.549 50.5542 138.563C43.4776 138.569 37.4939 138.571 33.1573 138.566C28.8207 138.561 26.0598 138.546 25.6659 138.53C23.1172 138.424 20.8404 137.932 19.2472 136.544C17.654 135.155 16.6071 132.812 16.6867 128.622C16.7969 122.809 17.9112 64.1731 17.9112 64.1731C17.913 64.0792 17.8962 63.9858 17.8619 63.8983C17.8275 63.8108 17.7762 63.731 17.7109 63.6633C17.6456 63.5956 17.5676 63.5415 17.4814 63.5039C17.3951 63.4663 17.3023 63.4461 17.2082 63.4443V63.444Z" fill="black"/>
<path d="M38.0114 32.7783C37.9173 32.7779 37.824 32.796 37.7369 32.8316C37.6498 32.8671 37.5705 32.9195 37.5036 32.9856C37.4368 33.0518 37.3837 33.1304 37.3473 33.2171C37.3109 33.3037 37.2919 33.3967 37.2915 33.4906C37.2911 33.5846 37.3092 33.6777 37.3448 33.7646C37.3805 33.8516 37.4329 33.9307 37.4992 33.9974C37.5655 34.0641 37.6443 34.1172 37.7311 34.1535C37.8179 34.1899 37.911 34.2088 38.0051 34.2092C38.0051 34.2092 45.1899 34.2394 56.3018 34.2884C56.4919 34.2892 56.6745 34.2147 56.8095 34.0812C56.9445 33.9477 57.0208 33.7661 57.0217 33.5764C57.0222 33.4825 57.004 33.3893 56.9684 33.3024C56.9328 33.2154 56.8803 33.1363 56.814 33.0696C56.7478 33.0029 56.669 32.9498 56.5822 32.9135C56.4954 32.8772 56.4022 32.8583 56.3081 32.8579C45.1961 32.8089 38.0114 32.7783 38.0114 32.7783ZM91.0804 33.01C90.8903 33.0093 90.7078 33.0839 90.5728 33.2175C90.4379 33.3511 90.3616 33.5326 90.3608 33.7223C90.36 33.9119 90.4347 34.0941 90.5685 34.2288C90.7022 34.3635 90.8841 34.4396 91.0741 34.4405C105.379 34.5031 120.682 34.5708 134.391 34.6333C134.581 34.6341 134.764 34.5596 134.899 34.4261C135.034 34.2926 135.11 34.111 135.111 33.9213C135.112 33.7317 135.037 33.5494 134.903 33.4146C134.77 33.2799 134.588 33.2037 134.398 33.2028C120.688 33.1403 105.386 33.0726 91.0804 33.01ZM148.246 33.2652C148.056 33.2643 147.873 33.3389 147.738 33.4724C147.603 33.6059 147.527 33.7874 147.526 33.9771C147.525 34.1668 147.599 34.3491 147.733 34.4839C147.867 34.6186 148.049 34.6948 148.239 34.6957C164.896 34.7734 176.974 34.8322 177.759 34.8445C177.76 34.8445 177.76 34.8445 177.761 34.8445C179.119 34.8638 180.942 35.269 182.385 36.2622C183.828 37.2553 184.93 38.7772 185.03 41.2838C185.044 41.6427 185.06 44.0897 185.07 47.416C185.079 50.7423 185.086 55.0111 185.09 59.2241C185.098 67.65 185.097 75.853 185.097 75.853C185.097 75.947 185.115 76.04 185.151 76.1268C185.187 76.2136 185.24 76.2925 185.307 76.3589C185.373 76.4254 185.452 76.4781 185.539 76.5141C185.626 76.55 185.719 76.5686 185.813 76.5686C186.004 76.5686 186.186 76.4932 186.32 76.3591C186.455 76.225 186.53 76.0431 186.53 75.8534C186.53 75.8534 186.532 67.6497 186.523 59.2227C186.519 55.0093 186.513 50.7401 186.503 47.4121C186.493 44.084 186.483 41.7603 186.462 41.227C186.346 38.3072 184.947 36.2871 183.199 35.0842C181.452 33.8815 179.396 33.4368 177.782 33.4137H177.781C176.848 33.399 164.902 33.3426 148.246 33.2648V33.2652Z" fill="black"/>
<path d="M165.892 38.2135C161.032 38.2202 154.329 38.2432 146.531 38.2762C146.341 38.277 146.159 38.3532 146.025 38.4879C145.891 38.6225 145.816 38.8047 145.817 38.9944C145.818 39.1841 145.894 39.3657 146.029 39.4993C146.164 39.6328 146.347 39.7075 146.537 39.7067C154.334 39.6737 161.036 39.6511 165.894 39.6443C168.322 39.6409 170.29 39.6416 171.701 39.647C173.112 39.6524 174.043 39.6695 174.133 39.6761C175.557 39.7813 177.093 40.0605 178.241 40.8009C179.389 41.5413 180.225 42.6895 180.351 44.903C180.351 44.9077 180.358 45.2601 180.362 45.7691C180.365 46.2782 180.368 46.9909 180.37 47.8815C180.375 49.6626 180.377 52.1557 180.378 55.1657C180.38 61.1856 180.372 69.2727 180.361 77.8675C180.361 77.9614 180.38 78.0545 180.416 78.1414C180.452 78.2282 180.504 78.3071 180.571 78.3736C180.637 78.4402 180.716 78.4929 180.803 78.5289C180.89 78.565 180.983 78.5836 181.077 78.5837C181.171 78.5839 181.265 78.5655 181.352 78.5296C181.439 78.4938 181.518 78.4412 181.584 78.3748C181.651 78.3084 181.704 78.2296 181.74 78.1429C181.776 78.0561 181.795 77.9631 181.795 77.8691C181.806 69.274 181.812 61.1865 181.811 55.1653C181.811 52.1547 181.808 49.6611 181.804 47.8779C181.801 46.9862 181.799 46.2723 181.795 45.7595C181.792 45.2467 181.791 44.9816 181.782 44.8218C181.636 42.2511 180.506 40.5583 179.019 39.5995C177.532 38.6407 175.764 38.3623 174.239 38.2495C173.907 38.2249 173.122 38.2216 171.706 38.2162C170.29 38.2108 168.321 38.2101 165.892 38.2135ZM131.221 38.3488C118.297 38.413 104.012 38.4925 90.6952 38.5703C90.5051 38.5714 90.3233 38.6479 90.1898 38.7828C90.0562 38.9178 89.9818 39.1001 89.9829 39.2898C89.984 39.4795 90.0606 39.661 90.1958 39.7943C90.331 39.9277 90.5137 40.0019 90.7038 40.0008C104.02 39.923 118.305 39.8435 131.228 39.7793C131.418 39.7783 131.6 39.7021 131.734 39.5672C131.867 39.4324 131.942 39.2501 131.941 39.0604C131.94 38.8707 131.864 38.6892 131.729 38.5558C131.593 38.4223 131.411 38.3479 131.221 38.3488ZM55.8786 38.7815C46.7758 38.8373 41.0317 38.8743 41.0317 38.8743C40.9375 38.8748 40.8444 38.894 40.7576 38.9305C40.6709 38.967 40.5922 39.0202 40.526 39.0871C40.4599 39.154 40.4076 39.2332 40.3721 39.3203C40.3366 39.4073 40.3187 39.5005 40.3194 39.5945C40.32 39.6884 40.3391 39.7814 40.3757 39.8679C40.4123 39.9545 40.4657 40.033 40.5327 40.099C40.5997 40.165 40.6791 40.2172 40.7663 40.2525C40.8535 40.2879 40.9468 40.3057 41.0409 40.3051C41.0409 40.3051 46.7849 40.2678 55.8875 40.212C56.0776 40.2109 56.2594 40.1344 56.393 39.9995C56.5266 39.8645 56.601 39.6822 56.5998 39.4925C56.5993 39.3985 56.5802 39.3056 56.5436 39.219C56.507 39.1324 56.4538 39.0539 56.3868 38.9879C56.3198 38.9219 56.2405 38.8697 56.1533 38.8343C56.0661 38.7988 55.9727 38.7809 55.8786 38.7815ZM21.2287 63.8298C21.0387 63.8252 20.8546 63.8961 20.717 64.027C20.5794 64.1578 20.4995 64.3379 20.4949 64.5275C20.3761 69.4444 19.9977 85.1174 19.6417 99.7253C19.4638 107.029 19.2915 114.067 19.1602 119.36C19.029 124.654 18.9354 128.278 18.9251 128.521C18.8485 130.339 19.3875 132.065 20.5214 133.355C21.6553 134.645 23.3779 135.469 25.5154 135.546C26.005 135.563 28.538 135.574 32.7975 135.587C37.0571 135.6 42.9699 135.613 49.9804 135.626C64.0015 135.65 82.4127 135.673 100.763 135.692C137.465 135.73 173.906 135.754 174.536 135.754C175.93 135.754 177.62 135.067 179.053 133.743C180.487 132.42 181.627 130.411 181.675 127.814C181.689 127.036 181.706 122.547 181.723 115.963C181.723 115.869 181.705 115.776 181.669 115.689C181.633 115.602 181.58 115.523 181.514 115.456C181.448 115.39 181.369 115.337 181.282 115.301C181.195 115.264 181.102 115.246 181.008 115.246C180.914 115.245 180.82 115.264 180.733 115.299C180.646 115.335 180.567 115.388 180.5 115.454C180.434 115.52 180.381 115.599 180.344 115.686C180.308 115.772 180.289 115.865 180.289 115.959C180.272 122.543 180.255 127.095 180.242 127.787C180.201 129.986 179.267 131.596 178.08 132.693C176.892 133.789 175.415 134.323 174.536 134.323C173.943 134.323 137.465 134.299 100.765 134.261C82.4142 134.242 64.0035 134.219 49.9831 134.195C42.9729 134.182 37.0601 134.169 32.8018 134.156C28.5435 134.143 25.8664 134.126 25.5663 134.116C23.7614 134.051 22.4643 133.396 21.5991 132.412C20.7339 131.427 20.2941 130.083 20.3573 128.581C20.3748 128.166 20.4619 124.69 20.5931 119.395C20.7244 114.101 20.8966 107.064 21.0746 99.7596C21.4305 85.1516 21.8093 69.4787 21.9281 64.5619C21.9304 64.4679 21.9141 64.3745 21.8802 64.2868C21.8463 64.1992 21.7954 64.119 21.7304 64.051C21.6655 63.983 21.5877 63.9284 21.5016 63.8904C21.4156 63.8524 21.3228 63.8317 21.2287 63.8294V63.8298Z" fill="black"/>
<path d="M173.387 107.575L124.513 107.823C124.323 107.824 124.141 107.901 124.007 108.035C123.873 108.17 123.799 108.353 123.8 108.542C123.8 108.636 123.819 108.729 123.856 108.816C123.892 108.902 123.945 108.981 124.012 109.047C124.079 109.113 124.158 109.166 124.245 109.201C124.333 109.237 124.426 109.255 124.52 109.254L173.394 109.006C173.584 109.005 173.766 108.928 173.9 108.794C174.033 108.659 174.108 108.477 174.107 108.287C174.106 108.097 174.029 107.916 173.894 107.782C173.759 107.649 173.577 107.574 173.387 107.575ZM80.6171 108.045L20.1265 108.353C19.9365 108.353 19.7546 108.43 19.6209 108.565C19.4872 108.699 19.4126 108.882 19.4136 109.071C19.4146 109.261 19.491 109.443 19.6261 109.576C19.7611 109.71 19.9438 109.784 20.1338 109.783L80.6244 109.475C80.8145 109.474 80.9963 109.398 81.13 109.263C81.2638 109.129 81.3383 108.946 81.3374 108.757C81.3364 108.567 81.26 108.385 81.1249 108.252C80.9898 108.118 80.8072 108.044 80.6171 108.045Z" fill="black"/>
<path d="M25.6893 124.664C25.5766 124.725 25.4825 124.816 25.417 124.926C25.3515 125.037 25.3169 125.163 25.3169 125.291V130.351C25.3169 130.483 25.3538 130.613 25.4235 130.726C25.4932 130.839 25.593 130.93 25.7116 130.99C25.8303 131.049 25.9632 131.075 26.0956 131.063C26.2279 131.052 26.3544 131.004 26.4611 130.925L30.1307 128.204C30.2239 128.135 30.2988 128.044 30.3491 127.94C30.3994 127.835 30.4236 127.72 30.4195 127.605C30.4154 127.489 30.3832 127.376 30.3256 127.275C30.268 127.174 30.1869 127.089 30.0891 127.027L26.4194 124.688C26.3111 124.619 26.1861 124.58 26.0577 124.576C25.9292 124.572 25.802 124.602 25.6893 124.664ZM26.7504 126.597L28.4419 127.674L26.7504 128.928V126.597Z" fill="black"/>
<path d="M123.075 123.443C121.03 123.443 119.388 125.175 119.388 127.255C119.388 129.335 121.03 131.066 123.075 131.066C125.12 131.066 126.763 129.335 126.763 127.255C126.763 125.175 125.12 123.443 123.075 123.443ZM123.075 124.874C124.312 124.874 125.329 125.915 125.329 127.255C125.329 128.594 124.312 129.635 123.075 129.635C121.839 129.635 120.821 128.594 120.821 127.255C120.821 125.915 121.839 124.874 123.075 124.874Z" fill="black"/>
<path d="M123.076 125.492C122.116 125.492 121.354 126.306 121.354 127.255C121.354 128.203 122.116 129.017 123.076 129.017C124.035 129.017 124.797 128.203 124.797 127.255C124.797 126.306 124.035 125.492 123.076 125.492ZM123.076 126.923C123.226 126.923 123.364 127.047 123.364 127.255C123.364 127.463 123.226 127.586 123.076 127.586C122.925 127.586 122.788 127.463 122.788 127.255C122.788 127.047 122.925 126.923 123.076 126.923Z" fill="black"/>
<path d="M175.8 126.54L126.037 126.737C125.847 126.738 125.665 126.814 125.532 126.949C125.398 127.084 125.323 127.266 125.324 127.455C125.325 127.645 125.401 127.827 125.536 127.96C125.671 128.094 125.853 128.168 126.043 128.168L175.806 127.97C175.9 127.97 175.993 127.951 176.08 127.915C176.167 127.878 176.245 127.825 176.312 127.759C176.378 127.692 176.431 127.613 176.466 127.526C176.502 127.439 176.52 127.346 176.52 127.252C176.519 127.062 176.443 126.881 176.308 126.747C176.173 126.613 175.99 126.539 175.8 126.54Z" fill="black"/>
<mask id="mask17_70_2924" style="mask-type:luminance" maskUnits="userSpaceOnUse" x="-28" y="-732" width="420" height="2219">
<path d="M391.952 1486.99L391.952 -731.141H-27.9975L-27.9975 1486.99H391.952Z" fill="white"/>
</mask>
<g mask="url(#mask17_70_2924)">
<path fill-rule="evenodd" clip-rule="evenodd" d="M120.351 128.49L34.1337 128.835C33.5731 128.837 33.116 128.386 33.1138 127.824C33.1116 127.265 33.565 126.809 34.1256 126.807L120.204 126.462C120.14 126.716 120.104 126.981 120.104 127.255C120.104 127.694 120.192 128.112 120.351 128.49Z" fill="black"/>
</g>
<path d="M180.978 117.26L19.7413 117.885C19.6472 117.885 19.554 117.904 19.4672 117.94C19.3804 117.977 19.3016 118.03 19.2353 118.096C19.169 118.163 19.1165 118.242 19.0808 118.329C19.0451 118.416 19.027 118.509 19.0273 118.603C19.0277 118.697 19.0466 118.79 19.083 118.877C19.1193 118.963 19.1724 119.042 19.2392 119.108C19.3061 119.174 19.3853 119.227 19.4724 119.262C19.5595 119.298 19.6528 119.316 19.7469 119.316L180.983 118.691C181.077 118.69 181.171 118.671 181.257 118.635C181.344 118.599 181.423 118.546 181.489 118.479C181.556 118.412 181.608 118.333 181.644 118.246C181.679 118.159 181.698 118.066 181.697 117.972C181.697 117.878 181.678 117.786 181.642 117.699C181.605 117.612 181.552 117.533 181.485 117.467C181.418 117.401 181.339 117.349 181.252 117.313C181.165 117.278 181.072 117.259 180.978 117.26Z" fill="black"/>
</g>
<defs>
<clipPath id="clip0_70_2924">
<rect width="213" height="140" fill="white"/>
</clipPath>
</defs>
</svg>
