<svg width="150" height="142" viewBox="0 0 150 142" fill="none" xmlns="http://www.w3.org/2000/svg">
<g clip-path="url(#clip0_70_1293)">
<mask id="mask0_70_1293" style="mask-type:luminance" maskUnits="userSpaceOnUse" x="-256" y="-1267" width="444" height="2350">
<path d="M186.485 1082.5L187.74 -1266.5L-254.199 -1266.26L-255.454 1082.74L186.485 1082.5Z" fill="white"/>
</mask>
<g mask="url(#mask0_70_1293)">
<path fill-rule="evenodd" clip-rule="evenodd" d="M36.6721 64.7867C37.407 67.1017 37.1638 69.6244 35.9958 71.7996C34.8278 73.9749 32.8308 75.6246 30.4441 76.3859C28.0573 77.1472 25.4765 76.9577 23.2691 75.8591C21.0618 74.7604 19.4088 72.8426 18.6739 70.5276C17.939 68.2126 18.1822 65.6899 19.3502 63.5146C20.5182 61.3394 22.5152 59.6897 24.9019 58.9284C27.2886 58.1671 29.8695 58.3566 32.0769 59.4552C34.2842 60.5539 35.9372 62.4717 36.6721 64.7867Z" fill="#F5A200"/>
</g>
<mask id="mask1_70_1293" style="mask-type:luminance" maskUnits="userSpaceOnUse" x="-256" y="-1267" width="444" height="2350">
<path d="M187.739 1082.74L186.849 -1266.33L-255.455 -1266.5L-254.564 1082.57L187.739 1082.74Z" fill="white"/>
</mask>
<g mask="url(#mask1_70_1293)">
<path fill-rule="evenodd" clip-rule="evenodd" d="M136.238 45.8286C135.871 48.2303 134.536 50.3827 132.526 51.8122C130.517 53.2417 127.997 53.8312 125.521 53.4511C124.296 53.2629 123.118 52.8423 122.055 52.2134C120.992 51.5844 120.065 50.7594 119.326 49.7854C118.588 48.8115 118.053 47.7076 117.752 46.5369C117.45 45.3662 117.389 44.1516 117.57 42.9624C117.752 41.7731 118.173 40.6327 118.81 39.606C119.446 38.5793 120.286 37.6866 121.282 36.9788C122.277 36.2709 123.407 35.7619 124.609 35.4807C125.811 35.1995 127.061 35.1516 128.286 35.3398C129.512 35.528 130.69 35.9486 131.753 36.5776C132.816 37.2065 133.743 38.0315 134.482 39.0055C135.22 39.9795 135.755 41.0834 136.056 42.2541C136.358 43.4248 136.419 44.6394 136.238 45.8286Z" fill="#F5A200"/>
</g>
<path d="M79.3111 32.257C78.9354 32.3175 78.5471 32.6427 78.4083 32.994C76.2636 38.4125 77.8624 42.565 79.9836 45.3182C81.0442 46.6948 82.2256 47.7471 83.1231 48.5084C83.5719 48.889 83.9517 49.1998 84.1921 49.4197C84.2896 49.509 84.3424 49.5667 84.3827 49.612C84.1784 60.9067 86.1244 67.5147 95.6558 75.8626C95.7265 75.9245 95.8086 75.9718 95.8976 76.0019C95.9865 76.032 96.0805 76.0442 96.1741 76.0379C96.2678 76.0316 96.3593 76.0069 96.4434 75.9652C96.5275 75.9235 96.6026 75.8656 96.6644 75.7948C96.7262 75.724 96.7734 75.6417 96.8035 75.5526C96.8335 75.4635 96.8457 75.3694 96.8394 75.2756C96.8332 75.1818 96.8085 75.0901 96.7668 75.0059C96.7252 74.9216 96.6674 74.8464 96.5967 74.7845C87.2107 66.564 85.5836 60.7085 85.8107 49.4537C85.8184 49.0778 85.6615 48.9118 85.5462 48.7664C85.4309 48.621 85.304 48.4973 85.1564 48.3623C84.8612 48.0922 84.4829 47.7857 84.0466 47.4156C83.1738 46.6754 82.0769 45.6916 81.115 44.4432C79.2166 41.9793 77.8207 38.5781 79.6758 33.7099C79.724 33.7186 79.7101 33.7098 79.8077 33.7476C80.2068 33.9024 80.905 34.3224 81.7729 34.9229C83.5086 36.1239 85.987 38.0371 89.0665 40.0826C91.7618 41.8731 94.133 43.0049 95.9546 44.0363C97.7761 45.0676 98.9955 45.9715 99.6193 47.266C100.224 48.5241 102.238 53.0116 104.385 57.5694C106.532 62.1273 108.761 66.7079 110.069 68.5208C111.03 69.8547 113.842 72.8773 117.631 76.8316C121.42 80.7859 126.143 85.6032 130.758 90.2699C139.987 99.6035 148.782 108.335 148.782 108.335C148.848 108.401 148.927 108.454 149.014 108.489C149.101 108.525 149.194 108.543 149.288 108.543C149.382 108.542 149.475 108.523 149.561 108.487C149.648 108.451 149.727 108.398 149.793 108.331C149.926 108.196 150 108.013 150 107.824C149.999 107.634 149.923 107.452 149.788 107.318C149.788 107.318 140.997 98.5901 131.773 89.2626C127.162 84.5988 122.442 79.7849 118.663 75.8403C114.883 71.8957 111.998 68.7516 111.228 67.6826C110.156 66.197 107.817 61.5008 105.678 56.9584C103.538 52.416 101.549 47.9798 100.907 46.6442C100.082 44.9318 98.5501 43.8614 96.6582 42.7902C94.7662 41.7189 92.4614 40.6197 89.857 38.8896C86.8255 36.8759 84.3812 34.9874 82.5861 33.7453C81.6886 33.1242 80.9695 32.6627 80.3246 32.4127C80.0022 32.2877 79.6875 32.197 79.3118 32.2575L79.3111 32.257Z" fill="black"/>
<path d="M107.432 0.00458048C103.454 -0.0860023 99.4849 1.16589 96.2475 3.85269C90.3194 8.7742 88.6646 17.0076 91.5371 24.0686L84.2191 30.0522C84.0929 30.1555 84.0057 30.2989 83.972 30.4586C83.9383 30.6183 83.9601 30.7848 84.0338 30.9304C84.1074 31.076 84.2286 31.192 84.3771 31.2592C84.5256 31.3264 84.6926 31.3408 84.8504 31.2999L94.3357 28.8357C94.3899 28.9033 94.4424 28.9719 94.4973 29.0392C94.4983 29.0404 94.4994 29.0417 94.5005 29.0429C100.91 36.7901 112.135 38.1459 119.534 32.0028C126.934 25.8615 127.692 14.5615 121.281 6.8142C117.676 2.4564 112.547 0.121044 107.432 0.00458048ZM107.417 1.42944C112.116 1.53818 116.839 3.6894 120.181 7.72807C126.122 14.9078 125.396 25.2789 118.622 30.9003C111.849 36.5232 101.543 35.3088 95.6018 28.1296C95.4545 27.949 95.3115 27.7695 95.1725 27.5891C95.087 27.478 94.9707 27.3945 94.8382 27.349C94.7057 27.3035 94.5627 27.298 94.4271 27.3332L87.6542 29.0926L92.8465 24.8474C92.9677 24.7482 93.0531 24.6119 93.0894 24.4594C93.1258 24.3069 93.1112 24.1466 93.0479 24.0032C90.1218 17.3781 91.603 9.56936 97.1604 4.9556C100.124 2.49624 103.763 1.34521 107.418 1.42979L107.417 1.42944Z" fill="black"/>
<path d="M58.3352 78.9093C58.1943 78.8615 58.0421 78.8585 57.8994 78.9006C57.7567 78.9428 57.6305 79.0281 57.538 79.1449L51.1685 87.1839C49.0036 86.7089 46.7288 86.4458 44.3765 86.4458C37.4955 86.4458 31.089 87.636 26.3888 90.7651C21.6885 93.8943 18.7848 99.0271 19.0256 106.483C19.2735 114.159 22.1607 119.267 26.7449 122.337C31.3291 125.407 37.5042 126.472 44.3765 126.472C51.2737 126.472 57.6884 125.031 62.3794 121.784C67.0705 118.538 69.9756 113.422 69.7257 106.434C69.5522 101.584 68.4504 98.2923 66.5203 95.8025C64.6673 93.4122 62.0986 91.7997 59.0221 90.1262L58.8257 79.581C58.8229 79.4321 58.7744 79.2877 58.6866 79.1675C58.5988 79.0472 58.4761 78.9571 58.3352 78.9093ZM57.4192 81.6217L57.586 90.5677C57.5883 90.6961 57.6247 90.8215 57.6915 90.9311C57.7582 91.0407 57.8529 91.1306 57.9657 91.1914C61.1735 92.9188 63.661 94.4727 65.3796 96.6897C67.0983 98.9067 68.116 101.829 68.2825 106.486C68.5175 113.057 65.9046 117.586 61.5586 120.594C57.2127 123.602 51.0712 125.026 44.3765 125.026C37.6552 125.026 31.7585 123.954 27.5477 121.134C23.337 118.314 20.7062 113.778 20.4691 106.436C20.2409 99.3672 22.8549 94.8546 27.1881 91.9698C31.5213 89.085 37.6639 87.8924 44.3765 87.8924C46.7816 87.8924 49.1042 88.17 51.2937 88.6853C51.427 88.7166 51.5665 88.7092 51.6958 88.6642C51.8252 88.6191 51.9391 88.5381 52.0242 88.4306L57.4192 81.6217Z" fill="black"/>
<path d="M22.879 4.11284C13.0128 4.41303 3.93756 11.2466 0.971369 21.5251C-2.67931 34.1773 4.27726 47.3595 16.5211 50.9037C28.1619 54.2742 40.3829 47.7132 44.6977 36.1873L56.3345 37.2011C56.4885 37.2144 56.6427 37.1774 56.7739 37.0955C56.9051 37.0137 57.0064 36.8914 57.0623 36.7471C57.1183 36.6027 57.1261 36.444 57.0845 36.2949C57.0428 36.1458 56.9541 36.0142 56.8315 35.9199L46.2811 27.8119C46.4013 17.4449 39.8989 7.91881 29.7706 4.98678C27.4749 4.32225 25.1558 4.04358 22.879 4.11284ZM22.9136 5.54225C25.0485 5.47766 27.2223 5.73955 29.3738 6.36235C38.9813 9.14361 45.1257 18.2548 44.8572 28.1496C44.8541 28.2626 44.8778 28.3747 44.9264 28.4768C44.9749 28.5788 45.0468 28.668 45.1364 28.7369L54.0175 35.5623L44.2953 34.7153C44.137 34.7015 43.9787 34.7409 43.8452 34.8273C43.7118 34.9137 43.611 35.0422 43.5586 35.1924C39.6641 46.3672 27.995 52.7354 16.9179 49.5281C5.44322 46.2066 -1.09843 33.8553 2.34465 21.9226C5.14213 12.2287 13.6622 5.82222 22.9136 5.54225Z" fill="black"/>
<path d="M50.497 48.8871C49.4928 48.9501 48.6251 49.4247 48.0645 50.191C47.3172 51.2127 47.0348 52.633 47.0853 54.267C47.1459 56.2181 47.8961 57.687 48.9723 58.5252C50.0485 59.3634 51.4503 59.5523 52.6182 58.9999C54.4348 58.1401 55.1836 55.8848 55.0713 53.7713C55.0151 52.7146 54.7318 51.6623 54.1587 50.7831C53.5855 49.904 52.6935 49.2063 51.5402 48.9657C51.1814 48.8909 50.8318 48.866 50.497 48.8871ZM50.5658 50.2937C50.7681 50.29 50.9941 50.3143 51.2491 50.3675C52.022 50.5287 52.5607 50.9502 52.9623 51.5662C53.3639 52.1821 53.5992 53.0004 53.6442 53.8475C53.7343 55.5419 53.0162 57.2278 52.0078 57.7051C51.3443 58.0189 50.5446 57.9359 49.8496 57.3946C49.1546 56.8533 48.5642 55.8351 48.5141 54.2226C48.4698 52.7906 48.7575 51.6663 49.2176 51.0373C49.5627 50.5656 49.9588 50.3048 50.5658 50.2937Z" fill="black"/>
<path d="M49.9976 57.5261C49.8176 57.4668 49.6213 57.4815 49.4521 57.567C48.0397 58.2818 47.3625 60.0228 47.1212 61.8448C46.8799 63.6667 47.1053 65.6584 48.1657 67.0419C49.0829 68.2371 50.4297 68.6804 51.6253 68.4975C52.8208 68.3146 53.8923 67.5613 54.4319 66.448C55.2461 64.7691 55.2124 62.9152 54.7976 61.3484C54.3829 59.7814 53.6363 58.4805 52.6768 57.7939C52.6004 57.7392 52.5141 57.7002 52.4226 57.679C52.3312 57.6578 52.2364 57.6548 52.1439 57.6702C52.0513 57.6857 51.9626 57.7192 51.883 57.769C51.8034 57.8188 51.7343 57.8838 51.6797 57.9603C51.6252 58.0368 51.5862 58.1233 51.565 58.2149C51.5438 58.3065 51.5409 58.4014 51.5563 58.4941C51.5717 58.5868 51.6052 58.6756 51.6549 58.7554C51.7046 58.8352 51.7695 58.9044 51.8459 58.959C52.3319 59.3069 53.0683 60.4027 53.4156 61.7151C53.763 63.0275 53.7703 64.5358 53.1462 65.8226C52.8263 66.4827 52.1416 66.9701 51.4096 67.0821C50.6778 67.194 49.9262 66.9859 49.2996 66.1697C48.611 65.271 48.3335 63.5812 48.5385 62.0332C48.7435 60.4849 49.4618 59.1669 50.097 58.8454C50.2662 58.7598 50.3944 58.6103 50.4536 58.4299C50.5127 58.2496 50.498 58.0532 50.4126 57.8837C50.3271 57.7143 50.178 57.5858 49.998 57.5265L49.9976 57.5261Z" fill="black"/>
<path d="M50.4928 40.9549C49.8464 40.9734 49.2488 41.1863 48.7935 41.6359C47.7226 42.6934 47.4857 44.3514 47.5919 45.9612C47.6981 47.571 48.165 49.1703 48.9397 50.262C48.9941 50.3386 49.063 50.4039 49.1425 50.4538C49.2221 50.5038 49.3106 50.5375 49.4032 50.5532C49.4957 50.5689 49.5905 50.5662 49.682 50.5452C49.7735 50.5242 49.8599 50.4853 49.9365 50.4308C50.013 50.3764 50.078 50.3074 50.1279 50.2277C50.1778 50.1481 50.2115 50.0593 50.2272 49.9666C50.2428 49.8739 50.2401 49.779 50.2192 49.6874C50.1982 49.5957 50.1594 49.5091 50.105 49.4325C49.5753 48.686 49.1094 47.2437 49.0186 45.8668C48.9278 44.4898 49.2296 43.2162 49.7972 42.6556C50.0212 42.4344 50.9538 42.2716 51.8434 42.7192C52.7329 43.1669 53.546 44.068 53.655 45.7119C53.8282 48.3275 52.686 49.3319 52.2419 49.7712C52.107 49.9046 52.0305 50.0861 52.0293 50.276C52.0281 50.4658 52.1022 50.6484 52.2353 50.7836C52.3013 50.8505 52.3797 50.9037 52.4662 50.9403C52.5528 50.9768 52.6456 50.996 52.7395 50.9965C52.8334 50.9971 52.9265 50.9791 53.0134 50.9437C53.1004 50.9082 53.1795 50.856 53.2463 50.7899C53.6599 50.3808 55.2869 48.7219 55.0813 45.6172C54.9419 43.5132 53.7863 42.0947 52.4852 41.4398C51.8346 41.1124 51.1391 40.9365 50.4928 40.9549Z" fill="black"/>
<path d="M86.5642 13.6322C86.4508 13.6352 84.5497 13.6661 81.8462 13.7084C79.1427 13.7507 75.5888 13.8058 72.0196 13.8619C68.4504 13.9179 64.8657 13.9749 62.0998 14.0206C59.334 14.0662 57.4377 14.0985 57.0803 14.1122C57.0797 14.1122 57.0791 14.1122 57.0785 14.1122C55.6814 14.1675 54.6326 14.8979 54.1023 15.8069C54.0137 15.9654 53.9886 16.1517 54.0321 16.3281C54.0756 16.5045 54.1844 16.6577 54.3364 16.7567C54.1503 16.7695 53.9766 16.8548 53.8523 16.9943C53.7281 17.1338 53.6633 17.3163 53.6716 17.503C53.6743 17.555 53.7054 18.665 53.747 20.3793C53.7886 22.0936 53.8446 24.4839 53.9103 27.3278C54.0418 33.0157 54.2114 40.519 54.378 48.0635C54.5446 55.608 54.7083 63.1939 54.8285 69.047C54.9488 74.9002 55.0244 79.0979 55.018 79.614C55.0037 80.8156 55.3898 81.7157 55.8595 82.3071C55.9774 82.4556 56.1495 82.5512 56.3378 82.5727C56.526 82.5942 56.7151 82.5399 56.8635 82.4218C56.937 82.3632 56.9982 82.2907 57.0437 82.2085C57.0893 82.1263 57.1182 82.0359 57.1288 81.9425C57.1394 81.8491 57.1316 81.7544 57.1057 81.664C57.0798 81.5737 57.0364 81.4893 56.978 81.4157C56.6971 81.062 56.4364 80.5307 56.4472 79.6311C56.4559 78.9167 56.3779 74.8717 56.2576 69.0173C56.1373 63.1629 55.9737 55.5763 55.8071 48.0313C55.6405 40.4863 55.4709 32.9828 55.3394 27.2942C55.2737 24.45 55.2174 22.0597 55.1758 20.3444C55.1341 18.629 55.111 17.6603 55.099 17.4282C55.0807 17.2739 55.0128 17.1297 54.9055 17.0175C54.7982 16.9052 54.6574 16.831 54.5043 16.806C54.654 16.859 54.8171 16.8606 54.9679 16.8104C55.1186 16.7603 55.2483 16.6613 55.3366 16.5291C55.6353 16.0172 56.1838 15.5806 57.134 15.5426C57.3617 15.5338 59.3578 15.4974 62.1228 15.4517C64.8878 15.4061 68.4721 15.3494 72.0412 15.2934C75.6102 15.2373 79.1641 15.1819 81.8678 15.1395C84.5714 15.0972 86.3769 15.0693 86.6011 15.0633C86.7296 15.0578 86.8542 15.0177 86.9618 14.9472C87.0695 14.8767 87.1561 14.7784 87.2126 14.6627C87.233 14.7827 87.2835 14.8954 87.3595 14.9904C87.4355 15.0853 87.5343 15.1592 87.6467 15.2053C88.0948 15.3482 88.5667 15.6103 88.953 16.1614C89.3392 16.7124 89.6559 17.5857 89.6559 19.0174C89.6559 19.1655 89.6666 19.8561 89.6852 21.0557C89.7038 22.2554 89.73 23.9193 89.7613 25.8711C89.7628 25.9651 89.7828 26.0579 89.8201 26.1442C89.8574 26.2305 89.9113 26.3086 89.9787 26.374C90.0462 26.4394 90.1258 26.4909 90.2131 26.5254C90.3004 26.56 90.3937 26.577 90.4875 26.5755C90.677 26.5724 90.8574 26.4941 90.9892 26.3577C91.121 26.2214 91.1934 26.0382 91.1904 25.8484C91.1591 23.8967 91.1329 22.2325 91.1143 21.0334C91.0958 19.8342 91.0853 19.0554 91.0853 19.0174C91.0853 17.3706 90.7095 16.1754 90.1228 15.3385C89.5361 14.5015 88.7545 14.0559 88.0805 13.8409C87.9192 13.7977 87.7479 13.8124 87.5963 13.8825C87.4447 13.9526 87.3224 14.0737 87.2506 14.2247C87.2223 14.0615 87.1382 13.9132 87.0129 13.8051C86.8876 13.697 86.7288 13.6358 86.5635 13.6318L86.5642 13.6322ZM90.5165 28.3695C90.327 28.3728 90.1466 28.4513 90.0148 28.5878C89.8831 28.7242 89.8108 28.9075 89.814 29.0973C89.8712 32.5731 89.9354 36.5391 89.9962 40.2977C89.9993 40.4875 90.0776 40.6684 90.2138 40.8004C90.35 40.9324 90.5329 41.0048 90.7225 41.0018C90.9119 40.9986 91.0924 40.9203 91.2241 40.784C91.3559 40.6476 91.4283 40.4644 91.4253 40.2746C91.3646 36.516 91.3003 32.5495 91.2431 29.0736C91.2416 28.9796 91.2216 28.8867 91.1842 28.8005C91.1469 28.7142 91.0929 28.6362 91.0254 28.5708C90.958 28.5054 90.8783 28.454 90.791 28.4194C90.7037 28.3849 90.6104 28.368 90.5165 28.3695ZM90.4499 68.7639C90.356 68.7646 90.2632 68.7838 90.1767 68.8204C90.0902 68.8571 90.0118 68.9104 89.9459 68.9774C89.88 69.0444 89.828 69.1237 89.7927 69.2109C89.7574 69.2981 89.7396 69.3914 89.7404 69.4854C89.7404 69.4854 89.7572 71.6302 89.769 73.8708C89.7749 74.9911 89.7795 76.1354 89.7804 77.0463C89.7822 77.9573 89.7756 78.6793 89.7699 78.7967C89.7606 78.9863 89.8269 79.1719 89.9542 79.3126C90.0815 79.4532 90.2593 79.5375 90.4487 79.5469C90.5424 79.5515 90.6362 79.5376 90.7246 79.5059C90.813 79.4742 90.8943 79.4253 90.9638 79.3621C91.0334 79.2989 91.0898 79.2227 91.1299 79.1377C91.1701 79.0527 91.193 78.9605 91.1976 78.8666C91.2106 78.5992 91.2108 77.9596 91.2098 77.0449C91.208 76.1303 91.2042 74.9849 91.1983 73.8635C91.1865 71.6206 91.1697 69.4742 91.1697 69.4742C91.1683 69.2844 91.0916 69.1029 90.9566 68.9697C90.8215 68.8365 90.6394 68.7625 90.4499 68.7639ZM89.925 79.7909C89.8372 79.8242 89.7568 79.8745 89.6884 79.9389C89.6201 80.0033 89.565 80.0806 89.5265 80.1663C89.2167 80.8554 88.5797 81.5929 86.3007 81.6328C85.6445 81.644 62.758 81.9209 58.2724 81.9764C58.0829 81.9788 57.9021 82.0564 57.7698 82.1923C57.6375 82.3282 57.5644 82.5112 57.5668 82.7011C57.5679 82.7951 57.5875 82.8879 57.6245 82.9743C57.6615 83.0608 57.7151 83.1391 57.7823 83.2048C57.8495 83.2705 57.9289 83.3222 58.016 83.3571C58.1032 83.392 58.1964 83.4094 58.2902 83.4082C62.7745 83.3528 85.5195 83.0784 86.3255 83.0646C88.9568 83.0186 90.3139 81.9015 90.8296 80.7543C90.9074 80.5812 90.9134 80.3842 90.8462 80.2067C90.7791 80.0292 90.6443 79.8856 90.4715 79.8076C90.3859 79.769 90.2936 79.7476 90.1997 79.7447C90.1059 79.7418 90.0124 79.7576 89.9247 79.7909H89.925Z" fill="black"/>
<path d="M92.46 9.11511C88.8603 9.23055 79.2233 9.54057 70.4044 9.82649C65.995 9.96944 61.7901 10.1064 58.6465 10.21C57.0747 10.2617 55.7684 10.3052 54.8341 10.3369C53.8998 10.3685 53.394 10.385 53.2406 10.3939C53.0657 10.4093 52.9027 10.4887 52.7825 10.6169C52.6624 10.745 52.5935 10.913 52.589 11.0888C52.5119 10.924 52.3751 10.7948 52.2063 10.7274C52.0374 10.6601 51.8494 10.6597 51.6803 10.7263C50.8536 11.069 50.2851 11.6769 49.9702 12.3396C49.6553 13.0022 49.5664 13.7066 49.5664 14.3482C49.5664 14.6495 49.5973 16.5736 49.6491 19.709C49.7009 22.8443 49.7738 27.1405 49.8578 32.0241C49.8594 32.1181 49.8795 32.211 49.9169 32.2972C49.9543 32.3835 50.0083 32.4614 50.0758 32.5268C50.1433 32.5921 50.223 32.6435 50.3103 32.678C50.3976 32.7125 50.4909 32.7294 50.5848 32.7278C50.6786 32.7262 50.7713 32.7061 50.8574 32.6686C50.9435 32.6312 51.0214 32.5771 51.0866 32.5095C51.1519 32.4419 51.2032 32.3621 51.2376 32.2746C51.272 32.1871 51.2889 32.0937 51.2873 31.9996C51.2033 27.1162 51.1304 22.8203 51.0786 19.6855C51.0268 16.5507 50.9959 14.5266 50.9959 14.3482C50.9959 13.8462 51.0744 13.3477 51.2611 12.9548C51.4478 12.5619 51.7154 12.2616 52.2271 12.0494C52.3641 11.9907 52.4794 11.8906 52.5568 11.763C52.6342 11.6355 52.6699 11.4869 52.6588 11.3381C52.7062 11.4774 52.7953 11.5989 52.914 11.6857C53.0327 11.7725 53.1753 11.8205 53.3223 11.8233C53.3323 11.8233 53.9492 11.7993 54.8826 11.7677C55.816 11.736 57.122 11.6929 58.6936 11.6411C61.8367 11.5376 66.0415 11.4006 70.4508 11.2576C79.2694 10.9717 88.9063 10.6617 92.5057 10.5463C92.5996 10.5432 92.6919 10.5218 92.7774 10.483C92.8629 10.4442 92.94 10.3889 93.0042 10.3204C93.0683 10.2518 93.1184 10.1712 93.1515 10.0833C93.1846 9.99527 93.2001 9.90159 93.1971 9.80761C93.191 9.61789 93.1099 9.43837 92.9717 9.30851C92.8335 9.17865 92.6494 9.10908 92.46 9.11511ZM94.8813 27.6716C94.7875 27.6727 94.6947 27.6922 94.6084 27.7292C94.5221 27.7662 94.444 27.8199 94.3784 27.8872C94.3128 27.9544 94.2611 28.034 94.2262 28.1213C94.1913 28.2086 94.1739 28.3019 94.175 28.3959C94.2143 31.7749 94.2732 36.9277 94.3411 42.7358C94.3422 42.8298 94.3618 42.9227 94.3987 43.0091C94.4356 43.0956 94.4892 43.1739 94.5564 43.2396C94.6235 43.3053 94.7029 43.357 94.7901 43.392C94.8772 43.427 94.9703 43.4444 95.0642 43.4433C95.1581 43.4422 95.2508 43.4226 95.3371 43.3856C95.4234 43.3486 95.5016 43.295 95.5672 43.2277C95.6328 43.1604 95.6845 43.0808 95.7194 42.9936C95.7543 42.9063 95.7717 42.813 95.7706 42.719C95.7027 36.9111 95.6438 31.7584 95.6045 28.3791C95.6034 28.2851 95.5838 28.1922 95.5468 28.1057C95.5099 28.0193 95.4564 27.941 95.3892 27.8753C95.3221 27.8096 95.2426 27.7578 95.1555 27.7229C95.0684 27.6879 94.9752 27.6704 94.8813 27.6716ZM50.628 35.2713C50.4385 35.2746 50.2581 35.3531 50.1264 35.4897C49.9947 35.6262 49.9226 35.8096 49.9259 35.9995C49.958 37.8553 49.99 39.7668 50.0239 41.7091C50.0256 41.8031 50.0457 41.8958 50.0831 41.9821C50.1206 42.0683 50.1746 42.1463 50.2421 42.2117C50.3097 42.277 50.3894 42.3283 50.4768 42.3628C50.5641 42.3972 50.6574 42.4141 50.7512 42.4124C50.8451 42.4108 50.9377 42.3906 51.0238 42.3531C51.1099 42.3156 51.1878 42.2615 51.253 42.1938C51.3182 42.1262 51.3694 42.0463 51.4038 41.9588C51.4382 41.8713 51.4551 41.7779 51.4534 41.6839C51.4195 39.7422 51.3872 37.8309 51.355 35.9746C51.3517 35.7848 51.2733 35.6041 51.1369 35.4722C51.0006 35.3403 50.8176 35.268 50.628 35.2713ZM51.1815 67.1049C50.992 67.1083 50.8116 67.187 50.68 67.3236C50.5484 67.4602 50.4764 67.6436 50.4797 67.8334C50.6227 75.893 50.7257 81.7048 50.7369 82.216C50.7369 82.2166 50.7369 82.2171 50.7369 82.2177C50.7862 84.3203 51.7268 85.7193 52.8047 86.486C52.9592 86.5959 53.151 86.6398 53.3379 86.6081C53.5247 86.5764 53.6914 86.4716 53.8011 86.3168C53.8555 86.2402 53.8942 86.1536 53.9152 86.0619C53.9361 85.9702 53.9388 85.8753 53.9231 85.7826C53.9074 85.6899 53.8737 85.6012 53.8237 85.5215C53.7738 85.4419 53.7087 85.3729 53.6322 85.3184C52.8734 84.7787 52.2061 83.8977 52.1657 82.1852V82.1835C52.1555 81.7202 52.0514 75.8669 51.9085 67.8079C51.9051 67.6181 51.8266 67.4374 51.6902 67.3056C51.5538 67.1737 51.3707 67.1016 51.1812 67.1049H51.1815ZM95.4258 73.9922C95.2363 73.9946 95.0555 74.0723 94.9232 74.2082C94.7908 74.3441 94.7178 74.5271 94.7201 74.7169C94.7737 79.061 94.8092 81.9052 94.8224 82.3212C94.8284 82.5109 94.9093 82.6905 95.0475 82.8204C95.1857 82.9503 95.3697 83.02 95.5591 83.014C95.7485 83.0081 95.9279 82.927 96.0577 82.7887C96.1875 82.6503 96.2571 82.4659 96.2511 82.2761C96.2427 82.012 96.2032 79.0428 96.1496 74.6991C96.1484 74.605 96.1287 74.5122 96.0917 74.4258C96.0547 74.3394 96.001 74.2611 95.9338 74.1955C95.8666 74.1299 95.7872 74.0781 95.7 74.0433C95.6128 74.0084 95.5196 73.991 95.4258 73.9922ZM94.9588 83.256C94.8691 83.2838 94.7858 83.329 94.7136 83.3891C94.6414 83.4492 94.5817 83.523 94.5379 83.6062C93.9292 84.7633 92.2048 85.676 89.4248 85.833C89.3604 85.8366 88.8604 85.8463 88.1384 85.8526C87.4164 85.8588 86.4325 85.8644 85.2571 85.8698C82.9064 85.8804 79.7891 85.8891 76.4591 85.8971C69.799 85.913 62.2887 85.9258 58.3495 85.9446C58.2556 85.945 58.1627 85.9639 58.0761 86.0003C57.9895 86.0367 57.911 86.0898 57.8449 86.1566C57.7788 86.2234 57.7265 86.3027 57.691 86.3897C57.6555 86.4768 57.6374 86.57 57.6379 86.664C57.6383 86.7581 57.6573 86.8511 57.6936 86.9378C57.73 87.0244 57.783 87.1031 57.8497 87.1693C57.9164 87.2354 57.9955 87.2877 58.0823 87.3232C58.1692 87.3588 58.2623 87.3769 58.3561 87.3765C62.2898 87.3577 69.8014 87.3448 76.4622 87.3289C79.7926 87.3211 82.9106 87.3121 85.2635 87.3017C86.4399 87.2965 87.4249 87.2909 88.1507 87.2844C88.8762 87.2782 89.3027 87.2739 89.5054 87.2624C92.5578 87.0901 94.8429 86.0984 95.803 84.2736C95.8913 84.1056 95.9094 83.9094 95.8533 83.7281C95.7973 83.5467 95.6716 83.3952 95.5039 83.3066C95.4209 83.2628 95.33 83.2357 95.2366 83.227C95.1431 83.2183 95.0488 83.2281 94.9592 83.256H94.9588Z" fill="black"/>
<path d="M32.9649 93.629C32.8034 93.6266 32.647 93.6863 32.528 93.7958C32.409 93.9053 32.3364 94.0563 32.325 94.2177L32.1256 97.0497C32.1197 97.1327 32.1303 97.216 32.1566 97.2948C32.1829 97.3737 32.2244 97.4466 32.2789 97.5094C32.3333 97.5722 32.3996 97.6237 32.4738 97.6609C32.5481 97.698 32.629 97.7201 32.7118 97.726C32.7946 97.7318 32.8778 97.7212 32.9565 97.6949C33.0353 97.6685 33.1081 97.627 33.1708 97.5724C33.2335 97.5179 33.2848 97.4515 33.3219 97.3771C33.359 97.3027 33.3811 97.2217 33.3869 97.1388L33.544 94.9041L35.9064 94.9397C35.9895 94.9409 36.0719 94.9258 36.1491 94.8951C36.2263 94.8644 36.2966 94.8188 36.3562 94.7608C36.4158 94.7029 36.4634 94.6337 36.4963 94.5574C36.5292 94.481 36.5467 94.3989 36.5479 94.3157C36.5504 94.1478 36.4862 93.9858 36.3694 93.8653C36.2527 93.7448 36.0929 93.6757 35.9253 93.6732L32.9649 93.629Z" fill="black"/>
<path d="M52.9804 94.5577C52.8974 94.5561 52.8149 94.5708 52.7375 94.601C52.6602 94.6313 52.5895 94.6766 52.5296 94.7342C52.4698 94.7919 52.4218 94.8607 52.3885 94.9369C52.3552 95.0131 52.3372 95.0952 52.3356 95.1783C52.3323 95.3462 52.3957 95.5086 52.5119 95.6297C52.6281 95.7508 52.7875 95.8206 52.9551 95.8239L55.6179 95.8777L55.5821 98.5465C55.5809 98.6297 55.5962 98.7122 55.6269 98.7895C55.6576 98.8667 55.7032 98.9373 55.7611 98.9969C55.819 99.0565 55.8881 99.1041 55.9644 99.1369C56.0406 99.1698 56.1226 99.1873 56.2056 99.1884C56.2887 99.1895 56.3711 99.1742 56.4482 99.1434C56.5253 99.1126 56.5957 99.0669 56.6551 99.0088C56.7146 98.9508 56.7621 98.8816 56.7949 98.8052C56.8277 98.7288 56.8451 98.6467 56.8462 98.5635L56.8906 95.2658C56.8928 95.0986 56.8289 94.9373 56.7129 94.8171C56.5968 94.6969 56.438 94.6276 56.2711 94.6242L52.9804 94.5577Z" fill="black"/>
<path d="M55.2475 114.492C55.1646 114.488 55.0816 114.5 55.0035 114.528C54.9253 114.556 54.8534 114.6 54.7919 114.656C54.7304 114.711 54.6805 114.779 54.6451 114.854C54.6097 114.929 54.5894 115.011 54.5854 115.094L54.4817 117.239L51.701 117.257C51.6179 117.257 51.5358 117.274 51.4593 117.307C51.3827 117.339 51.3133 117.386 51.255 117.445C51.1966 117.504 51.1505 117.575 51.1193 117.652C51.088 117.729 51.0722 117.811 51.0728 117.894C51.0739 118.062 51.1416 118.223 51.2609 118.341C51.3802 118.459 51.5414 118.524 51.709 118.523L55.0882 118.501C55.2499 118.5 55.405 118.437 55.5216 118.325C55.6383 118.213 55.7077 118.061 55.7155 117.899L55.8482 115.155C55.8564 114.987 55.7977 114.823 55.685 114.699C55.5724 114.575 55.415 114.5 55.2475 114.492Z" fill="black"/>
<path d="M31.6546 112.947C31.487 112.942 31.3242 113.003 31.2022 113.118C31.0801 113.234 31.0086 113.392 31.0035 113.56L30.8899 117.341C30.8874 117.427 30.9022 117.512 30.9336 117.592C30.9649 117.672 31.0121 117.744 31.0723 117.805C31.1325 117.866 31.2044 117.914 31.2837 117.947C31.363 117.979 31.448 117.995 31.5336 117.993L34.5445 117.936C34.6276 117.935 34.7095 117.917 34.7856 117.883C34.8617 117.85 34.9305 117.802 34.9881 117.742C35.0457 117.682 35.0909 117.612 35.1212 117.534C35.1515 117.457 35.1663 117.374 35.1647 117.291C35.1615 117.123 35.0919 116.963 34.9711 116.847C34.8504 116.73 34.6884 116.667 34.5208 116.67L32.1738 116.714L32.2673 113.598C32.2723 113.431 32.2105 113.268 32.0956 113.145C31.9807 113.023 31.8221 112.952 31.6546 112.947Z" fill="black"/>
<path d="M34.3684 95.0462C34.2025 95.0378 34.0399 95.0952 33.9159 95.206C33.7919 95.3167 33.7163 95.4719 33.7057 95.638L32.3968 115.928C32.3914 116.013 32.4031 116.098 32.4313 116.178C32.4595 116.259 32.5036 116.332 32.561 116.395C32.6184 116.458 32.6879 116.509 32.7653 116.544C32.8426 116.58 32.9264 116.599 33.0114 116.601L53.9231 117.14C54.0881 117.144 54.2481 117.083 54.3691 116.971C54.4901 116.859 54.5625 116.703 54.5708 116.538L55.5586 96.7589C55.5627 96.676 55.5505 96.5931 55.5228 96.5149C55.4991 96.4575 55.4672 96.4038 55.428 96.3557C55.4183 96.3375 55.4077 96.3197 55.3962 96.3025C55.3406 96.241 55.2735 96.191 55.1986 96.1553C55.1238 96.1198 55.0427 96.0993 54.96 96.095L34.3684 95.0462ZM34.9272 96.343L54.2642 97.3272L53.3388 115.858L33.701 115.352L34.9272 96.343Z" fill="black"/>
<mask id="mask2_70_1293" style="mask-type:luminance" maskUnits="userSpaceOnUse" x="-220" y="-1109" width="393" height="2079">
<path d="M172.201 969.808L172.201 -1108.15H-219.814L-219.814 969.808H172.201Z" fill="white"/>
</mask>
<g mask="url(#mask2_70_1293)">
<path fill-rule="evenodd" clip-rule="evenodd" d="M46.081 102.39L49.0397 102.543L49.0176 106.093H45.8818L46.081 102.39Z" fill="#F5A200"/>
</g>
<mask id="mask3_70_1293" style="mask-type:luminance" maskUnits="userSpaceOnUse" x="-220" y="-1109" width="393" height="2079">
<path d="M172.201 969.808L172.201 -1108.15H-219.814L-219.814 969.808H172.201Z" fill="white"/>
</mask>
<g mask="url(#mask3_70_1293)">
<path fill-rule="evenodd" clip-rule="evenodd" d="M41.079 114.357L34.9878 114.2L35.1932 111.028L41.2039 111.159L41.079 114.357ZM35.2802 109.679L35.4287 107.358L52.5045 107.667L52.3891 109.987L35.2802 109.679ZM35.5109 106.093L35.7275 102.733L42.3482 102.805L42.7006 97.8811L45.2737 98.0125L44.6447 106.093H35.5109ZM35.8381 101.022L36.0625 97.5439L41.2576 97.8083L41.1059 101.199L35.8381 101.022ZM46.4733 98.0727L52.9676 98.4035L52.5677 106.411L50.0784 106.345L50.4372 101.199H46.2963L46.4733 98.0727ZM52.3211 111.343L52.1552 114.642L46.7768 114.504L46.7926 111.203L52.3211 111.343ZM45.4665 114.471L42.6121 114.396L42.7275 111.203H45.4223L45.4665 114.471Z" fill="#F5A200"/>
</g>
<mask id="mask4_70_1293" style="mask-type:luminance" maskUnits="userSpaceOnUse" x="-256" y="-1267" width="444" height="2350">
<path d="M186.525 1082.5L187.739 -1266.5L-254.24 -1266.27L-255.455 1082.74L186.525 1082.5Z" fill="white"/>
</mask>
<g mask="url(#mask4_70_1293)">
<path fill-rule="evenodd" clip-rule="evenodd" d="M24.9297 64.9689C25.014 65.2767 25.0171 65.5933 24.9384 65.849C24.8596 66.1048 24.7054 66.2787 24.5098 66.3326C24.3141 66.3864 24.0929 66.3158 23.895 66.1362C23.697 65.9566 23.5384 65.6828 23.4541 65.375C23.3698 65.0672 23.3667 64.7506 23.4454 64.4949C23.5242 64.2391 23.6784 64.0652 23.874 64.0113C24.0697 63.9574 24.2909 64.0281 24.4888 64.2077C24.6868 64.3873 24.8454 64.6611 24.9297 64.9689Z" fill="black"/>
</g>
<mask id="mask5_70_1293" style="mask-type:luminance" maskUnits="userSpaceOnUse" x="-256" y="-1267" width="444" height="2350">
<path d="M187.739 1082.74L186.697 -1266.3L-255.454 -1266.5L-254.412 1082.54L187.739 1082.74Z" fill="white"/>
</mask>
<g mask="url(#mask5_70_1293)">
<path fill-rule="evenodd" clip-rule="evenodd" d="M125.635 40.7708C125.574 41.0841 125.437 41.3692 125.253 41.5633C125.069 41.7574 124.854 41.8447 124.655 41.8058C124.456 41.767 124.289 41.6052 124.191 41.3562C124.093 41.1072 124.072 40.7912 124.133 40.4779C124.194 40.1645 124.331 39.8795 124.515 39.6854C124.699 39.4913 124.914 39.404 125.113 39.4428C125.312 39.4817 125.479 39.6434 125.577 39.8924C125.675 40.1415 125.696 40.4574 125.635 40.7708Z" fill="black"/>
</g>
<mask id="mask6_70_1293" style="mask-type:luminance" maskUnits="userSpaceOnUse" x="-256" y="-1267" width="444" height="2350">
<path d="M186.525 1082.5L187.739 -1266.5L-254.24 -1266.27L-255.455 1082.74L186.525 1082.5Z" fill="white"/>
</mask>
<g mask="url(#mask6_70_1293)">
<path fill-rule="evenodd" clip-rule="evenodd" d="M29.0181 64.1246C29.1024 64.4325 29.1055 64.749 29.0267 65.0048C28.948 65.2605 28.7938 65.4345 28.5981 65.4883C28.4025 65.5422 28.1813 65.4715 27.9833 65.292C27.7854 65.1124 27.6268 64.8386 27.5425 64.5308C27.4582 64.2229 27.4551 63.9064 27.5338 63.6506C27.6126 63.3949 27.7667 63.2209 27.9624 63.1671C28.1581 63.1132 28.3792 63.1839 28.5772 63.3635C28.7752 63.543 28.9338 63.8168 29.0181 64.1246Z" fill="black"/>
</g>
<mask id="mask7_70_1293" style="mask-type:luminance" maskUnits="userSpaceOnUse" x="-256" y="-1267" width="444" height="2350">
<path d="M187.739 1082.74L186.697 -1266.3L-255.454 -1266.5L-254.412 1082.54L187.739 1082.74Z" fill="white"/>
</mask>
<g mask="url(#mask7_70_1293)">
<path fill-rule="evenodd" clip-rule="evenodd" d="M129.674 41.8328C129.613 42.1461 129.476 42.4312 129.292 42.6253C129.108 42.8194 128.893 42.9067 128.694 42.8678C128.494 42.829 128.328 42.6673 128.23 42.4182C128.132 42.1692 128.111 41.8533 128.172 41.5399C128.233 41.2266 128.37 40.9415 128.554 40.7474C128.738 40.5533 128.953 40.466 129.152 40.5048C129.351 40.5437 129.518 40.7054 129.616 40.9545C129.714 41.2035 129.734 41.5194 129.674 41.8328Z" fill="black"/>
</g>
<path d="M29.7867 67.9127C29.5977 67.8983 29.4108 67.9598 29.267 68.0835C29.1232 68.2072 29.0343 68.383 29.02 68.5723C28.9242 69.8369 28.4329 70.4987 27.9071 70.696C27.3812 70.8933 26.5532 70.7414 25.5021 69.6854C25.4359 69.6188 25.3572 69.5658 25.2705 69.5297C25.1838 69.4935 25.0909 69.4748 24.997 69.4747C24.9031 69.4745 24.8101 69.4928 24.7233 69.5287C24.6365 69.5645 24.5576 69.6172 24.4911 69.6836C24.4246 69.7499 24.3718 69.8288 24.3357 69.9156C24.2996 70.0024 24.2809 70.0955 24.2808 70.1896C24.2806 70.2836 24.2989 70.3768 24.3347 70.4637C24.3705 70.5507 24.423 70.6297 24.4893 70.6963C25.7719 71.9849 27.2031 72.4889 28.4078 72.0369C29.6125 71.5849 30.3227 70.2924 30.4449 68.6806C30.4592 68.4913 30.3979 68.304 30.2744 68.16C30.1509 68.016 29.9753 67.927 29.7863 67.9126L29.7867 67.9127Z" fill="black"/>
<path d="M123.482 44.7699C123.361 44.7526 123.238 44.7666 123.124 44.8105C123.01 44.8544 122.91 44.9266 122.832 45.0205C122.754 45.1144 122.701 45.2267 122.678 45.3467C122.656 45.4668 122.664 45.5906 122.703 45.7064C123.281 47.4315 124.341 48.5194 125.62 48.6501C126.9 48.7809 128.11 47.9387 128.933 46.5488C128.993 46.4475 129.028 46.333 129.033 46.2153C129.038 46.0976 129.014 45.9803 128.963 45.8741C128.912 45.7678 128.836 45.6758 128.741 45.6061C128.647 45.5364 128.536 45.4912 128.42 45.4746L123.482 44.7699ZM124.613 46.3776L126.971 46.7142C126.544 47.0965 126.119 47.2618 125.766 47.2256C125.4 47.1883 124.989 46.9269 124.613 46.3776Z" fill="black"/>
<mask id="mask8_70_1293" style="mask-type:luminance" maskUnits="userSpaceOnUse" x="-256" y="-1267" width="444" height="2350">
<path d="M187.74 1082.74L187.74 -1266.5H-255.454L-255.454 1082.74H187.74Z" fill="white"/>
</mask>
<g mask="url(#mask8_70_1293)">
<path fill-rule="evenodd" clip-rule="evenodd" d="M5.88574 32.019L11.7537 19.6138L13.7764 20.5391L15.499 33.7713L12.7776 33.22L12.3523 29.243H9.98119L8.50705 32.445L5.88574 32.019ZM12.5292 27.9239L11.9539 24.4678L10.2796 27.8344L12.5292 27.9239Z" fill="#F5A200"/>
</g>
<mask id="mask9_70_1293" style="mask-type:luminance" maskUnits="userSpaceOnUse" x="-256" y="-1267" width="444" height="2350">
<path d="M187.74 1082.74L187.74 -1266.5H-255.454L-255.454 1082.74H187.74Z" fill="white"/>
</mask>
<g mask="url(#mask9_70_1293)">
<path fill-rule="evenodd" clip-rule="evenodd" d="M19.8627 21.6455L16.7661 21.2446L15.9424 19.9434L25.4573 21.0442L26.131 22.1449L22.3607 21.9444L20.288 34.176L17.9401 34.2512L19.8627 21.6455Z" fill="#F5A200"/>
</g>
<mask id="mask10_70_1293" style="mask-type:luminance" maskUnits="userSpaceOnUse" x="-256" y="-1267" width="444" height="2350">
<path d="M187.74 1082.74L187.74 -1266.5H-255.454L-255.454 1082.74H187.74Z" fill="white"/>
</mask>
<g mask="url(#mask10_70_1293)">
<path fill-rule="evenodd" clip-rule="evenodd" d="M24.3081 34.727L27.1545 22.2949L29.9259 22.6457L31.35 26.6925L34.8719 22.9697L37.7434 24.0704L35.6456 36.7531L33.1726 36.6027L34.4967 27.097L32.2989 29.9249L30.2511 29.8981L28.9271 26.1949L26.7561 35.051L24.3081 34.727Z" fill="#F5A200"/>
</g>
<mask id="mask11_70_1293" style="mask-type:luminance" maskUnits="userSpaceOnUse" x="-256" y="-1267" width="444" height="2350">
<path d="M187.74 1082.74L187.74 -1266.5H-255.454L-255.454 1082.74H187.74Z" fill="white"/>
</mask>
<g mask="url(#mask11_70_1293)">
<path fill-rule="evenodd" clip-rule="evenodd" d="M98.6961 24.6163L98.353 13.7664C104.734 11.6634 111.783 16.7769 117.269 11.6401L117.486 23.6158C113.438 29.3378 106.989 21.5915 98.6961 24.6163Z" fill="#F5A200"/>
</g>
<path d="M116.879 9.80036C116.691 9.78165 116.502 9.83874 116.356 9.95907C113.936 11.9479 111.259 11.9439 108.253 11.6C105.247 11.256 101.995 10.5213 98.7565 11.37C98.6657 11.3937 98.5805 11.4352 98.5057 11.492C98.4308 11.5488 98.3679 11.6198 98.3205 11.701C98.2731 11.7822 98.2421 11.8719 98.2293 11.965C98.2165 12.0582 98.2222 12.1529 98.246 12.2439C98.2939 12.4275 98.4128 12.5846 98.5763 12.6805C98.7399 12.7764 98.9347 12.8033 99.1181 12.7553C101.924 12.02 104.984 12.6669 108.091 13.0224C111.198 13.3778 114.434 13.3908 117.263 11.0662C117.409 10.9457 117.502 10.7719 117.52 10.583C117.539 10.394 117.482 10.2055 117.362 10.0587C117.241 9.91195 117.068 9.81902 116.879 9.80036Z" fill="#F5A200"/>
<path d="M107.965 15.9183C107.763 15.9015 107.56 15.9124 107.364 15.9515C106.971 16.0295 106.587 16.2287 106.378 16.6024C106.17 16.9761 106.194 17.4755 106.461 17.9923C106.796 18.641 107.459 18.9547 107.961 19.2763C108.211 19.4371 108.425 19.5959 108.556 19.7535C108.688 19.911 108.748 20.0486 108.739 20.2617C108.726 20.5278 108.614 20.7133 108.408 20.8759C108.202 21.0386 107.898 21.1574 107.567 21.2042C106.907 21.2978 106.2 21.074 105.977 20.7239C105.951 20.6843 105.919 20.6501 105.88 20.6232C105.842 20.5963 105.798 20.5772 105.752 20.5672C105.706 20.5571 105.659 20.5563 105.613 20.5646C105.567 20.5729 105.522 20.5901 105.483 20.6155C105.403 20.6667 105.347 20.7475 105.327 20.8402C105.306 20.9329 105.324 21.0299 105.375 21.1098C105.837 21.8336 106.806 22.0352 107.668 21.9131C108.098 21.8521 108.516 21.7026 108.851 21.4381C109.185 21.1735 109.431 20.7728 109.453 20.2943C109.471 19.8989 109.32 19.552 109.104 19.2938C108.888 19.0355 108.616 18.8471 108.346 18.6736C107.805 18.3267 107.282 18.0238 107.096 17.663C106.899 17.2832 106.928 17.0842 107.002 16.9516C107.076 16.8191 107.252 16.7037 107.503 16.6538C107.753 16.6039 108.059 16.6285 108.299 16.7209C108.539 16.8133 108.698 16.9569 108.759 17.1303C108.774 17.1746 108.798 17.2154 108.83 17.2504C108.861 17.2854 108.899 17.3139 108.941 17.3342C108.984 17.3546 109.029 17.3663 109.076 17.3688C109.123 17.3714 109.17 17.3647 109.214 17.3491C109.259 17.3335 109.299 17.3093 109.334 17.278C109.369 17.2466 109.398 17.2086 109.418 17.1662C109.438 17.1238 109.45 17.0778 109.453 17.0308C109.455 16.9839 109.448 16.9369 109.433 16.8925C109.286 16.4735 108.934 16.1987 108.556 16.0529C108.366 15.9799 108.167 15.9351 107.965 15.9183Z" fill="black"/>
<path d="M108.169 14.6235C108.075 14.6105 107.98 14.6353 107.904 14.6926C107.829 14.7498 107.779 14.8347 107.766 14.9287C107.766 14.9287 107.566 16.3734 107.374 18.0714C107.182 19.7693 106.995 21.703 107.028 22.7693C107.031 22.8642 107.072 22.954 107.141 23.0191C107.21 23.0841 107.302 23.119 107.396 23.1161C107.491 23.1131 107.581 23.0727 107.646 23.0035C107.711 22.9343 107.746 22.8422 107.743 22.7473C107.713 21.7964 107.893 19.84 108.084 18.1521C108.275 16.4642 108.474 15.0269 108.474 15.0269C108.487 14.9329 108.462 14.8376 108.405 14.7619C108.347 14.6863 108.263 14.6365 108.169 14.6235Z" fill="black"/>
<mask id="mask12_70_1293" style="mask-type:luminance" maskUnits="userSpaceOnUse" x="-256" y="-1267" width="444" height="2350">
<path d="M187.74 1082.74L187.74 -1266.5H-255.454L-255.454 1082.74H187.74Z" fill="white"/>
</mask>
<g mask="url(#mask12_70_1293)">
<path fill-rule="evenodd" clip-rule="evenodd" d="M85.1231 53.6526C82.8752 58.775 77.763 62.3564 71.8218 62.3564C63.8096 62.3564 57.3037 55.8396 57.3037 47.8123C57.3037 39.7868 63.8096 33.27 71.8218 33.27C74.2394 33.27 76.5176 33.8625 78.5225 34.9095C76.037 44.1647 85.1141 48.5193 85.0963 49.4393C85.0659 50.9267 85.0712 52.3245 85.1231 53.6526Z" fill="#F5A200"/>
</g>
<mask id="mask13_70_1293" style="mask-type:luminance" maskUnits="userSpaceOnUse" x="-256" y="-1267" width="444" height="2350">
<path d="M187.74 1082.74L187.74 -1266.5H-255.454L-255.454 1082.74H187.74Z" fill="white"/>
</mask>
<g mask="url(#mask13_70_1293)">
<path fill-rule="evenodd" clip-rule="evenodd" d="M78.6799 41.5034C79.282 43.2163 80.2702 44.6338 81.294 45.7757L71.1501 56.6615L61.4351 47.8125L65.7664 43.4114L71.1894 48.532L78.6799 41.5034Z" fill="white"/>
</g>
<path d="M62.5413 64.5611C62.0673 64.519 61.6284 64.6079 61.6284 64.6079C61.5474 64.6235 61.4743 64.6666 61.4214 64.73C61.3685 64.7934 61.3392 64.8732 61.3383 64.9558L61.315 67.2916C61.3145 67.3386 61.3233 67.3853 61.3408 67.4289C61.3584 67.4725 61.3843 67.5122 61.4172 67.5458C61.45 67.5793 61.4892 67.6061 61.5323 67.6245C61.5755 67.6429 61.6219 67.6526 61.6688 67.6531C61.7158 67.6535 61.7623 67.6448 61.8059 67.6272C61.8494 67.6097 61.8891 67.5837 61.9226 67.5508C61.9561 67.5178 61.9828 67.4786 62.0012 67.4353C62.0195 67.392 62.0292 67.3456 62.0297 67.2986L62.0356 66.7225C62.1945 66.7361 62.3644 66.7514 62.5608 66.7299C62.8105 66.7025 63.0852 66.6348 63.3192 66.4446C63.5531 66.2544 63.7078 65.9272 63.6985 65.5518C63.69 65.217 63.4992 64.9288 63.2665 64.7803C63.0338 64.6318 62.7783 64.5825 62.5413 64.5615L62.5413 64.5611ZM62.4782 65.2742C62.6497 65.2894 62.8042 65.3338 62.8823 65.3837C62.9604 65.4335 62.9811 65.4484 62.9842 65.57C62.989 65.7714 62.9432 65.8282 62.8687 65.8888C62.7941 65.9494 62.6519 65.9996 62.483 66.0181C62.2768 66.0407 62.1854 66.011 62.043 65.9905L62.0496 65.2963C62.1897 65.28 62.2727 65.256 62.4782 65.2742Z" fill="black"/>
<path d="M65.6173 64.4369C65.5471 64.4337 65.4774 64.4513 65.417 64.4875C65.3567 64.5238 65.3084 64.5771 65.2781 64.6407L63.9628 67.4079C63.9221 67.4937 63.9171 67.5921 63.9489 67.6815C63.9806 67.7709 64.0465 67.844 64.132 67.8848C64.2176 67.9255 64.3157 67.9305 64.405 67.8988C64.4942 67.8671 64.5673 67.8012 64.6081 67.7156L65.5573 65.7188L66.3024 67.7614C66.3185 67.8056 66.3431 67.8462 66.3749 67.8808C66.4067 67.9155 66.4449 67.9436 66.4875 67.9634C66.5301 67.9832 66.5762 67.9945 66.6231 67.9964C66.67 67.9984 66.7169 67.9911 66.761 67.9749C66.8051 67.9588 66.8456 67.9341 66.8802 67.9022C66.9147 67.8704 66.9427 67.8322 66.9625 67.7895C66.9822 67.7468 66.9934 67.7007 66.9954 67.6537C66.9973 67.6067 66.99 67.5598 66.9739 67.5156L65.9363 64.6718C65.9122 64.6055 65.869 64.5479 65.8123 64.5061C65.7555 64.4643 65.6877 64.4402 65.6173 64.4369Z" fill="black"/>
<path d="M64.5727 66.6045C64.5257 66.604 64.4792 66.6128 64.4356 66.6303C64.3921 66.6478 64.3524 66.6737 64.3188 66.7066C64.2853 66.7395 64.2585 66.7787 64.2401 66.8219C64.2217 66.8652 64.2119 66.9116 64.2114 66.9586C64.2105 67.0535 64.2472 67.1449 64.3135 67.2127C64.3798 67.2805 64.4703 67.3191 64.565 67.3201L66.3926 67.34C66.4396 67.3405 66.4861 67.3318 66.5297 67.3142C66.5732 67.2967 66.6129 67.2707 66.6465 67.2379C66.68 67.205 66.7068 67.1658 66.7252 67.1226C66.7436 67.0793 66.7534 67.0329 66.7539 66.9859C66.7544 66.9389 66.7456 66.8922 66.7281 66.8486C66.7106 66.805 66.6847 66.7653 66.6519 66.7317C66.6191 66.6981 66.58 66.6713 66.5368 66.6528C66.4936 66.6344 66.4473 66.6246 66.4003 66.6241L64.5727 66.6045Z" fill="black"/>
<path d="M69.5873 64.4393C69.4937 64.454 69.4097 64.5053 69.3539 64.5819L68.4905 65.7677L67.67 64.6106C67.6151 64.5333 67.5318 64.4809 67.4384 64.4651C67.3451 64.4492 67.2492 64.4711 67.172 64.526C67.1337 64.5532 67.1011 64.5877 67.0762 64.6275C67.0512 64.6674 67.0343 64.7118 67.0265 64.7581C67.0187 64.8045 67.02 64.8519 67.0305 64.8977C67.041 64.9435 67.0603 64.9869 67.0875 65.0252L68.1952 66.5878C68.228 66.634 68.2714 66.6718 68.3216 66.698C68.3719 66.7242 68.4277 66.738 68.4843 66.7384C68.541 66.7387 68.5969 66.7256 68.6475 66.7C68.698 66.6744 68.7418 66.6372 68.7752 66.5914L69.9314 65.004C69.9591 64.966 69.979 64.9229 69.9901 64.8772C70.0011 64.8315 70.0031 64.784 69.9958 64.7376C69.9886 64.6911 69.9722 64.6466 69.9478 64.6065C69.9233 64.5664 69.8912 64.5314 69.8533 64.5037C69.8153 64.476 69.7723 64.4561 69.7267 64.4451C69.6811 64.434 69.6337 64.432 69.5873 64.4393Z" fill="black"/>
<path d="M68.4868 66.0234C68.392 66.0234 68.3011 66.0612 68.2341 66.1283C68.1671 66.1954 68.1294 66.2865 68.1294 66.3814V67.6395C68.1294 67.7345 68.1671 67.8255 68.2341 67.8926C68.3011 67.9597 68.392 67.9975 68.4868 67.9975C68.5815 67.9975 68.6725 67.9597 68.7395 67.8926C68.8065 67.8255 68.8441 67.7345 68.8441 67.6395V66.3814C68.8441 66.2865 68.8065 66.1954 68.7395 66.1283C68.6725 66.0612 68.5815 66.0234 68.4868 66.0234Z" fill="black"/>
<path d="M73.0191 64.5194C72.947 64.4963 72.8693 64.4968 72.7974 64.5208C72.7255 64.5448 72.6631 64.5911 72.6192 64.6529L71.9031 65.6615L71.1786 64.6641C71.1341 64.603 71.0716 64.5576 70.9998 64.5343C70.928 64.511 70.8507 64.511 70.779 64.5344C70.7072 64.5578 70.6447 64.6034 70.6004 64.6646C70.5561 64.7257 70.5322 64.7993 70.5322 64.8749V67.4719C70.5322 67.5668 70.5699 67.6579 70.6369 67.725C70.7039 67.7921 70.7948 67.8299 70.8896 67.8299C70.9844 67.8299 71.0753 67.7921 71.1423 67.725C71.2093 67.6579 71.247 67.5668 71.247 67.4719V65.9754L71.6172 66.4851C71.6506 66.5309 71.6944 66.5682 71.7449 66.5938C71.7955 66.6194 71.8514 66.6325 71.9081 66.6322C71.9647 66.6319 72.0205 66.6181 72.0708 66.5919C72.1211 66.5658 72.1644 66.5281 72.1973 66.4818L72.5529 65.9812V67.4841C72.5529 67.579 72.5905 67.67 72.6576 67.7372C72.7246 67.8043 72.8155 67.842 72.9103 67.842C73.005 67.842 73.0959 67.8043 73.163 67.7372C73.23 67.67 73.2676 67.579 73.2676 67.4841V64.8605C73.2677 64.7846 73.2436 64.7106 73.199 64.6493C73.1543 64.5879 73.0913 64.5425 73.0191 64.5194Z" fill="black"/>
<path d="M74.8574 64.5029C74.7626 64.5029 74.6717 64.5407 74.6047 64.6078C74.5377 64.6749 74.5 64.766 74.5 64.8609V67.4848C74.5 67.5797 74.5377 67.6708 74.6047 67.7379C74.6717 67.805 74.7626 67.8428 74.8574 67.8428H76.8784C76.9732 67.8428 77.0641 67.805 77.1311 67.7379C77.1981 67.6708 77.2358 67.5797 77.2358 67.4848C77.2358 67.3899 77.1981 67.2988 77.1311 67.2317C77.0641 67.1646 76.9732 67.1268 76.8784 67.1268H75.2147V65.2189H76.8784C76.9732 65.2189 77.0641 65.1811 77.1311 65.114C77.1981 65.0469 77.2358 64.9558 77.2358 64.8609C77.2358 64.766 77.1981 64.6749 77.1311 64.6078C77.0641 64.5407 76.9732 64.5029 76.8784 64.5029H74.8574Z" fill="black"/>
<path d="M74.7343 69.1118C74.6395 69.1118 74.5487 69.1496 74.4817 69.2167C74.4146 69.2838 74.377 69.3748 74.377 69.4698V72.3146C74.377 72.4096 74.4146 72.5006 74.4817 72.5677C74.5487 72.6348 74.6395 72.6726 74.7343 72.6726H76.1785C76.2732 72.6726 76.3641 72.6348 76.4311 72.5677C76.4982 72.5006 76.5358 72.4096 76.5358 72.3146C76.5358 72.2197 76.4982 72.1287 76.4311 72.0615C76.3641 71.9944 76.2732 71.9567 76.1785 71.9567H75.0917V69.8277H76.1785C76.2732 69.8277 76.3641 69.79 76.4311 69.7229C76.4982 69.6557 76.5358 69.5647 76.5358 69.4698C76.5358 69.3748 76.4982 69.2838 76.4311 69.2167C76.3641 69.1496 76.2732 69.1118 76.1785 69.1118H74.7343Z" fill="black"/>
<path d="M74.8569 65.8149C74.7621 65.8149 74.6712 65.8527 74.6042 65.9198C74.5372 65.9869 74.4995 66.078 74.4995 66.1729C74.4995 66.2678 74.5372 66.3589 74.6042 66.426C74.6712 66.4931 74.7621 66.5309 74.8569 66.5309H76.3488C76.4436 66.5309 76.5345 66.4931 76.6015 66.426C76.6686 66.3589 76.7062 66.2678 76.7062 66.1729C76.7062 66.078 76.6686 65.9869 76.6015 65.9198C76.5345 65.8527 76.4436 65.8149 76.3488 65.8149H74.8569Z" fill="black"/>
<path d="M74.7343 70.5342C74.6395 70.5342 74.5486 70.5719 74.4816 70.6391C74.4146 70.7062 74.377 70.7972 74.377 70.8921C74.377 70.9871 74.4146 71.0781 74.4816 71.1452C74.5486 71.2124 74.6395 71.2501 74.7343 71.2501H75.8005C75.8953 71.2501 75.9862 71.2124 76.0532 71.1452C76.1202 71.0781 76.1579 70.9871 76.1579 70.8921C76.1579 70.7972 76.1202 70.7062 76.0532 70.6391C75.9862 70.5719 75.8953 70.5342 75.8005 70.5342H74.7343Z" fill="black"/>
<path d="M80.3164 64.5032C80.2216 64.5032 80.1307 64.5409 80.0637 64.608C79.9966 64.6752 79.959 64.7662 79.959 64.8611V66.4349L78.5784 64.6423C78.5328 64.5831 78.4699 64.5397 78.3985 64.5181C78.327 64.4966 78.2506 64.498 78.18 64.5221C78.1094 64.5463 78.0481 64.5919 78.0047 64.6527C77.9613 64.7135 77.9379 64.7864 77.938 64.8611V67.4725C77.938 67.5674 77.9756 67.6584 78.0427 67.7255C78.1097 67.7927 78.2006 67.8304 78.2954 67.8304C78.3901 67.8304 78.481 67.7927 78.548 67.7255C78.6151 67.6584 78.6527 67.5674 78.6527 67.4725V65.9109L80.0333 67.7035C80.0789 67.7627 80.1418 67.8061 80.2132 67.8276C80.2846 67.8492 80.361 67.8479 80.4316 67.8238C80.5022 67.7997 80.5635 67.754 80.6069 67.6933C80.6503 67.6326 80.6737 67.5597 80.6737 67.485V64.8611C80.6737 64.7662 80.6361 64.6752 80.5691 64.608C80.502 64.5409 80.4112 64.5032 80.3164 64.5032Z" fill="black"/>
<path d="M81.9057 64.5029C81.8109 64.5029 81.72 64.5407 81.653 64.6078C81.586 64.6749 81.5483 64.766 81.5483 64.8609C81.5483 64.9558 81.586 65.0469 81.653 65.114C81.72 65.1811 81.8109 65.2189 81.9057 65.2189H83.9285C84.0232 65.2189 84.1141 65.1811 84.1812 65.114C84.2482 65.0469 84.2858 64.9558 84.2858 64.8609C84.2858 64.766 84.2482 64.6749 84.1812 64.6078C84.1141 64.5407 84.0232 64.5029 83.9285 64.5029H81.9057Z" fill="black"/>
<path d="M82.9169 64.5029C82.8222 64.5029 82.7313 64.5407 82.6642 64.6078C82.5972 64.6749 82.5596 64.766 82.5596 64.8609V67.4848C82.5596 67.5797 82.5972 67.6708 82.6642 67.7379C82.7313 67.805 82.8222 67.8428 82.9169 67.8428C83.0117 67.8428 83.1026 67.805 83.1696 67.7379C83.2367 67.6708 83.2743 67.5797 83.2743 67.4848V64.8609C83.2743 64.766 83.2367 64.6749 83.1696 64.6078C83.1026 64.5407 83.0117 64.5029 82.9169 64.5029Z" fill="black"/>
<path d="M64.4502 69.1254C64.202 69.1429 63.9485 69.2151 63.7299 69.3718C63.5113 69.5285 63.333 69.7942 63.3132 70.1105C63.2938 70.4321 63.4657 70.7182 63.6664 70.8813C63.867 71.0444 64.0897 71.1343 64.2904 71.2179C64.4911 71.3016 64.6715 71.379 64.7685 71.4469C64.8653 71.5146 64.8648 71.5185 64.8648 71.571C64.8648 71.7057 64.8227 71.7722 64.7395 71.8398C64.6563 71.9075 64.5196 71.9579 64.3794 71.9646C64.2392 71.9712 64.1036 71.9333 64.0238 71.8783C63.9439 71.8232 63.9054 71.7736 63.9002 71.6461C63.8963 71.5513 63.855 71.4619 63.7853 71.3976C63.7156 71.3333 63.6232 71.2993 63.5285 71.3032C63.4339 71.307 63.3446 71.3484 63.2803 71.4181C63.216 71.4879 63.1821 71.5803 63.1858 71.6752C63.1994 72.0131 63.3803 72.3041 63.6186 72.4683C63.8569 72.6326 64.1385 72.6925 64.4132 72.6795C64.688 72.6664 64.9641 72.5794 65.1901 72.3956C65.4161 72.2118 65.5793 71.913 65.5799 71.572C65.5799 71.258 65.3794 71.0019 65.1775 70.8606C64.9756 70.7194 64.7588 70.6384 64.5651 70.5576C64.3712 70.4768 64.2024 70.3959 64.1166 70.3261C64.031 70.2566 64.0214 70.247 64.0269 70.1549C64.0332 70.0581 64.0648 70.0121 64.1459 69.9539C64.2272 69.8955 64.3636 69.8492 64.5001 69.8395C64.6367 69.8299 64.7699 69.8601 64.8292 69.892C64.8886 69.9238 64.8662 69.899 64.8655 69.9147C64.8637 69.9617 64.871 70.0086 64.8873 70.0527C64.9035 70.0968 64.9283 70.1374 64.9601 70.1719C64.992 70.2064 65.0303 70.2344 65.073 70.254C65.1156 70.2737 65.1617 70.2848 65.2086 70.2866C65.2555 70.2885 65.3023 70.2811 65.3464 70.2649C65.3904 70.2486 65.4309 70.2238 65.4653 70.1919C65.4998 70.16 65.5277 70.1216 65.5474 70.0789C65.567 70.0362 65.5781 69.99 65.5799 69.943C65.5919 69.641 65.388 69.3797 65.1667 69.261C64.9454 69.1423 64.6985 69.1079 64.4502 69.1254Z" fill="black"/>
<path d="M78.2855 69.1135C78.0372 69.1311 77.7837 69.2032 77.5652 69.36C77.3466 69.5167 77.1686 69.7823 77.1488 70.0986C77.1294 70.4202 77.3014 70.7063 77.502 70.8694C77.7026 71.0325 77.9254 71.1221 78.126 71.2057C78.3267 71.2894 78.5071 71.3672 78.6041 71.4351C78.7009 71.5027 78.7008 71.5067 78.7008 71.5591C78.7008 71.6938 78.6583 71.7604 78.5751 71.828C78.4919 71.8957 78.3552 71.9461 78.215 71.9528C78.0748 71.9594 77.9392 71.9214 77.8594 71.8664C77.7795 71.8114 77.741 71.7617 77.7358 71.6343C77.732 71.5395 77.6908 71.45 77.6211 71.3857C77.5515 71.3213 77.4592 71.2872 77.3645 71.291C77.3176 71.2929 77.2715 71.3041 77.2289 71.3238C77.1863 71.3435 77.148 71.3715 77.1161 71.406C77.0843 71.4406 77.0596 71.4811 77.0434 71.5252C77.0272 71.5694 77.0199 71.6163 77.0218 71.6633C77.0354 72.0012 77.2159 72.2919 77.4542 72.4562C77.6925 72.6204 77.9741 72.6807 78.2489 72.6676C78.5236 72.6546 78.7997 72.5676 79.0257 72.3838C79.2517 72.2 79.4152 71.9008 79.4159 71.5598C79.4159 71.2459 79.2154 70.9897 79.0135 70.8485C78.8116 70.7072 78.5945 70.6262 78.4007 70.5454C78.2069 70.4646 78.0384 70.3837 77.9526 70.314C77.867 70.2444 77.8574 70.2348 77.8629 70.1427C77.8691 70.0459 77.9007 69.9999 77.9819 69.9417C78.0632 69.8834 78.1995 69.837 78.3361 69.8274C78.4727 69.8177 78.6058 69.848 78.6652 69.8798C78.7246 69.9116 78.7021 69.8868 78.7015 69.9025C78.6996 69.9495 78.707 69.9964 78.7233 70.0405C78.7395 70.0846 78.7642 70.1252 78.7961 70.1597C78.8279 70.1943 78.8663 70.2222 78.9089 70.2419C78.9515 70.2616 78.9976 70.2726 79.0445 70.2745C79.1392 70.2782 79.2315 70.2441 79.3011 70.1796C79.3706 70.1152 79.4118 70.0257 79.4155 69.9308C79.4275 69.6288 79.2237 69.3671 79.0023 69.2485C78.781 69.1298 78.5341 69.0957 78.2858 69.1132L78.2855 69.1135Z" fill="black"/>
<path d="M81.1644 69.1135C80.9161 69.1311 80.6627 69.2032 80.4441 69.36C80.2255 69.5167 80.0476 69.7823 80.0277 70.0986C80.0083 70.4202 80.1803 70.7063 80.3809 70.8694C80.5815 71.0325 80.8043 71.1221 81.0049 71.2057C81.2056 71.2894 81.386 71.3672 81.483 71.4351C81.5798 71.5027 81.5797 71.5067 81.5797 71.5591C81.5797 71.6938 81.5372 71.7604 81.4541 71.828C81.3708 71.8957 81.2341 71.9461 81.0939 71.9528C80.9537 71.9594 80.8181 71.9214 80.7383 71.8664C80.6584 71.8114 80.6199 71.7617 80.6147 71.6343C80.6109 71.5395 80.5697 71.45 80.5 71.3857C80.4304 71.3213 80.3381 71.2872 80.2434 71.291C80.1965 71.2929 80.1504 71.3041 80.1078 71.3238C80.0652 71.3435 80.0269 71.3715 79.995 71.406C79.9632 71.4406 79.9385 71.4811 79.9223 71.5252C79.9061 71.5694 79.8988 71.6163 79.9007 71.6633C79.9143 72.0012 80.0948 72.2919 80.3331 72.4562C80.5714 72.6204 80.853 72.6807 81.1278 72.6676C81.4025 72.6546 81.6786 72.5676 81.9046 72.3838C82.1306 72.2 82.2942 71.9008 82.2948 71.5598C82.2948 71.2459 82.0943 70.9897 81.8924 70.8485C81.6905 70.7072 81.4734 70.6262 81.2796 70.5454C81.0858 70.4646 80.9173 70.3837 80.8315 70.314C80.7459 70.2444 80.7363 70.2348 80.7418 70.1427C80.748 70.0459 80.7796 69.9999 80.8608 69.9417C80.9421 69.8834 81.0784 69.837 81.215 69.8274C81.3516 69.8177 81.4847 69.848 81.5441 69.8798C81.6035 69.9116 81.581 69.8868 81.5804 69.9025C81.5785 69.9495 81.5859 69.9964 81.6022 70.0405C81.6184 70.0846 81.6431 70.1252 81.675 70.1597C81.7068 70.1943 81.7452 70.2222 81.7878 70.2419C81.8305 70.2616 81.8765 70.2726 81.9234 70.2745C82.0181 70.2782 82.1104 70.2441 82.18 70.1796C82.2495 70.1152 82.2907 70.0257 82.2945 69.9308C82.3062 69.6288 82.1026 69.3671 81.8812 69.2485C81.6599 69.1298 81.413 69.0957 81.1647 69.1132L81.1644 69.1135Z" fill="black"/>
<path d="M66.4683 69.1157C66.4214 69.1153 66.3748 69.1242 66.3313 69.1418C66.2878 69.1594 66.2482 69.1854 66.2147 69.2183C66.1812 69.2513 66.1546 69.2905 66.1362 69.3338C66.1179 69.3771 66.1082 69.4235 66.1078 69.4706C66.1017 70.172 66.0268 70.878 66.089 71.4691C66.1201 71.7646 66.182 72.0438 66.3601 72.2794C66.5383 72.5149 66.8503 72.6577 67.1813 72.6531C67.4994 72.6486 67.7945 72.5294 67.9924 72.3213C68.1903 72.1133 68.2922 71.8491 68.3567 71.5645C68.4859 70.9953 68.4754 70.2996 68.5002 69.5286C68.5032 69.4338 68.4685 69.3416 68.4037 69.2723C68.3389 69.2031 68.2493 69.1625 68.1547 69.1594C68.1078 69.1579 68.061 69.1656 68.0171 69.1822C67.9731 69.1987 67.9329 69.2238 67.8987 69.2559C67.8644 69.2881 67.8368 69.3266 67.8174 69.3694C67.7981 69.4123 67.7873 69.4585 67.7858 69.5055C67.7605 70.2921 67.7567 70.9789 67.6598 71.4058C67.6114 71.6193 67.5422 71.7566 67.4748 71.8274C67.4075 71.8982 67.3431 71.9347 67.1716 71.9372C67.0067 71.9395 66.9802 71.9137 66.93 71.8473C66.8799 71.781 66.8238 71.6251 66.7995 71.3943C66.7509 70.9325 66.8161 70.2206 66.8226 69.4768C66.823 69.4298 66.8141 69.3832 66.7966 69.3396C66.779 69.296 66.753 69.2563 66.7201 69.2228C66.6872 69.1893 66.6481 69.1626 66.6049 69.1442C66.5617 69.1259 66.5153 69.1161 66.4683 69.1157Z" fill="black"/>
<path d="M70.4873 69.1346C70.353 69.1107 70.2124 69.1145 70.0748 69.1464C69.5243 69.2745 69.0707 69.8717 69.0879 70.7996C69.1074 71.8719 69.5384 72.5155 70.116 72.6457C70.6936 72.7759 71.2732 72.2852 71.246 71.6483C71.242 71.5535 71.2004 71.4641 71.1306 71.4C71.0608 71.3358 70.9684 71.302 70.8737 71.3061C70.779 71.3102 70.6899 71.3518 70.6259 71.4216C70.5618 71.4915 70.528 71.584 70.532 71.6787C70.5424 71.9211 70.4177 71.9798 70.2731 71.9472C70.1284 71.9146 69.8189 71.683 69.8026 70.7863C69.7894 70.0728 70.0574 69.8855 70.2364 69.8438C70.3259 69.823 70.4064 69.842 70.4549 69.8767C70.5034 69.9105 70.5317 69.9447 70.5317 70.0413C70.5317 70.1363 70.5693 70.2274 70.6363 70.2945C70.7034 70.3616 70.7942 70.3993 70.889 70.3993C70.9838 70.3993 71.0747 70.3616 71.1417 70.2945C71.2087 70.2274 71.2464 70.1363 71.2464 70.0413C71.2464 69.7292 71.0901 69.4478 70.8632 69.2894C70.7497 69.2102 70.6217 69.1586 70.4873 69.1346Z" fill="black"/>
<path d="M73.1315 69.1219C72.9971 69.098 72.8566 69.1018 72.719 69.1337C72.1685 69.2618 71.7152 69.859 71.7324 70.7868C71.7519 71.8594 72.1829 72.5027 72.7605 72.633C73.3382 72.7632 73.9174 72.2725 73.8902 71.6356C73.8861 71.5408 73.8447 71.4516 73.7749 71.3874C73.7052 71.3232 73.6128 71.2894 73.5182 71.2934C73.4713 71.2954 73.4252 71.3066 73.3826 71.3264C73.3401 71.3462 73.3018 71.3743 73.27 71.4089C73.2383 71.4436 73.2136 71.4841 73.1975 71.5283C73.1814 71.5725 73.1742 71.6194 73.1762 71.6664C73.1866 71.9088 73.0619 71.9671 72.9172 71.9345C72.7726 71.9019 72.4631 71.6702 72.4468 70.7736C72.4336 70.0601 72.702 69.8728 72.8809 69.8311C72.9704 69.8103 73.0506 69.8293 73.0991 69.864C73.1476 69.8978 73.1758 69.932 73.1758 70.0286C73.1758 70.1236 73.2135 70.2146 73.2805 70.2817C73.3475 70.3488 73.4384 70.3866 73.5332 70.3866C73.628 70.3866 73.7189 70.3488 73.7859 70.2817C73.8529 70.2146 73.8906 70.1236 73.8906 70.0286C73.8906 69.7165 73.7347 69.435 73.5077 69.2767C73.3943 69.1975 73.2659 69.1459 73.1315 69.1219Z" fill="black"/>
<path d="M70.7854 85.9183C70.5979 85.946 70.429 86.0471 70.316 86.1994C70.2029 86.3517 70.1548 86.5428 70.1824 86.7306C70.21 86.9184 70.3108 87.0876 70.4629 87.2009C74.1668 89.9589 77.6409 91.1232 80.569 91.7751C83.4593 92.4185 85.8155 92.6115 87.2948 93.2552C87.3055 93.2722 87.4601 93.3722 87.6043 93.5114C87.8074 93.7074 88.0883 93.9975 88.4325 94.3689C89.121 95.1117 90.0655 96.1812 91.2126 97.5259C93.5067 100.215 96.614 104.009 100.154 108.539C107.234 117.599 116.048 129.611 123.578 141.664C123.628 141.744 123.693 141.813 123.769 141.867C123.846 141.922 123.932 141.961 124.023 141.982C124.115 142.003 124.21 142.006 124.302 141.99C124.395 141.974 124.483 141.941 124.563 141.891C124.724 141.79 124.838 141.629 124.88 141.444C124.923 141.259 124.89 141.065 124.79 140.904C117.221 128.788 108.383 116.745 101.28 107.656C97.7283 103.111 94.6105 99.3052 92.2993 96.5957C91.1438 95.241 90.1906 94.161 89.4802 93.3947C89.125 93.0115 88.8313 92.7075 88.5962 92.4805C88.3612 92.2537 88.2962 92.1283 87.9467 91.9712C86.0751 91.1284 83.6914 91.0035 80.8793 90.3775C78.0671 89.7514 74.8325 88.6704 71.3158 86.0518C71.1637 85.9386 70.9729 85.8906 70.7854 85.9183Z" fill="black"/>
</g>
<defs>
<clipPath id="clip0_70_1293">
<rect width="150" height="142" fill="white"/>
</clipPath>
</defs>
</svg>
