<svg width="253" height="119" viewBox="0 0 253 119" fill="none" xmlns="http://www.w3.org/2000/svg">
<g clip-path="url(#clip0_70_1972)">
<path d="M51.8066 31.9762C51.0499 31.9162 50.4007 31.9159 49.8609 31.9808C49.3221 32.0464 48.8703 32.1147 48.4824 32.5344C48.0358 33.0122 47.7511 33.6671 47.4467 34.4681C47.1418 35.2703 46.8563 36.2051 46.5989 37.1378C46.084 39.0029 45.6784 40.8768 45.5271 41.5002C45.5049 41.5915 45.5009 41.6863 45.5154 41.7792C45.5299 41.872 45.5626 41.961 45.6116 42.0412C45.6606 42.1214 45.7249 42.1913 45.801 42.2466C45.877 42.302 45.9632 42.3418 46.0547 42.3639C46.1461 42.386 46.241 42.3899 46.334 42.3754C46.4269 42.3609 46.5161 42.3281 46.5964 42.2792C46.6767 42.2303 46.7466 42.1662 46.802 42.0903C46.8574 42.0144 46.8973 41.9282 46.9195 41.8369C47.0866 41.1486 47.4797 39.332 47.9804 37.5178C48.2308 36.6107 48.5073 35.7085 48.786 34.9753C49.0647 34.2421 49.385 33.6639 49.5307 33.5082C49.5321 33.5067 49.5335 33.5054 49.5349 33.5039C49.4433 33.6035 49.6384 33.4483 50.0339 33.4001C50.4294 33.3521 51.0031 33.3467 51.6934 33.4001C53.0739 33.5095 54.9285 33.8524 56.9737 34.4701C60.9913 35.6831 65.7403 37.9661 69.3009 41.5334C69.2779 41.6019 69.2658 41.652 69.2156 41.7596C69.0553 42.1036 68.7727 42.5787 68.4727 43.0391C67.8726 43.9605 67.2056 44.8358 67.2056 44.8358C67.0905 44.9866 67.0401 45.177 67.0656 45.3649C67.091 45.5528 67.1902 45.7228 67.3413 45.8378C67.4924 45.9527 67.6831 46.0032 67.8713 45.9778C68.0596 45.9524 68.2301 45.8534 68.3452 45.7025C68.3452 45.7025 69.0355 44.7988 69.6737 43.819C69.9928 43.3292 70.2999 42.8232 70.5145 42.3628C70.6219 42.1325 70.7092 41.9177 70.7573 41.6758C70.8053 41.4339 70.8564 41.0621 70.5276 40.7242C66.7094 36.8005 61.6554 34.3895 57.3891 33.1011C55.2559 32.457 53.3203 32.0943 51.8069 31.9745L51.8066 31.9762Z" fill="black"/>
<path d="M115.926 81.4173C115.805 81.3941 115.658 81.3972 115.48 81.4659C115.112 81.6055 114.393 81.9358 113.71 82.3422C113.368 82.5456 113.044 82.7595 112.774 83.0109C112.638 83.1365 112.512 83.2696 112.407 83.4582C112.302 83.6465 112.209 83.9402 112.304 84.2537C112.359 84.4351 112.484 84.5871 112.652 84.6764C112.819 84.7657 113.016 84.7851 113.197 84.7301C113.328 84.6869 113.443 84.6072 113.529 84.5004C113.616 84.3936 113.669 84.2642 113.684 84.1278C113.694 84.1167 113.701 84.1032 113.75 84.0579C113.886 83.9314 114.15 83.7454 114.443 83.5709C114.923 83.285 115.393 83.079 115.709 82.9423C115.829 83.0577 115.984 83.2202 116.176 83.4729C116.616 84.0519 117.166 84.9412 117.659 86.0302C118.646 88.2081 119.405 91.1785 118.833 94.2073C118.77 94.5459 118.398 95.2554 117.905 95.6712C117.412 96.0871 116.932 96.2686 116.287 95.9769C116.114 95.8987 115.917 95.8924 115.739 95.9593C115.561 96.0261 115.418 96.1606 115.339 96.3334C115.3 96.4189 115.279 96.5113 115.276 96.6052C115.273 96.6991 115.288 96.7926 115.321 96.8805C115.355 96.9684 115.405 97.0489 115.469 97.1174C115.533 97.1859 115.611 97.2411 115.696 97.2798C116.871 97.8109 118.058 97.4147 118.83 96.7633C119.602 96.1123 120.092 95.2657 120.241 94.4709C120.887 91.0521 120.038 87.8083 118.965 85.4396C118.428 84.255 117.836 83.2883 117.318 82.6069C117.059 82.2662 116.823 81.9983 116.592 81.7937C116.477 81.6917 116.366 81.6041 116.217 81.5271C116.143 81.4887 116.047 81.4389 115.927 81.416L115.926 81.4173Z" fill="black"/>
<path d="M185.017 94.9809C184.827 94.9745 184.643 95.0437 184.504 95.1732C184.365 95.3028 184.283 95.4822 184.277 95.6717C184.271 95.8612 184.34 96.0454 184.47 96.1839C184.599 96.3224 184.779 96.4039 184.969 96.4104L251.423 98.6502L249.38 109.31L82.1945 106.186C82.0045 106.182 81.821 106.254 81.6842 106.386C81.5474 106.518 81.4685 106.698 81.465 106.888C81.4632 106.982 81.4799 107.075 81.5142 107.162C81.5486 107.25 81.5999 107.33 81.6652 107.397C81.7305 107.465 81.8085 107.519 81.8947 107.557C81.981 107.594 82.0738 107.615 82.1679 107.616L249.957 110.751C250.126 110.754 250.29 110.698 250.421 110.591C250.552 110.485 250.642 110.336 250.674 110.171L252.988 98.0978C253.007 97.9964 253.004 97.8919 252.979 97.7917C252.955 97.6915 252.908 97.5979 252.844 97.5173C252.779 97.4366 252.698 97.3708 252.605 97.3245C252.513 97.2781 252.412 97.2524 252.308 97.2489L185.017 94.9809Z" fill="black"/>
<path d="M103.811 52.2267C103.662 52.2236 103.516 52.2667 103.394 52.3498C103.271 52.433 103.177 52.5521 103.125 52.6909L92.0933 82.1054C92.0267 82.283 92.0335 82.4799 92.1122 82.6525C92.191 82.8251 92.3351 82.9595 92.5131 83.026C92.6012 83.0589 92.6949 83.0741 92.7889 83.0709C92.883 83.0677 92.9755 83.046 93.0611 83.0071C93.1467 82.9682 93.2238 82.9129 93.288 82.8442C93.3522 82.7756 93.4023 82.6949 93.4353 82.6069L104.288 53.6675L136.634 54.3471C136.131 55.6224 133.05 63.4828 129.139 75.3517C129.08 75.5318 129.095 75.7282 129.18 75.8975C129.266 76.0668 129.416 76.1952 129.596 76.2545C129.685 76.2838 129.78 76.2951 129.874 76.2881C129.967 76.2811 130.059 76.2558 130.143 76.2134C130.227 76.1711 130.302 76.1127 130.363 76.0415C130.424 75.9703 130.471 75.8877 130.5 75.7985C134.728 62.9676 138.329 53.9174 138.329 53.9174C138.372 53.8101 138.388 53.694 138.376 53.5792C138.364 53.4643 138.325 53.3538 138.261 53.2576C138.197 53.1614 138.11 53.082 138.009 53.0264C137.908 52.9707 137.794 52.9404 137.679 52.938L103.811 52.2267ZM124.778 91.9392C124.687 91.9137 124.592 91.9063 124.499 91.9174C124.406 91.9286 124.315 91.9581 124.233 92.0041C124.151 92.05 124.079 92.1118 124.021 92.1856C123.963 92.2594 123.92 92.3438 123.894 92.4342C123.21 94.8638 122.544 97.3353 121.901 99.8071L103.443 99.8718C103.349 99.8722 103.256 99.8909 103.169 99.9272C103.082 99.9634 103.004 100.016 102.937 100.083C102.871 100.15 102.818 100.229 102.783 100.316C102.747 100.403 102.729 100.496 102.729 100.59C102.73 100.684 102.748 100.776 102.785 100.863C102.821 100.95 102.874 101.028 102.941 101.094C103.008 101.161 103.087 101.213 103.174 101.249C103.261 101.284 103.354 101.303 103.448 101.302L122.453 101.235C122.611 101.235 122.765 101.182 122.89 101.085C123.015 100.988 123.104 100.852 123.144 100.699C123.826 98.0587 124.542 95.4177 125.273 92.8211C125.325 92.6385 125.301 92.443 125.208 92.2776C125.115 92.1122 124.96 91.9905 124.778 91.9392Z" fill="black"/>
<path d="M82.6261 101.695C82.532 101.695 82.4387 101.713 82.3516 101.748C82.2644 101.783 82.1851 101.836 82.1182 101.902C82.0513 101.968 81.998 102.046 81.9615 102.133C81.9249 102.219 81.9059 102.312 81.9053 102.406C81.9047 102.5 81.9227 102.593 81.9582 102.68C81.9938 102.767 82.0461 102.846 82.1123 102.913C82.1785 102.98 82.2572 103.033 82.3439 103.069C82.4306 103.106 82.5237 103.125 82.6178 103.125L90.3658 103.17C90.4599 103.171 90.5532 103.152 90.6403 103.117C90.7274 103.082 90.8067 103.029 90.8736 102.963C90.9405 102.897 90.9937 102.819 91.0302 102.732C91.0666 102.646 91.0857 102.553 91.0862 102.459C91.0873 102.269 91.0129 102.087 90.8794 101.952C90.7458 101.817 90.5641 101.741 90.3741 101.74L82.6261 101.695ZM100.018 101.851C99.9242 101.85 99.8308 101.867 99.7436 101.902C99.6563 101.938 99.5768 101.99 99.5096 102.055C99.4424 102.121 99.3889 102.199 99.352 102.286C99.3152 102.372 99.2958 102.465 99.2949 102.559C99.294 102.653 99.3116 102.746 99.3467 102.833C99.3819 102.92 99.4339 103 99.4998 103.067C99.5657 103.134 99.6441 103.187 99.7307 103.224C99.8173 103.261 99.9103 103.28 100.004 103.281L251.114 104.748C251.208 104.749 251.302 104.732 251.389 104.697C251.476 104.661 251.556 104.61 251.623 104.544C251.69 104.478 251.744 104.4 251.781 104.313C251.817 104.227 251.837 104.134 251.838 104.04C251.839 103.946 251.821 103.853 251.786 103.766C251.751 103.679 251.699 103.599 251.633 103.532C251.567 103.465 251.489 103.412 251.402 103.375C251.315 103.338 251.222 103.319 251.128 103.318L100.018 101.851Z" fill="black"/>
<mask id="mask0_70_1972" style="mask-type:luminance" maskUnits="userSpaceOnUse" x="-298" y="-2356" width="554" height="2919">
<path d="M255.052 562.472L255.052 -2355.74H-297.352L-297.352 562.472H255.052Z" fill="white"/>
</mask>
<g mask="url(#mask0_70_1972)">
<path fill-rule="evenodd" clip-rule="evenodd" d="M24.11 67.3047C24.0365 63.9253 24.3037 57.0552 27.3059 53.5424C31.6155 48.4955 36.6488 46.2499 38.1566 44.9381C41.2034 42.2702 41.7379 39.0686 49.7512 38.5572C55.7088 38.1792 71.4013 42.9816 76.9447 45.2271C88.2786 49.8294 89.7374 65.3258 91.5949 72.2402C93.9111 80.8444 98.4345 87.1587 99.6238 87.1587C100.813 87.1587 112.882 83.8459 113.595 83.9571C114.31 84.0905 117.461 92.2057 116.272 96.3188C115.942 97.4527 99.7529 104.901 95.9356 104.923C90.125 104.945 86.0136 100.587 83.9468 97.9639C83.9468 97.9639 85.4235 106.902 85.8422 111.17C77.9113 110.615 69.7198 110.259 69.7198 110.259C69.7198 110.259 65.6018 72.774 51.9939 69.4168C46.0519 67.9272 33.9495 67.3047 24.11 67.3047Z" fill="#F5A200"/>
</g>
<path d="M155.742 23.1277C155.674 23.0621 155.595 23.0103 155.507 22.9753C155.42 22.9403 155.327 22.9228 155.233 22.9239C155.139 22.9249 155.046 22.9443 154.959 22.9812C154.873 23.0181 154.794 23.0717 154.728 23.1388L150.791 27.1529L147.841 24.8745C147.699 24.7649 147.522 24.7127 147.343 24.7277C147.164 24.7427 146.998 24.824 146.876 24.9557L138.473 34.0673L135.242 32.5935C135.129 32.5418 135.004 32.5204 134.88 32.5316C134.755 32.5429 134.636 32.5865 134.534 32.6578L128.514 36.8599C128.358 36.9686 128.252 37.1346 128.219 37.3213C128.186 37.508 128.228 37.7002 128.337 37.8556C128.391 37.9326 128.46 37.9981 128.539 38.0486C128.618 38.0992 128.707 38.1336 128.8 38.15C128.892 38.1664 128.987 38.1644 129.079 38.1442C129.171 38.1239 129.258 38.0858 129.335 38.0319L135.019 34.0643L138.35 35.5837C138.488 35.6464 138.641 35.6643 138.79 35.6345C138.938 35.6047 139.073 35.5289 139.175 35.418L147.485 26.4073L150.419 28.6738C150.558 28.781 150.731 28.8334 150.907 28.8213C151.082 28.8092 151.246 28.7333 151.369 28.6081L155.752 24.1393C155.818 24.0722 155.87 23.9928 155.905 23.9057C155.94 23.8185 155.958 23.7254 155.957 23.6315C155.956 23.5375 155.936 23.4447 155.899 23.3583C155.862 23.2719 155.809 23.1937 155.742 23.128L155.742 23.1277Z" fill="black"/>
<path d="M77.6717 15.8845C77.4524 15.8823 77.244 15.8979 77.0553 15.9292C76.3004 16.051 75.7433 16.3674 75.7433 16.3674C75.6613 16.4133 75.589 16.475 75.5308 16.5489C75.4726 16.6227 75.4296 16.7072 75.4041 16.7977C75.3787 16.8881 75.3713 16.9827 75.3825 17.076C75.3937 17.1693 75.4232 17.2594 75.4693 17.3414C75.5154 17.4233 75.5772 17.4952 75.6512 17.5533C75.7252 17.6113 75.8099 17.6543 75.9005 17.6796C75.9911 17.705 76.0858 17.7123 76.1792 17.7011C76.2727 17.6899 76.363 17.6605 76.445 17.6145C76.445 17.6145 76.7996 17.4196 77.2841 17.3414C77.7686 17.2631 78.2699 17.2904 78.7335 17.7313C78.8016 17.7961 78.8819 17.8469 78.9697 17.8807C79.0575 17.9145 79.1511 17.9308 79.2452 17.9284C79.3393 17.9261 79.432 17.9053 79.518 17.8672C79.604 17.8291 79.6817 17.7746 79.7466 17.7066C79.8775 17.5692 79.9485 17.3855 79.9439 17.1959C79.9392 17.0063 79.8593 16.8264 79.7218 16.6956C79.0872 16.0925 78.3294 15.8943 77.6717 15.8845Z" fill="black"/>
<path d="M67.7719 0.012597C65.5947 -0.0592156 63.1627 0.172498 60.4771 0.798135C55.5818 1.93424 53.0028 4.25926 51.7108 6.33338C50.6609 8.01886 50.5031 9.30439 50.4606 9.82509C50.0325 10.0383 49.1119 10.543 48.1364 11.7149C46.8992 13.2014 45.873 15.6365 46.6218 19.0557C46.7521 19.6507 47.0892 20.5831 47.5505 21.7623C48.0118 22.9413 48.5926 24.328 49.1861 25.6631C49.7796 26.9984 50.3843 28.2801 50.9004 29.2594C51.1584 29.7492 51.3926 30.1616 51.6051 30.4827C51.7113 30.6432 51.8106 30.7805 51.9222 30.9052C52.0325 31.0284 52.1195 31.1673 52.4415 31.26C52.8106 31.3723 53.2417 31.4111 53.8766 31.4558C54.5159 31.501 55.2978 31.5259 56.1094 31.5101C57.732 31.4788 59.4099 31.3859 60.515 30.6629C61.9568 29.7224 62.7294 28.2038 63.074 27.3718C64.3277 27.6553 65.6694 27.5367 66.8993 26.7548C66.9787 26.7043 67.0473 26.6389 67.1013 26.562C67.1553 26.485 67.1935 26.3981 67.2139 26.3064C67.2342 26.2147 67.2363 26.1199 67.2199 26.0274C67.2036 25.9349 67.1691 25.8465 67.1186 25.7673C67.068 25.6881 67.0023 25.6195 66.9252 25.5656C66.8482 25.5117 66.7612 25.4737 66.6693 25.4533C66.5775 25.433 66.4825 25.4309 66.3899 25.4473C66.2972 25.4636 66.2087 25.498 66.1294 25.5484C63.3774 27.2984 59.7505 24.7397 59.8873 21.5352C59.9372 20.3849 60.336 19.6637 60.8817 19.1881C61.4274 18.7128 62.1598 18.4815 62.9091 18.4873C63.6585 18.494 64.4062 18.7444 64.931 19.1604C65.4557 19.5766 65.7714 20.1176 65.7714 20.86C65.7714 21.3755 65.9802 21.7958 66.2377 22.2122C66.4952 22.6286 66.8259 23.0319 67.1825 23.3998C67.5391 23.7678 67.9189 24.0973 68.2895 24.353C68.6603 24.6084 68.973 24.829 69.4832 24.8432C69.7843 24.8521 69.9626 24.7346 70.0987 24.6365C70.2347 24.5385 70.34 24.4312 70.4458 24.3096C70.6573 24.0661 70.8637 23.761 71.0857 23.3859C71.5297 22.6358 72.0223 21.6114 72.4942 20.4092C73.3414 18.2504 74.0881 15.5338 74.2824 12.886C74.9894 13.0766 75.9742 13.3067 77.1834 13.3941C78.1466 13.4637 79.1446 13.4331 80.0178 13.0667C80.891 12.7003 81.6151 11.8524 81.6664 10.7092C81.8595 6.33619 77.2056 0.324728 67.771 0.0134655L67.7719 0.012597ZM67.7132 1.43994C76.5308 1.73253 80.3796 7.39512 80.2361 10.6454C80.206 11.3135 79.976 11.5327 79.4636 11.7479C78.951 11.9629 78.1316 12.0281 77.2878 11.9672C75.6001 11.8451 73.8648 11.2867 73.8648 11.2867C73.7585 11.2521 73.6454 11.2426 73.5348 11.2594C73.4242 11.2762 73.319 11.3187 73.2278 11.3834C73.1365 11.448 73.0617 11.533 73.0093 11.6317C72.9569 11.7304 72.9284 11.8399 72.9261 11.9516C72.8709 14.61 72.0584 17.6006 71.1609 19.8873C70.7122 21.0305 70.2412 22.0016 69.8529 22.6577C69.6683 22.9694 69.5061 23.197 69.3888 23.3364C69.3269 23.308 69.2871 23.3016 69.1047 23.1758C68.8355 22.9901 68.5109 22.7125 68.213 22.405C67.9151 22.0977 67.6411 21.7575 67.4574 21.4605C67.2737 21.1635 67.2051 20.8998 67.2051 20.8595C67.2051 19.6787 66.6347 18.6832 65.8232 18.0396C65.0116 17.3962 63.9727 17.0651 62.9213 17.0569C61.87 17.048 60.7877 17.372 59.9403 18.1104C59.093 18.8485 58.5204 20.0006 58.4566 21.4735C58.3561 23.8289 59.7843 25.859 61.6964 26.8633C61.4355 27.4843 60.8537 28.7334 59.7315 29.4648C59.7308 29.4648 59.7301 29.4648 59.7293 29.4648C59.2732 29.7637 57.6088 30.0486 56.0806 30.0784C55.3165 30.094 54.5705 30.0696 53.9766 30.0276C53.4367 29.9896 53.0551 29.923 52.9547 29.9034C52.9154 29.8554 52.8672 29.7953 52.7995 29.6928C52.6336 29.4422 52.4128 29.058 52.1674 28.5925C51.6768 27.6611 51.0798 26.3976 50.4949 25.0816C49.91 23.7657 49.3355 22.3947 48.8841 21.2408C48.4327 20.0869 48.0997 19.11 48.0207 18.7491C47.3575 15.7208 48.2267 13.8423 49.2378 12.6274C50.2489 11.4129 51.3883 10.9346 51.3883 10.9346C51.5178 10.8804 51.6284 10.7893 51.7065 10.6729C51.7846 10.5565 51.8268 10.4198 51.8277 10.2797C51.8277 10.2797 51.8255 8.85363 52.9265 7.08721C54.0268 5.32058 56.212 3.25483 60.8015 2.18987C63.3776 1.5898 65.677 1.37127 67.7118 1.43864L67.7132 1.43994Z" fill="black"/>
<mask id="mask1_70_1972" style="mask-type:luminance" maskUnits="userSpaceOnUse" x="-298" y="-2356" width="554" height="2919">
<path d="M255.052 562.472L255.052 -2355.74H-297.352L-297.352 562.472H255.052Z" fill="white"/>
</mask>
<g mask="url(#mask1_70_1972)">
<path fill-rule="evenodd" clip-rule="evenodd" d="M62.6261 26.5512C62.6261 26.5512 61.8622 28.9304 60.1228 30.0642C58.5615 31.087 53.4369 30.8201 52.6418 30.5756C51.8467 30.3532 47.7398 20.8153 47.3211 18.9032C45.9091 12.4556 51.1117 10.2768 51.1117 10.2768C51.1117 10.2768 51.1541 3.69587 60.6395 1.4948C74.6705 -1.77345 81.1582 5.98583 80.9511 10.677C80.7885 14.301 73.6416 11.9665 73.6416 11.9665C73.5258 17.547 70.2986 24.1502 69.5035 24.128C68.7084 24.1057 66.488 21.9713 66.488 20.8597C66.488 17.0134 59.399 16.2575 59.1718 21.5045C59.0738 23.8168 60.644 25.8176 62.6261 26.5512Z" fill="black"/>
</g>
<path d="M52.9948 29.9444C52.8155 29.8818 52.6186 29.8928 52.4474 29.9752C52.2763 30.0575 52.1449 30.2043 52.0822 30.3834L51.3493 32.4734C51.2865 32.6524 51.2976 32.8488 51.38 33.0196C51.4624 33.1905 51.6093 33.3217 51.7886 33.3844C51.8774 33.4155 51.9715 33.4287 52.0654 33.4235C52.1594 33.4182 52.2514 33.3947 52.3362 33.354C52.421 33.3133 52.4969 33.2562 52.5596 33.1862C52.6223 33.1161 52.6706 33.0345 52.7017 32.9458L53.4342 30.8558C53.4653 30.7672 53.4787 30.6732 53.4734 30.5794C53.4682 30.4856 53.4445 30.3938 53.4037 30.3091C53.3629 30.2245 53.3058 30.1488 53.2356 30.0861C53.1655 30.0235 53.0837 29.9754 52.9948 29.9444Z" fill="black"/>
<path d="M79.4105 11.7603C79.2318 11.8246 79.086 11.957 79.0052 12.1285C78.9244 12.3001 78.9151 12.4969 78.9794 12.6753C79.4289 13.9205 80.2863 16.7263 79.6567 19.6413C78.9565 22.8964 79.1463 24.9949 79.5932 26.4094C79.8167 27.1166 80.104 27.648 80.3401 28.0391C80.5663 28.4139 80.7135 28.6606 80.7376 28.7169C80.7314 28.7236 80.7303 28.7213 80.7033 28.7562C80.6215 28.8647 80.4224 29.0439 80.1726 29.218C79.673 29.566 79.0232 29.8817 78.5605 30.2189C78.5565 30.2219 78.5526 30.2248 78.5487 30.2278C78.2263 30.4731 78.1634 30.6976 78.0537 30.9582C77.9439 31.2186 77.8446 31.5193 77.7409 31.8593C77.5335 32.5389 77.3141 33.3715 77.0632 34.2035C76.8123 35.0357 76.528 35.8668 76.218 36.5074C75.9081 37.1479 75.547 37.5576 75.3642 37.6472C75.3628 37.6472 75.3615 37.6472 75.3601 37.6472C74.4498 38.1003 72.8959 37.9769 71.5409 37.6136C70.8634 37.4319 70.2387 37.2041 69.7696 37.0085C69.5351 36.9109 69.3392 36.8208 69.1981 36.751C69.0569 36.6814 68.9382 36.6016 68.9988 36.6467C68.8465 36.5335 68.6554 36.4854 68.4674 36.5128C68.2795 36.5402 68.1101 36.6409 67.9966 36.7929C67.9404 36.8682 67.8995 36.9539 67.8764 37.0449C67.8533 37.136 67.8484 37.2306 67.862 37.3235C67.8756 37.4165 67.9074 37.506 67.9555 37.5867C68.0037 37.6673 68.0673 37.7377 68.1428 37.7938C68.2931 37.9056 68.3883 37.947 68.5625 38.0331C68.7367 38.1191 68.9573 38.2198 69.2176 38.3283C69.7383 38.5456 70.416 38.793 71.1695 38.9949C72.6755 39.3986 74.4957 39.6744 75.997 38.9285C76.7208 38.5732 77.1385 37.8914 77.5081 37.1277C77.878 36.3633 78.1748 35.4769 78.4351 34.6139C78.6953 33.7508 78.917 32.9103 79.111 32.2742C79.2081 31.956 79.2996 31.6878 79.3742 31.5108C79.4339 31.3692 79.4849 31.319 79.4416 31.3495C79.6965 31.1705 80.3817 30.8147 80.9924 30.3892C81.3049 30.1713 81.6061 29.9351 81.8476 29.6149C82.0887 29.295 82.2775 28.7957 82.1181 28.3065C81.9847 27.8917 81.7732 27.6406 81.567 27.2991C81.3603 26.9565 81.1403 26.5489 80.9598 25.9777C80.5988 24.8354 80.3945 23.0211 81.0572 19.9401C81.7815 16.5858 80.8083 13.5222 80.3269 12.1885C80.2625 12.0101 80.1297 11.8645 79.9579 11.7838C79.786 11.703 79.589 11.6939 79.4103 11.7581L79.4105 11.7603Z" fill="black"/>
<path d="M82.1287 18.8591C82.0382 18.8335 81.9435 18.8259 81.85 18.8369C81.7566 18.8479 81.6662 18.8773 81.5841 18.9231C81.502 18.969 81.4297 19.0305 81.3714 19.1042C81.3131 19.1779 81.27 19.2624 81.2444 19.3528L79.4762 25.6006C79.4246 25.7831 79.4477 25.9786 79.5404 26.1441C79.6332 26.3096 79.788 26.4314 79.9707 26.483C80.0613 26.5086 80.156 26.5161 80.2494 26.5051C80.3429 26.4942 80.4333 26.4648 80.5154 26.4189C80.5975 26.3731 80.6698 26.3116 80.7281 26.2379C80.7863 26.1641 80.8295 26.0797 80.8551 25.9893L82.6233 19.7419C82.6489 19.6515 82.6565 19.557 82.6455 19.4637C82.6345 19.3705 82.6052 19.2802 82.5592 19.1982C82.5133 19.1162 82.4517 19.0441 82.3778 18.9859C82.3039 18.9277 82.2193 18.8846 82.1287 18.8591Z" fill="black"/>
<path d="M72.1172 18.8351C71.9279 18.819 71.7399 18.8786 71.5946 19.0008C71.4493 19.123 71.3586 19.2979 71.3424 19.4869C71.3344 19.5805 71.345 19.6746 71.3734 19.7642C71.4019 19.8537 71.4478 19.9368 71.5084 20.0086C71.569 20.0805 71.6433 20.1396 71.7268 20.1828C71.8104 20.226 71.9016 20.2523 71.9954 20.2603L81.6365 21.0827C81.8258 21.0989 82.0137 21.0392 82.159 20.9171C82.3043 20.7949 82.395 20.6203 82.4112 20.4314C82.4273 20.2425 82.3677 20.0549 82.2453 19.9099C82.123 19.7649 81.9479 19.6742 81.7587 19.658L72.1172 18.8351Z" fill="black"/>
<mask id="mask2_70_1972" style="mask-type:luminance" maskUnits="userSpaceOnUse" x="-298" y="-2356" width="554" height="2919">
<path d="M253.643 562.204L255.052 -2355.74L-295.943 -2355.47L-297.352 562.472L253.643 562.204Z" fill="white"/>
</mask>
<g mask="url(#mask2_70_1972)">
<path fill-rule="evenodd" clip-rule="evenodd" d="M78.7054 22.0802C78.6794 22.2038 78.6418 22.3235 78.5943 22.4328C78.5469 22.5421 78.4907 22.6387 78.429 22.7171C78.3673 22.7954 78.3013 22.854 78.2347 22.8895C78.1681 22.925 78.1024 22.9366 78.0411 22.9238C77.9798 22.911 77.9242 22.874 77.8775 22.8149C77.8308 22.7557 77.7939 22.6757 77.769 22.5792C77.744 22.4827 77.7314 22.3718 77.7319 22.2526C77.7325 22.1335 77.7461 22.0088 77.772 21.8852C77.798 21.7616 77.8358 21.6417 77.8832 21.5324C77.9307 21.423 77.9868 21.3264 78.0485 21.2481C78.1102 21.1697 78.1762 21.1111 78.2428 21.0757C78.3093 21.0402 78.3752 21.0285 78.4364 21.0413C78.4977 21.0541 78.5533 21.0911 78.6 21.1503C78.6467 21.2094 78.6836 21.2895 78.7086 21.3859C78.7335 21.4824 78.7461 21.5934 78.7456 21.7125C78.7451 21.8316 78.7314 21.9566 78.7054 22.0802Z" fill="black"/>
</g>
<path d="M75.4875 31.1681C75.3958 31.1896 75.3093 31.2287 75.2329 31.2836C75.1564 31.3385 75.0916 31.4078 75.042 31.4877C74.942 31.6488 74.9101 31.8431 74.9535 32.0277C74.9968 32.2122 75.1117 32.3721 75.273 32.4721C75.273 32.4721 75.7151 32.7471 76.2913 33.0001C76.8676 33.2532 77.5674 33.5411 78.3519 33.4157C78.4448 33.4009 78.5339 33.3681 78.6141 33.3189C78.6942 33.2697 78.7639 33.205 78.8191 33.1289C78.8742 33.0528 78.9139 32.9667 78.9357 32.8753C78.9575 32.7839 78.961 32.6891 78.9461 32.5963C78.9312 32.5035 78.8982 32.4147 78.8489 32.3347C78.7996 32.2547 78.735 32.185 78.6588 32.1299C78.5825 32.0748 78.4962 32.0353 78.4046 32.0136C78.3131 31.9918 78.2182 31.9883 78.1252 32.0031C77.9364 32.0334 77.3426 31.8992 76.8681 31.6909C76.3937 31.4826 76.0286 31.2571 76.0286 31.2571C75.9487 31.2075 75.8598 31.1743 75.7669 31.159C75.6741 31.1437 75.5791 31.1467 75.4875 31.1681Z" fill="black"/>
<path d="M24.2598 66.5669C18.3617 66.5669 13.2392 66.8033 10.6294 67.2208C6.10906 67.9387 3.22002 69.4714 1.59463 71.373C-0.0308806 73.2748 -0.321288 75.5401 0.307926 77.4246C0.612689 78.3354 1.71185 81.1437 3.25629 84.9669C4.80073 88.7898 6.7759 93.5831 8.78241 98.3041C10.7889 103.025 12.8258 107.672 14.4969 111.213C15.3324 112.983 16.0751 114.475 16.6853 115.573C16.9904 116.122 17.2609 116.571 17.5053 116.921C17.7496 117.27 17.8805 117.526 18.3169 117.731C18.3187 117.732 18.3205 117.732 18.3223 117.733C18.5701 117.847 18.6992 117.848 18.9239 117.879C19.1485 117.911 19.4263 117.939 19.7638 117.966C20.4389 118.022 21.3499 118.073 22.4717 118.121C24.7152 118.218 27.7978 118.304 31.4459 118.38C38.7422 118.532 48.2966 118.646 57.8673 118.732C67.4379 118.818 77.0243 118.877 84.3804 118.918C91.7365 118.959 96.9268 118.984 97.4979 118.999C99.212 119.043 100.897 117.83 101.8 116.363C102.252 115.629 102.514 114.761 102.25 113.908C101.986 113.056 101.196 112.388 100.023 112.04C98.7403 111.656 96.3245 111.352 93.2785 111.056C90.2314 110.76 86.6047 110.494 83.1202 110.27C76.4664 109.842 70.8968 109.6 70.3554 109.576C70.1762 108.061 69.1441 99.8485 66.6497 90.9042C65.2749 85.9742 63.4736 80.9283 61.1249 76.857C58.7765 72.7861 55.8613 69.6342 52.1667 68.722H52.1645C46.071 67.2059 34.0881 66.5633 24.2585 66.5664L24.2598 66.5669ZM24.1963 68.0489C34.0015 68.0622 46.0762 68.6813 51.8204 70.1107C51.8211 70.1107 51.8218 70.1107 51.8226 70.1107C54.9313 70.8777 57.6336 73.6697 59.8843 77.5709C62.1349 81.4721 63.9147 86.427 65.2703 91.2881C67.9816 101.01 69.0082 110.336 69.0082 110.336C69.0268 110.506 69.1057 110.664 69.2306 110.78C69.3554 110.897 69.518 110.965 69.6889 110.973C69.6889 110.973 76.078 111.25 83.0288 111.697C86.5042 111.921 90.1197 112.187 93.1401 112.48C96.1606 112.774 98.6363 113.118 99.6141 113.411C99.6148 113.411 99.6156 113.411 99.6163 113.411C100.506 113.675 100.784 114.016 100.882 114.331C100.979 114.645 100.895 115.103 100.581 115.614C99.9513 116.637 98.423 117.592 97.5358 117.569C96.8062 117.551 91.7445 117.529 84.3891 117.487C77.0336 117.447 67.449 117.388 57.8812 117.302C48.3134 117.216 38.7619 117.102 31.4768 116.95C27.8343 116.874 24.7576 116.788 22.5343 116.692C21.4227 116.644 20.5232 116.593 19.8813 116.541C19.5604 116.515 19.3032 116.488 19.1249 116.463C18.9944 116.445 18.9806 116.438 18.9765 116.443C18.9487 116.407 18.8131 116.291 18.6812 116.102C18.4847 115.821 18.2306 115.403 17.9395 114.879C17.3573 113.832 16.6218 112.358 15.7937 110.603C14.1374 107.095 12.1047 102.457 10.1023 97.7456C8.09992 93.0344 6.12701 88.2477 4.58573 84.4325C3.04454 80.6173 1.92105 77.7289 1.66784 76.9721C1.18366 75.5216 1.36007 73.8517 2.68485 72.3018C4.00974 70.7518 6.55481 69.3166 10.8557 68.6338C13.247 68.2512 18.3129 68.0411 24.196 68.0493L24.1963 68.0489Z" fill="black"/>
<mask id="mask3_70_1972" style="mask-type:luminance" maskUnits="userSpaceOnUse" x="-298" y="-2356" width="554" height="2919">
<path d="M255.052 562.472L255.052 -2355.74H-297.352L-297.352 562.472H255.052Z" fill="white"/>
</mask>
<g mask="url(#mask3_70_1972)">
<path fill-rule="evenodd" clip-rule="evenodd" d="M69.7201 110.259C69.7201 110.259 95.2989 111.371 99.82 112.727C103.945 113.95 100.118 118.352 97.5171 118.285C94.9158 118.218 20.7027 118.04 18.6225 117.084C16.5401 116.106 2.10376 80.5333 0.987955 77.1984C-0.12562 73.8634 1.92111 69.3279 10.7429 67.9272C17.4109 66.86 42.5243 67.0601 51.9941 69.4168C65.602 72.774 69.7201 110.259 69.7201 110.259Z" fill="black"/>
</g>
<path d="M66.7944 63.9025C66.7007 63.9111 66.6096 63.9381 66.5264 63.9819C66.4432 64.0257 66.3694 64.0855 66.3093 64.1578C66.2492 64.2301 66.2039 64.3134 66.1761 64.4032C66.1483 64.4929 66.1384 64.5871 66.1471 64.6806C66.5434 68.9443 69.9335 80.8204 83.0591 97.9976C83.1743 98.1483 83.3449 98.2472 83.5331 98.2725C83.7214 98.2977 83.912 98.2472 84.0631 98.1322C84.2141 98.0172 84.3132 97.8471 84.3386 97.6591C84.364 97.4711 84.3135 97.2808 84.1983 97.13C71.1951 80.1128 67.9215 68.2882 67.5739 64.5482C67.5562 64.3594 67.4642 64.1853 67.318 64.0642C67.1718 63.9432 66.9835 63.8849 66.7944 63.9025Z" fill="black"/>
<path d="M129.32 74.6277C129.001 74.6763 128.732 74.9104 128.604 75.1487C128.603 75.1517 128.601 75.1547 128.6 75.1576C128.651 75.06 128.52 75.2614 128.331 75.459C128.143 75.6567 127.879 75.9154 127.569 76.2098C126.947 76.7983 126.134 77.5322 125.303 78.2668C123.64 79.7362 121.875 81.2331 121.445 81.5748C121.159 81.802 120.297 82.1492 119.412 82.396C118.526 82.643 117.605 82.8339 117.018 82.9722C116.927 82.9938 116.84 83.033 116.764 83.0879C116.688 83.1428 116.623 83.2123 116.573 83.2922C116.524 83.3722 116.491 83.4611 116.476 83.5539C116.46 83.6466 116.464 83.7414 116.486 83.8329C116.507 83.9243 116.547 84.0105 116.602 84.0867C116.657 84.1629 116.726 84.2275 116.806 84.2769C116.886 84.3262 116.975 84.3593 117.068 84.3744C117.161 84.3894 117.256 84.386 117.348 84.3644C117.892 84.2359 118.849 84.0377 119.798 83.7734C120.746 83.5088 121.672 83.2228 122.337 82.6939C122.858 82.2797 124.575 80.8199 126.252 79.3376C127.091 78.5966 127.912 77.8557 128.555 77.2472C128.874 76.9446 129.149 76.6759 129.365 76.4486C129.452 77.137 129.265 78.556 128.008 80.7063C127.919 80.8589 127.889 81.0391 127.925 81.212C127.961 81.3849 128.06 81.5383 128.203 81.6428C128.345 81.7473 128.521 81.7955 128.697 81.778C128.873 81.7606 129.037 81.6788 129.156 81.5483C129.156 81.5483 129.688 80.9667 130.3 80.4376C130.605 80.173 130.932 79.9247 131.179 79.7853C131.206 79.7698 131.211 79.7743 131.235 79.7632C131.274 79.9226 131.316 80.1046 131.343 80.3759C131.408 81.054 131.402 82.0042 131.287 83.0265C131.058 85.071 130.359 87.4041 129.175 88.6425C127.411 90.474 125.272 91.6075 123.408 92.3457C122.475 92.715 121.614 92.9849 120.903 93.1972C120.191 93.4098 119.656 93.5473 119.242 93.7287C119.069 93.805 118.932 93.9472 118.863 94.1239C118.794 94.3006 118.799 94.4974 118.875 94.671C118.951 94.8447 119.094 94.9808 119.271 95.0497C119.448 95.1185 119.645 95.1142 119.819 95.038C120.014 94.9524 120.587 94.7847 121.313 94.5677C122.04 94.3509 122.945 94.0675 123.936 93.6753C125.917 92.8905 128.25 91.6676 130.21 89.6317C130.211 89.6317 130.211 89.6317 130.212 89.6317C131.792 87.9798 132.463 85.4109 132.712 83.1867C132.837 82.0746 132.847 81.0492 132.769 80.2404C132.731 79.836 132.672 79.4881 132.577 79.1839C132.481 78.8798 132.419 78.544 131.925 78.3245C131.92 78.3223 131.915 78.3202 131.91 78.318C131.349 78.083 130.92 78.3001 130.543 78.5102C130.81 77.5793 130.872 76.8068 130.784 76.1983C130.7 75.6209 130.515 75.1684 130.123 74.8574C129.926 74.702 129.64 74.5798 129.321 74.6285L129.32 74.6277ZM129.872 75.8149L129.868 75.8238C129.868 75.8238 129.864 75.8239 129.863 75.8262C129.866 75.8217 129.87 75.8193 129.872 75.8149Z" fill="black"/>
<path d="M112.569 50.5636C112.328 50.568 112.129 50.5726 111.964 50.5859C111.882 50.5926 111.809 50.5993 111.732 50.6116C111.655 50.6249 111.599 50.6092 111.405 50.7179C111.399 50.7216 111.392 50.7252 111.386 50.729C110.902 51.0194 110.852 51.3624 110.743 51.703C110.634 52.0434 110.558 52.4167 110.498 52.7756C110.379 53.493 110.33 54.1565 110.33 54.1565C110.323 54.2518 110.335 54.3477 110.366 54.4383C110.396 54.5289 110.445 54.6123 110.508 54.6838C110.572 54.7554 110.649 54.8137 110.735 54.8549C110.821 54.8962 110.915 54.9197 111.011 54.9242C111.011 54.9242 114.891 55.1078 118.767 55.2303C120.705 55.2915 122.641 55.3376 124.101 55.3376C124.831 55.3376 125.439 55.3265 125.888 55.2983C126.112 55.2827 126.291 55.2676 126.462 55.2342C126.547 55.2187 126.626 55.204 126.754 55.1435C126.819 55.1133 126.902 55.0743 127.006 54.9611C127.111 54.8479 127.228 54.6006 127.198 54.364V54.3684C127.222 54.5629 127.217 54.3034 127.298 54.064C127.379 53.8245 127.501 53.5217 127.626 53.232C127.876 52.6524 128.136 52.1264 128.136 52.1264C128.189 52.0201 128.214 51.9025 128.21 51.784C128.205 51.6655 128.172 51.5499 128.111 51.4477C128.051 51.3454 127.967 51.2597 127.865 51.1982C127.764 51.1367 127.648 51.1015 127.53 51.0955C127.53 51.0955 123.721 50.9065 119.846 50.7533C117.909 50.6769 115.955 50.6092 114.446 50.5788C113.692 50.5632 113.05 50.5566 112.569 50.5655L112.569 50.5636ZM112.59 51.9935C113.04 51.9869 113.672 51.9934 114.418 52.0068C115.909 52.0368 117.858 52.1042 119.79 52.1805C123.121 52.3121 125.553 52.4331 126.398 52.4744C126.356 52.5694 126.354 52.5637 126.311 52.6642C126.177 52.9748 126.043 53.3026 125.941 53.6052C125.909 53.699 125.882 53.7802 125.853 53.8636C125.827 53.8636 125.824 53.8679 125.796 53.8701C125.409 53.8948 124.816 53.907 124.101 53.907C122.671 53.907 120.743 53.8613 118.812 53.8002C115.336 53.6903 112.509 53.556 111.849 53.5253C111.873 53.3116 111.868 53.272 111.912 53.009C111.965 52.6895 112.035 52.3651 112.108 52.1388C112.128 52.0736 112.151 52.0488 112.176 52.0081C112.288 52.0014 112.411 51.9949 112.59 51.9927V51.9935Z" fill="black"/>
<mask id="mask4_70_1972" style="mask-type:luminance" maskUnits="userSpaceOnUse" x="-298" y="-2356" width="554" height="2919">
<path d="M255.052 562.472L255.052 -2355.74H-297.352L-297.352 562.472H255.052Z" fill="white"/>
</mask>
<g mask="url(#mask4_70_1972)">
<path fill-rule="evenodd" clip-rule="evenodd" d="M111.044 54.2089C111.044 54.2089 111.236 51.652 111.755 51.3408C112.272 51.0517 127.494 51.8078 127.494 51.8078C127.494 51.8078 126.427 53.9642 126.488 54.4534C126.55 54.9425 111.044 54.2089 111.044 54.2089Z" fill="black"/>
</g>
<path d="M139.429 53.9467C139.341 53.9115 139.248 53.8937 139.154 53.8946C139.06 53.8954 138.967 53.9147 138.88 53.9514C138.794 53.9882 138.715 54.0414 138.649 54.1084C138.583 54.1754 138.531 54.2547 138.496 54.3418C135.151 62.6065 132.105 71.0045 129.363 79.5138C129.305 79.6943 129.321 79.8904 129.407 80.0592C129.494 80.2279 129.644 80.3554 129.825 80.4135C130.006 80.4716 130.203 80.4556 130.372 80.369C130.541 80.2825 130.668 80.1324 130.727 79.9519C133.458 71.4754 136.492 63.1099 139.824 54.8777C139.86 54.7906 139.877 54.6974 139.877 54.6035C139.876 54.5095 139.856 54.4168 139.82 54.3303C139.783 54.2439 139.729 54.1654 139.662 54.0995C139.595 54.0337 139.516 53.9818 139.429 53.9467ZM126.607 91.0068C126.516 90.981 126.422 90.9733 126.328 90.984C126.235 90.9947 126.144 91.0237 126.062 91.0693C125.98 91.1149 125.907 91.1762 125.849 91.2497C125.79 91.3233 125.747 91.4076 125.721 91.4979C124.88 94.4395 124.074 97.425 123.304 100.409C123.257 100.593 123.285 100.788 123.381 100.951C123.478 101.114 123.635 101.233 123.819 101.28C124.003 101.327 124.199 101.3 124.362 101.203C124.526 101.107 124.644 100.949 124.691 100.766C125.459 97.792 126.261 94.8183 127.099 91.8904C127.151 91.7082 127.128 91.5127 127.036 91.347C126.944 91.1813 126.789 91.0589 126.607 91.0068Z" fill="black"/>
<path d="M140.578 55.3659C140.401 55.2973 140.204 55.3016 140.03 55.378C139.856 55.4545 139.72 55.5969 139.651 55.7736C136.608 63.5912 133.816 71.4754 131.273 79.4266C131.244 79.5161 131.234 79.6103 131.241 79.7039C131.249 79.7975 131.276 79.8888 131.319 79.9722C131.362 80.0557 131.421 80.1298 131.493 80.1904C131.565 80.2511 131.648 80.2969 131.737 80.3255C131.827 80.3541 131.921 80.3648 132.015 80.357C132.109 80.3491 132.2 80.323 132.284 80.2799C132.368 80.2368 132.442 80.1777 132.503 80.106C132.563 80.0342 132.609 79.9512 132.638 79.8617C135.172 71.9385 137.954 64.0819 140.986 56.2917C141.02 56.2041 141.037 56.1107 141.035 56.0168C141.033 55.9229 141.012 55.8303 140.974 55.7443C140.936 55.6584 140.882 55.5806 140.814 55.5157C140.746 55.4508 140.666 55.3999 140.578 55.3659ZM128.995 89.2962C128.813 89.2433 128.617 89.2645 128.451 89.3557C128.284 89.4469 128.161 89.6004 128.107 89.7823C127.081 93.3018 126.103 96.8436 125.173 100.407C125.149 100.498 125.144 100.593 125.157 100.686C125.17 100.779 125.201 100.869 125.248 100.95C125.296 101.031 125.359 101.101 125.434 101.158C125.509 101.215 125.595 101.256 125.686 101.28C125.87 101.328 126.065 101.3 126.229 101.205C126.393 101.109 126.512 100.952 126.56 100.768C127.487 97.2173 128.46 93.6884 129.483 90.1823C129.536 90.0002 129.514 89.8046 129.423 89.6384C129.331 89.4722 129.178 89.3492 128.995 89.2962Z" fill="black"/>
<path d="M108.193 59.2685C108.031 59.2129 107.855 59.2168 107.696 59.2796C107.696 59.2796 106.086 59.9122 104.514 61.1937C102.942 62.475 101.319 64.4999 101.499 67.2175C101.662 69.6815 102.798 71.438 104.419 72.3649C106.04 73.292 108.064 73.4218 110.055 72.9813C113.388 72.2634 115.241 70.0889 116.189 68.1506C117.138 66.2115 117.252 64.4379 117.252 64.4379C117.26 64.3202 117.238 64.2023 117.189 64.0948C117.14 63.9874 117.066 63.8937 116.972 63.8221C116.878 63.7506 116.767 63.7034 116.651 63.6847C116.534 63.666 116.414 63.6763 116.303 63.7149L107.472 66.7628L108.666 60.0695C108.695 59.9015 108.664 59.7283 108.578 59.5814C108.491 59.4344 108.354 59.3232 108.193 59.2679V59.2685ZM107.003 61.2326L105.847 67.7123C105.825 67.835 105.836 67.9612 105.878 68.0786C105.92 68.1959 105.992 68.3005 106.087 68.3814C106.182 68.4624 106.297 68.5172 106.42 68.5404C106.542 68.5635 106.669 68.5542 106.787 68.5134L115.626 65.4625C115.493 66.0319 115.28 66.7512 114.902 67.5238C114.083 69.1975 112.619 70.9683 109.749 71.5852C109.748 71.5852 109.747 71.5852 109.745 71.5852C108.017 71.9677 106.348 71.8195 105.131 71.1237C103.914 70.4275 103.067 69.216 102.929 67.1226C102.789 65.0153 104.039 63.4271 105.42 62.3017C105.981 61.8445 106.526 61.504 107.003 61.2317L107.003 61.2326Z" fill="black"/>
<mask id="mask5_70_1972" style="mask-type:luminance" maskUnits="userSpaceOnUse" x="-298" y="-2356" width="554" height="2919">
<path d="M255.052 562.472L255.052 -2355.74H-297.352L-297.352 562.472H255.052Z" fill="white"/>
</mask>
<g mask="url(#mask5_70_1972)">
<path fill-rule="evenodd" clip-rule="evenodd" d="M109.817 59.2563L108.648 65.4149L116.22 62.7025C114.57 60.079 112.833 59.3008 109.817 59.2563Z" fill="#F5A200"/>
</g>
<path d="M118.776 59.2297C117.422 59.2164 115.838 59.8617 114.491 60.4751C113.144 61.0883 112.077 61.7044 112.077 61.7044C111.995 61.7514 111.924 61.8138 111.866 61.8883C111.809 61.9628 111.767 62.0479 111.743 62.1387C111.718 62.2294 111.712 62.3241 111.724 62.4172C111.737 62.5103 111.767 62.6001 111.814 62.6815C111.861 62.7628 111.924 62.834 111.999 62.8912C112.073 62.9483 112.158 62.9902 112.249 63.0145C112.34 63.0388 112.435 63.0448 112.528 63.0325C112.622 63.0203 112.711 62.9899 112.793 62.9429C112.793 62.9429 113.808 62.3583 115.085 61.7765C116.363 61.1949 117.946 60.6512 118.761 60.6596C118.951 60.6615 119.134 60.5882 119.27 60.4556C119.405 60.3229 119.483 60.1418 119.485 59.9523C119.487 59.7627 119.413 59.5799 119.28 59.4444C119.148 59.3089 118.966 59.2317 118.776 59.2297Z" fill="black"/>
<path d="M117.916 58.5429C117.727 58.5568 117.551 58.6451 117.427 58.7887C117.365 58.8598 117.318 58.9423 117.289 59.0314C117.259 59.1206 117.247 59.2148 117.254 59.3085C117.261 59.4022 117.287 59.4936 117.329 59.5775C117.371 59.6614 117.429 59.7361 117.501 59.7974L117.772 60.0311L117.484 60.3811C117.424 60.4537 117.38 60.5374 117.352 60.6273C117.325 60.7172 117.316 60.8115 117.325 60.905C117.334 60.9984 117.362 61.0892 117.406 61.172C117.451 61.2548 117.511 61.3281 117.584 61.3876C117.656 61.4472 117.74 61.492 117.83 61.5192C117.92 61.5464 118.015 61.5556 118.108 61.5463C118.202 61.5371 118.293 61.5097 118.376 61.4654C118.459 61.4211 118.532 61.3608 118.592 61.2882L119.322 60.3989C119.441 60.2546 119.498 60.0699 119.482 59.8841C119.466 59.6982 119.378 59.5259 119.237 59.404L118.437 58.7149C118.366 58.6535 118.283 58.6068 118.194 58.5772C118.105 58.5477 118.01 58.5361 117.916 58.5429Z" fill="black"/>
<path d="M121.918 56.6965C121.728 56.6881 121.543 56.7552 121.403 56.8832C121.263 57.0112 121.179 57.1895 121.171 57.3789C121.166 57.4727 121.181 57.5666 121.213 57.6549C121.245 57.7431 121.294 57.8242 121.358 57.8935C121.421 57.9627 121.498 58.0188 121.583 58.0585C121.669 58.0982 121.761 58.1208 121.855 58.1249L129.964 58.4806C130.058 58.4847 130.152 58.4703 130.24 58.4382C130.329 58.4062 130.41 58.3571 130.479 58.2936C130.549 58.2302 130.605 58.1538 130.645 58.0687C130.685 57.9836 130.707 57.8913 130.711 57.7975C130.72 57.6081 130.652 57.4232 130.524 57.2834C130.396 57.1435 130.217 57.0602 130.027 57.0519L121.918 56.6965Z" fill="black"/>
<path d="M121.649 59.3327C121.555 59.3286 121.462 59.3431 121.373 59.3753C121.285 59.4074 121.204 59.4566 121.134 59.5201C121.065 59.5835 121.009 59.6599 120.969 59.745C120.929 59.8301 120.907 59.9224 120.903 60.0162C120.898 60.11 120.913 60.2037 120.945 60.2919C120.977 60.3802 121.027 60.4613 121.09 60.5306C121.154 60.5998 121.23 60.6559 121.316 60.6956C121.401 60.7352 121.493 60.7577 121.587 60.7618L127.384 61.0136C127.478 61.0177 127.572 61.0032 127.661 60.9711C127.749 60.939 127.83 60.8897 127.9 60.8263C127.969 60.7628 128.025 60.6862 128.065 60.6011C128.105 60.516 128.127 60.424 128.131 60.3302C128.135 60.2363 128.121 60.1427 128.089 60.0544C128.056 59.9662 128.007 59.885 127.944 59.8158C127.88 59.7466 127.803 59.6905 127.718 59.6508C127.633 59.6111 127.541 59.5886 127.447 59.5846L121.649 59.3327Z" fill="black"/>
<path d="M113.675 67.2342C113.581 67.2316 113.487 67.2475 113.399 67.2811C113.311 67.3146 113.231 67.365 113.162 67.4296C113.094 67.4941 113.039 67.5716 113.001 67.6573C112.962 67.7431 112.941 67.8355 112.939 67.9294C112.933 68.1189 113.004 68.3029 113.134 68.4407C113.265 68.5785 113.445 68.6588 113.635 68.6641L121.597 68.8864C121.787 68.8917 121.971 68.8215 122.109 68.6912C122.247 68.561 122.327 68.3812 122.333 68.1917C122.335 68.0978 122.32 68.0043 122.286 67.9166C122.253 67.8288 122.202 67.7484 122.137 67.6801C122.073 67.6118 121.995 67.557 121.909 67.5186C121.824 67.4802 121.731 67.4591 121.637 67.4565L113.675 67.2342Z" fill="black"/>
<path d="M121.254 66.4827C121.163 66.4571 121.068 66.4495 120.975 66.4604C120.881 66.4713 120.791 66.5004 120.709 66.5461C120.627 66.5919 120.554 66.6533 120.496 66.727C120.438 66.8007 120.394 66.885 120.369 66.9754C120.343 67.0658 120.335 67.1604 120.346 67.2537C120.357 67.347 120.386 67.4372 120.432 67.5193L120.735 68.0621L120.318 68.5033C120.254 68.5716 120.203 68.6519 120.17 68.7397C120.136 68.8275 120.121 68.9209 120.123 69.0148C120.126 69.1087 120.147 69.2012 120.186 69.2868C120.224 69.3725 120.279 69.4497 120.348 69.5142C120.486 69.6443 120.67 69.7142 120.86 69.7087C121.05 69.7032 121.23 69.6226 121.361 69.4846L122.138 68.6622C122.242 68.5515 122.309 68.4104 122.328 68.2594C122.347 68.1085 122.317 67.9556 122.242 67.8228L121.683 66.8223C121.591 66.6568 121.436 66.5346 121.254 66.4827Z" fill="black"/>
<path d="M123.726 67.879C123.632 67.8772 123.538 67.8938 123.451 67.9281C123.363 67.9624 123.283 68.0138 123.215 68.079C123.148 68.1442 123.093 68.2219 123.056 68.3081C123.018 68.3942 122.998 68.4868 122.996 68.5808C122.994 68.6747 123.011 68.7682 123.046 68.8556C123.08 68.9431 123.131 69.0227 123.197 69.0903C123.262 69.158 123.34 69.2122 123.426 69.2497C123.513 69.2872 123.606 69.3073 123.7 69.309L128.521 69.398C128.711 69.4015 128.895 69.3294 129.031 69.1978C129.168 69.0662 129.247 68.8859 129.251 68.6963C129.254 68.5067 129.182 68.3235 129.05 68.1869C128.918 68.0504 128.737 67.9716 128.548 67.9681L123.726 67.879Z" fill="black"/>
<path d="M117.648 70.383C117.554 70.3811 117.46 70.3978 117.373 70.432C117.285 70.4663 117.205 70.5174 117.137 70.5825C117.069 70.6476 117.015 70.7255 116.977 70.8115C116.94 70.8976 116.919 70.9903 116.918 71.0842C116.916 71.1782 116.932 71.2714 116.967 71.3589C117.001 71.4464 117.052 71.5263 117.118 71.594C117.183 71.6618 117.261 71.716 117.347 71.7536C117.433 71.7913 117.526 71.8115 117.62 71.8133L127.179 71.9975C127.369 72.0011 127.552 71.9292 127.689 71.7977C127.826 71.6662 127.905 71.4858 127.909 71.2962C127.912 71.1066 127.84 70.9235 127.709 70.7868C127.577 70.6501 127.396 70.5712 127.206 70.5675L117.648 70.383Z" fill="black"/>
<path d="M117.648 73.2487C117.458 73.245 117.274 73.3169 117.137 73.4484C117 73.5799 116.921 73.7604 116.918 73.95C116.914 74.1396 116.986 74.3229 117.118 74.4595C117.249 74.5962 117.43 74.675 117.62 74.6786L125.255 74.8245C125.349 74.8263 125.443 74.8097 125.53 74.7754C125.618 74.7412 125.698 74.6899 125.766 74.6248C125.833 74.5596 125.888 74.4818 125.925 74.3957C125.963 74.3096 125.983 74.2171 125.985 74.1232C125.989 73.9336 125.917 73.7503 125.785 73.6136C125.653 73.477 125.472 73.3982 125.282 73.3946L117.648 73.2487Z" fill="black"/>
<path d="M220.262 14.1636C219.962 14.1592 218.509 14.1816 215.947 14.2218C213.386 14.2619 209.807 14.3205 205.551 14.3925C197.037 14.5368 185.809 14.7347 174.576 14.9444C163.342 15.1543 152.103 15.3761 143.566 15.5675C139.298 15.6634 135.705 15.7514 133.124 15.8268C131.834 15.8646 130.797 15.8988 130.053 15.9297C129.681 15.9453 129.382 15.9598 129.157 15.9736C128.932 15.9869 128.842 15.9823 128.647 16.0244C127.747 16.2147 126.798 16.5425 126.128 17.3896C125.458 18.2365 125.136 19.4781 125.15 21.3316C125.153 21.6193 125.095 23.7762 125.004 26.6923C124.914 29.6084 124.792 33.3537 124.67 37.0511C124.426 44.4458 124.18 51.6489 124.18 51.6489C124.176 51.7427 124.192 51.8362 124.225 51.9242C124.258 52.0121 124.308 52.0926 124.372 52.1613C124.436 52.2299 124.513 52.2852 124.599 52.3241C124.685 52.363 124.777 52.3845 124.871 52.3877C125.061 52.3942 125.246 52.3253 125.385 52.1958C125.523 52.0663 125.605 51.8871 125.612 51.6975C125.612 51.6975 125.857 44.4938 126.102 37.098C126.224 33.4002 126.346 29.6545 126.436 26.7364C126.527 23.819 126.587 21.7997 126.583 21.3199C126.57 19.6391 126.872 18.757 127.252 18.2759C127.633 17.7945 128.162 17.5889 128.944 17.4235C128.853 17.4435 129.037 17.4147 129.245 17.4009C129.453 17.3876 129.745 17.3739 130.112 17.3588C130.846 17.3283 131.879 17.2939 133.166 17.2563C135.74 17.1809 139.331 17.0927 143.598 16.9971C152.132 16.8056 163.369 16.5842 174.602 16.3744C185.835 16.1645 197.062 15.9665 205.575 15.8224C209.831 15.7504 213.409 15.6918 215.969 15.6518C218.528 15.612 220.159 15.5925 220.237 15.5936C221.278 15.6136 221.914 15.8684 222.315 16.2311C222.716 16.5937 222.943 17.1107 223.011 17.856C223.011 17.8493 223.019 18.1926 223.011 18.6511C223.004 19.1097 222.989 19.7375 222.967 20.5079C222.924 22.0484 222.853 24.1593 222.764 26.6463C222.586 31.6205 222.333 38.1007 222.076 44.5534C221.82 51.0063 221.56 57.4316 221.367 62.2968C221.27 64.7296 221.19 66.7719 221.135 68.2337C221.108 68.9646 221.087 69.5503 221.074 69.9681C221.067 70.1769 221.062 70.3434 221.059 70.467C221.056 70.5907 221.052 70.6333 221.057 70.7393V70.7371C221.112 71.9909 220.882 73.184 220.364 74.0035C219.846 74.8232 219.102 75.3294 217.784 75.3488C217.372 75.3532 211.778 75.3376 203.759 75.3127C195.738 75.2867 185.227 75.2498 174.776 75.2124C153.874 75.1373 133.215 75.0595 133.215 75.0595C133.121 75.0592 133.028 75.0773 132.94 75.113C132.853 75.1486 132.774 75.2009 132.707 75.2671C132.641 75.3333 132.588 75.4119 132.551 75.4986C132.515 75.5852 132.496 75.6782 132.496 75.7721C132.495 75.8661 132.514 75.959 132.549 76.0459C132.585 76.1328 132.637 76.212 132.704 76.2787C132.77 76.3453 132.849 76.3983 132.936 76.4346C133.022 76.4708 133.116 76.4896 133.21 76.4899C133.21 76.4899 153.868 76.5679 174.77 76.6428C185.221 76.6804 195.734 76.7171 203.755 76.7431C211.776 76.7693 217.239 76.7851 217.803 76.7787C217.804 76.7787 217.805 76.7787 217.805 76.7787C219.53 76.7534 220.836 75.937 221.576 74.7669C222.316 73.5965 222.553 72.1327 222.488 70.6742C222.488 70.6734 222.488 70.6727 222.488 70.672C222.491 70.7251 222.488 70.6183 222.492 70.5018C222.494 70.3853 222.499 70.2215 222.506 70.015C222.519 69.6017 222.54 69.0173 222.568 68.2876C222.622 66.8282 222.702 64.7858 222.799 62.3537C222.992 57.4894 223.252 51.0643 223.508 44.6107C223.765 38.1574 224.017 31.6759 224.196 26.6979C224.285 24.209 224.356 22.0961 224.4 20.5487C224.422 19.775 224.437 19.1428 224.444 18.6732C224.451 18.2037 224.457 17.9491 224.437 17.7266C224.347 16.7376 223.994 15.8205 223.276 15.1715C222.558 14.5225 221.535 14.1885 220.263 14.1641C220.262 14.1641 220.261 14.1641 220.26 14.1641L220.262 14.1636Z" fill="black"/>
<path d="M222.601 9.9178C222.368 9.90669 221.917 9.91342 221.111 9.92453C220.303 9.93565 219.189 9.9556 217.812 9.98272C215.058 10.0372 211.253 10.1214 206.751 10.225C197.746 10.4325 185.951 10.7193 174.202 11.0097C162.454 11.3003 150.753 11.594 141.935 11.8152C137.526 11.9259 133.838 12.0184 131.225 12.0831C129.919 12.1156 128.882 12.1414 128.158 12.1587C127.434 12.1765 126.957 12.1852 126.986 12.1852C124.055 12.1852 121.42 14.5089 121.238 17.819C121.167 19.1245 120.902 27.4787 120.65 35.5802C120.397 43.6817 120.161 51.4747 120.161 51.4747C120.159 51.5686 120.174 51.6621 120.208 51.75C120.241 51.8378 120.291 51.9182 120.356 51.9866C120.42 52.055 120.498 52.1101 120.584 52.1486C120.669 52.1871 120.762 52.2083 120.856 52.2111C120.95 52.2139 121.044 52.1982 121.132 52.1649C121.22 52.1315 121.3 52.0812 121.369 52.0168C121.437 51.9524 121.492 51.8752 121.531 51.7895C121.569 51.7038 121.591 51.6113 121.593 51.5174C121.593 51.5174 121.829 43.7253 122.082 35.6245C122.334 27.5239 122.606 19.0593 122.669 17.8967C122.812 15.293 124.804 13.6151 126.986 13.6151C127.123 13.6151 127.468 13.6062 128.193 13.5882C128.917 13.5704 129.955 13.5455 131.261 13.5131C133.874 13.4482 137.562 13.3559 141.971 13.2452C150.789 13.0239 162.49 12.73 174.238 12.4396C185.986 12.1493 197.78 11.8618 206.784 11.6545C211.285 11.5507 215.09 11.4669 217.84 11.4127C219.216 11.3853 220.328 11.3658 221.131 11.3545C221.934 11.3434 222.477 11.3433 222.538 11.3478C222.54 11.3478 222.543 11.3478 222.546 11.3478C225.313 11.4467 227.183 13.3812 227.183 16.0801C227.183 16.3211 227.118 20.0581 227.017 25.3876C226.917 30.7173 226.781 37.7195 226.638 44.7433C226.496 51.7672 226.347 58.813 226.222 64.2278C226.159 66.9351 226.101 69.2351 226.054 70.9197C226.006 72.6043 225.958 73.7569 225.945 73.8816C225.599 77.338 222.752 80.1181 219.431 80.3991C219.389 80.4035 218.869 80.417 218.121 80.4215C217.373 80.4259 216.34 80.4259 215.066 80.4215C212.517 80.4148 209.002 80.3952 204.85 80.3654C196.545 80.3061 185.689 80.2076 174.907 80.1036C153.342 79.8951 132.069 79.662 132.069 79.662C131.879 79.6599 131.696 79.733 131.56 79.8656C131.424 79.9982 131.347 80.1793 131.345 80.3689C131.344 80.4628 131.361 80.556 131.396 80.6431C131.431 80.7303 131.483 80.8098 131.549 80.877C131.615 80.9441 131.693 80.9977 131.78 81.0346C131.866 81.0715 131.959 81.0909 132.053 81.0919C132.053 81.0919 153.327 81.3257 174.893 81.534C185.676 81.6383 196.532 81.736 204.839 81.7954C208.993 81.8252 212.51 81.8454 215.062 81.8518C216.339 81.8541 217.374 81.8541 218.129 81.8518C218.884 81.8474 219.303 81.8452 219.553 81.8245C223.59 81.483 226.957 78.1712 227.372 74.0238C227.41 73.6427 227.439 72.6493 227.487 70.9603C227.534 69.271 227.592 66.9695 227.655 64.2608C227.78 58.8433 227.929 51.7972 228.072 44.7726C228.214 37.7479 228.35 30.7451 228.451 25.4147C228.551 20.0843 228.616 16.5063 228.616 16.0803C228.616 12.6887 226.046 10.0438 222.602 9.91889L222.601 9.9178Z" fill="black"/>
<mask id="mask6_70_1972" style="mask-type:luminance" maskUnits="userSpaceOnUse" x="-298" y="-2356" width="554" height="2919">
<path d="M255.052 562.472L255.052 -2355.74H-297.352L-297.352 562.472H255.052Z" fill="white"/>
</mask>
<g mask="url(#mask6_70_1972)">
<path fill-rule="evenodd" clip-rule="evenodd" d="M120.877 51.4969C120.877 51.4969 121.82 20.3263 121.953 17.8584C122.116 14.9014 124.43 12.9005 126.987 12.9005C127.842 12.9005 220.226 10.5215 222.571 10.6327C225.678 10.7438 227.899 13.0339 227.899 16.0798C227.899 17.4138 226.861 71.9291 226.658 73.9523C226.277 77.7541 223.17 80.8001 219.491 81.1114C217.153 81.3115 132.06 80.3777 132.06 80.3777C132.035 80.0887 132 79.8442 131.955 79.6441C132.367 78.3546 132.786 77.065 133.214 75.7754C133.214 75.7754 215.848 76.0867 217.796 76.0644C220.839 76.02 221.894 73.4188 221.774 70.7064C221.734 69.8615 223.883 19.5259 223.725 17.7918C223.567 16.0576 222.565 14.9236 220.251 14.8791C218.747 14.8569 130.474 16.3689 128.795 16.7246C127.113 17.0803 125.84 17.7916 125.866 21.3267C125.88 22.8608 124.895 51.6748 124.895 51.6748C123.757 51.6303 122.347 51.5636 120.877 51.4969Z" fill="black"/>
</g>
<path d="M170.826 95.3811C168.363 95.4187 166.535 96.9188 165.358 98.3322C164.181 99.7455 163.585 101.153 163.585 101.153C163.539 101.261 163.52 101.38 163.531 101.498C163.542 101.615 163.582 101.728 163.647 101.827C163.713 101.925 163.801 102.006 163.906 102.062C164.01 102.118 164.126 102.147 164.245 102.147H177.657C177.777 102.147 177.895 102.117 178 102.06C178.105 102.003 178.194 101.92 178.259 101.819C178.324 101.718 178.363 101.603 178.371 101.483C178.38 101.364 178.358 101.245 178.308 101.136C178.308 101.136 177.655 99.6987 176.421 98.2718C175.187 96.8447 173.301 95.3431 170.826 95.3811ZM170.848 96.811C172.725 96.7823 174.249 97.9486 175.337 99.2063C175.806 99.7486 176.16 100.274 176.435 100.717H165.435C165.689 100.286 166.018 99.7767 166.46 99.2462C167.491 98.0083 168.96 96.8399 170.848 96.811Z" fill="black"/>
<path d="M187.54 80.2184C187.446 80.2145 187.352 80.2291 187.263 80.2614C187.175 80.2937 187.094 80.343 187.025 80.4066C186.955 80.4702 186.899 80.5468 186.86 80.632C186.82 80.7172 186.798 80.8094 186.794 80.9032L186.132 96.8445C186.14 96.9981 186.196 97.1455 186.294 97.2644L175.178 97.2927C175.084 97.2929 174.991 97.3117 174.904 97.3478C174.818 97.384 174.739 97.4367 174.672 97.5033C174.606 97.5698 174.553 97.6489 174.518 97.7358C174.482 97.8227 174.463 97.9157 174.464 98.0096C174.464 98.1035 174.483 98.1965 174.519 98.2832C174.555 98.3698 174.608 98.4486 174.675 98.5148C174.741 98.5811 174.821 98.6337 174.908 98.6694C174.995 98.7051 175.088 98.7233 175.182 98.723L192.534 98.6783C192.654 98.678 192.773 98.6475 192.878 98.5893C192.984 98.5311 193.073 98.4472 193.137 98.3455C193.202 98.2438 193.24 98.1275 193.247 98.0074C193.255 97.8873 193.231 97.7672 193.18 97.6583C192.858 96.9775 192.236 96.7857 191.604 96.6079C190.972 96.43 190.248 96.3297 189.547 96.2648C188.787 96.1943 188.107 96.171 187.595 96.1628L188.226 80.9627C188.229 80.8688 188.215 80.7751 188.182 80.6869C188.15 80.5987 188.101 80.5179 188.037 80.4488C187.973 80.3796 187.897 80.3237 187.811 80.2842C187.726 80.2447 187.634 80.2223 187.54 80.2184ZM162.461 97.3148C162.367 97.3148 162.274 97.3334 162.187 97.3693C162.1 97.4052 162.021 97.4579 161.954 97.5243C161.888 97.5907 161.835 97.6696 161.799 97.7564C161.763 97.8432 161.745 97.9361 161.745 98.03C161.745 98.2197 161.82 98.4016 161.955 98.5357C162.089 98.6698 162.271 98.7452 162.461 98.7452H166.613C166.803 98.7451 166.985 98.6695 167.119 98.5354C167.253 98.4014 167.329 98.2196 167.329 98.03C167.329 97.8404 167.253 97.6587 167.119 97.5245C166.985 97.3904 166.803 97.3149 166.613 97.3148H162.461Z" fill="black"/>
<path d="M127.912 92.4469C127.818 92.443 127.724 92.4577 127.635 92.4901C127.547 92.5224 127.466 92.5717 127.397 92.6353C127.328 92.699 127.272 92.7757 127.232 92.8609C127.193 92.9462 127.17 93.0383 127.166 93.1321C127.163 93.226 127.177 93.3195 127.21 93.4076C127.242 93.4958 127.292 93.5767 127.355 93.6458C127.419 93.7149 127.496 93.7709 127.581 93.8104C127.666 93.8499 127.759 93.8721 127.853 93.876C127.853 93.876 136.422 94.226 145.12 94.5846C149.469 94.7638 153.851 94.9452 157.21 95.0858C160.569 95.2265 162.982 95.3315 163.15 95.3424C163.659 95.3751 164.239 95.8369 164.512 96.6364C164.451 96.6386 164.44 96.6409 164.372 96.6432C163.756 96.6732 162.842 96.7659 162.08 97.4222C161.615 97.8219 160.252 98.7178 159.063 99.4575C157.968 100.138 157.151 100.62 157.003 100.708L126.017 99.4058C125.923 99.4018 125.829 99.4163 125.741 99.4486C125.653 99.4808 125.571 99.53 125.502 99.5936C125.433 99.6571 125.377 99.7338 125.337 99.819C125.298 99.9041 125.275 99.9963 125.271 100.09C125.263 100.28 125.331 100.464 125.46 100.604C125.588 100.744 125.767 100.826 125.957 100.834L157.159 102.146C157.298 102.152 157.435 102.118 157.554 102.048C157.554 102.048 158.615 101.422 159.821 100.671C161.026 99.9215 162.342 99.0843 163.015 98.5056C163.389 98.1839 163.915 98.0978 164.441 98.0722C164.704 98.0589 164.943 98.0678 165.218 98.0271C165.356 98.0071 165.517 97.9885 165.728 97.8382C165.939 97.6883 166.113 97.2998 166.083 97.0392C165.889 95.3152 164.7 94.0093 163.241 93.9157C162.89 93.893 160.63 93.7981 157.27 93.6573C153.91 93.5166 149.528 93.3354 145.179 93.1562C136.48 92.7976 127.911 92.4475 127.911 92.4475L127.912 92.4469Z" fill="black"/>
<path d="M163.556 94.0385C161.472 94.4558 159.282 96.1819 157.495 97.7747C155.707 99.3677 154.375 100.868 154.375 100.868C154.312 100.938 154.264 101.02 154.234 101.109C154.203 101.198 154.19 101.292 154.196 101.385C154.201 101.479 154.225 101.571 154.266 101.655C154.308 101.74 154.365 101.815 154.435 101.878C154.506 101.94 154.588 101.988 154.677 102.019C154.765 102.049 154.86 102.062 154.954 102.057C155.047 102.051 155.139 102.027 155.224 101.986C155.309 101.945 155.384 101.888 155.447 101.817C155.447 101.817 156.731 100.373 158.449 98.8416C160.167 97.3106 162.369 95.7348 163.838 95.4406C164.024 95.4034 164.188 95.2938 164.293 95.136C164.398 94.9782 164.436 94.785 164.399 94.5991C164.381 94.507 164.344 94.4194 164.292 94.3414C164.239 94.2633 164.172 94.1963 164.094 94.1442C164.016 94.0922 163.928 94.056 163.835 94.0378C163.743 94.0197 163.648 94.02 163.556 94.0385Z" fill="black"/>
<path d="M167.51 80.0181C167.32 80.0205 167.139 80.0982 167.006 80.2339C166.873 80.3697 166.8 80.5524 166.803 80.742L166.991 95.7324C166.819 95.7524 166.8 95.7525 166.586 95.7827C166.306 95.823 166.01 95.8702 165.742 95.9247C165.473 95.9792 165.258 96.0182 165.003 96.1418C164.918 96.1829 164.843 96.2401 164.78 96.3103C164.718 96.3806 164.67 96.4624 164.639 96.5511C164.608 96.6399 164.595 96.7337 164.601 96.8275C164.606 96.9213 164.631 97.0131 164.672 97.0976C164.713 97.1821 164.77 97.2577 164.84 97.3201C164.911 97.3826 164.993 97.4305 165.082 97.4613C165.17 97.4921 165.265 97.505 165.358 97.4995C165.452 97.4939 165.544 97.4699 165.629 97.4289C165.603 97.4423 165.803 97.3718 166.027 97.3264C166.251 97.2809 166.527 97.2366 166.79 97.1988C167.315 97.1234 167.788 97.0742 167.788 97.0742C167.966 97.0559 168.131 96.972 168.25 96.8388C168.369 96.7056 168.433 96.5326 168.431 96.3542L168.235 80.7242C168.233 80.5346 168.155 80.3538 168.019 80.2213C167.883 80.0889 167.7 80.0158 167.51 80.0181Z" fill="black"/>
<path d="M161.413 38.9757L128.307 39.5315C128.117 39.5347 127.936 39.6129 127.804 39.7493C127.672 39.8856 127.599 40.0688 127.603 40.2584C127.606 40.448 127.684 40.6286 127.821 40.7604C127.957 40.8922 128.141 40.9646 128.331 40.9615L161.437 40.4056C161.627 40.4025 161.808 40.324 161.94 40.1877C162.073 40.0513 162.145 39.8684 162.142 39.6787C162.14 39.5848 162.12 39.492 162.083 39.4058C162.045 39.3196 161.991 39.2418 161.923 39.1765C161.856 39.1112 161.776 39.0599 161.688 39.0254C161.601 38.991 161.507 38.9741 161.413 38.9757Z" fill="black"/>
<path d="M166.476 43.3312L128.306 43.9743C128.116 43.9774 127.936 44.0557 127.804 44.192C127.671 44.3283 127.599 44.5116 127.602 44.7012C127.605 44.8908 127.684 45.0713 127.82 45.2032C127.957 45.335 128.14 45.4074 128.33 45.4042L166.5 44.7615C166.594 44.76 166.687 44.7399 166.774 44.7025C166.86 44.6651 166.938 44.6111 167.003 44.5435C167.069 44.476 167.12 44.3962 167.155 44.3088C167.189 44.2214 167.206 44.1281 167.205 44.0342C167.201 43.8446 167.123 43.6638 166.986 43.532C166.85 43.4002 166.666 43.328 166.476 43.3312Z" fill="black"/>
<path d="M159.685 21.8124C159.591 21.8077 159.497 21.8215 159.408 21.853C159.319 21.8846 159.238 21.9331 159.168 21.9961C159.098 22.0591 159.041 22.1353 159.001 22.2202C158.961 22.3051 158.938 22.3969 158.933 22.4907L158.046 39.9436C158.037 40.133 158.103 40.3186 158.23 40.4593C158.358 40.6 158.536 40.6844 158.725 40.694C158.819 40.6987 158.913 40.6849 159.002 40.6534C159.091 40.6219 159.172 40.5733 159.242 40.5103C159.312 40.4473 159.368 40.3711 159.409 40.2863C159.449 40.2014 159.472 40.1095 159.477 40.0157L160.364 22.5628C160.373 22.3734 160.307 22.1879 160.18 22.0471C160.052 21.9064 159.874 21.8221 159.685 21.8124Z" fill="black"/>
<mask id="mask7_70_1972" style="mask-type:luminance" maskUnits="userSpaceOnUse" x="-298" y="-2356" width="554" height="2919">
<path d="M255.052 562.472L255.052 -2355.36L-297.352 -2355.74L-297.352 562.088L255.052 562.472Z" fill="white"/>
</mask>
<g mask="url(#mask7_70_1972)">
<path fill-rule="evenodd" clip-rule="evenodd" d="M136.118 32.9961C136.118 33.1501 136.088 33.3091 136.029 33.4641C135.97 33.6191 135.883 33.7671 135.774 33.8994C135.665 34.0318 135.536 34.146 135.394 34.2356C135.251 34.3252 135.098 34.3884 134.944 34.4216C134.633 34.4887 134.334 34.4295 134.114 34.2571C133.894 34.0846 133.77 33.8129 133.77 33.5019C133.77 33.191 133.894 32.8662 134.114 32.5989C134.334 32.3316 134.633 32.1438 134.944 32.0767C135.098 32.0435 135.251 32.0409 135.394 32.0692C135.536 32.0974 135.665 32.1558 135.774 32.2412C135.883 32.3266 135.97 32.4372 136.029 32.5667C136.088 32.6962 136.118 32.8422 136.118 32.9961Z" fill="#F5A200"/>
</g>
<mask id="mask8_70_1972" style="mask-type:luminance" maskUnits="userSpaceOnUse" x="-298" y="-2356" width="554" height="2919">
<path d="M255.052 562.472L255.052 -2355.36L-297.352 -2355.74L-297.352 562.088L255.052 562.472Z" fill="white"/>
</mask>
<g mask="url(#mask8_70_1972)">
<path fill-rule="evenodd" clip-rule="evenodd" d="M148.577 25.1902C148.577 25.3442 148.547 25.5032 148.488 25.6582C148.429 25.8131 148.342 25.9609 148.233 26.0933C148.124 26.2256 147.995 26.3398 147.853 26.4294C147.71 26.519 147.557 26.5823 147.403 26.6155C147.092 26.6825 146.793 26.6234 146.573 26.4509C146.353 26.2785 146.229 26.007 146.229 25.696C146.229 25.3851 146.353 25.06 146.573 24.7927C146.793 24.5254 147.092 24.3376 147.403 24.2705C147.557 24.2373 147.71 24.2348 147.853 24.263C147.995 24.2913 148.124 24.3497 148.233 24.4351C148.342 24.5205 148.429 24.6312 148.488 24.7608C148.547 24.8903 148.577 25.0362 148.577 25.1902Z" fill="#F5A200"/>
</g>
<mask id="mask9_70_1972" style="mask-type:luminance" maskUnits="userSpaceOnUse" x="-298" y="-2356" width="554" height="2919">
<path d="M255.052 562.472L255.052 -2355.36L-297.352 -2355.74L-297.352 562.088L255.052 562.472Z" fill="white"/>
</mask>
<g mask="url(#mask9_70_1972)">
<path fill-rule="evenodd" clip-rule="evenodd" d="M152.032 27.8614C152.032 28.1723 151.909 28.4974 151.688 28.7647C151.468 29.032 151.17 29.2198 150.858 29.2869C150.704 29.3201 150.551 29.3226 150.409 29.2944C150.266 29.2661 150.137 29.2077 150.028 29.1223C149.919 29.0369 149.832 28.9262 149.773 28.7966C149.714 28.6671 149.684 28.5212 149.684 28.3672C149.684 28.2132 149.714 28.0542 149.773 27.8992C149.832 27.7443 149.919 27.5965 150.028 27.4641C150.137 27.3318 150.266 27.2176 150.409 27.128C150.551 27.0384 150.704 26.9751 150.858 26.9419C151.17 26.8749 151.468 26.934 151.688 27.1065C151.909 27.2789 152.032 27.5504 152.032 27.8614Z" fill="#F5A200"/>
</g>
<mask id="mask10_70_1972" style="mask-type:luminance" maskUnits="userSpaceOnUse" x="-298" y="-2356" width="554" height="2919">
<path d="M255.052 562.472L255.052 -2355.36L-297.352 -2355.74L-297.352 562.088L255.052 562.472Z" fill="white"/>
</mask>
<g mask="url(#mask10_70_1972)">
<path fill-rule="evenodd" clip-rule="evenodd" d="M139.823 34.6817C139.823 34.8357 139.793 34.9947 139.734 35.1496C139.675 35.3046 139.588 35.4526 139.479 35.585C139.37 35.7173 139.241 35.8315 139.098 35.9211C138.956 36.0107 138.803 36.074 138.649 36.1072C138.337 36.1742 138.039 36.1151 137.819 35.9426C137.598 35.7702 137.475 35.4984 137.475 35.1875C137.475 34.8765 137.598 34.5517 137.819 34.2844C138.039 34.0171 138.337 33.8293 138.649 33.7622C138.803 33.729 138.956 33.7265 139.098 33.7547C139.241 33.783 139.37 33.8414 139.479 33.9268C139.588 34.0122 139.675 34.1227 139.734 34.2522C139.793 34.3818 139.823 34.5277 139.823 34.6817Z" fill="#F5A200"/>
</g>
<path d="M220.666 22.3503L170.737 23.5492C170.553 23.5537 170.377 23.6293 170.246 23.7603C170.116 23.8912 170.042 24.0673 170.038 24.2518L169.228 72.2543C169.226 72.3503 169.244 72.4456 169.28 72.5346C169.316 72.6236 169.37 72.7043 169.438 72.7722C169.506 72.84 169.587 72.8936 169.676 72.9296C169.765 72.9655 169.861 72.9829 169.957 72.9812L219.478 72.0993C219.662 72.096 219.839 72.0217 219.97 71.8917C220.101 71.7618 220.177 71.5863 220.181 71.4019L221.399 23.0833C221.402 22.9864 221.384 22.8902 221.348 22.8002C221.312 22.7102 221.258 22.6284 221.19 22.5598C221.121 22.4913 221.039 22.4374 220.949 22.4013C220.859 22.3653 220.763 22.348 220.666 22.3503ZM219.948 23.7985L218.766 70.6815L170.673 71.5383L171.46 24.9627L219.948 23.7985Z" fill="black"/>
<mask id="mask11_70_1972" style="mask-type:luminance" maskUnits="userSpaceOnUse" x="-298" y="-2356" width="554" height="2919">
<path d="M255.052 562.472L255.052 -2355.74H-297.352L-297.352 562.472H255.052Z" fill="white"/>
</mask>
<g mask="url(#mask11_70_1972)">
<path fill-rule="evenodd" clip-rule="evenodd" d="M193.783 28.8413C191.053 34.6441 183.438 37.5343 174.109 38.1568L174.08 29.3081L193.783 28.8413ZM174.117 40.736C176.892 40.0912 181.623 39.2017 184.171 39.7798L183.939 54.5871C183.939 54.5871 178.073 54.8984 174.169 55.6988L174.117 40.736ZM174.175 57.6774C177.812 57.166 184.888 56.2767 186.71 56.6769L186.826 53.2086C186.826 53.2086 190.302 56.1657 196.119 55.7433C200.088 55.4542 202.349 54.2313 203.776 53.1641C203.747 61.4126 203.589 68.5717 203.135 68.6384C187.85 70.6616 186.509 68.7718 184.848 68.5939C183.184 68.416 174.218 69.9724 174.218 69.9724L174.175 57.6774ZM203.783 50.185C202.104 51.3411 199.048 53.2752 196.87 53.5643C192.714 54.0756 190.52 52.8752 186.883 51.141L186.688 38.2903C186.688 38.2903 190.344 36.156 192.184 34.6219C195.549 31.8205 199.972 31.4426 203.676 32.6209C203.723 36.7785 203.785 43.5818 203.783 50.185Z" fill="#F5A200"/>
</g>
<path d="M208.544 30.951C205.361 31.1767 202.258 32.7333 199.923 34.2091C197.589 35.6849 196.007 37.115 196.007 37.115C195.866 37.2423 195.781 37.4202 195.772 37.6096C195.762 37.799 195.829 37.9844 195.956 38.125C196.019 38.1947 196.096 38.2513 196.181 38.2916C196.266 38.3318 196.358 38.3548 196.452 38.3595C196.546 38.3642 196.64 38.3505 196.728 38.3189C196.817 38.2873 196.899 38.2385 196.968 38.1754C196.968 38.1754 198.461 36.8267 200.69 35.4176C202.919 34.0087 205.87 32.5744 208.645 32.3779C208.834 32.3645 209.011 32.2765 209.135 32.1332C209.26 31.9899 209.322 31.8032 209.309 31.6141C209.302 31.5204 209.277 31.4289 209.235 31.3448C209.193 31.2608 209.135 31.1858 209.064 31.1242C208.993 31.0627 208.91 31.0159 208.821 30.9862C208.732 30.9564 208.637 30.9444 208.544 30.951Z" fill="black"/>
<path d="M207.971 30.2772C207.897 30.2196 207.812 30.1771 207.721 30.1523C207.63 30.1275 207.535 30.1208 207.442 30.1326C207.349 30.1443 207.259 30.1742 207.177 30.2207C207.095 30.2672 207.023 30.3293 206.966 30.4035C206.908 30.4778 206.866 30.5626 206.841 30.6532C206.816 30.7438 206.809 30.8384 206.821 30.9316C206.833 31.0247 206.863 31.1147 206.91 31.1962C206.956 31.2778 207.018 31.3495 207.093 31.4071L207.473 31.7019L206.965 32.1527C206.894 32.215 206.837 32.2905 206.796 32.375C206.755 32.4595 206.731 32.5513 206.725 32.6451C206.72 32.7388 206.733 32.8327 206.764 32.9215C206.794 33.0102 206.842 33.092 206.905 33.1623C206.967 33.2325 207.043 33.2897 207.128 33.3307C207.212 33.3718 207.304 33.3958 207.398 33.4013C207.492 33.4069 207.586 33.3938 207.675 33.3631C207.764 33.3323 207.846 33.2846 207.916 33.2222L209.07 32.1996C209.148 32.1298 209.211 32.0436 209.252 31.947C209.294 31.8505 209.314 31.7461 209.31 31.6411C209.307 31.5361 209.28 31.4331 209.232 31.3395C209.184 31.246 209.116 31.164 209.033 31.0996L207.971 30.2772Z" fill="black"/>
<path d="M211.458 30.127C211.268 30.1269 211.086 30.2024 210.952 30.3365C210.817 30.4706 210.742 30.6525 210.742 30.8421C210.742 30.9361 210.76 31.0289 210.796 31.1157C210.832 31.2025 210.885 31.2814 210.951 31.3478C211.018 31.4142 211.097 31.4669 211.184 31.5028C211.271 31.5388 211.364 31.5573 211.458 31.5573H217.692C217.786 31.5573 217.879 31.5388 217.966 31.5028C218.053 31.4669 218.132 31.4142 218.199 31.3478C218.265 31.2814 218.318 31.2025 218.354 31.1157C218.39 31.0289 218.408 30.9361 218.408 30.8421C218.408 30.6525 218.333 30.4706 218.199 30.3365C218.064 30.2024 217.882 30.1269 217.692 30.127H211.458Z" fill="black"/>
<path d="M209.289 33.124C209.195 33.124 209.101 33.1426 209.014 33.1785C208.928 33.2145 208.849 33.2671 208.782 33.3335C208.716 33.4 208.663 33.4786 208.627 33.5654C208.591 33.6522 208.572 33.7453 208.572 33.8392C208.572 33.9331 208.591 34.0262 208.627 34.113C208.663 34.1998 208.716 34.2787 208.782 34.3451C208.849 34.4115 208.928 34.4642 209.014 34.5001C209.101 34.5361 209.195 34.5544 209.289 34.5544H217.693C217.787 34.5544 217.88 34.5361 217.967 34.5001C218.054 34.4642 218.133 34.4115 218.199 34.3451C218.266 34.2787 218.319 34.1998 218.355 34.113C218.391 34.0262 218.409 33.9331 218.409 33.8392C218.409 33.7453 218.391 33.6522 218.355 33.5654C218.319 33.4786 218.266 33.4 218.199 33.3335C218.133 33.2671 218.054 33.2145 217.967 33.1785C217.88 33.1426 217.787 33.124 217.693 33.124H209.289Z" fill="black"/>
<path d="M208.965 36.1201C208.775 36.1201 208.593 36.1955 208.459 36.3296C208.325 36.4637 208.249 36.6457 208.249 36.8353C208.249 36.9292 208.268 37.0221 208.304 37.1089C208.34 37.1957 208.392 37.2746 208.459 37.341C208.525 37.4074 208.604 37.4601 208.691 37.496C208.778 37.5319 208.871 37.5505 208.965 37.5505H217.369C217.464 37.5505 217.557 37.5319 217.644 37.496C217.731 37.4601 217.81 37.4074 217.876 37.341C217.943 37.2746 217.995 37.1957 218.031 37.1089C218.067 37.0221 218.086 36.9292 218.086 36.8353C218.086 36.6457 218.01 36.4637 217.876 36.3296C217.742 36.1955 217.559 36.1201 217.369 36.1201H208.965Z" fill="black"/>
<path d="M206.733 60.8979C204.318 60.9855 198.163 61.0308 198.163 61.0308C198.069 61.0315 197.976 61.0507 197.89 61.0873C197.803 61.1238 197.724 61.1771 197.658 61.244C197.592 61.3109 197.54 61.3902 197.505 61.4772C197.469 61.5642 197.451 61.6573 197.452 61.7512C197.453 61.8451 197.472 61.9381 197.509 62.0246C197.545 62.1111 197.599 62.1894 197.666 62.2554C197.733 62.3213 197.812 62.3733 197.899 62.4086C197.986 62.4439 198.08 62.4619 198.174 62.4612C198.174 62.4612 204.3 62.417 206.784 62.327C206.974 62.3201 207.154 62.2383 207.283 62.0995C207.412 61.9606 207.481 61.7761 207.474 61.5866C207.467 61.3971 207.385 61.2182 207.246 61.089C207.107 60.9598 206.923 60.8911 206.733 60.8979Z" fill="black"/>
<path d="M205.955 59.9649C205.765 59.9549 205.579 60.0205 205.438 60.1472C205.368 60.2101 205.311 60.2859 205.27 60.3707C205.23 60.4554 205.207 60.5474 205.202 60.6412C205.197 60.735 205.21 60.8288 205.242 60.9174C205.273 61.0059 205.321 61.0875 205.384 61.1573L205.769 61.5833L205.376 61.9706C205.309 62.0366 205.255 62.1151 205.219 62.2016C205.182 62.2882 205.163 62.3811 205.163 62.475C205.162 62.5689 205.18 62.662 205.215 62.749C205.251 62.836 205.303 62.9151 205.369 62.982C205.435 63.0488 205.514 63.102 205.601 63.1385C205.687 63.175 205.78 63.1941 205.874 63.1947C205.968 63.1954 206.062 63.1776 206.149 63.1422C206.236 63.1068 206.315 63.0547 206.382 62.9887L207.262 62.1219C207.393 61.9927 207.47 61.818 207.475 61.6341C207.481 61.4501 207.415 61.2712 207.291 61.1345L206.449 60.2009C206.322 60.06 206.144 59.9751 205.955 59.9651L205.955 59.9649Z" fill="black"/>
<path d="M209.69 58.4299C209.596 58.4276 209.502 58.4437 209.414 58.4775C209.326 58.5113 209.246 58.5621 209.178 58.6268C209.11 58.6916 209.055 58.7692 209.017 58.855C208.979 58.9409 208.958 59.0334 208.956 59.1273C208.953 59.2212 208.97 59.3145 209.004 59.4022C209.037 59.4898 209.088 59.5699 209.153 59.638C209.218 59.706 209.296 59.7606 209.382 59.7986C209.468 59.8367 209.56 59.8576 209.654 59.8599L215.953 60.0153C216.142 60.02 216.326 59.9491 216.464 59.8184C216.602 59.6877 216.682 59.5079 216.686 59.3184C216.691 59.1288 216.62 58.9449 216.489 58.8075C216.358 58.6701 216.178 58.5901 215.988 58.5854L209.69 58.4299Z" fill="black"/>
<path d="M211.932 60.781C211.742 60.7762 211.558 60.847 211.421 60.9777C211.283 61.1084 211.203 61.2883 211.198 61.4779C211.196 61.5718 211.212 61.6652 211.246 61.7528C211.279 61.8405 211.33 61.9208 211.395 61.9888C211.46 62.0569 211.537 62.1114 211.623 62.1495C211.709 62.1876 211.802 62.2086 211.896 62.2109L215.569 62.3039C215.663 62.3062 215.756 62.2901 215.844 62.2563C215.932 62.2226 216.012 62.1719 216.081 62.1072C216.149 62.0424 216.203 61.965 216.242 61.8792C216.28 61.7933 216.301 61.7008 216.303 61.6069C216.308 61.4173 216.237 61.2335 216.106 61.096C215.975 60.9586 215.795 60.8787 215.605 60.8739L211.932 60.781Z" fill="black"/>
<path d="M211.516 62.8957C211.422 62.8934 211.329 62.9095 211.241 62.9433C211.153 62.977 211.073 63.0277 211.004 63.0924C210.936 63.1572 210.882 63.2346 210.843 63.3204C210.805 63.4063 210.784 63.4988 210.782 63.5927C210.78 63.6866 210.796 63.7801 210.83 63.8678C210.863 63.9554 210.914 64.0355 210.979 64.1036C211.044 64.1716 211.121 64.2263 211.207 64.2645C211.293 64.3026 211.386 64.3233 211.48 64.3257L215.153 64.4182C215.343 64.423 215.527 64.3523 215.664 64.2217C215.802 64.0911 215.882 63.9112 215.887 63.7217C215.889 63.6278 215.873 63.5342 215.839 63.4466C215.806 63.3589 215.755 63.2788 215.69 63.2108C215.625 63.1427 215.548 63.088 215.462 63.0499C215.376 63.0118 215.283 62.991 215.189 62.9887L211.516 62.8957Z" fill="black"/>
<path d="M127.924 48.6914C127.734 48.6914 127.552 48.7668 127.418 48.9009C127.284 49.035 127.208 49.2169 127.208 49.4066C127.208 49.5005 127.227 49.5934 127.263 49.6802C127.299 49.7669 127.351 49.8459 127.418 49.9123C127.484 49.9787 127.563 50.0313 127.65 50.0673C127.737 50.1032 127.83 50.1218 127.924 50.1218H136.33C136.424 50.1218 136.517 50.1032 136.604 50.0673C136.691 50.0313 136.77 49.9787 136.836 49.9123C136.903 49.8459 136.956 49.7669 136.992 49.6802C137.028 49.5934 137.046 49.5005 137.046 49.4066C137.046 49.2169 136.971 49.035 136.836 48.9009C136.702 48.7668 136.52 48.6914 136.33 48.6914H127.924Z" fill="black"/>
<path d="M141.733 48.6914C141.543 48.6914 141.361 48.7668 141.226 48.9009C141.092 49.035 141.017 49.2169 141.017 49.4066C141.017 49.5005 141.035 49.5934 141.071 49.6802C141.107 49.7669 141.16 49.8459 141.226 49.9123C141.293 49.9787 141.372 50.0313 141.459 50.0673C141.546 50.1032 141.639 50.1218 141.733 50.1218H150.138C150.232 50.1218 150.326 50.1032 150.413 50.0673C150.499 50.0313 150.578 49.9787 150.645 49.9123C150.712 49.8459 150.764 49.7669 150.8 49.6802C150.836 49.5934 150.855 49.5005 150.855 49.4066C150.855 49.2169 150.779 49.035 150.645 48.9009C150.511 48.7668 150.328 48.6914 150.138 48.6914H141.733Z" fill="black"/>
<path d="M141.364 52.2412C141.27 52.2412 141.177 52.2595 141.09 52.2955C141.003 52.3314 140.924 52.3841 140.857 52.4505C140.791 52.5169 140.738 52.5958 140.702 52.6826C140.666 52.7694 140.647 52.8625 140.647 52.9564C140.647 53.0503 140.666 53.1432 140.702 53.23C140.738 53.3168 140.791 53.3957 140.857 53.4621C140.924 53.5285 141.003 53.5812 141.09 53.6171C141.177 53.653 141.27 53.6716 141.364 53.6716H149.769C149.959 53.6715 150.141 53.5962 150.276 53.4621C150.41 53.3279 150.485 53.146 150.485 52.9564C150.485 52.7668 150.41 52.5849 150.276 52.4507C150.141 52.3166 149.959 52.2413 149.769 52.2412H141.364Z" fill="black"/>
<path d="M140.994 55.7915C140.9 55.7915 140.807 55.8098 140.72 55.8458C140.633 55.8817 140.554 55.9346 140.488 56.001C140.421 56.0674 140.368 56.1461 140.332 56.2329C140.296 56.3197 140.278 56.4128 140.278 56.5067C140.278 56.6006 140.296 56.6937 140.332 56.7805C140.368 56.8673 140.421 56.9459 140.488 57.0124C140.554 57.0788 140.633 57.1317 140.72 57.1676C140.807 57.2035 140.9 57.2219 140.994 57.2219H149.4C149.494 57.2219 149.587 57.2035 149.674 57.1676C149.761 57.1317 149.84 57.0788 149.906 57.0124C149.973 56.9459 150.025 56.8673 150.061 56.7805C150.097 56.6937 150.116 56.6006 150.116 56.5067C150.116 56.4128 150.097 56.3197 150.061 56.2329C150.025 56.1461 149.973 56.0674 149.906 56.001C149.84 55.9346 149.761 55.8817 149.674 55.8458C149.587 55.8098 149.494 55.7915 149.4 55.7915H140.994Z" fill="black"/>
<path d="M140.625 59.3413C140.531 59.3413 140.437 59.3599 140.35 59.3958C140.264 59.4317 140.185 59.4844 140.118 59.5508C140.051 59.6172 139.999 59.6961 139.963 59.7829C139.927 59.8697 139.908 59.9626 139.908 60.0565C139.908 60.1504 139.927 60.2435 139.963 60.3303C139.999 60.4171 140.051 60.496 140.118 60.5624C140.185 60.6288 140.264 60.6815 140.35 60.7174C140.437 60.7534 140.531 60.7717 140.625 60.7717H149.03C149.124 60.7717 149.217 60.7534 149.304 60.7174C149.391 60.6815 149.47 60.6288 149.537 60.5624C149.603 60.496 149.656 60.4171 149.692 60.3303C149.728 60.2435 149.746 60.1504 149.746 60.0565C149.746 59.9626 149.728 59.8697 149.692 59.7829C149.656 59.6961 149.603 59.6172 149.537 59.5508C149.47 59.4844 149.391 59.4317 149.304 59.3958C149.217 59.3599 149.124 59.3413 149.03 59.3413H140.625Z" fill="black"/>
<path d="M154.942 59.9409C154.752 59.9409 154.569 60.0162 154.435 60.1502C154.301 60.2843 154.225 60.4661 154.225 60.6557C154.225 60.7496 154.244 60.8427 154.28 60.9295C154.316 61.0162 154.368 61.0949 154.435 61.1613C154.501 61.2278 154.58 61.2804 154.667 61.3164C154.754 61.3523 154.847 61.3709 154.942 61.3709H163.347C163.537 61.3708 163.719 61.2955 163.853 61.1613C163.987 61.0272 164.063 60.8453 164.063 60.6557C164.063 60.4661 163.987 60.2843 163.853 60.1502C163.719 60.0162 163.537 59.941 163.347 59.9409H154.942Z" fill="black"/>
<path d="M154.942 56.5752C154.752 56.5752 154.569 56.6506 154.435 56.7847C154.301 56.9188 154.225 57.1007 154.225 57.2904C154.225 57.3843 154.244 57.4772 154.28 57.564C154.316 57.6507 154.368 57.7296 154.435 57.7961C154.501 57.8625 154.58 57.9151 154.667 57.9511C154.754 57.987 154.847 58.0056 154.942 58.0056H163.347C163.537 58.0055 163.719 57.93 163.853 57.7958C163.987 57.6617 164.063 57.48 164.063 57.2904C164.063 57.1008 163.987 56.919 163.853 56.7849C163.719 56.6509 163.537 56.5753 163.347 56.5752H154.942Z" fill="black"/>
<path d="M154.942 53.21C154.847 53.21 154.754 53.2285 154.667 53.2645C154.58 53.3004 154.501 53.3531 154.435 53.4195C154.368 53.4859 154.316 53.5648 154.28 53.6516C154.244 53.7384 154.225 53.8312 154.225 53.9252C154.225 54.1148 154.301 54.2967 154.435 54.4308C154.569 54.5649 154.752 54.6404 154.942 54.6403H163.347C163.537 54.6402 163.719 54.5647 163.853 54.4306C163.987 54.2965 164.063 54.1147 164.063 53.9252C164.063 53.7355 163.987 53.5538 163.853 53.4197C163.719 53.2856 163.537 53.2101 163.347 53.21H154.942Z" fill="black"/>
<path d="M154.942 49.8442C154.847 49.8442 154.754 49.8626 154.667 49.8985C154.58 49.9345 154.501 49.9873 154.435 50.0538C154.368 50.1202 154.316 50.1989 154.28 50.2856C154.244 50.3724 154.225 50.4655 154.225 50.5594C154.225 50.6534 154.244 50.7464 154.28 50.8332C154.316 50.92 154.368 50.9987 154.435 51.0651C154.501 51.1315 154.58 51.1844 154.667 51.2203C154.754 51.2563 154.847 51.2746 154.942 51.2746H163.347C163.537 51.2745 163.719 51.1992 163.853 51.0651C163.987 50.931 164.063 50.749 164.063 50.5594C164.063 50.3698 163.987 50.1879 163.853 50.0538C163.719 49.9196 163.537 49.8443 163.347 49.8442H154.942Z" fill="black"/>
</g>
<defs>
<clipPath id="clip0_70_1972">
<rect width="253" height="119" fill="white"/>
</clipPath>
</defs>
</svg>
