<svg width="190" height="172" viewBox="0 0 190 172" fill="none" xmlns="http://www.w3.org/2000/svg">
<g clip-path="url(#clip0_70_2565)">
<mask id="mask0_70_2565" style="mask-type:luminance" maskUnits="userSpaceOnUse" x="-20" y="-1063" width="445" height="2354">
<path d="M424.481 1290.62L424.481 -1062.04H-19.412L-19.412 1290.62H424.481Z" fill="white"/>
</mask>
<g mask="url(#mask0_70_2565)">
<path fill-rule="evenodd" clip-rule="evenodd" d="M147.634 90.1313C150.529 90.8161 166.498 92.2841 174.593 108.378C177.83 114.813 181.431 131.728 181.143 137.258C181.132 137.451 181.118 137.632 181.098 137.796C180.948 139.047 180.772 140.26 180.581 141.434C178.567 153.732 174.528 161.615 173.995 162.268C173.413 162.979 166.417 160.255 162.774 155.195C162.187 154.381 168.323 148.656 167.659 138.654C167.643 138.414 167.597 138.163 167.527 137.905C167.126 136.446 165.898 134.698 164.368 132.617L152.439 129.317L151.057 133.453L145.3 160.518L154.22 163.196C154.169 163.356 154.161 163.58 154.235 163.848C149.947 163.856 146.102 163.852 142.655 163.84C139.641 126.043 147.704 92.4221 147.655 91.119C147.643 90.8143 147.636 90.4845 147.634 90.1313Z" fill="#F5A200"/>
</g>
<mask id="mask1_70_2565" style="mask-type:luminance" maskUnits="userSpaceOnUse" x="-20" y="-1063" width="445" height="2354">
<path d="M424.481 1290.62L424.481 -1062.04H-19.412L-19.412 1290.62H424.481Z" fill="white"/>
</mask>
<g mask="url(#mask1_70_2565)">
<path fill-rule="evenodd" clip-rule="evenodd" d="M134.166 88.6758C134.139 89.0056 134.101 89.3013 134.048 89.5128C133.816 90.4413 125.091 95.7074 126.615 163.669C114.36 163.404 112.996 162.877 112.995 162.267C112.967 149.643 113.429 139.145 114.025 130.909C92.7381 147.743 85.4198 147.035 85.0317 146.196C81.0674 137.632 81.5696 132.244 82.1118 131.879C99.6503 120.054 104.674 110.289 107.927 104.834C111.164 99.407 113.071 96.3241 116.819 95.4762C127.469 93.0672 134.166 88.6758 134.166 88.6758Z" fill="#F5A200"/>
</g>
<path d="M10.8764 99.5089C10.6921 99.4631 10.4972 99.4924 10.3346 99.5905C6.8194 101.711 0.00185476 107.305 6.69924e-07 117.069C-0.00125209 123.766 1.75477 141.216 3.00188 147.228C3.15096 147.947 3.16486 149.428 3.11653 151.16C3.06819 152.891 2.97454 154.902 2.97811 156.856C2.98169 158.809 3.07691 160.699 3.4395 162.244C3.6208 163.016 3.86749 163.706 4.23996 164.281C4.61243 164.856 5.13962 165.323 5.80766 165.518C7.91722 166.133 16.2268 168.25 25.6177 168.618C35.0085 168.986 45.5269 167.634 51.8453 160.991C52.1352 160.686 52.2224 160.341 52.2784 159.985C52.3343 159.63 52.3416 159.241 52.3227 158.813C52.2851 157.955 52.1363 156.939 51.941 155.878C51.5506 153.755 50.9682 151.456 50.6813 150.185C50.6394 149.999 50.5257 149.838 50.3652 149.736C50.2047 149.635 50.0104 149.601 49.8253 149.643C49.7335 149.664 49.6468 149.703 49.57 149.757C49.4932 149.811 49.4278 149.88 49.3776 149.96C49.3274 150.039 49.2933 150.128 49.2773 150.221C49.2614 150.314 49.2638 150.409 49.2845 150.501C49.5812 151.815 50.1553 154.084 50.5331 156.138C50.722 157.164 50.86 158.138 50.8924 158.876C50.9086 159.245 50.8967 159.555 50.8641 159.762C50.8315 159.97 50.7607 160.053 50.8085 160.002C44.9768 166.134 34.8819 167.546 25.6736 167.185C16.4653 166.824 8.1902 164.719 6.20789 164.141C5.91963 164.057 5.68057 163.87 5.44099 163.501C5.20141 163.131 4.99034 162.585 4.83313 161.916C4.51873 160.577 4.41332 158.759 4.40984 156.853C4.40635 154.948 4.499 152.951 4.54791 151.2C4.59682 149.448 4.61857 147.973 4.40354 146.936C3.216 141.211 1.4305 123.508 1.43173 117.07C1.43352 107.975 7.80736 102.789 11.0732 100.819C11.1537 100.77 11.2239 100.706 11.2798 100.631C11.3356 100.555 11.376 100.469 11.3987 100.377C11.4213 100.286 11.4258 100.191 11.4118 100.098C11.3978 100.005 11.3657 99.9155 11.3172 99.8349C11.2192 99.672 11.0606 99.5547 10.8764 99.5089Z" fill="black"/>
<mask id="mask2_70_2565" style="mask-type:luminance" maskUnits="userSpaceOnUse" x="-20" y="-1063" width="445" height="2354">
<path d="M424.481 1290.62L424.481 -1062.04H-19.412L-19.412 1290.62H424.481Z" fill="white"/>
</mask>
<g mask="url(#mask2_70_2565)">
<path fill-rule="evenodd" clip-rule="evenodd" d="M34.2686 89.4285C35.4825 89.1507 36.5392 88.6578 37.2974 87.9785C42.2688 83.5243 40.9605 67.1738 40.9605 67.1738C35.5831 66.7132 30.4676 64.7863 25.6085 61.4201C25.2643 64.7755 24.0481 67.4212 21.5275 69.0111C21.5275 69.0111 21.816 89.9824 22.575 98.4982C22.6732 99.6006 22.3328 102.578 15.0167 102.361C10.9383 102.241 10.3529 100.337 10.0806 97.145C9.95627 95.6841 6.72307 61.6872 13.9245 59.6438C13.9245 59.6438 16.2569 53.4134 24.0965 52.7484C33.0894 51.9848 40.2672 54.0568 42.2595 60.2479C44.3963 66.8888 42.975 81.5042 43.6078 89.8694C44.0545 95.7755 44.697 98.6003 42.3812 99.5862C39.1888 98.1755 36.1016 97.0445 35.3992 96.5194C33.9379 95.4296 34.1865 91.5687 34.2686 89.4285Z" fill="#F5A200"/>
</g>
<path d="M34.8687 1.91357C24.041 1.91357 15.2607 10.8751 15.2607 21.8954C15.2607 32.9157 24.041 41.8772 34.8687 41.8772C45.6963 41.8772 54.4763 32.9157 54.4763 21.8954C54.4763 10.8751 45.6963 1.91357 34.8687 1.91357ZM34.8687 3.34734C44.9085 3.34734 53.0448 11.6362 53.0448 21.8954C53.0448 32.1546 44.9085 40.4434 34.8687 40.4434C24.8289 40.4434 16.6926 32.1546 16.6926 21.8954C16.6926 11.6362 24.8289 3.34734 34.8687 3.34734Z" fill="black"/>
<path d="M80.4868 57.2446C70.313 57.2446 62.04 65.4037 62.04 75.4623C62.04 85.5208 70.313 93.6799 80.4868 93.6799C90.6607 93.6799 98.934 85.5208 98.934 75.4623C98.9339 65.4037 90.6607 57.2446 80.4868 57.2446ZM80.4868 58.6786C89.8981 58.6786 97.5022 66.1901 97.5022 75.4623C97.5022 84.7345 89.8981 92.246 80.4868 92.2459C71.0755 92.246 63.4718 84.7345 63.4718 75.4623C63.4718 66.1901 71.0755 58.6786 80.4868 58.6786Z" fill="black"/>
<path d="M140.01 0C128.928 0 119.872 8.83593 119.872 19.7981C119.872 30.7602 128.928 39.5964 140.01 39.5964C151.092 39.5963 160.147 30.7602 160.147 19.7981C160.147 8.83593 151.092 0 140.01 0ZM140.01 1.48191C150.406 1.48191 158.762 9.71014 158.762 19.7981C158.762 29.886 150.406 38.1145 140.01 38.1145C129.613 38.1145 121.257 29.886 121.257 19.7981C121.257 9.71014 129.613 1.4819 140.01 1.48191Z" fill="black"/>
<path d="M60.858 74.7451C60.6681 74.7451 60.486 74.8206 60.3518 74.9551C60.2175 75.0895 60.1421 75.2719 60.1421 75.4621C60.1421 86.5494 69.2718 95.5537 80.4872 95.5537C86.0689 95.5537 91.137 93.3257 94.8154 89.7199C94.951 89.5869 95.0284 89.4054 95.0304 89.2153C95.0325 89.0251 94.959 88.842 94.8262 88.7061C94.6934 88.5702 94.5122 88.4927 94.3224 88.4906C94.1325 88.4885 93.9496 88.562 93.8139 88.695C90.3943 92.0471 85.6888 94.1199 80.4873 94.1199C70.0355 94.1199 61.5738 85.762 61.5738 75.4622C61.5738 75.272 61.4984 75.0896 61.3642 74.9552C61.2299 74.8207 61.0478 74.7451 60.858 74.7451Z" fill="black"/>
<path d="M42.4426 11.3488C41.8624 11.2883 41.2915 11.4582 40.7567 11.6653C40.7563 11.6653 40.7559 11.6653 40.7555 11.6653C40.1703 11.8932 35.9788 13.627 31.6884 15.4286C29.5432 16.3294 27.3893 17.2407 25.6882 17.9744C23.9872 18.7081 22.8289 19.2089 22.3542 19.4803C21.6387 19.8895 21.1384 20.3309 20.9025 20.9178C20.6665 21.5048 20.7666 22.1053 20.9422 22.6453C21.0068 22.8435 21.0872 23.0059 21.2291 23.314C21.371 23.6221 21.5597 24.0213 21.7813 24.4838C22.2244 25.4087 22.798 26.5848 23.3779 27.7621C23.9577 28.9394 24.5435 30.1177 25.0108 31.0465C25.478 31.9752 25.7916 32.5974 25.9489 32.8634C26.3955 33.6186 27.0511 34.1424 27.7995 34.339C28.548 34.5355 29.3491 34.4083 30.092 34.0464H30.0923C30.1794 34.004 31.3328 33.4886 32.8768 32.8097C34.4208 32.1308 36.425 31.2535 38.4434 30.3735C40.4619 29.4934 42.4949 28.6106 44.0959 27.9205C45.6969 27.2304 46.9159 26.7148 47.1333 26.6333H47.1339C47.8727 26.3551 48.379 25.8509 48.5902 25.2912C48.8014 24.7316 48.7376 24.1785 48.5674 23.7427C48.4623 23.4739 47.5499 21.0909 46.6494 18.7305C45.7489 16.3702 44.8239 13.9311 44.7567 13.7392C44.3467 12.5704 43.8029 11.8078 43.025 11.4936C42.8305 11.4151 42.636 11.3696 42.4426 11.3494L42.4426 11.3488ZM42.0163 12.7898C42.2157 12.7619 42.3701 12.7748 42.4895 12.823C42.7283 12.9194 43.0617 13.2323 43.4061 14.214C43.5418 14.6014 44.4112 16.8811 45.312 19.2423C46.2128 21.6035 47.1086 23.9443 47.2341 24.2651C47.2946 24.4201 47.3118 24.6239 47.2511 24.7847C47.1904 24.9455 47.0719 25.1251 46.6301 25.2915C46.2568 25.4317 45.1335 25.9126 43.5299 26.6038C41.9259 27.2953 39.8917 28.1788 37.872 29.0594C35.8523 29.94 33.8472 30.8176 32.3013 31.4974C30.7554 32.1772 29.7384 32.6245 29.4653 32.7578C28.9623 33.0026 28.5251 33.0476 28.1628 32.9525C27.8003 32.8573 27.4722 32.626 27.1809 32.1332H27.1806C27.1338 32.0542 26.754 31.3257 26.2894 30.402C25.8247 29.4784 25.2402 28.3027 24.662 27.1286C24.0837 25.9545 23.5115 24.7816 23.072 23.8644C22.8523 23.4058 22.6656 23.0107 22.529 22.7142C22.3926 22.4179 22.2919 22.1661 22.3035 22.2019C22.1718 21.7968 22.1694 21.6064 22.2306 21.4541C22.2919 21.3018 22.4884 21.0556 23.0642 20.7263C23.2352 20.6285 24.5611 20.0226 26.2545 19.2922C27.948 18.5618 30.0993 17.6516 32.242 16.7518C36.5269 14.9526 40.8408 13.1717 41.2731 13.0033C41.5726 12.8873 41.8169 12.8183 42.0163 12.7904L42.0163 12.7898Z" fill="black"/>
<path d="M39.2226 8.73996C38.7248 8.73996 38.3577 8.93719 38.0569 9.0922H38.0566H38.0563C37.787 9.2307 36.8041 9.78173 35.3318 10.6062C33.8592 11.4308 31.9562 12.499 30.0431 13.5724C28.13 14.6457 26.2069 15.7241 24.6948 16.5685C23.1832 17.4127 22.0445 18.0419 21.8314 18.1509H21.8308H21.8305C21.4295 18.3556 21.115 18.7063 21.0096 19.0957C20.9042 19.4853 20.9875 19.835 21.094 20.0984C21.307 20.6253 21.6666 20.9598 21.6666 20.9598C21.8006 21.0945 21.9824 21.1704 22.1722 21.1709C22.362 21.1713 22.5442 21.0963 22.6788 20.9622C22.7454 20.8958 22.7984 20.8168 22.8345 20.7299C22.8707 20.643 22.8894 20.5498 22.8897 20.4556C22.8899 20.3615 22.8716 20.2682 22.8358 20.1811C22.8 20.0941 22.7474 20.0149 22.6811 19.9482C22.6811 19.9482 22.4885 19.7274 22.421 19.5605C22.3873 19.477 22.3983 19.4452 22.3913 19.4708C22.3844 19.4963 22.3392 19.5006 22.4809 19.4283H22.4815C22.8121 19.2593 23.8779 18.6664 25.3918 17.8209C26.9058 16.9754 28.8295 15.8965 30.7427 14.823C32.656 13.7495 34.5588 12.6813 36.0303 11.8574C37.5017 11.0334 38.6007 10.424 38.7107 10.3674H38.7113C38.9722 10.2329 39.1684 10.1738 39.2217 10.1738C39.275 10.1738 39.2689 10.1239 39.4355 10.3645H39.4358C39.9257 11.0708 40.8693 12.5593 40.8693 12.5593C40.9197 12.6388 40.9852 12.7076 41.0621 12.7618C41.139 12.816 41.2257 12.8544 41.3175 12.8749C41.4092 12.8955 41.5041 12.8978 41.5967 12.8816C41.6894 12.8655 41.7779 12.8313 41.8573 12.7808C41.9367 12.7304 42.0054 12.6648 42.0595 12.5878C42.1136 12.5107 42.152 12.4238 42.1725 12.3319C42.1931 12.2401 42.1953 12.145 42.1792 12.0523C42.1631 11.9595 42.1289 11.8708 42.0785 11.7913C42.0785 11.7913 41.1466 10.3175 40.6118 9.54663H40.6115C40.2656 9.04753 39.7205 8.74009 39.2226 8.73975L39.2226 8.73996Z" fill="black"/>
<path d="M30.7393 18.1564C30.5692 18.1111 30.3883 18.1302 30.2312 18.21L24.2256 21.2616C24.0602 21.3457 23.9338 21.4907 23.873 21.6662C23.8122 21.8418 23.8219 22.0341 23.8999 22.2027L25.1298 24.8582C25.2094 25.03 25.3537 25.1634 25.5311 25.2291C25.7086 25.2947 25.9048 25.2874 26.0769 25.2087C26.0769 25.2087 27.6301 24.4978 29.1862 23.7354C29.9643 23.3541 30.7422 22.961 31.3405 22.629C31.6396 22.4631 31.8916 22.3146 32.0943 22.1755C32.1956 22.106 32.2835 22.0424 32.3768 21.9534C32.4235 21.9089 32.4726 21.8598 32.5298 21.7734C32.5869 21.687 32.6774 21.5503 32.664 21.296C32.6513 21.0542 32.5961 20.9637 32.5436 20.8381C32.4912 20.7126 32.4282 20.5848 32.3564 20.4478C32.2128 20.1738 32.0341 19.8672 31.8569 19.574C31.5025 18.9876 31.1535 18.4558 31.1535 18.4558C31.0569 18.3084 30.9095 18.2018 30.7393 18.1564ZM30.2972 19.7843C30.4234 19.9824 30.4647 20.0398 30.6319 20.3166C30.8 20.5947 30.9674 20.8833 31.087 21.1113C30.9579 21.1917 30.8386 21.2682 30.6466 21.3747C30.0899 21.6836 29.3241 22.0715 28.5572 22.4473C27.3442 23.0416 26.5814 23.3889 26.125 23.5995L25.4896 22.2272L30.2972 19.7843Z" fill="black"/>
<path d="M41.4971 15.1889L32.4576 18.8844C32.2818 18.9563 32.1417 19.0951 32.0681 19.2704C31.9946 19.4457 31.9935 19.643 32.0653 19.8191C32.137 19.9951 32.2756 20.1354 32.4506 20.2091C32.6257 20.2828 32.8227 20.2838 32.9985 20.212L42.038 16.5165C42.1251 16.481 42.2043 16.4286 42.2712 16.3623C42.338 16.2961 42.3912 16.2173 42.4276 16.1305C42.464 16.0436 42.483 15.9505 42.4835 15.8563C42.484 15.7621 42.4659 15.6688 42.4303 15.5816C42.3585 15.4056 42.2199 15.2653 42.0449 15.1917C41.8699 15.118 41.6728 15.1171 41.4971 15.1889Z" fill="black"/>
<path d="M43.0474 20.4237L27.1584 26.9192C27.0713 26.9548 26.9921 27.0072 26.9252 27.0734C26.8584 27.1397 26.8052 27.2185 26.7688 27.3053C26.7324 27.3921 26.7134 27.4853 26.7129 27.5795C26.7124 27.6737 26.7305 27.767 26.766 27.8542C26.8016 27.9414 26.8539 28.0207 26.9201 28.0876C26.9862 28.1545 27.0649 28.2077 27.1516 28.2442C27.2383 28.2806 27.3313 28.2997 27.4253 28.3001C27.5194 28.3006 27.6125 28.2825 27.6996 28.2468L43.5884 21.7513C43.7641 21.6795 43.9042 21.5406 43.9778 21.3654C44.0514 21.1901 44.0524 20.9927 43.9807 20.8167C43.9089 20.6406 43.7703 20.5003 43.5953 20.4266C43.4203 20.3529 43.2232 20.3519 43.0474 20.4237Z" fill="black"/>
<path d="M44.4306 23.1693L28.5416 29.6651C28.3658 29.737 28.2257 29.8758 28.1521 30.0511C28.0786 30.2264 28.0775 30.4238 28.1492 30.5998C28.221 30.7759 28.3596 30.9162 28.5346 30.9899C28.7096 31.0635 28.9067 31.0646 29.0825 30.9927L44.9716 24.497C45.1473 24.4251 45.2874 24.2862 45.361 24.111C45.4346 23.9357 45.4356 23.7383 45.3639 23.5623C45.2921 23.3862 45.1535 23.2459 44.9785 23.1722C44.8035 23.0985 44.6064 23.0975 44.4306 23.1693Z" fill="black"/>
<path d="M78.9907 65.0109C78.1469 65.034 77.3259 65.2473 76.6015 65.6148C74.6699 66.5948 73.338 68.7605 74.0167 71.1622C74.3684 72.4072 75.3333 73.1388 76.3604 73.5291C77.3874 73.9194 78.5242 74.0725 79.5831 74.3172C80.6421 74.5618 81.5992 74.8882 82.2959 75.492C82.9926 76.0958 83.5027 76.9803 83.6308 78.6141C83.6758 79.1873 83.4608 79.6126 82.981 80.0435C82.5013 80.4743 81.7488 80.8454 80.9041 81.0892C79.2145 81.5766 77.1203 81.4831 76.3908 81.1112C76.307 81.0685 76.2156 81.0426 76.1218 81.0352C76.0281 81.0279 75.9338 81.0391 75.8444 81.0682C75.755 81.0974 75.6721 81.1438 75.6006 81.205C75.5292 81.2662 75.4704 81.341 75.4278 81.4249C75.3851 81.5088 75.3594 81.6003 75.3521 81.6942C75.3448 81.7881 75.356 81.8825 75.3852 81.972C75.4143 82.0615 75.4607 82.1444 75.5218 82.216C75.5829 82.2875 75.6575 82.3463 75.7413 82.389C77.1495 83.1069 79.3216 83.038 81.3004 82.4671C82.2899 82.1816 83.2221 81.7526 83.9367 81.1109C84.6513 80.4691 85.1401 79.5489 85.058 78.5017C84.9083 76.5928 84.2173 75.2612 83.2327 74.4078C82.2481 73.5545 81.0439 73.1827 79.9051 72.9196C78.7662 72.6565 77.6685 72.4924 76.8682 72.1883C76.068 71.8842 75.6128 71.5443 75.3946 70.7719C74.9053 69.0402 75.808 67.6245 77.2485 66.8936C78.6891 66.1628 80.5809 66.2044 82.0534 67.6624C82.1883 67.7961 82.3708 67.8706 82.5606 67.8696C82.7505 67.8685 82.9321 67.792 83.0656 67.6568C83.1991 67.5216 83.2735 67.3389 83.2725 67.1488C83.2714 66.9586 83.195 66.7767 83.0601 66.643C81.867 65.4616 80.397 64.9723 78.9907 65.0109Z" fill="black"/>
<path d="M76.7493 62.0583C76.5635 62.0974 76.4008 62.2089 76.2971 62.3681C76.1933 62.5273 76.1569 62.7212 76.1959 62.9073C76.1959 62.9073 80.029 81.2025 80.8054 85.927C80.8206 86.0199 80.854 86.1089 80.9037 86.1889C80.9533 86.2688 81.0182 86.3383 81.0946 86.3932C81.171 86.4481 81.2574 86.4873 81.349 86.5087C81.4405 86.5301 81.5354 86.5333 81.6282 86.5179C81.721 86.5026 81.8098 86.4692 81.8897 86.4195C81.9696 86.3698 82.0389 86.3049 82.0937 86.2283C82.1484 86.1518 82.1876 86.0652 82.209 85.9735C82.2304 85.8818 82.2335 85.7868 82.2182 85.6938C81.4158 80.8109 77.5973 62.6125 77.5973 62.6125C77.5779 62.5203 77.5407 62.4329 77.4876 62.3552C77.4345 62.2775 77.3666 62.211 77.2879 62.1595C77.2091 62.108 77.121 62.0726 77.0286 62.0553C76.9362 62.0379 76.8413 62.0389 76.7493 62.0583Z" fill="black"/>
<path d="M141.901 6.51849L129.07 13.0157C128.935 13.0842 128.824 13.1976 128.754 13.339C128.684 13.4804 128.659 13.6422 128.682 13.8002C128.705 13.9583 128.776 14.104 128.883 14.2157C128.99 14.3274 129.128 14.3991 129.276 14.42L130.18 14.5468L128.734 24.4422L127.648 24.2721C127.468 24.2439 127.284 24.2929 127.137 24.4085C126.99 24.5241 126.892 24.6969 126.864 24.8896L126.56 26.9426C126.546 27.0395 126.55 27.1384 126.571 27.2337C126.593 27.3289 126.632 27.4187 126.687 27.4976C126.741 27.5766 126.81 27.6432 126.888 27.6937C126.967 27.7441 127.054 27.7773 127.145 27.7914L149.815 31.317C149.986 31.3436 150.161 31.3007 150.304 31.1966C150.447 31.0925 150.549 30.9349 150.589 30.7547L151.034 28.7443C151.056 28.6443 151.059 28.5405 151.041 28.4394C151.024 28.3384 150.987 28.2423 150.933 28.1573C150.879 28.0722 150.81 28.0001 150.728 27.9456C150.647 27.891 150.556 27.8551 150.461 27.8402L149.915 27.7546L151.41 17.5322L152.594 17.6984C152.741 17.7191 152.891 17.6884 153.021 17.611C153.151 17.5335 153.254 17.4134 153.315 17.2683C153.376 17.1232 153.392 16.961 153.361 16.8055C153.329 16.65 153.251 16.5096 153.139 16.4051L142.653 6.62949C142.551 6.53485 142.426 6.47395 142.293 6.45424C142.159 6.43452 142.023 6.45684 141.901 6.51849ZM142.084 8.06524L150.645 16.0459C150.524 16.0795 150.413 16.1478 150.325 16.2435C150.237 16.3392 150.175 16.4587 150.145 16.5892L148.438 28.265C148.424 28.3617 148.428 28.4605 148.45 28.5555C148.472 28.6506 148.511 28.7402 148.565 28.819C148.619 28.8978 148.688 28.9643 148.766 29.0147C148.845 29.0651 148.932 29.0983 149.022 29.1126L149.512 29.1893L149.387 29.7529L128.038 26.4327L128.125 25.8445L129.212 26.0147C129.393 26.0429 129.577 25.9937 129.723 25.8779C129.87 25.762 129.969 25.5888 129.997 25.3959L131.658 14.0256C131.672 13.9191 131.665 13.8107 131.635 13.7079C131.606 13.605 131.557 13.5101 131.49 13.4298L142.084 8.06524ZM133.264 13.4859C133.084 13.4608 132.903 13.5115 132.759 13.6274C132.614 13.7432 132.517 13.915 132.489 14.106L130.822 25.5097C130.808 25.6064 130.812 25.7052 130.834 25.8003C130.856 25.8954 130.895 25.9849 130.949 26.0637C131.003 26.1425 131.072 26.209 131.15 26.2594C131.229 26.3098 131.316 26.3431 131.406 26.3573L134.596 26.8565C134.777 26.8848 134.961 26.8356 135.108 26.7198C135.255 26.6039 135.353 26.4306 135.381 26.2377L137.054 14.7836C137.068 14.686 137.064 14.5863 137.042 14.4904C137.02 14.3945 136.98 14.3043 136.924 14.2252C136.869 14.1461 136.799 14.0796 136.719 14.0296C136.64 13.9797 136.551 13.9474 136.46 13.9345L133.264 13.4859ZM139.035 14.2971C138.855 14.2719 138.674 14.3227 138.529 14.4386C138.385 14.5545 138.288 14.7264 138.26 14.9174L136.58 26.4112C136.566 26.508 136.57 26.6068 136.592 26.7019C136.614 26.7971 136.653 26.8867 136.707 26.9655C136.762 27.0443 136.83 27.1109 136.908 27.1612C136.987 27.2116 137.074 27.2449 137.165 27.259L140.818 27.8298C140.998 27.8581 141.182 27.8089 141.329 27.6931C141.476 27.5773 141.574 27.4041 141.602 27.2113L143.29 15.6615C143.305 15.5639 143.3 15.4642 143.278 15.3683C143.256 15.2724 143.216 15.1823 143.161 15.1031C143.105 15.024 143.036 14.9575 142.956 14.9076C142.876 14.8577 142.788 14.8253 142.696 14.8124L139.035 14.2971ZM133.754 15.0492L135.576 15.3052L134.118 25.2841L132.299 24.9993L133.754 15.0492ZM145.228 15.1682C145.049 15.1431 144.868 15.1938 144.723 15.3096C144.578 15.4255 144.482 15.5973 144.454 15.7883L142.761 27.378C142.747 27.4748 142.751 27.5736 142.772 27.6686C142.794 27.7637 142.833 27.8533 142.888 27.9321C142.942 28.0109 143.01 28.0774 143.089 28.1278C143.167 28.1781 143.254 28.2114 143.345 28.2256L146.477 28.7155C146.657 28.7437 146.841 28.6946 146.988 28.5787C147.135 28.4628 147.233 28.2896 147.261 28.0967L148.962 16.4582C148.976 16.3606 148.972 16.2609 148.949 16.165C148.927 16.0691 148.887 15.979 148.832 15.8999C148.776 15.8207 148.707 15.7542 148.627 15.7043C148.547 15.6544 148.459 15.622 148.368 15.6091L145.228 15.1682ZM139.524 15.8607L141.812 16.1825L140.339 26.2574L138.057 25.9008L139.524 15.8607ZM145.718 16.7316L147.483 16.9795L145.998 27.1431L144.238 26.8677L145.718 16.7316Z" fill="black"/>
<mask id="mask3_70_2565" style="mask-type:luminance" maskUnits="userSpaceOnUse" x="6" y="-786" width="309" height="1744">
<path d="M314.744 957.523L314.744 -785.366H6.86746L6.86746 957.523H314.744Z" fill="white"/>
</mask>
<g mask="url(#mask3_70_2565)">
<path fill-rule="evenodd" clip-rule="evenodd" d="M149.123 28.3793L150.36 28.5732L149.915 30.5835L127.245 27.0581L127.548 25.0052L129.313 25.2814L130.974 13.9109L129.366 13.6852L142.198 7.18799L152.684 16.9637L150.83 16.7034L149.123 28.3793ZM131.507 25.6239L134.697 26.1233L136.37 14.6691L133.174 14.2203L131.507 25.6239ZM137.265 26.5256L140.918 27.0966L142.606 15.5469L138.944 15.0317L137.265 26.5256ZM143.445 27.4923L146.577 27.9823L148.278 16.3436L145.138 15.9027L143.445 27.4923Z" fill="black"/>
</g>
<path d="M137.385 62.5262C136.295 62.4952 135.377 62.8623 134.807 63.4333C134.673 63.5678 134.597 63.7501 134.597 63.9402C134.597 64.1303 134.673 64.3127 134.807 64.4471C134.873 64.5138 134.952 64.5666 135.039 64.6027C135.126 64.6387 135.219 64.6573 135.313 64.6573C135.407 64.6573 135.5 64.6387 135.587 64.6027C135.674 64.5666 135.753 64.5138 135.819 64.4471C135.971 64.2958 136.669 63.9403 137.345 63.9595C138.021 63.9787 138.69 64.2248 139.24 65.2124C139.333 65.3785 139.487 65.5009 139.67 65.5529C139.852 65.6048 140.048 65.5819 140.214 65.4893C140.38 65.3967 140.502 65.2419 140.554 65.059C140.606 64.8761 140.583 64.6801 140.49 64.514C139.722 63.1338 138.475 62.5572 137.385 62.5262Z" fill="black"/>
<path d="M127.769 55.8084C127.581 55.7775 127.389 55.8223 127.235 55.933C127.081 56.0437 126.977 56.2112 126.946 56.3988C126.915 56.5864 126.959 56.7786 127.07 56.9332C127.07 56.9332 130.092 61.3614 134.398 61.7468C134.491 61.7552 134.586 61.7451 134.675 61.7169C134.765 61.6887 134.848 61.6431 134.92 61.5827C134.993 61.5223 135.052 61.4483 135.096 61.3648C135.139 61.2814 135.166 61.1902 135.174 61.0964C135.183 61.0026 135.172 60.9081 135.144 60.8182C135.116 60.7284 135.071 60.645 135.01 60.5727C134.95 60.5005 134.876 60.4409 134.793 60.3973C134.71 60.3536 134.618 60.3269 134.525 60.3185C131.182 60.0192 128.234 56.0982 128.234 56.0982C128.179 56.0217 128.11 55.9567 128.03 55.9069C127.95 55.8572 127.861 55.8237 127.769 55.8084Z" fill="black"/>
<path d="M125.688 52.6659C125.599 52.6338 125.505 52.6195 125.412 52.6238C125.318 52.6281 125.225 52.6509 125.14 52.6908C125.055 52.7308 124.979 52.7871 124.915 52.8567C124.852 52.9262 124.803 53.0076 124.771 53.0961C124.771 53.0961 124.25 54.5259 124.51 56.3092C124.771 58.0924 125.882 60.2836 128.839 61.6816C129.011 61.7627 129.207 61.7722 129.386 61.708C129.565 61.6438 129.711 61.5111 129.792 61.3392C129.873 61.1672 129.882 60.9701 129.818 60.7911C129.754 60.6122 129.622 60.466 129.45 60.3849C126.872 59.1659 126.133 57.5106 125.927 56.1016C125.721 54.6926 126.117 53.5842 126.117 53.5842C126.149 53.4956 126.164 53.4016 126.159 53.3075C126.155 53.2134 126.132 53.1212 126.092 53.0359C126.053 52.9506 125.996 52.874 125.927 52.8106C125.857 52.7471 125.776 52.6979 125.688 52.6659Z" fill="black"/>
<path d="M132.217 55.8011C132.124 55.7936 132.029 55.8047 131.94 55.8337C131.85 55.8627 131.767 55.9091 131.696 55.9702C131.551 56.0936 131.462 56.2694 131.447 56.4589C131.432 56.6485 131.492 56.8362 131.615 56.9809C131.615 56.9809 137.954 64.5945 145.616 65.0409C145.614 65.3155 145.603 65.6545 145.619 66.096C145.656 67.1314 145.828 68.5027 146.701 69.6557C146.776 69.7543 146.875 69.8319 146.988 69.8808C147.102 69.9298 147.227 69.9484 147.349 69.9348C147.472 69.9213 147.59 69.8761 147.69 69.8036C147.79 69.7312 147.87 69.6338 147.922 69.5212C147.922 69.5212 148.361 68.573 149.009 67.7137C149.333 67.2841 149.709 66.8874 150.053 66.6579C150.396 66.4285 150.646 66.3705 150.894 66.4384C151.95 66.7287 152.471 67.7184 152.558 68.9229C152.645 70.1274 152.161 71.3864 151.562 71.8153C149.456 73.3227 147.754 72.5351 147.754 72.5351C147.667 72.4986 147.574 72.4796 147.48 72.4791C147.386 72.4786 147.293 72.4967 147.206 72.5323C147.119 72.5679 147.04 72.6202 146.973 72.6865C146.906 72.7528 146.853 72.8316 146.817 72.9184C146.743 73.0937 146.742 73.291 146.814 73.467C146.886 73.643 147.024 73.7833 147.199 73.857C147.199 73.857 149.763 74.8654 152.395 72.9818H152.395C153.626 72.1004 154.101 70.42 153.985 68.8193C153.87 67.2186 153.027 65.5378 151.273 65.0556C150.535 64.853 149.815 65.0941 149.259 65.4655C148.702 65.837 148.249 66.3428 147.866 66.8497C147.636 67.1552 147.492 67.42 147.318 67.7036C147.149 67.1558 147.069 66.5776 147.05 66.0449C147.034 65.5897 147.05 65.1839 147.047 64.848C147.046 64.68 147.046 64.5369 147.008 64.3501C146.989 64.2567 146.967 64.1456 146.861 63.9917C146.755 63.8377 146.475 63.6495 146.218 63.6482H146.22C139.285 63.5897 132.705 56.0514 132.705 56.0514C132.644 55.9797 132.57 55.9208 132.486 55.8779C132.402 55.835 132.311 55.809 132.217 55.8015V55.8011Z" fill="black"/>
<path d="M131.794 46.6671C130.78 46.6912 129.761 46.808 128.771 47.0231C126.792 47.4534 124.925 48.2951 123.503 49.6621C122.081 51.029 121.133 52.9335 121.014 55.3257C120.88 57.989 122.307 59.9176 123.702 61.1073C124.741 61.9936 125.601 62.4138 126.074 62.6249C126.079 63.0183 126.113 65.8427 126.176 69.2783C126.209 71.1115 126.249 73.0029 126.292 74.5544C126.336 76.1059 126.378 77.2801 126.437 77.8252C127.273 85.6302 137.216 90.5811 145.034 84.2107C145.181 84.0907 145.275 83.917 145.294 83.7279C145.313 83.5387 145.257 83.3496 145.137 83.2021C145.017 83.0546 144.844 82.9609 144.655 82.9415C144.466 82.9221 144.277 82.9785 144.13 83.0985C137.043 88.8736 128.575 84.3465 127.86 77.6722C127.819 77.2925 127.767 76.0568 127.723 74.5138C127.68 72.9707 127.641 71.0825 127.607 69.252C127.541 65.591 127.499 62.16 127.499 62.16C127.497 62.0162 127.452 61.8762 127.37 61.7583C127.288 61.6404 127.172 61.5499 127.038 61.4987C127.038 61.4987 125.822 61.0318 124.63 60.0151C123.438 58.9984 122.337 57.5232 122.444 55.3971C122.547 53.336 123.315 51.8305 124.495 50.6962C125.674 49.562 127.293 48.8115 129.074 48.4242C132.638 47.6495 136.827 48.3995 139.003 49.9642C139.131 50.0561 139.286 50.1033 139.443 50.0983C143.43 49.9725 147.377 50.97 150.171 52.7943C152.964 54.6185 154.597 57.166 154.255 60.3921C154.241 60.5251 154.264 60.6593 154.322 60.7797C154.38 60.9 154.471 61.0018 154.584 61.0734C154.584 61.0734 155.491 61.6489 156.067 62.9047C156.644 64.1605 156.912 66.0598 155.307 68.9306C152.593 73.7818 151.136 76.7203 150.159 78.2562C149.671 79.0241 149.3 79.4084 149.079 79.5329C148.858 79.6574 148.739 79.6631 148.312 79.5133C148.133 79.4504 147.936 79.4614 147.765 79.5438C147.594 79.6262 147.463 79.7732 147.4 79.9527C147.369 80.0415 147.355 80.1356 147.361 80.2297C147.366 80.3237 147.39 80.4158 147.43 80.5006C147.471 80.5855 147.528 80.6614 147.598 80.7242C147.668 80.7869 147.75 80.8353 147.839 80.8664C148.464 81.0859 149.177 81.1222 149.781 80.7827C150.384 80.4432 150.831 79.8686 151.366 79.0267C152.438 77.3429 153.856 74.4576 156.555 69.6315C158.334 66.4511 158.12 63.9441 157.368 62.306C156.792 61.0505 156.069 60.4355 155.69 60.146C155.913 56.5317 153.948 53.5488 150.953 51.5931C147.901 49.6006 143.795 48.5741 139.621 48.6657C137.619 47.3157 134.734 46.597 131.794 46.6667V46.6671Z" fill="black"/>
<path d="M148.685 72.7115C148.591 72.7029 148.496 72.7128 148.407 72.7407C148.317 72.7687 148.234 72.814 148.161 72.8742C148.089 72.9344 148.029 73.0083 147.985 73.0916C147.942 73.1749 147.915 73.2661 147.906 73.3599C147.906 73.3599 147.323 79.691 147.052 85.2165C147.042 85.4064 147.109 85.5922 147.236 85.7331C147.364 85.874 147.542 85.9584 147.732 85.9678C147.921 85.9771 148.107 85.9106 148.248 85.7829C148.388 85.6552 148.472 85.4768 148.482 85.2868C148.75 79.8086 149.332 73.4915 149.332 73.4915C149.341 73.3977 149.331 73.3031 149.303 73.2132C149.275 73.1232 149.23 73.0396 149.17 72.9672C149.109 72.8947 149.036 72.8348 148.952 72.791C148.869 72.7471 148.778 72.7201 148.685 72.7115ZM147.677 87.3313C147.487 87.3263 147.303 87.3971 147.165 87.5279C147.028 87.6587 146.947 87.839 146.942 88.029C146.911 89.2067 146.906 90.2724 146.939 91.1458C146.934 91.0132 146.922 91.297 146.868 91.6146C146.814 91.9322 146.731 92.3768 146.627 92.9348C146.417 94.0507 146.117 95.6222 145.765 97.5895C145.062 101.524 144.151 107.044 143.332 113.706C141.695 127.032 140.429 144.93 141.941 163.896C141.948 163.99 141.974 164.082 142.017 164.165C142.06 164.249 142.119 164.324 142.19 164.385C142.262 164.446 142.345 164.492 142.434 164.521C142.524 164.55 142.618 164.561 142.712 164.554C142.901 164.539 143.076 164.449 143.199 164.304C143.322 164.159 143.383 163.972 143.368 163.782C141.866 144.951 143.124 127.141 144.753 113.881C145.568 107.251 146.475 101.759 147.175 97.8422C147.525 95.8838 147.823 94.3196 148.034 93.1998C148.139 92.6399 148.222 92.1916 148.279 91.8551C148.336 91.5186 148.381 91.3867 148.37 91.0912C148.339 90.2686 148.343 89.2262 148.374 88.0672C148.376 87.973 148.36 87.8793 148.327 87.7913C148.293 87.7034 148.242 87.6229 148.178 87.5546C148.113 87.4863 148.035 87.4313 147.949 87.393C147.863 87.3547 147.771 87.3338 147.677 87.3313Z" fill="black"/>
<path d="M137.932 74.2193C137.74 74.2606 137.558 74.3431 137.41 74.4538C137.303 74.5346 136.565 74.9549 135.657 75.2433C134.749 75.5316 133.621 75.7301 132.534 75.5877H132.536C132.34 75.5617 132.072 75.6049 131.873 75.753C131.674 75.9011 131.577 76.103 131.532 76.2645C131.443 76.5873 131.487 76.8319 131.546 77.098C131.666 77.6302 131.934 78.2258 132.331 78.8183C132.728 79.4108 133.255 79.9922 133.932 80.3933C134.61 80.7945 135.474 80.9965 136.364 80.7501C138.639 80.1205 139.61 78.2978 139.704 76.8095C139.752 76.0654 139.629 75.3947 139.29 74.8624C139.12 74.5962 138.875 74.3423 138.507 74.2326C138.323 74.1777 138.123 74.1775 137.932 74.2189L137.932 74.2193ZM138.105 75.6966C138.196 75.8723 138.305 76.2598 138.275 76.7192C138.212 77.713 137.704 78.8919 135.982 79.3683C135.982 79.3683 135.982 79.3683 135.982 79.3683C135.493 79.5037 135.086 79.411 134.66 79.1593C134.235 78.9076 133.827 78.4779 133.52 78.0194C133.286 77.6717 133.136 77.3312 133.038 77.0507C134.159 77.0883 135.219 76.8867 136.09 76.6103C137.037 76.3097 137.686 75.9794 138.105 75.6966Z" fill="black"/>
<path d="M126.748 61.4533C126.559 61.4624 126.38 61.5466 126.253 61.6874C126.125 61.8281 126.059 62.0139 126.068 62.2038C126.072 62.2979 126.095 62.3902 126.135 62.4753C126.176 62.5605 126.232 62.6369 126.302 62.7002C126.371 62.7635 126.453 62.8124 126.541 62.8442C126.63 62.876 126.724 62.89 126.817 62.8854C128.156 62.8207 129.1 63.071 129.704 63.3227C130.308 63.5744 130.522 63.7852 130.522 63.7852C130.592 63.8489 130.673 63.8984 130.761 63.9307C130.849 63.963 130.943 63.9776 131.037 63.9737C131.131 63.9697 131.223 63.9473 131.308 63.9076C131.394 63.8679 131.47 63.8118 131.534 63.7424C131.598 63.6731 131.647 63.592 131.679 63.5035C131.711 63.4151 131.726 63.3211 131.722 63.227C131.718 63.133 131.696 63.0406 131.656 62.9552C131.616 62.8698 131.56 62.793 131.491 62.7293C131.491 62.7293 131.039 62.3259 130.253 61.9987C129.468 61.6714 128.3 61.3782 126.748 61.4533Z" fill="black"/>
<path d="M131.686 63.3893C131.599 63.4243 131.519 63.4762 131.452 63.542C131.385 63.6077 131.331 63.6862 131.294 63.7727C131.257 63.8593 131.238 63.9523 131.236 64.0465C131.235 64.1407 131.253 64.2342 131.288 64.3216C131.261 64.2536 131.308 64.4018 131.332 64.5869C131.356 64.7721 131.378 65.026 131.392 65.3246C131.421 65.9218 131.42 66.7003 131.357 67.5287C131.231 69.1855 130.821 71.0449 130.082 72.0511C129.806 72.4279 129.683 72.9501 129.832 73.3929C129.981 73.8358 130.313 74.1338 130.683 74.3462C131.422 74.771 132.424 74.9374 133.591 74.8766C133.78 74.8667 133.958 74.7819 134.085 74.6406C134.212 74.4994 134.278 74.3134 134.268 74.1236C134.263 74.0295 134.24 73.9373 134.2 73.8523C134.159 73.7673 134.102 73.6911 134.033 73.6281C133.963 73.5651 133.881 73.5164 133.793 73.4849C133.704 73.4535 133.61 73.4398 133.516 73.4448C132.55 73.4951 131.747 73.3049 131.395 73.1024C131.218 73.0011 131.183 72.9176 131.189 72.9361C131.195 72.9546 131.156 73.0093 131.236 72.9004C132.289 71.4653 132.649 69.425 132.785 67.6372C132.852 66.7433 132.854 65.9138 132.822 65.2553C132.806 64.926 132.782 64.6399 132.752 64.4035C132.721 64.1671 132.706 64.0119 132.617 63.7884C132.582 63.701 132.53 63.6213 132.465 63.5539C132.399 63.4866 132.321 63.4328 132.234 63.3957C132.148 63.3586 132.055 63.339 131.961 63.3379C131.867 63.3368 131.774 63.3543 131.686 63.3893Z" fill="black"/>
<mask id="mask4_70_2565" style="mask-type:luminance" maskUnits="userSpaceOnUse" x="-20" y="-1063" width="445" height="2354">
<path d="M424.481 1290.62L424.481 -1062.04H-19.412L-19.412 1290.62H424.481Z" fill="white"/>
</mask>
<g mask="url(#mask4_70_2565)">
<path fill-rule="evenodd" clip-rule="evenodd" d="M137.739 67.5466C137.739 67.8664 137.667 68.1731 137.54 68.3992C137.414 68.6253 137.241 68.7524 137.062 68.7524C136.882 68.7524 136.71 68.6253 136.583 68.3992C136.457 68.1731 136.385 67.8664 136.385 67.5466C136.385 67.2268 136.457 66.9201 136.583 66.694C136.71 66.4678 136.882 66.3408 137.062 66.3408C137.241 66.3408 137.414 66.4678 137.54 66.694C137.667 66.9201 137.739 67.2268 137.739 67.5466Z" fill="black"/>
</g>
<mask id="mask5_70_2565" style="mask-type:luminance" maskUnits="userSpaceOnUse" x="-20" y="-1063" width="445" height="2354">
<path d="M424.481 1290.62L424.481 -1062.04H-19.412L-19.412 1290.62H424.481Z" fill="white"/>
</mask>
<g mask="url(#mask5_70_2565)">
<path fill-rule="evenodd" clip-rule="evenodd" d="M129.918 67.5466C129.918 67.8664 129.847 68.1731 129.72 68.3992C129.593 68.6253 129.421 68.7524 129.242 68.7524C129.062 68.7524 128.89 68.6253 128.763 68.3992C128.636 68.1731 128.565 67.8664 128.565 67.5466C128.565 67.2268 128.636 66.9201 128.763 66.694C128.89 66.4678 129.062 66.3408 129.242 66.3408C129.421 66.3408 129.593 66.4678 129.72 66.694C129.847 66.9201 129.918 67.2268 129.918 67.5466Z" fill="black"/>
</g>
<path d="M134.207 85.2793C134.113 85.2814 134.021 85.302 133.935 85.3399C133.848 85.3779 133.771 85.4324 133.706 85.5005C133.641 85.5685 133.59 85.6487 133.556 85.7365C133.522 85.8243 133.505 85.9179 133.507 86.012C133.507 86.012 133.522 86.6443 133.507 87.3896C133.494 88.1129 133.431 88.9529 133.358 89.2814C133.35 89.2983 133.347 89.3075 133.329 89.3333C133.263 89.4245 133.152 89.5703 133.015 89.7646C132.741 90.1531 132.363 90.7401 131.932 91.6183C131.071 93.3747 129.99 96.3028 128.971 101.31C126.934 111.325 125.136 129.673 125.899 163.685C125.901 163.779 125.921 163.872 125.959 163.958C125.997 164.044 126.052 164.122 126.12 164.187C126.188 164.252 126.268 164.303 126.355 164.337C126.443 164.372 126.536 164.388 126.631 164.386C126.724 164.384 126.817 164.363 126.903 164.325C126.989 164.287 127.067 164.232 127.132 164.164C127.197 164.096 127.248 164.016 127.282 163.928C127.316 163.84 127.332 163.747 127.33 163.653C126.569 129.703 128.372 111.437 130.374 101.597C131.376 96.6764 132.425 93.8661 133.217 92.2502C133.613 91.4422 133.943 90.9345 134.184 90.5918C134.305 90.4205 134.404 90.2917 134.491 90.1707C134.578 90.0496 134.674 89.9628 134.743 89.6868C134.9 89.0551 134.924 88.1967 134.939 87.4176C134.954 86.6385 134.939 85.9802 134.939 85.9802C134.934 85.7901 134.855 85.6096 134.718 85.4782C134.581 85.3469 134.397 85.2754 134.207 85.2796V85.2793Z" fill="black"/>
<path d="M116.621 108.495C116.529 108.477 116.434 108.478 116.342 108.497C116.25 108.516 116.162 108.553 116.085 108.606C116.007 108.658 115.94 108.726 115.888 108.805C115.837 108.883 115.801 108.972 115.783 109.064C115.783 109.064 114.431 116.133 113.408 129.548C113.393 129.737 113.455 129.925 113.578 130.069C113.702 130.213 113.878 130.303 114.067 130.317C114.256 130.332 114.444 130.27 114.588 130.146C114.732 130.023 114.821 129.847 114.835 129.657C115.854 116.3 117.189 109.334 117.189 109.334C117.207 109.242 117.206 109.147 117.187 109.054C117.168 108.962 117.132 108.875 117.079 108.797C117.026 108.719 116.959 108.652 116.88 108.6C116.801 108.548 116.714 108.513 116.621 108.495ZM112.993 161.551C112.803 161.551 112.621 161.627 112.487 161.762C112.353 161.896 112.278 162.079 112.279 162.269C112.28 162.583 112.507 162.996 112.8 163.194C113.094 163.393 113.43 163.501 113.916 163.608C114.887 163.823 116.477 163.994 119.261 164.139C124.831 164.429 135.142 164.595 154.236 164.565C154.33 164.565 154.423 164.546 154.51 164.51C154.597 164.474 154.676 164.421 154.742 164.354C154.808 164.288 154.861 164.209 154.897 164.122C154.933 164.035 154.951 163.941 154.951 163.847C154.951 163.657 154.875 163.475 154.741 163.34C154.606 163.206 154.424 163.131 154.234 163.131C135.149 163.161 124.842 162.994 119.336 162.707C116.583 162.564 115.021 162.385 114.225 162.208C113.827 162.12 113.626 162.022 113.603 162.006C113.554 161.88 113.471 161.771 113.363 161.691C113.255 161.61 113.127 161.561 112.993 161.551Z" fill="black"/>
<path d="M147.798 89.4333C147.613 89.3896 147.419 89.4211 147.257 89.5211C147.096 89.621 146.98 89.7811 146.937 89.9661C146.893 90.1511 146.925 90.346 147.024 90.5078C147.124 90.6695 147.284 90.785 147.469 90.8287C148.28 91.0206 149.764 91.2272 151.762 91.705C153.761 92.1827 156.236 92.9203 158.864 94.1275C164.122 96.542 169.987 100.815 173.953 108.7C175.56 111.896 177.348 118.031 178.621 123.91C179.258 126.85 179.772 129.734 180.089 132.174C180.407 134.613 180.516 136.634 180.387 137.709C179.53 144.833 177.913 150.723 176.441 154.913C175.705 157.008 175.006 158.678 174.458 159.861C174.184 160.452 173.948 160.923 173.766 161.26C173.636 161.502 173.583 161.578 173.532 161.658C173.363 161.646 173.071 161.592 172.711 161.486C171.982 161.271 170.973 160.856 169.871 160.263C167.723 159.108 165.226 157.264 163.498 154.946C163.58 154.759 163.759 154.439 163.997 154.041C164.472 153.245 165.18 152.115 165.886 150.688C167.3 147.833 168.716 143.762 168.373 138.606C168.271 137.074 167.325 135.547 166.081 133.769C164.838 131.991 163.251 129.981 161.711 127.687C158.63 123.099 155.747 117.42 156.13 110.337C156.135 110.243 156.122 110.149 156.091 110.06C156.06 109.971 156.011 109.889 155.948 109.819C155.886 109.749 155.81 109.692 155.725 109.651C155.64 109.611 155.548 109.587 155.454 109.582C155.265 109.572 155.079 109.637 154.938 109.764C154.796 109.891 154.711 110.069 154.701 110.259C154.294 117.773 157.367 123.788 160.523 128.487C162.101 130.837 163.703 132.868 164.909 134.592C166.115 136.315 166.881 137.75 166.945 138.702C167.267 143.548 165.946 147.34 164.604 150.051C163.932 151.407 163.258 152.486 162.768 153.305C162.523 153.715 162.325 154.054 162.185 154.374C162.116 154.535 162.057 154.69 162.03 154.884C162.002 155.079 162.011 155.362 162.193 155.614C164.107 158.271 166.843 160.263 169.193 161.527C170.369 162.159 171.445 162.608 172.306 162.862C172.736 162.989 173.109 163.069 173.449 163.091C173.79 163.113 174.182 163.17 174.548 162.722C174.713 162.52 174.827 162.31 175.026 161.941C175.225 161.571 175.473 161.079 175.757 160.465C176.325 159.237 177.041 157.527 177.792 155.389C179.294 151.113 180.937 145.124 181.808 137.881C181.972 136.522 181.833 134.481 181.509 131.989C181.185 129.496 180.664 126.58 180.02 123.606C178.732 117.66 176.974 111.52 175.231 108.056C171.103 99.8471 164.936 95.3387 159.461 92.8245C156.724 91.5674 154.158 90.8036 152.095 90.3106C150.032 89.8175 148.434 89.5841 147.798 89.4336V89.4333Z" fill="black"/>
<path d="M151.243 132.76C151.15 132.735 151.051 132.729 150.955 132.743C150.859 132.757 150.767 132.79 150.684 132.841C150.601 132.892 150.529 132.959 150.473 133.038C150.417 133.118 150.377 133.208 150.357 133.303L144.6 160.369C144.562 160.545 144.592 160.728 144.684 160.883C144.776 161.038 144.922 161.153 145.094 161.205L154.014 163.882C154.196 163.937 154.392 163.917 154.559 163.827C154.726 163.737 154.851 163.584 154.906 163.402C154.933 163.312 154.942 163.217 154.932 163.123C154.923 163.03 154.895 162.939 154.85 162.856C154.805 162.773 154.745 162.7 154.672 162.64C154.599 162.581 154.515 162.536 154.425 162.509L146.137 160.021L151.6 134.342L167.341 138.597C167.431 138.621 167.526 138.628 167.619 138.616C167.713 138.604 167.802 138.573 167.884 138.526C167.965 138.479 168.037 138.417 168.094 138.342C168.152 138.268 168.194 138.182 168.218 138.091C168.243 138.001 168.249 137.906 168.237 137.812C168.225 137.719 168.195 137.629 168.148 137.547C168.101 137.466 168.038 137.394 167.964 137.337C167.889 137.279 167.804 137.237 167.714 137.212L151.243 132.76ZM180.767 140.742C180.584 140.692 180.389 140.718 180.224 140.813C180.06 140.907 179.939 141.064 179.89 141.247C179.84 141.431 179.866 141.626 179.96 141.791C180.055 141.956 180.211 142.077 180.394 142.126L187.533 144.056L180.654 170.383L165.154 165.73C164.972 165.675 164.776 165.695 164.609 165.786C164.442 165.876 164.317 166.029 164.262 166.211C164.235 166.301 164.226 166.396 164.236 166.489C164.246 166.583 164.273 166.674 164.318 166.757C164.363 166.84 164.423 166.913 164.496 166.972C164.569 167.032 164.653 167.076 164.743 167.104L180.954 171.97C181.046 171.998 181.142 172.006 181.238 171.996C181.333 171.985 181.426 171.955 181.51 171.908C181.593 171.861 181.667 171.798 181.726 171.721C181.784 171.645 181.827 171.558 181.852 171.465L189.098 143.731C189.146 143.547 189.119 143.353 189.025 143.189C188.93 143.026 188.774 142.906 188.592 142.857L180.767 140.742Z" fill="black"/>
<path d="M159.299 159.426C159.118 159.481 158.965 159.605 158.875 159.773C158.712 160.075 158.191 160.641 157.407 161.124C156.623 161.607 155.58 162.034 154.35 162.218C154.349 162.218 154.349 162.218 154.348 162.218C154.013 162.269 153.8 162.479 153.673 162.681C153.547 162.883 153.488 163.102 153.47 163.335C153.435 163.803 153.577 164.33 153.931 164.879C154.638 165.978 156.171 167.172 159.268 168.262C159.447 168.324 159.644 168.314 159.815 168.231C159.986 168.149 160.117 168.002 160.18 167.823C160.243 167.643 160.232 167.446 160.15 167.275C160.068 167.103 159.921 166.972 159.742 166.908C156.82 165.881 155.574 164.785 155.134 164.102C154.971 163.849 154.93 163.681 154.915 163.563C156.19 163.325 157.293 162.877 158.157 162.345C159.102 161.763 159.775 161.121 160.135 160.452C160.225 160.285 160.245 160.088 160.19 159.906C160.136 159.724 160.011 159.571 159.844 159.481C159.677 159.391 159.481 159.371 159.299 159.426L159.299 159.426ZM154.564 163.635C154.564 163.635 154.564 163.635 154.563 163.635H154.561C154.562 163.635 154.563 163.635 154.564 163.635Z" fill="black"/>
<path d="M169.52 160.292C169.429 160.316 169.343 160.357 169.268 160.414C169.193 160.471 169.13 160.542 169.082 160.623C169.082 160.623 168.115 162.27 166.593 163.936C165.071 165.602 163.015 167.194 161.045 167.269C160.855 167.276 160.676 167.359 160.547 167.498C160.418 167.637 160.349 167.822 160.356 168.012C160.364 168.202 160.446 168.382 160.585 168.511C160.724 168.64 160.909 168.709 161.099 168.702C163.755 168.601 166.013 166.694 167.649 164.904C169.284 163.114 170.317 161.349 170.317 161.349C170.413 161.185 170.44 160.99 170.393 160.805C170.345 160.621 170.226 160.464 170.062 160.368C169.899 160.271 169.703 160.244 169.52 160.292Z" fill="black"/>
<path d="M162.816 154.718C162.63 154.751 162.463 154.857 162.355 155.013C162.309 155.079 161.715 155.633 161.132 156.038C160.84 156.241 160.54 156.43 160.287 156.569C160.034 156.708 159.8 156.79 159.794 156.791C158.816 156.977 157.601 157.014 156.646 158.025C155.835 158.882 155.122 159.22 154.559 159.446C154.278 159.558 154.039 159.628 153.775 159.769C153.643 159.84 153.489 159.934 153.352 160.121C153.215 160.308 153.145 160.599 153.173 160.823C153.25 161.441 153.659 161.633 154.014 161.816C154.368 161.999 154.79 162.135 155.265 162.233C156.215 162.429 157.369 162.474 158.426 162.134C158.607 162.076 158.757 161.949 158.844 161.779C158.931 161.61 158.947 161.414 158.889 161.233C158.86 161.143 158.814 161.06 158.753 160.988C158.693 160.916 158.618 160.857 158.535 160.814C158.451 160.771 158.36 160.745 158.266 160.737C158.172 160.729 158.078 160.74 157.989 160.769C157.276 160.998 156.305 160.983 155.554 160.828C155.408 160.798 155.335 160.755 155.21 160.717C155.856 160.449 156.756 159.993 157.686 159.01H157.686C158.232 158.433 158.949 158.412 160.061 158.2C160.397 158.136 160.66 157.999 160.974 157.827C161.287 157.655 161.622 157.443 161.947 157.216C162.599 156.763 163.171 156.346 163.528 155.834C163.636 155.679 163.679 155.486 163.646 155.299C163.612 155.112 163.506 154.945 163.351 154.836C163.274 154.782 163.187 154.744 163.095 154.724C163.003 154.704 162.908 154.702 162.816 154.718L162.816 154.718Z" fill="black"/>
<path d="M151.75 131.42C151.567 131.37 151.372 131.394 151.207 131.488C151.041 131.582 150.92 131.737 150.87 131.92C150.845 132.011 150.838 132.106 150.849 132.199C150.861 132.293 150.89 132.383 150.937 132.465C150.983 132.547 151.045 132.619 151.119 132.677C151.193 132.735 151.278 132.777 151.369 132.803L166.679 137.04C166.862 137.09 167.058 137.066 167.223 136.972C167.388 136.878 167.509 136.723 167.56 136.54C167.585 136.449 167.592 136.354 167.581 136.261C167.569 136.167 167.539 136.077 167.493 135.995C167.447 135.913 167.385 135.841 167.31 135.783C167.236 135.725 167.151 135.683 167.061 135.657L151.75 131.42ZM180.965 139.504C180.782 139.454 180.586 139.478 180.421 139.572C180.256 139.665 180.135 139.821 180.084 140.004C180.059 140.095 180.052 140.19 180.064 140.283C180.075 140.377 180.105 140.467 180.151 140.549C180.198 140.631 180.26 140.703 180.334 140.761C180.408 140.818 180.493 140.861 180.583 140.886L188.214 142.998C188.397 143.048 188.593 143.024 188.758 142.93C188.923 142.837 189.044 142.681 189.095 142.498C189.12 142.407 189.127 142.312 189.116 142.219C189.104 142.125 189.074 142.035 189.028 141.953C188.982 141.871 188.92 141.799 188.845 141.741C188.771 141.683 188.686 141.641 188.596 141.616L180.965 139.504Z" fill="black"/>
<path d="M152.092 130.05C152.002 130.025 151.907 130.018 151.814 130.03C151.72 130.041 151.63 130.071 151.548 130.118C151.467 130.164 151.395 130.226 151.337 130.3C151.279 130.375 151.236 130.46 151.211 130.55C151.186 130.641 151.179 130.736 151.191 130.829C151.203 130.923 151.232 131.013 151.279 131.095C151.325 131.177 151.387 131.249 151.461 131.307C151.535 131.365 151.62 131.407 151.711 131.433L165.581 135.27C165.764 135.321 165.959 135.296 166.124 135.203C166.29 135.109 166.411 134.953 166.461 134.77C166.512 134.587 166.488 134.391 166.394 134.225C166.3 134.06 166.145 133.939 165.962 133.888L152.092 130.05ZM181.163 138.095C180.98 138.044 180.785 138.068 180.62 138.162C180.455 138.256 180.333 138.412 180.283 138.595C180.232 138.778 180.257 138.974 180.35 139.139C180.444 139.305 180.599 139.426 180.782 139.477L188.557 141.628C188.74 141.678 188.935 141.654 189.1 141.56C189.265 141.466 189.387 141.311 189.437 141.128C189.462 141.037 189.469 140.942 189.458 140.849C189.446 140.755 189.416 140.665 189.37 140.583C189.323 140.501 189.261 140.429 189.187 140.371C189.113 140.313 189.028 140.271 188.938 140.246L181.163 138.095Z" fill="black"/>
<path d="M152.629 128.626C152.539 128.6 152.444 128.593 152.351 128.605C152.257 128.617 152.167 128.646 152.085 128.693C152.004 128.739 151.932 128.801 151.874 128.876C151.816 128.95 151.773 129.035 151.748 129.126C151.698 129.309 151.722 129.505 151.816 129.67C151.91 129.836 152.065 129.957 152.248 130.008L164.178 133.309C164.361 133.36 164.556 133.336 164.721 133.242C164.887 133.148 165.008 132.993 165.058 132.809C165.083 132.719 165.09 132.624 165.079 132.53C165.067 132.437 165.038 132.347 164.991 132.265C164.945 132.183 164.883 132.111 164.809 132.053C164.735 131.995 164.65 131.952 164.559 131.927L152.629 128.626ZM181.332 136.568C181.149 136.517 180.953 136.542 180.788 136.635C180.623 136.729 180.502 136.885 180.451 137.068C180.401 137.251 180.425 137.447 180.519 137.613C180.612 137.778 180.768 137.899 180.951 137.95L189.094 140.203C189.277 140.254 189.472 140.229 189.637 140.136C189.802 140.042 189.924 139.886 189.974 139.703C190.025 139.52 190 139.324 189.907 139.158C189.813 138.993 189.658 138.872 189.475 138.821L181.332 136.568Z" fill="black"/>
<path d="M147.56 90.5095C147.467 90.5211 147.377 90.5511 147.295 90.5977C147.214 90.6442 147.142 90.7064 147.084 90.7808C144.633 93.9374 141.342 95.5876 138.692 95.6497C137.367 95.6808 136.217 95.3305 135.343 94.6145C134.468 93.8986 133.836 92.8031 133.62 91.1918C133.595 91.0034 133.496 90.8327 133.345 90.7173C133.194 90.602 133.003 90.5514 132.815 90.5767C132.627 90.602 132.457 90.7012 132.342 90.8523C132.226 91.0034 132.176 91.1941 132.201 91.3826C132.456 93.2835 133.26 94.7619 134.436 95.7246C135.612 96.6874 137.125 97.1208 138.726 97.0833C141.927 97.0083 145.534 95.1129 148.214 91.6609C148.272 91.5865 148.315 91.5015 148.34 91.4107C148.364 91.32 148.371 91.2252 148.36 91.1317C148.348 91.0383 148.318 90.948 148.271 90.8662C148.225 90.7844 148.163 90.7125 148.089 90.6547C147.939 90.5381 147.749 90.4859 147.56 90.5095Z" fill="black"/>
<mask id="mask6_70_2565" style="mask-type:luminance" maskUnits="userSpaceOnUse" x="-20" y="-1063" width="445" height="2354">
<path d="M424.481 1290.62L424.481 -1062.04H-19.412L-19.412 1290.62H424.481Z" fill="white"/>
</mask>
<g mask="url(#mask6_70_2565)">
<path fill-rule="evenodd" clip-rule="evenodd" d="M132.911 91.287C133.853 98.3116 142.518 97.8294 147.649 91.2207C147.418 93.6333 139.695 126.723 142.655 163.839C135.892 163.816 130.66 163.757 126.614 163.669C125.418 110.294 130.543 95.5907 132.911 91.287Z" fill="black"/>
</g>
<path d="M80.6373 132.83C80.5475 132.802 80.4531 132.792 80.3594 132.801C80.2658 132.81 80.1748 132.837 80.0917 132.881C80.0917 132.881 79.1661 133.369 78.0528 133.85C76.9397 134.332 75.5568 134.765 75.0932 134.752C73.8607 134.715 73.0106 134.454 71.9326 134.599C71.3422 134.677 70.8615 134.949 70.15 135.181C69.4383 135.414 68.6126 135.61 67.8196 135.572H67.8192C67.527 135.558 67.206 135.727 67.0488 135.929C66.8917 136.13 66.8403 136.332 66.8174 136.522C66.7717 136.901 66.8505 137.276 67.0296 137.66C67.3878 138.429 68.2382 139.199 69.561 139.36H69.5617C70.1686 139.433 70.8806 139.377 71.4824 139.316C71.8562 139.277 71.9599 139.257 72.1536 139.229C72.7455 139.877 74.2174 141.166 76.576 141.179C76.67 141.18 76.7632 141.162 76.8502 141.126C76.9373 141.091 77.0165 141.038 77.0833 140.972C77.1501 140.906 77.2033 140.827 77.2397 140.74C77.2762 140.654 77.2952 140.56 77.2957 140.466C77.2967 140.276 77.2223 140.093 77.0889 139.958C76.9554 139.823 76.7738 139.747 76.584 139.745C74.0992 139.731 73.0456 138.072 73.0456 138.072C72.9695 137.958 72.8622 137.867 72.7364 137.812C72.6106 137.757 72.4716 137.739 72.336 137.761C72.336 137.761 71.8954 137.832 71.337 137.889C70.7789 137.946 70.0904 137.98 69.7344 137.937C68.854 137.829 68.4905 137.405 68.3271 137.054C68.3136 137.025 68.3223 137.022 68.3124 136.994C69.1611 136.955 69.9456 136.757 70.5943 136.545C71.3847 136.286 72.0956 136.023 72.1225 136.02H72.1228C72.8357 135.924 73.662 136.143 75.0509 136.185C75.0513 136.185 75.0517 136.185 75.052 136.185C76.1554 136.217 77.4486 135.673 78.6201 135.166C79.7917 134.66 80.7593 134.149 80.7593 134.149C80.9272 134.06 81.053 133.908 81.1091 133.727C81.1652 133.545 81.147 133.348 81.0586 133.18C80.9701 133.012 80.8186 132.886 80.6374 132.83L80.6373 132.83Z" fill="black"/>
<path d="M73.8693 139.081C73.6815 139.109 73.5124 139.21 73.3992 139.363C73.286 139.515 73.238 139.707 73.2657 139.895C73.2657 139.895 73.691 143.357 76.4846 144.613C76.7251 144.721 76.7386 144.849 76.6975 145.014C76.6564 145.179 76.5403 145.381 76.062 145.413C73.071 145.611 69.8006 144.752 67.1078 142.302C66.9044 142.116 66.7634 142.093 66.6237 142.055C66.484 142.017 66.3443 141.994 66.1906 141.975C65.8832 141.938 65.5232 141.92 65.1276 141.916C65.0336 141.914 64.9403 141.932 64.853 141.967C64.7658 142.002 64.6862 142.054 64.619 142.12C64.5517 142.185 64.4981 142.264 64.4611 142.35C64.4241 142.437 64.4045 142.53 64.4034 142.624C64.4023 142.718 64.4197 142.812 64.4546 142.899C64.4896 142.987 64.5414 143.066 64.6071 143.134C64.6728 143.201 64.7511 143.255 64.8375 143.292C64.924 143.329 65.0168 143.348 65.1108 143.349C65.4726 143.354 65.7952 143.371 66.0162 143.399C66.1197 143.411 66.1945 143.427 66.2353 143.437C69.2169 146.104 72.855 147.062 76.1564 146.843C77.1437 146.778 77.8938 146.135 78.0866 145.36C78.2793 144.584 77.8943 143.675 77.0712 143.305C75.1751 142.453 74.682 139.686 74.682 139.686C74.6543 139.497 74.5531 139.328 74.4007 139.215C74.2483 139.101 74.0572 139.053 73.8693 139.081Z" fill="black"/>
<path d="M69.4926 132.005C69.2012 132.026 68.9313 132.073 68.6869 132.143H68.6866C67.6416 132.442 65.394 132.912 63.6783 133.179C63.4907 133.209 63.3225 133.311 63.2105 133.465C63.0985 133.618 63.0521 133.81 63.0813 133.998C63.1106 134.186 63.2131 134.354 63.3663 134.467C63.5196 134.579 63.711 134.625 63.8985 134.596C65.6746 134.319 67.9001 133.86 69.0802 133.521C69.5939 133.374 70.7471 133.379 72.023 133.93H72.0237C72.6092 134.182 73.2777 134.337 73.8486 134.46C74.1341 134.522 74.3941 134.573 74.5921 134.617C74.6545 134.631 74.6385 134.627 74.6889 134.641C74.6733 134.693 74.6437 134.743 74.5247 134.791C74.4374 134.826 74.358 134.878 74.2908 134.944C74.2237 135.01 74.1702 135.088 74.1333 135.175C74.0965 135.262 74.0771 135.355 74.0761 135.449C74.0752 135.543 74.0928 135.636 74.1279 135.724C74.1989 135.9 74.3369 136.041 74.5116 136.115C74.6863 136.19 74.8834 136.192 75.0595 136.121C75.6864 135.868 76.0475 135.303 76.1238 134.793C76.162 134.538 76.1451 134.291 76.063 134.051C75.9809 133.811 75.8284 133.544 75.4999 133.391C75.499 133.391 75.498 133.39 75.4971 133.39C75.271 133.286 75.1202 133.265 74.8997 133.216C74.6793 133.168 74.4226 133.117 74.1503 133.058C73.6057 132.94 72.9941 132.786 72.5892 132.612C71.4347 132.114 70.3667 131.941 69.4926 132.004L69.4926 132.005Z" fill="black"/>
<path d="M82.0047 140.816C81.9138 140.792 81.819 140.786 81.7258 140.798C81.6326 140.811 81.5428 140.842 81.4615 140.889C81.4615 140.889 80.6416 141.366 79.5827 141.89C78.5239 142.413 77.2056 142.973 76.3879 143.128C76.2013 143.163 76.0364 143.271 75.9293 143.428C75.8223 143.585 75.7819 143.778 75.8171 143.965C75.8345 144.057 75.87 144.146 75.9214 144.224C75.9729 144.303 76.0394 144.371 76.1171 144.424C76.1947 144.477 76.2821 144.515 76.3742 144.534C76.4662 144.553 76.5611 144.554 76.6535 144.537C77.7785 144.324 79.1106 143.722 80.2164 143.176C81.3223 142.629 82.1812 142.129 82.1812 142.129C82.2625 142.081 82.3337 142.018 82.3907 141.944C82.4477 141.869 82.4894 141.783 82.5134 141.692C82.5375 141.601 82.5434 141.506 82.5308 141.413C82.5183 141.32 82.4875 141.23 82.4402 141.148C82.3448 140.984 82.1882 140.865 82.0047 140.816Z" fill="black"/>
<path d="M13.6928 104.229C13.5131 104.291 13.3653 104.421 13.2817 104.592C13.2403 104.677 13.2159 104.769 13.2099 104.863C13.204 104.957 13.2166 105.051 13.247 105.14C13.2774 105.229 13.325 105.311 13.3872 105.382C13.4493 105.453 13.5248 105.51 13.6092 105.552C18.225 107.82 22.1966 112.663 25.5171 117.34C27.1773 119.679 28.6782 121.97 30.0475 123.874C31.4168 125.778 32.6225 127.298 33.8729 128.128C33.9513 128.18 34.0391 128.216 34.1314 128.234C34.2237 128.252 34.3187 128.252 34.4108 128.233C34.503 128.214 34.5905 128.177 34.6685 128.125C34.7465 128.072 34.8133 128.005 34.8653 127.926C34.9701 127.768 35.0078 127.574 34.97 127.388C34.9323 127.201 34.8222 127.038 34.6639 126.933C33.7585 126.332 32.5501 124.901 31.2094 123.036C29.8687 121.172 28.3637 118.875 26.6839 116.509C23.3242 111.777 19.2799 106.741 14.2398 104.264C14.1554 104.223 14.0636 104.198 13.9697 104.192C13.8759 104.186 13.7818 104.199 13.6928 104.229Z" fill="black"/>
<path d="M3.66591 123.549C3.4797 123.512 3.28659 123.551 3.12901 123.657C2.9714 123.763 2.86224 123.927 2.82553 124.113C2.78882 124.3 2.82757 124.493 2.93327 124.651C12.7352 139.284 31.564 150.16 35.4268 152.31C35.4269 152.31 35.427 152.31 35.4271 152.31C36.71 153.023 38.6106 152.986 40.9349 152.751C43.2592 152.516 45.9718 151.999 48.6154 151.398C53.9023 150.196 58.8486 148.678 59.7966 148.352C60.9793 147.946 61.4802 147.279 61.8358 146.892C62.1914 146.505 62.4658 146.227 63.86 145.974H63.859C64.2426 145.905 64.6465 145.702 64.9495 145.366C65.2525 145.031 65.4608 144.592 65.6081 144.041C65.9026 142.941 65.9776 141.349 65.816 138.869C65.6611 136.49 65.2577 134.947 64.6702 133.924C64.0831 132.902 63.2076 132.405 62.4063 132.42H62.4048C55.9326 132.539 49.1044 131.157 43.59 129.502C40.8326 128.674 38.4025 127.779 36.5107 126.975C34.6188 126.172 33.2386 125.432 32.7055 125.035C32.5532 124.922 32.3621 124.874 32.1743 124.902C31.9865 124.929 31.8174 125.031 31.7041 125.183C31.5909 125.336 31.5428 125.527 31.5705 125.715C31.5982 125.903 31.6993 126.073 31.8516 126.186C32.6156 126.755 34.0059 127.469 35.9514 128.295C37.8969 129.122 40.3712 130.033 43.1789 130.875C48.7943 132.561 55.7391 133.977 62.4324 133.854C62.4328 133.854 62.4331 133.854 62.4335 133.854C62.7049 133.849 63.019 133.925 63.429 134.639C63.839 135.353 64.2407 136.71 64.3875 138.963C64.5442 141.369 64.4415 142.862 64.2253 143.67C64.1171 144.074 63.9862 144.296 63.8876 144.405C63.789 144.514 63.7289 144.54 63.6055 144.563C63.6052 144.563 63.6048 144.563 63.6045 144.563C62.011 144.852 61.2431 145.42 60.7826 145.921C60.3221 146.422 60.2328 146.686 59.3323 146.995C58.5539 147.263 53.5186 148.813 48.2987 150C45.6887 150.593 43.0165 151.1 40.7912 151.325C38.5659 151.549 36.7521 151.407 36.122 151.056C32.3323 148.947 13.6314 138.049 4.12201 123.852C4.0162 123.695 3.85217 123.585 3.66591 123.549Z" fill="black"/>
<path d="M47.3659 105.996C47.1821 106.044 47.0249 106.163 46.9287 106.327C46.8326 106.49 46.8053 106.686 46.8531 106.87C47.9071 110.929 47.9177 116.491 47.6843 121.3C47.5676 123.705 47.3932 125.925 47.2694 127.696C47.1455 129.467 47.0472 130.708 47.168 131.501C47.1966 131.689 47.2986 131.858 47.4515 131.97C47.6045 132.083 47.7958 132.13 47.9835 132.102C48.1712 132.073 48.3398 131.971 48.4523 131.818C48.5648 131.664 48.6119 131.473 48.5833 131.285C48.5289 130.927 48.5745 129.557 48.6976 127.796C48.8207 126.035 48.9963 123.801 49.1143 121.37C49.3503 116.508 49.3712 110.869 48.239 106.509C48.2153 106.418 48.174 106.332 48.1173 106.257C48.0606 106.182 47.9896 106.119 47.9086 106.071C47.8275 106.024 47.7378 105.992 47.6447 105.979C47.5516 105.967 47.4568 105.972 47.3659 105.996Z" fill="black"/>
<path d="M30.6447 66.4651C29.8913 66.4437 29.2596 66.5816 28.7589 66.7921C27.7576 67.213 27.2524 67.9449 27.2524 67.9449C27.2 68.0231 27.1635 68.1108 27.1449 68.2031C27.1264 68.2955 27.1262 68.3905 27.1443 68.4829C27.1625 68.5753 27.1986 68.6632 27.2507 68.7416C27.3027 68.82 27.3697 68.8873 27.4478 68.9398C27.5258 68.9923 27.6134 69.0289 27.7056 69.0475C27.7978 69.066 27.8927 69.0662 27.9849 69.0481C28.0772 69.0299 28.165 68.9937 28.2432 68.9416C28.3215 68.8894 28.3888 68.8223 28.4412 68.7441C28.4412 68.7441 28.6668 68.3861 29.3133 68.1143C29.9598 67.8425 30.9998 67.6783 32.693 68.4112C32.7793 68.4486 32.8721 68.4686 32.9662 68.47C33.0602 68.4714 33.1536 68.4543 33.241 68.4196C33.3284 68.3849 33.4082 68.3332 33.4756 68.2677C33.5431 68.2021 33.597 68.1238 33.6343 68.0373C33.7096 67.8627 33.7125 67.6654 33.6425 67.4886C33.5725 67.3119 33.4353 67.1703 33.261 67.0949C32.2731 66.6673 31.3981 66.4865 30.6447 66.4651Z" fill="black"/>
<path d="M25.3088 60.769C25.1958 60.8211 25.0984 60.9018 25.026 61.0032C24.9537 61.1045 24.909 61.223 24.8963 61.347C24.5974 64.2615 23.6446 66.4906 21.7721 67.9632C21.6981 68.0213 21.6363 68.0935 21.5902 68.1756C21.5441 68.2577 21.5146 68.348 21.5034 68.4415C21.4922 68.535 21.4994 68.6298 21.5248 68.7205C21.5501 68.8112 21.5931 68.896 21.6512 68.97C21.7092 69.0441 21.7813 69.106 21.8632 69.1522C21.9452 69.1983 22.0354 69.2279 22.1287 69.2392C22.2221 69.2504 22.3168 69.2431 22.4073 69.2177C22.4978 69.1923 22.5825 69.1493 22.6564 69.0912C24.6236 67.5441 25.6706 65.2695 26.1264 62.6125C30.6122 65.5358 35.3355 67.2852 40.2748 67.813C40.3285 68.579 40.5366 71.7899 40.2787 75.8604C39.9881 80.4447 38.9579 85.5287 36.8199 87.4443C35.6197 88.5191 33.3196 89.1455 30.8857 88.9195C28.4516 88.6935 25.9169 87.6538 24.1553 85.6368C24.0934 85.5659 24.0182 85.508 23.9339 85.4662C23.8496 85.4245 23.758 85.3998 23.6642 85.3935C23.5704 85.3872 23.4762 85.3995 23.3872 85.4296C23.2981 85.4598 23.2159 85.5072 23.1451 85.5692C23.0743 85.6312 23.0165 85.7066 22.9748 85.791C22.9331 85.8754 22.9084 85.9671 22.9022 86.0611C22.8959 86.155 22.9082 86.2493 22.9383 86.3385C22.9684 86.4277 23.0157 86.5101 23.0776 86.581C25.1248 88.9249 28.0098 90.0927 30.7536 90.3475C33.4974 90.6023 36.1333 89.9833 37.7745 88.5131C40.6078 85.9745 41.4094 80.6562 41.7076 75.9517C42.0057 71.2473 41.674 67.117 41.674 67.117C41.6605 66.9479 41.5875 66.789 41.468 66.6687C41.3485 66.5484 41.1903 66.4744 41.0214 66.4599C35.7745 66.0105 30.7864 64.136 26.0156 60.8309C25.9132 60.7601 25.7943 60.7171 25.6703 60.7063C25.5464 60.6955 25.4218 60.7172 25.3088 60.7693L25.3088 60.769ZM21.5299 69.2172C21.4359 69.2187 21.3431 69.2387 21.2568 69.2762C21.1705 69.3136 21.0924 69.3676 21.027 69.4353C20.9616 69.5029 20.9102 69.5829 20.8756 69.6705C20.841 69.758 20.824 69.8516 20.8255 69.9457C20.8913 74.0866 21.1911 91.0375 21.8619 98.5619C21.8891 98.8657 21.8735 99.3395 21.5872 99.819C21.3009 100.298 20.7319 100.839 19.4333 101.223C19.3431 101.249 19.2591 101.294 19.1859 101.353C19.1128 101.412 19.052 101.485 19.0071 101.568C18.9621 101.65 18.9339 101.741 18.9239 101.835C18.914 101.928 18.9226 102.023 18.9492 102.113C18.9758 102.204 19.0199 102.288 19.079 102.361C19.138 102.434 19.211 102.495 19.2935 102.54C19.3761 102.585 19.4667 102.614 19.5602 102.624C19.6537 102.634 19.7482 102.625 19.8384 102.598C21.3918 102.139 22.3279 101.372 22.8158 100.555C23.3038 99.7375 23.332 98.926 23.2881 98.4341C22.631 91.0634 22.3229 74.0552 22.2573 69.9223C22.2558 69.8281 22.2358 69.7352 22.1984 69.6488C22.161 69.5623 22.107 69.4842 22.0395 69.4187C21.9719 69.3532 21.8921 69.3016 21.8047 69.267C21.7173 69.2324 21.6239 69.2153 21.5299 69.2168V69.2172Z" fill="black"/>
<path d="M34.2959 88.7124C34.1063 88.7052 33.9215 88.7736 33.7822 88.9027C33.6429 89.0318 33.5605 89.2111 33.5531 89.4011C33.5391 89.7662 33.5199 90.1886 33.5053 90.6428C33.5022 90.7369 33.5177 90.8307 33.5509 90.9188C33.584 91.0069 33.6342 91.0876 33.6985 91.1563C33.7628 91.225 33.84 91.2803 33.9256 91.3192C34.0113 91.358 34.1037 91.3795 34.1977 91.3825C34.3874 91.3887 34.5718 91.3191 34.7103 91.1891C34.8488 91.0591 34.9301 90.8794 34.9363 90.6894C34.9505 90.2471 34.9695 89.8292 34.9838 89.4564C34.9874 89.3623 34.9725 89.2684 34.9399 89.1801C34.9073 89.0918 34.8576 89.0108 34.7937 88.9417C34.7298 88.8727 34.653 88.8168 34.5676 88.7775C34.4822 88.7381 34.3899 88.7161 34.2959 88.7124ZM34.2264 91.8236C34.1324 91.8245 34.0394 91.844 33.9529 91.8809C33.8664 91.9177 33.788 91.9714 33.7222 92.0386C33.6564 92.1058 33.6044 92.1854 33.5693 92.2727C33.5342 92.36 33.5166 92.4534 33.5175 92.5476C33.5239 93.1918 33.3122 95.5088 34.9038 97.0371C35.0649 97.1918 35.1835 97.2478 35.3418 97.3325C35.5 97.4173 35.6859 97.5061 35.9038 97.6049C36.3396 97.8026 36.9009 98.0377 37.5544 98.3082C38.8613 98.8493 40.5335 99.53 42.2229 100.289C43.9122 101.048 45.6195 101.887 46.9745 102.727C48.3296 103.567 49.3075 104.456 49.5737 105.028C49.9358 105.806 50.4599 107.694 51.0209 110.061C51.5818 112.429 52.2062 115.314 52.8787 118.268C54.2237 124.176 55.706 130.295 57.4367 133.362C57.483 133.444 57.5449 133.517 57.6189 133.575C57.693 133.633 57.7777 133.675 57.8683 133.701C57.9589 133.726 58.0536 133.733 58.1469 133.722C58.2403 133.71 58.3304 133.68 58.4123 133.634C58.4941 133.588 58.5661 133.526 58.624 133.451C58.6819 133.377 58.7247 133.292 58.7498 133.202C58.775 133.111 58.782 133.016 58.7706 132.923C58.7592 132.829 58.7295 132.739 58.6832 132.657C57.1948 130.019 55.6153 123.837 54.2748 117.949C53.6045 115.005 52.98 112.12 52.4138 109.73C51.8476 107.34 51.3663 105.485 50.8716 104.422C50.3473 103.296 49.1764 102.406 47.7278 101.508C46.2793 100.61 44.5283 99.753 42.8087 98.9804C41.0891 98.2078 39.4013 97.5214 38.1014 96.9832C37.4514 96.714 36.8977 96.4816 36.4945 96.2987C36.293 96.2073 36.1284 96.1277 36.0164 96.0677C35.9043 96.0077 35.8325 95.9425 35.8944 96.0019C34.8876 95.0351 34.9578 93.3836 34.9492 92.5332C34.9473 92.3432 34.87 92.1616 34.7345 92.0285C34.5989 91.8954 34.4162 91.8218 34.2264 91.8236Z" fill="black"/>
<path d="M39.152 66.2661C37.644 66.4673 36.7506 67.2155 36.7506 67.2155C36.6794 67.277 36.621 67.352 36.5788 67.4361C36.5365 67.5203 36.5112 67.6119 36.5044 67.7058C36.4975 67.7997 36.5091 67.8941 36.5387 67.9835C36.5682 68.0729 36.615 68.1556 36.6765 68.2269C36.8006 68.3707 36.9767 68.4593 37.166 68.4732C37.3553 68.487 37.5423 68.425 37.686 68.3008C37.686 68.3008 38.1896 67.8411 39.3411 67.6874C39.4343 67.675 39.5241 67.6443 39.6055 67.5971C39.6869 67.5499 39.7582 67.4871 39.8153 67.4122C39.8724 67.3374 39.9143 67.2522 39.9385 67.1612C39.9627 67.0701 39.9687 66.9752 39.9563 66.8819C39.9438 66.7885 39.9132 66.6986 39.866 66.6171C39.8189 66.5357 39.7561 66.4643 39.6815 66.4072C39.6068 66.35 39.5216 66.308 39.4307 66.2838C39.3399 66.2596 39.2451 66.2536 39.152 66.2661Z" fill="black"/>
<path d="M36.0878 68.0113C35.9955 68.029 35.9075 68.0649 35.829 68.1167C35.7505 68.1686 35.683 68.2354 35.6303 68.3134C35.3873 68.6727 35.2624 69.0884 35.1336 69.6545C35.0047 70.2207 34.9068 70.9108 34.8739 71.678C34.808 73.2124 34.9978 75.0572 35.8008 76.7472C35.8354 76.8204 35.854 76.8959 35.855 76.9265C35.8561 76.9572 35.8684 76.9351 35.8382 76.9709C35.7779 77.0428 35.2978 77.3584 33.9294 77.4166C33.8355 77.4205 33.7432 77.443 33.6579 77.4827C33.5727 77.5223 33.496 77.5785 33.4324 77.6478C33.3688 77.7172 33.3194 77.7984 33.2871 77.8868C33.2549 77.9753 33.2403 78.0692 33.2443 78.1633C33.2524 78.3533 33.3355 78.5323 33.4753 78.6609C33.6151 78.7895 33.8002 78.8572 33.9899 78.8491C35.5319 78.7836 36.4173 78.5093 36.9341 77.8937C37.1925 77.586 37.2963 77.1957 37.2861 76.8799C37.2758 76.5641 37.1809 76.3152 37.0938 76.1314H37.0935C36.429 74.7331 36.2457 73.1025 36.3042 71.7403C36.3334 71.0593 36.4219 70.4457 36.5293 69.9738C36.6367 69.5019 36.7977 69.1451 36.8159 69.1182C36.8687 69.0402 36.9056 68.9526 36.9245 68.8603C36.9434 68.768 36.944 68.673 36.9262 68.5805C36.9084 68.488 36.8726 68.3999 36.8208 68.3213C36.769 68.2426 36.7023 68.175 36.6244 68.1222C36.4672 68.0157 36.2742 67.976 36.0878 68.012V68.0113Z" fill="black"/>
<path d="M30.2834 78.498C30.0293 78.5569 29.8676 78.7071 29.7651 78.8355C29.5601 79.092 29.4966 79.3334 29.44 79.6098C29.3267 80.1627 29.3273 80.8553 29.4921 81.6015C29.6568 82.3476 29.9952 83.1458 30.6176 83.8014C31.24 84.457 32.1544 84.9428 33.322 85.0501H33.3217C34.0326 85.116 34.6704 84.8267 35.1526 84.4326C35.6347 84.0384 35.9969 83.5345 36.2571 83.0263C36.5173 82.5181 36.6831 82.0199 36.693 81.5195C36.6979 81.2693 36.6738 80.9958 36.4808 80.7154C36.288 80.4352 35.8645 80.256 35.5385 80.2848H35.5377C33.3027 80.4819 31.7836 79.2204 30.9965 78.6492C30.8278 78.5268 30.5376 78.4394 30.2834 78.4983L30.2834 78.498ZM30.8137 80.2851C31.7054 80.9037 33.2312 81.7528 35.2169 81.717C35.1765 81.899 35.1095 82.1246 34.983 82.3716C34.7985 82.7321 34.5282 83.0918 34.2473 83.3214C33.9663 83.5511 33.7104 83.6459 33.4534 83.6221C33.4532 83.6221 33.453 83.6221 33.4527 83.6221C32.593 83.5431 32.0525 83.2317 31.655 82.8131C31.2576 82.3945 31.0112 81.8409 30.8899 81.2916C30.8075 80.9188 30.7993 80.5785 30.8137 80.2851Z" fill="black"/>
<mask id="mask7_70_2565" style="mask-type:luminance" maskUnits="userSpaceOnUse" x="-20" y="-1063" width="445" height="2354">
<path d="M424.481 1290.62L424.481 -1062.04H-19.412L-19.412 1290.62H424.481Z" fill="white"/>
</mask>
<g mask="url(#mask7_70_2565)">
<path fill-rule="evenodd" clip-rule="evenodd" d="M31.5219 71.3824C31.5219 71.6929 31.4459 71.9908 31.3106 72.2104C31.1753 72.43 30.9918 72.5534 30.8005 72.5534C30.6092 72.5534 30.4257 72.43 30.2904 72.2104C30.1551 71.9908 30.0791 71.6929 30.0791 71.3824C30.0791 71.0718 30.1551 70.7739 30.2904 70.5543C30.4257 70.3347 30.6092 70.2114 30.8005 70.2114C30.9918 70.2114 31.1753 70.3347 31.3106 70.5543C31.4459 70.7739 31.5219 71.0718 31.5219 71.3824Z" fill="black"/>
</g>
<mask id="mask8_70_2565" style="mask-type:luminance" maskUnits="userSpaceOnUse" x="-20" y="-1063" width="445" height="2354">
<path d="M424.481 1290.62L424.481 -1062.04H-19.412L-19.412 1290.62H424.481Z" fill="white"/>
</mask>
<g mask="url(#mask8_70_2565)">
<path fill-rule="evenodd" clip-rule="evenodd" d="M39.2465 71.3824C39.2465 71.6929 39.1705 71.9908 39.0352 72.2104C38.8999 72.43 38.7165 72.5534 38.5251 72.5534C38.3338 72.5534 38.1503 72.43 38.015 72.2104C37.8797 71.9908 37.8037 71.6929 37.8037 71.3824C37.8037 71.0718 37.8797 70.7739 38.015 70.5543C38.1503 70.3347 38.3338 70.2114 38.5251 70.2114C38.7165 70.2114 38.8999 70.3347 39.0352 70.5543C39.1705 70.7739 39.2465 71.0718 39.2465 71.3824Z" fill="black"/>
</g>
<path d="M34.4163 92.2628C34.2332 92.2126 34.0377 92.2372 33.8728 92.3314C30.0913 94.4929 26.393 93.9686 22.4934 92.3156C22.3186 92.2415 22.1216 92.24 21.9457 92.3113C21.7697 92.3827 21.6293 92.5211 21.5552 92.6962C21.5186 92.7829 21.4993 92.876 21.4986 92.9702C21.4978 93.0644 21.5156 93.1578 21.5509 93.2451C21.5863 93.3324 21.6384 93.4118 21.7044 93.479C21.7704 93.5461 21.8489 93.5994 21.9355 93.6361C26.0447 95.378 30.3555 95.9933 34.5827 93.577C34.6643 93.5303 34.736 93.468 34.7936 93.3935C34.8512 93.3191 34.8936 93.234 34.9183 93.1432C34.9431 93.0524 34.9498 92.9575 34.9379 92.8641C34.9261 92.7707 34.896 92.6806 34.8494 92.5988C34.7553 92.4337 34.5995 92.3128 34.4163 92.2628Z" fill="black"/>
<path d="M37.7699 96.9393C37.5803 96.9482 37.402 97.0323 37.2742 97.1729C37.1465 97.3136 37.0797 97.4992 37.0887 97.6891C37.0887 97.6891 37.3862 104.055 37.535 110.304C37.6094 113.429 37.6462 116.526 37.5909 118.767C37.5666 119.752 37.5157 120.482 37.455 121.045C33.9511 118.153 30.2817 113.257 27.4685 108.95C24.4477 104.325 22.3925 100.419 22.3925 100.419C22.304 100.251 22.1525 100.124 21.9711 100.068C21.7898 100.012 21.5936 100.03 21.4256 100.118C21.3424 100.162 21.2687 100.222 21.2086 100.295C21.1486 100.367 21.1033 100.451 21.0755 100.541C21.0477 100.631 21.0378 100.725 21.0465 100.819C21.0552 100.913 21.0822 101.004 21.1261 101.087C21.1261 101.087 23.2105 105.049 26.2706 109.734C29.3307 114.419 33.3421 119.835 37.377 122.831C37.4753 122.904 37.625 122.98 37.8105 122.992C37.9959 123.005 38.1884 122.938 38.3107 122.855C38.5551 122.689 38.6079 122.529 38.6619 122.397C38.7701 122.134 38.8112 121.88 38.8556 121.547C38.9444 120.88 38.9941 119.947 39.0223 118.802C39.0788 116.514 39.041 113.406 38.9664 110.27C38.8171 103.998 38.5186 97.6219 38.5186 97.6219C38.5142 97.5279 38.4914 97.4356 38.4514 97.3504C38.4114 97.2651 38.355 97.1886 38.2855 97.1252C38.2159 97.0619 38.1346 97.0128 38.0462 96.9809C37.9577 96.949 37.8638 96.9348 37.7699 96.9393Z" fill="black"/>
<mask id="mask9_70_2565" style="mask-type:luminance" maskUnits="userSpaceOnUse" x="-20" y="-1063" width="445" height="2354">
<path d="M424.481 1290.62L424.481 -1062.04H-19.412L-19.412 1290.62H424.481Z" fill="white"/>
</mask>
<g mask="url(#mask9_70_2565)">
<path fill-rule="evenodd" clip-rule="evenodd" d="M21.7593 100.753C22.5709 99.9374 22.6208 99.0125 22.5748 98.4981C22.4401 96.9871 22.3203 95.0835 22.2142 92.9756C26.2186 94.6731 30.2231 95.243 34.2275 92.9541C34.3089 94.483 34.5954 95.9206 35.399 96.5193C35.736 96.7702 36.6212 97.1628 37.8036 97.6557C37.8036 97.6557 38.9958 123.14 37.8036 122.255C30.0388 116.49 21.7593 100.753 21.7593 100.753Z" fill="black"/>
</g>
<path d="M64.2932 134.091L61.557 134.148C61.4629 134.15 61.3702 134.17 61.2841 134.208C61.198 134.246 61.1202 134.301 61.0551 134.369C60.99 134.437 60.939 134.517 60.9048 134.605C60.8707 134.692 60.8541 134.786 60.8561 134.88C60.8601 135.07 60.9392 135.251 61.0762 135.383C61.2133 135.514 61.3969 135.586 61.5867 135.582L64.3229 135.525C64.4169 135.523 64.5096 135.502 64.5957 135.464C64.6818 135.426 64.7596 135.372 64.8247 135.304C64.8898 135.236 64.9409 135.156 64.975 135.068C65.0092 134.98 65.0257 134.887 65.0237 134.793C65.0197 134.602 64.9405 134.422 64.8035 134.29C64.6665 134.159 64.4829 134.087 64.2932 134.091Z" fill="black"/>
<path d="M62.0796 137.492C61.8898 137.492 61.7077 137.568 61.5734 137.702C61.4392 137.837 61.3638 138.019 61.3638 138.209C61.3638 138.399 61.4392 138.582 61.5734 138.716C61.7077 138.851 61.8898 138.926 62.0796 138.926H65.0452C65.235 138.926 65.4171 138.851 65.5513 138.716C65.6856 138.582 65.761 138.399 65.761 138.209C65.761 138.019 65.6856 137.837 65.5513 137.702C65.4171 137.568 65.235 137.492 65.0452 137.492H62.0796Z" fill="black"/>
<path d="M65.141 140.686L62.2999 140.838C62.1104 140.849 61.9327 140.934 61.8059 141.075C61.679 141.217 61.6135 141.403 61.6236 141.592C61.6337 141.782 61.7187 141.96 61.8599 142.087C62.0011 142.215 62.1869 142.28 62.3765 142.27L65.2176 142.118C65.4072 142.108 65.5849 142.022 65.7118 141.881C65.8386 141.74 65.9041 141.553 65.8939 141.363C65.8837 141.174 65.7987 140.996 65.6575 140.869C65.5163 140.742 65.3305 140.676 65.141 140.686Z" fill="black"/>
<path d="M65.0182 142.696C64.6585 142.694 64.1566 142.765 63.6033 142.83C63.0499 142.896 62.5445 142.962 62.5445 142.962C62.4513 142.974 62.3614 143.004 62.2799 143.051C62.1984 143.098 62.1269 143.161 62.0695 143.235C62.0122 143.31 61.9701 143.395 61.9456 143.486C61.9211 143.577 61.9148 143.672 61.9269 143.765C61.939 143.859 61.9693 143.949 62.0162 144.03C62.0631 144.112 62.1256 144.184 62.2 144.241C62.2745 144.298 62.3596 144.341 62.4504 144.365C62.5411 144.39 62.6358 144.396 62.7291 144.384C62.7291 144.384 63.2284 144.319 63.7721 144.254C64.3158 144.189 65.0029 144.13 65.0112 144.13C65.1053 144.13 65.1984 144.112 65.2855 144.077C65.3725 144.041 65.4517 143.989 65.5185 143.922C65.5853 143.856 65.6384 143.777 65.6748 143.69C65.7112 143.604 65.7301 143.51 65.7306 143.416C65.7311 143.322 65.713 143.229 65.6775 143.142C65.6419 143.055 65.5896 142.975 65.5234 142.908C65.4573 142.841 65.3786 142.788 65.2919 142.752C65.2052 142.715 65.1122 142.696 65.0182 142.696Z" fill="black"/>
</g>
<defs>
<clipPath id="clip0_70_2565">
<rect width="190" height="172" fill="white"/>
</clipPath>
</defs>
</svg>
